<?xml version="1.0" encoding="UTF-8"?> <!-- Generator: Adobe Illustrator 23.0.6, SVG Export Plug-In . SVG Version: 6.00 Build 0) --> <svg xmlns="http://www.w3.org/2000/svg" xmlns:xlink="http://www.w3.org/1999/xlink" id="Layer_1" x="0px" y="0px" viewBox="0 0 30 30" style="enable-background:new 0 0 30 30;" xml:space="preserve"> <style type="text/css"> .st0{fill:#FFFFFF;} </style> <title>1pxFORMAT ICON- format_ott_productinsertion_2</title> <g id="OUTLINED"> <path class="st0" d="M27.2,19.9v0.2H27v-0.2H27.2z M27,19.9v0.2h1.5v-0.2H27z M29.5,3.2v23.6c0,1.5-1.2,2.7-2.7,2.7H3.2 c-1.5,0-2.7-1.2-2.7-2.7V3.2c0-1.5,1.2-2.7,2.7-2.7h23.6C28.3,0.5,29.5,1.7,29.5,3.2z M1.5,11.9H3v-1.8H1.5V11.9z M1.5,13.9H3v-1.8 H1.5V13.9z M1.5,15.9H3v-1.8H1.5V15.9z M1.5,17.9H3v-1.8H1.5V17.9z M1.5,19.9H3v-1.8H1.5V19.9z M1.5,21.9H3v-1.8H1.5V21.9z M1.5,23.9H3v-1.7H1.5V23.9z M1.5,25.9H3v-1.7H1.5V25.9z M28.5,26.1h-27v0.6c0,0.9,0.7,1.8,1.6,1.8c0,0,0.1,0,0.1,0h23.6 c0.9,0,1.7-0.8,1.7-1.7V26.1z M3.2,12.1v1.8H5v-1.8H3.2z M5,11.9v-1.8H3.2v1.8L5,11.9z M3.2,14.1v1.8H5v-1.8H3.2z M3.2,16.1v1.8H5 v-1.8L3.2,16.1z M3.2,18.1v1.8H5v-1.8L3.2,18.1z M3.2,20.1v1.8H5v-1.8L3.2,20.1z M3.2,22.1V24H5v-1.9L3.2,22.1z M3.2,24.1V26H5 v-1.9L3.2,24.1z M5.7,23.9v0.2H5.2V26H7l0,0h0.2l0,0H9l0,0h0.2l0,0H11l0,0h0.2l0,0H13v-1.9h-1.8V24H13v-0.4h0.2V24H15v-0.4h0.2V24 H17v-1.9h-1.5v-0.2H17v-1.7l0.2-0.1v1.8H19v-1.8h-1.6h0.1l0.2-0.1l0.2-0.1H19v-1l0.2-0.3l0,0V20H21v-1.9h-1.6 c0-0.1,0.1-0.1,0.1-0.2H21v-1.8h-1.4c0,0,0-0.1,0-0.1v-0.1H21v-1.8h-1.8v0.5c-0.1-0.1-0.1-0.2-0.2-0.3v-0.2h-0.2 c-0.1-0.1-0.1-0.1-0.2-0.2H19v-1.8h-1.8v1c-0.1,0-0.1,0-0.2-0.1v-1h-1.8v0.8H15V12h-1.8v0.8H13V12h-1.8v-0.2H13v-1.8h-1.8l0,0H11 l0,0H9.2l0,0H9l0,0H7.2l0,0H7l0,0H5.2v1.8h0.5v0.2H5.2v1.8h0.5v0.2H5.2v1.8H7v-0.3h0.2v0.3H9v-1.8H8.7v-0.2H9v-0.8h0.2v0.8H11v-0.8 h0.2v0.8h0.4v0.2h-0.4v1.8h0.4v0.2h-0.4v1.8h0.4v0.2h-0.4v1.8h0.4v0.2h-0.4v1.8h0.4v0.2h-0.4v0.8H11v-0.8H9.2v0.8H9v-0.8H8.7v-0.2 H9v-1.8H7.2v0.3H7v-0.3H5.2v1.8h0.5v0.2H5.2V24L5.7,23.9z M5.2,18.1v1.8H7v-1.7L5.2,18.1z M7,17.9v-1.7H5.2v1.8L7,17.9z M7.2,18.1 v1.8H9v-1.7L7.2,18.1z M9,17.9v-1.7H7.2v1.8L9,17.9z M9.2,16v1.8H11v-1.7L9.2,16z M11,15.8v-1.8H9.2v1.8L11,15.8z M9.2,18.1v1.8H11 v-1.7L9.2,18.1z M9.2,20.1v1.8H11v-1.7L9.2,20.1z M15,11.9v-1.8h-1.8v1.8L15,11.9z M17,11.9v-1.8h-1.8v1.8L17,11.9z M19,11.9v-1.8 h-1.8v1.8L19,11.9z M19.5,11.9v0.2h-0.4v1.8H21v-0.8h0.2v0.8H22v0.2h-0.9v1.8H23v-0.3h0.2v0.3H25v-0.3l0,0v-5.5l0,0l0,0h-1.8l0,0 H23l0,0h-1.8l0,0H21l0,0h-1.8v1.8L19.5,11.9z M23.2,25.9L23.2,25.9H25l0,0l0,0v-5.5l0,0v-0.3h-1.8v0.3H23v-0.3h-1.8v1.8H22v0.2 h-0.9v0.8H21v-0.8h-1.8V24h0.4v0.2h-0.4V26H21l0,0h0.2l0,0H23l0,0L23.2,25.9z M21,21.9v-1.8h-1.8v1.8L21,21.9z M21.2,18.1v1.8H23 v-1.8L21.2,18.1z M23,17.9v-1.8h-1.8v1.8L23,17.9z M23.2,18.1v1.8H25v-1.8L23.2,18.1z M25,17.9v-1.8h-1.8v1.8L25,17.9z M19,23.9 v-1.7h-1.8V24L19,23.9z M17.2,24.1V26H19v-1.9L17.2,24.1z M15.2,24.1V26H17v-1.9L15.2,24.1z M13.2,25.9H15v-1.7h-1.8L13.2,25.9z M25.2,24.1V26H27v-1.9L25.2,24.1z M27,24v-1.9h-1.8V24H27z M28.5,24.2h-1.3V26h1.3L28.5,24.2z M28.5,22.2h-1.3V24h1.3L28.5,22.2z M28.5,18.2h-1.3V20H27v-1.9h-1.8v1.8H27v0.2h-1.8v1.8H27v-1.8h0.2v1.8h1.3L28.5,18.2z M25.2,12.2V14H27v-1.9L25.2,12.2z M27,12 v-1.9h-1.8v1.8L27,12z M25.2,14.2V16H27v-1.9L25.2,14.2z M25.2,16.2V18H27v-1.9L25.2,16.2z M28.5,16.2h-1.3V18h1.3L28.5,16.2z M28.5,14.2h-1.3V16h1.3L28.5,14.2z M28.5,12.2h-1.3V14h1.3L28.5,12.2z M28.5,10.2h-1.3V12h1.3L28.5,10.2z M28.5,3.4 c0.1-0.9-0.6-1.8-1.6-1.9c-0.1,0-0.1,0-0.2,0H3.2c-0.9,0-1.7,0.8-1.7,1.7l0,0v6.6h27L28.5,3.4z M18.8,16.6c0,0.4-0.1,0.9-0.2,1.3 c0,0.1,0,0.1-0.1,0.2c-0.1,0.3-0.3,0.6-0.6,0.8c-0.2,0.2-0.5,0.4-0.7,0.5L17,19.5c-0.5,0.2-1,0.3-1.5,0.2h-0.7v2.9h-2.4v-8.7h3.4 h0.3h0.1h0.1l0,0l0.3,0.1L17,14h0.1h0.1c0.3,0.1,0.5,0.3,0.8,0.4c0.4,0.3,0.7,0.8,0.8,1.3V16C18.8,16.2,18.8,16.4,18.8,16.6z M16.4,16.6c0-0.2,0-0.4-0.1-0.5c-0.1-0.1-0.1-0.2-0.2-0.2c-0.2-0.1-0.4-0.1-0.6-0.1h-0.6v2h0.4c0.3,0,0.6-0.1,0.8-0.3 C16.3,17.3,16.4,17,16.4,16.6L16.4,16.6z M23,20.9v3h-3v1h4v-4H23z M7.6,23.9v-3h-1v4h4v-1H7.6z M6.6,11.1v4h1v-3h3v-1H6.6z M20,11.1v1h3v3h1v-4H20z"></path> </g> </svg> 