<?xml version="1.0" encoding="UTF-8"?> <!-- Generator: Adobe Illustrator 23.0.6, SVG Export Plug-In . SVG Version: 6.00 Build 0) --> <svg xmlns="http://www.w3.org/2000/svg" xmlns:xlink="http://www.w3.org/1999/xlink" id="Layer_1" x="0px" y="0px" viewBox="0 0 37.8 30.8" style="enable-background:new 0 0 37.8 30.8;" xml:space="preserve"> <style type="text/css"> .st0{fill:#FFFFFF;} </style> <title>1pxFORMAT ICON- format_window_2</title> <g id="OUTLINED"> <path class="st0" d="M28.9,26.6h-3.8l1.9-1.9L28.9,26.6z M27,24.7l-1.9,1.9h3.8L27,24.7z M27,24.7l-1.9,1.9h3.8L27,24.7z M9.6,9.7 c-1.1,0-2,0.9-2,2s0.9,2,2,2s2-0.9,2-2S10.8,9.7,9.6,9.7z M9.6,9.7c-1.1,0-2,0.9-2,2s0.9,2,2,2s2-0.9,2-2S10.8,9.7,9.6,9.7z M28.9,26.6h-3.8l1.9-1.9L28.9,26.6z M35,30.1l-0.6,0.6l-2.8-2.8V28l0,0c-0.2,0.2-0.4,0.4-0.7,0.6c-0.4,0.3-0.9,0.4-1.4,0.4H5.9 c-0.6,0-1.1-0.2-1.6-0.5c-0.2-0.2-0.4-0.4-0.6-0.6c0,0-0.1-0.1-0.1-0.1l-3,3L0,30.1l3.3-3.3c0-0.2-0.1-0.4-0.1-0.6V2.7 C3.2,1.2,4.4,0,5.9,0h23.5c1.5,0,2.7,1.2,2.7,2.7c0,0,0,0,0,0v23.5c0,0.1,0,0.3,0,0.4c0,0.2-0.1,0.3-0.1,0.5L35,30.1z M18.8,25.2 l-1.1-1.1l-4.5-4.5l-5.6,5.6H18.8z M28.9,26.6L27,24.7l-1.9,1.9H28.9z M31.2,2.7c0-1-0.8-1.7-1.7-1.7H5.9C5,1,4.2,1.8,4.2,2.7v23.2 l0.7-0.7l8.3-8.3l5.5,5.5l2.8,2.8l1.2,1.2l4.3-4.3l4.2,4.2L31.2,2.7z M36.2,7.8l-1.6,2.6h3.2L36.2,7.8z M34.6,16.7l1.6,2.6l1.6-2.6 H34.6z"></path> </g> </svg> 