<?xml version="1.0" encoding="UTF-8"?> <!-- Generator: Adobe Illustrator 23.0.6, SVG Export Plug-In . SVG Version: 6.00 Build 0) --> <svg xmlns="http://www.w3.org/2000/svg" xmlns:xlink="http://www.w3.org/1999/xlink" id="Layer_1" x="0px" y="0px" viewBox="0 0 30 30" style="enable-background:new 0 0 30 30;" xml:space="preserve"> <style type="text/css"> .st0{fill:#FFFFFF;} </style> <title>1pxFORMAT ICON- format_pharma_2</title> <g id="OUTLINED"> <polygon class="st0" points="18.4,7.4 18.4,9.4 16,9.4 16,11.8 14,11.8 14,9.4 11.6,9.4 11.6,7.4 14,7.4 14,5 16,5 16,7.4 "></polygon> <path class="st0" d="M27.1,28.5c0.7-0.1,1.2-0.7,1.3-1.3C28.3,27.8,27.8,28.3,27.1,28.5z M1.5,27.1c0.1,0.7,0.7,1.2,1.3,1.3 C2.2,28.3,1.7,27.8,1.5,27.1z"></path> <path class="st0" d="M27.1,29.5c0.8-0.1,1.6-0.5,2-1.2C28.6,29,27.9,29.4,27.1,29.5z M0.9,28.3c0.4,0.7,1.2,1.1,2,1.2 C2.1,29.4,1.4,29,0.9,28.3z"></path> <path class="st0" d="M26.8,0.5H3.2c-1.5,0-2.7,1.2-2.7,2.7v23.6c0,0.1,0,0.2,0,0.2c0,0.3,0.1,0.6,0.2,0.9c0,0.1,0.1,0.2,0.2,0.3 c0.5,0.7,1.2,1.1,2,1.2h24.1c0.8-0.1,1.5-0.5,2-1.2c0.1-0.1,0.1-0.2,0.2-0.3c0.1-0.3,0.2-0.6,0.2-0.9c0-0.1,0-0.2,0-0.2V3.2 C29.5,1.7,28.3,0.5,26.8,0.5z M28.5,26.8c0,0.1,0,0.2,0,0.3c-0.1,0.7-0.7,1.2-1.3,1.3c-0.1,0-0.2,0-0.3,0H3.2c-0.1,0-0.2,0-0.3,0 c-0.7-0.1-1.2-0.7-1.3-1.3c0-0.1,0-0.2,0-0.3V16.1h27L28.5,26.8z M28.5,15.1h-27V3.2c0-0.9,0.8-1.7,1.7-1.7l0,0h23.6 c0.9,0,1.7,0.8,1.7,1.7V15.1z"></path> <rect x="4.5" y="20.3" class="st0" width="8.9" height="1"></rect> <rect x="4.5" y="23.7" class="st0" width="13.1" height="1"></rect> <polygon class="st0" points="26.2,20.1 23,20.1 24.6,17.5 "></polygon> <polygon class="st0" points="26.2,23.9 24.6,26.5 23,23.9 "></polygon> </g> </svg> 