<?xml version="1.0" encoding="UTF-8"?> <!-- Generator: Adobe Illustrator 23.0.6, SVG Export Plug-In . SVG Version: 6.00 Build 0) --> <svg xmlns="http://www.w3.org/2000/svg" xmlns:xlink="http://www.w3.org/1999/xlink" id="Layer_1" x="0px" y="0px" viewBox="0 0 30 30" style="enable-background:new 0 0 30 30;" xml:space="preserve"> <style type="text/css"> .st0{fill:#FFFFFF;} </style> <title>1pxFORMAT ICON- format_scroll_2</title> <g id="OUTLINED"> <path class="st0" d="M1.5,14.3L1.5,14.3 M1.5,16.3L1.5,16.3 M1.5,14.3L1.5,14.3 M28.5,1.1c-0.5-0.4-1.1-0.6-1.8-0.6H3 C1.7,0.6,0.6,1.7,0.5,3l0,0c0,0.1,0,0.2,0,0.3v23.5c0,0.7,0.3,1.3,0.7,1.8c0.1,0.1,0.2,0.2,0.3,0.3C1.7,29,1.9,29.1,2,29.2 c0.4,0.2,0.8,0.3,1.2,0.3h23.5c0.3,0,0.6-0.1,0.9-0.2c0.3-0.1,0.6-0.2,0.8-0.4c0.6-0.5,1-1.3,1-2.1V3.2C29.5,2.4,29.1,1.6,28.5,1.1 L28.5,1.1z M24.8,3.2c0.8,0,1.5,0.7,1.5,1.5s-0.7,1.5-1.5,1.5s-1.5-0.7-1.5-1.5S23.9,3.2,24.8,3.2z M5.3,25.9l4.5-4.5l4.5,4.5H5.3z M18.9,27.1l2.6-2.6l2.6,2.6H18.9z M28.5,26.8c0,0.1,0,0.2,0,0.2c-0.1,0.8-0.8,1.5-1.6,1.5l-1.4-1.4l-3.3-3.3l-0.7-0.7l-0.7,0.7 l-3.5,3.5l-1-1l-0.5-0.5l-5.2-5.2l-0.4-0.4L9.8,20l-0.3,0.3l-5.6,5.6l-2,2c-0.2-0.3-0.4-0.6-0.4-0.9c0-0.1,0-0.1,0-0.2V8.2h27 L28.5,26.8z M8,14.3c-0.2-1.1-1.3-1.8-2.4-1.5c-0.7,0.2-1.3,0.8-1.5,1.5c0,0.1,0,0.3,0,0.4c0,1.1,0.9,2,2,2c0,0,0,0,0,0 c1.1,0,2-0.9,2-2c0,0,0,0,0,0C8.1,14.6,8,14.4,8,14.3z M26.1,10.6c-0.3-0.5-0.8-0.8-1.4-0.8h-0.2c-0.5,0.1-0.9,0.4-1.1,0.8 c-0.1,0.2-0.2,0.5-0.2,0.8c0,0.5,0.3,1,0.8,1.2c0.2,0.1,0.5,0.2,0.8,0.2c0.2,0,0.4-0.1,0.6-0.2c0.4-0.2,0.7-0.6,0.8-1.1 c0-0.1,0-0.2,0-0.3C26.3,11,26.2,10.8,26.1,10.6L26.1,10.6z M24.8,16.4c-0.8,0-1.5,0.7-1.5,1.5s0.7,1.5,1.5,1.5s1.5-0.7,1.5-1.5 S25.6,16.4,24.8,16.4z"></path> </g> </svg> 