<?xml version="1.0" encoding="UTF-8"?> <!-- Generator: Adobe Illustrator 23.0.6, SVG Export Plug-In . SVG Version: 6.00 Build 0) --> <svg xmlns="http://www.w3.org/2000/svg" xmlns:xlink="http://www.w3.org/1999/xlink" id="Layer_1" x="0px" y="0px" viewBox="0 0 30 30" style="enable-background:new 0 0 30 30;" xml:space="preserve"> <style type="text/css"> .st0{fill:#FFFFFF;} </style> <g id="OUTLINED"> <circle class="st0" cx="6.7" cy="6.7" r="2"></circle> <circle class="st0" cx="6.7" cy="6.7" r="2"></circle> <path class="st0" d="M26.8,0.5H3.2c-1.5,0-2.7,1.2-2.7,2.7c0,0,0,0,0,0v23.5c0,1.5,1.2,2.7,2.7,2.7h23.6c1.5,0,2.7-1.3,2.7-2.7V3.2 C29.5,1.7,28.3,0.5,26.8,0.5z M7.3,27.1c-0.8,0-1.5-0.7-1.5-1.5c0-0.8,0.7-1.5,1.5-1.5s1.5,0.7,1.5,1.5l0,0 C8.8,26.5,8.1,27.1,7.3,27.1z M15,27.1c-0.1,0-0.3,0-0.4-0.1c-0.8-0.2-1.3-1.1-1-1.9c0.2-0.8,1.1-1.3,1.9-1c0.5,0.1,0.9,0.5,1,1 c0,0.1,0.1,0.3,0.1,0.4C16.5,26.5,15.8,27.1,15,27.1C15,27.1,15,27.1,15,27.1L15,27.1z M5.6,20.7l5.5-5.6l2.7,2.7l2.8,2.8H5.6z M23.9,26.5c-0.2,0.3-0.5,0.5-0.9,0.5c-0.1,0-0.2,0-0.3,0c-0.8,0-1.5-0.7-1.5-1.5c0-0.1,0-0.2,0-0.3l0,0c0.1-0.3,0.3-0.7,0.5-0.9 c0.3-0.2,0.6-0.3,0.9-0.3c0.8,0,1.5,0.7,1.5,1.5C24.2,25.9,24.1,26.3,23.9,26.5z M22.3,20.7l1.6-1.6l1.6,1.6H22.3z M28.5,22.3 l-1.2-1.2L27,20.7l-2.3-2.3L24,17.7l-0.7,0.7l-2.4,2.3l-0.4,0.4l-1,1.1l-1-1.1l-0.4-0.4L14.4,17l-2.5-2.5l-0.7-0.7l-0.7,0.7 l-6.2,6.3l-2.7,2.7V3.2c0-1,0.8-1.7,1.7-1.7h23.5c1,0,1.7,0.8,1.7,1.7V22.3z"></path> </g> </svg> 