<?xml version="1.0" encoding="UTF-8"?> <!-- Generator: Adobe Illustrator 23.0.6, SVG Export Plug-In . SVG Version: 6.00 Build 0) --> <svg xmlns="http://www.w3.org/2000/svg" xmlns:xlink="http://www.w3.org/1999/xlink" id="Layer_1" x="0px" y="0px" viewBox="0 0 30 30" style="enable-background:new 0 0 30 30;" xml:space="preserve"> <style type="text/css"> .st0{fill:#FFFFFF;} </style> <title>1pxFORMAT ICON- format_reveal_2</title> <g id="OUTLINED"> <path class="st0" d="M26.8,0.5H3.2c-1.5,0-2.7,1.2-2.7,2.7v23.6c0,1.5,1.2,2.7,2.7,2.7h23.6c1.5,0,2.7-1.2,2.7-2.7V3.2 C29.5,1.7,28.3,0.5,26.8,0.5z M28.5,20.2l-8.3,8.3H3.2c-0.9,0-1.7-0.8-1.7-1.7V3.2c0-0.9,0.8-1.7,1.7-1.7l0,0h23.6 c0.9,0,1.7,0.8,1.7,1.7V20.2z M22.5,21.2v1H5.6v-1H22.5z M16.1,24.2v1H5.6v-1H16.1z M17,6.5c0,1.1-0.9,2-2,2s-2-0.9-2-2s0.9-2,2-2 S17,5.4,17,6.5z M16.5,9.6v6.6h-3V9.6H16.5z"></path> </g> </svg> 