<?xml version="1.0" encoding="UTF-8"?> <!-- Generator: Adobe Illustrator 23.0.6, SVG Export Plug-In . SVG Version: 6.00 Build 0) --> <svg xmlns="http://www.w3.org/2000/svg" xmlns:xlink="http://www.w3.org/1999/xlink" id="Layer_1" x="0px" y="0px" viewBox="0 0 30 30" style="enable-background:new 0 0 30 30;" xml:space="preserve"> <style type="text/css"> .st0{fill:#FFFFFF;} </style> <title>1pxFORMAT ICON- format_cinemagraph_2</title> <g id="OUTLINED"> <path class="st0" d="M17.2,23.2L17.2,23.2L17.2,23.2z M17.2,23.2L17.2,23.2L17.2,23.2z M17.2,23.2L17.2,23.2L17.2,23.2z M26.8,0.5 H3.2c-1.5,0-2.7,1.2-2.7,2.7c0,0,0,0,0,0v23.5c0,1.5,1.2,2.7,2.7,2.7h23.5c1.5,0,2.7-1.2,2.7-2.7V3.2C29.5,1.7,28.3,0.5,26.8,0.5z M3.6,23.2l6.1-6.1l6.1,6.1H3.6z M19.4,24.9l4.1-4.1l4.1,4.1H19.4z M28.5,24.4l-4.3-4.3l-0.7-0.7l-0.7,0.7l-4.4,4.4l-1.2-1.2l0,0 l-6.8-6.8l-0.7-0.7l-8.2,8.2V3.2c0-0.9,0.8-1.7,1.7-1.7h23.5c1,0,1.7,0.8,1.7,1.7V24.4z M7.8,7.8c0,1.1-0.9,2-2,2s-2-0.9-2-2 s0.9-2,2-2S7.8,6.7,7.8,7.8z M15.6,8.8l-0.9,0.4V9.2c-0.5-1.1-1.5-1.8-2.7-1.8c-0.5,0-1,0.2-1.4,0.4l-0.1,0.1L9.8,7.1 C9.9,7,10,7,10,6.9c0.6-0.4,1.3-0.6,2-0.6C13.6,6.4,15,7.4,15.6,8.8L15.6,8.8z M20.7,12.5c-0.3,0.7-1.1,1.2-1.9,1.2 c-1.1,0.1-2.1-0.7-2.2-1.8s0.7-2.1,1.8-2.2c-0.1,0.3-0.2,0.5-0.2,0.8c0,1.1,0.9,2,2,2c0,0,0.1,0,0.1,0L20.7,12.5z"></path> </g> </svg> 