<?xml version="1.0" encoding="UTF-8"?> <!-- Generator: Adobe Illustrator 23.0.6, SVG Export Plug-In . SVG Version: 6.00 Build 0) --> <svg xmlns="http://www.w3.org/2000/svg" xmlns:xlink="http://www.w3.org/1999/xlink" id="Layer_1" x="0px" y="0px" viewBox="0 0 30 30" style="enable-background:new 0 0 30 30;" xml:space="preserve"> <style type="text/css"> .st0{fill:#FFFFFF;} </style> <title>1pxFORMAT ICON- format_image_2</title> <g id="OUTLINED"> <path class="st0" d="M28.4,22.7L28.4,22.7L28.4,22.7L28.4,22.7z M28.4,22.7L28.4,22.7L28.4,22.7L28.4,22.7z M8.7,6.5 c0,1.1-0.9,2-2,2s-2-0.9-2-2s0.9-2,2-2S8.7,5.4,8.7,6.5z M26.7,0.5H3.2c-1.5,0-2.7,1.2-2.7,2.7v23.5c0,1.5,1.2,2.7,2.7,2.7h23.6 c0.4,0,0.8-0.1,1.2-0.3c0.9-0.5,1.5-1.4,1.5-2.5V3.2C29.5,1.7,28.3,0.5,26.7,0.5C26.8,0.5,26.8,0.5,26.7,0.5L26.7,0.5z M3.8,21.5 L11,15l1.7,1.5l5.5,5L3.8,21.5z M28.5,22.8L28.5,22.8l-7.4-0.1l3.6-3.1L28.5,22.8L28.5,22.8L28.5,22.8z M28.5,21.4l-3.1-2.6 l-0.6-0.6l-0.6,0.6l-3.9,3.3l-0.6-0.6l-7-6.4l-1-0.9L11,13.6l-0.7,0.6l-8,7.3l-0.8,0.8v-19c0-1,0.7-1.8,1.7-1.8c0,0,0,0,0.1,0h23.5 c1,0,1.7,0.8,1.7,1.7V21.4z"></path> </g> </svg> 