<?xml version="1.0" encoding="UTF-8"?> <!-- Generator: Adobe Illustrator 23.0.6, SVG Export Plug-In . SVG Version: 6.00 Build 0) --> <svg xmlns="http://www.w3.org/2000/svg" xmlns:xlink="http://www.w3.org/1999/xlink" id="Layer_1" x="0px" y="0px" viewBox="0 0 30 30" style="enable-background:new 0 0 30 30;" xml:space="preserve"> <style type="text/css"> .st0{fill:#FFFFFF;} </style> <title>1pxFORMAT ICON- format_brandedcontent_2</title> <g id="OUTLINED"> <path class="st0" d="M7.3,6v11.9h15V6H7.3z M12.9,15.6V9l5.4,3.3L12.9,15.6z M26.7,0.6H3.3c-1.5,0-2.7,1.2-2.7,2.7v23.4 c0,1.5,1.2,2.7,2.7,2.7h23.4c1.5,0,2.7-1.2,2.7-2.7V3.3C29.4,1.8,28.2,0.6,26.7,0.6z M28.4,26.7c0,1-0.8,1.7-1.7,1.7H3.3 c-1,0-1.7-0.8-1.7-1.7v-2h18.5c0.3,0.8,1.1,1.2,1.9,0.9c0.4-0.1,0.8-0.5,0.9-0.9h5.5V26.7z M28.4,6h-4.1v11.9h4.1v5.8h-5.5 c-0.2-0.6-0.8-1-1.4-1c-0.6,0-1.2,0.4-1.4,1H1.6v-5.8h3.7V6H1.6V3.3c0-1,0.8-1.7,1.7-1.7h23.4c1,0,1.7,0.8,1.7,1.7V6z"></path> </g> </svg> 