<?xml version="1.0" encoding="UTF-8"?> <!-- Generator: Adobe Illustrator 23.0.6, SVG Export Plug-In . SVG Version: 6.00 Build 0) --> <svg xmlns="http://www.w3.org/2000/svg" xmlns:xlink="http://www.w3.org/1999/xlink" id="Layer_1" x="0px" y="0px" viewBox="0 0 22 22" style="enable-background:new 0 0 22 22;" xml:space="preserve"> <style type="text/css"> .st0{fill:#FFFFFF;} </style> <title>icons/ miniformat_360video</title> <desc>Created with Sketch.</desc> <g id="FORMATS_"> <g transform="translate(-250.000000, -1104.000000)"> <g transform="translate(0.000000, 440.000000)"> <g id="format_selection" transform="translate(0.000000, 410.500000)"> <g id="brand_insertion" transform="translate(0.000000, 239.500000)"> <g transform="translate(25.000000, 0.000000)"> <g transform="translate(224.096191, 12.500000)"> <path id="Combined-Shape" class="st0" d="M20.5,1.5c1.3,0,2.4,1.1,2.4,2.4l0,0v17.3c0,1.3-1.1,2.4-2.4,2.4l0,0H3.3 c-1.3,0-2.4-1.1-2.4-2.4l0,0V3.9c0-1.3,1.1-2.4,2.4-2.4l0,0H20.5z M21.4,20.7H2.4v0.4c0,0.5,0.4,0.9,0.9,0.9l0,0h17.3 c0.2,0,0.5-0.1,0.7-0.3c0.2-0.2,0.3-0.4,0.2-0.7V20.7z M4.6,19.2l-1.3,0.1v1.3h1.3V19.2z M11.9,19.2l-1.3,0.1v1.3h1.3V19.2z M13.4,19.2l-1.3,0.1v1.3h1.3V19.2z M14.8,19.2l-1.3,0.1v1.3h1.3V19.2z M20.7,19.2l-1.3,0.1v1.3h1.3V19.2z M21.4,19.2h-0.6 v1.3h0.6V19.2z M3.1,19.2H2.4v1.4h0.7V19.2z M10.4,8.9H4.7v1.3h0.4v0.1H4.7v1.3h0.4v0.1H4.7v1.3H6V13h0.1v0.2h1.3v-1.3H7.3 v-0.1h0.2v-0.6h0.1v0.6H9v-0.6h0.1v0.6h0.1v0.1H9.1v1.3h0.1v0.1H9.1v1.3h0.1v0.1H9.1v1.3h0.1v0.1H9.1v1.3h0.1v0.1H9.1v0.6H9 v-0.6H7.7v0.6H7.5v-0.6H7.3v-0.1h0.2v-1.3H6.2v0.2H6v-0.2H4.7v1.3h0.4v0.1H4.7V19l0.4,0.1v0.1H4.7v1.3h5.7v-1.3H9.1v-0.1h1.3 v-0.3h0.1v0.3h1.3v-0.3h0.2v0.3h1.3v-0.4l0.1,0v0.4h1.3v-1.2c0,0,0.1-0.1,0.1-0.2l0,0v1.4h0.3v0.1H15v1.3h4.3v-4.2h-1.3v0.2 h-0.1v-0.2h-1.4v1.3H17v0.1h-0.6v0.6h-0.1v-0.6H15l0-0.1l0,0l0-0.1h1.2v-1.3h-0.9v0c0,0,0-0.1,0-0.1l0,0h0.9v-1.3H15 c0,0,0-0.1-0.1-0.1l0,0l-0.1-0.1l0-0.1l0,0l0-0.1v0.1h1.3v-1.3h-1l0-0.1l0,0l0-0.1h1v-1.3H15v0.2c0-0.1-0.1-0.1-0.1-0.2l0,0 v0h0c0-0.1-0.1-0.1-0.1-0.1l0,0h0.2v-1.3h-1.3v0.7h-0.1v-0.7h-1.3v0.6h-0.1v-0.6h-1.3v0.6h-0.1v-0.6H9.1v-0.1h1.3V8.9z M18.5,16.8v2.9h-2.9V19h2.2v-2.2H18.5z M6.5,16.8V19h2.2v0.7H5.8v-2.9H6.5z M4.6,17.7l-1.3,0v1.4h1.3V17.7z M20.7,17.7 l-1.3,0v1.4h1.3V17.7z M3.1,17.7H2.4v1.4h0.7V17.7z M21.4,17.7h-0.6v1.4h0.6V17.7z M12.7,11.7c0.2,0,0.5,0.1,0.7,0.1l0,0 l0.1,0.1l0.2,0.1c0.1,0,0.2,0.1,0.3,0.2c0.4,0.2,0.6,0.7,0.6,1.1l0,0v0.1c0,0.3-0.1,0.6-0.3,0.9c-0.2,0.2-0.4,0.4-0.6,0.5 l0,0h-0.1v0l0.2,0.1c0.3,0.1,0.5,0.2,0.7,0.5c0.2,0.3,0.3,0.6,0.3,0.9c0,0,0,0,0,0.1l0,0v0.1c0,0.5-0.2,1-0.7,1.3l0,0 L14,17.7l0,0l-0.1,0.1c-0.1,0.1-0.2,0.1-0.4,0.2l0,0l-0.1,0.1c-0.3,0.1-0.7,0.1-1,0.1l0,0H9.8v-6.4H12.7z M21.4,16.3h-0.6 v1.4h0.6V16.3z M9,16.3l-1.3,0v1.3H9V16.3z M4.6,16.2l-1.3,0v1.3h1.3V16.2z M20.7,16.2l-1.3,0v1.3h1.3V16.2z M3.1,16.2H2.4 v1.3h0.7V16.2z M12.3,15.4l-0.7,0v1.3h0.6c0.4,0,0.7-0.2,0.8-0.5c0,0,0-0.1,0-0.1c0,0,0,0,0-0.1c0-0.2-0.1-0.4-0.2-0.5 c-0.2-0.1-0.4-0.2-0.6-0.2L12.3,15.4z M21.4,14.8h-0.6v1.4h0.6V14.8z M9,14.8H7.6v1.3H9V14.8z M6,14.8H4.7v1.3H6V14.8z M7.5,14.8H6.2v1.3h1.3V14.8z M20.7,14.8l-1.3,0v1.3h1.3V14.8z M4.6,14.8l-1.3,0v1.3h1.3V14.8z M3.1,14.8H2.4v1.3h0.7V14.8z M17.8,14.8l-1.3,0v1.3h1.3V14.8z M19.2,14.8l-1.3,0v1.3h1.3V14.8z M21.4,13.3h-0.6v1.4h0.6V13.3z M7.5,13.3H6.2v1.3h1.3 V13.3z M19.2,13.3h-1.3v1.3l1.3,0V13.3z M17.8,13.3h-1.3v1.3l1.3,0V13.3z M6,13.3H4.7v1.3H6V13.3z M9,13.3H7.6v1.3H9V13.3z M20.7,13.3l-1.3,0v1.3h1.3V13.3z M4.6,13.3l-1.3,0v1.3h1.3V13.3z M3.1,13.3H2.4v1.3h0.7V13.3z M12.2,13l-0.1,0h-0.5l0,1.1 h0.5c0.2,0,0.4,0,0.6-0.1c0.2-0.1,0.2-0.3,0.2-0.5c0-0.1,0-0.1,0-0.2c0-0.1-0.1-0.1-0.1-0.1C12.5,13,12.3,13,12.1,13L12.2,13 z M21.4,11.8h-0.6v1.4h0.6V11.8z M20.7,11.8h-1.3v1.3h1.3V11.8z M4.6,11.8H3.2v1.3h1.3V11.8z M9,11.8H7.7v1.3H9V11.8z M3.1,11.8H2.4v1.3h0.7V11.8z M19.2,8.9H15v1.3l0.3,0v0.1H15v1.3h1.3v-0.6h0.1v0.6H17v0.1h-0.6v1.3h1.3v-0.2h0.1v0.2h1.3V8.9 z M18.5,9.7v2.9h-0.7v-2.2h-2.2V9.7H18.5z M8.7,9.7v0.7H6.5v2.2H5.8V9.7H8.7z M21.4,10.4h-0.6v1.4h0.6V10.4z M4.6,10.4H3.2 v1.3h1.3V10.4z M20.7,10.4h-1.3v1.3h1.3V10.4z M3.1,10.4H2.4v1.3h0.7V10.4z M21.4,8.9h-0.6v1.4h0.6V8.9z M14.8,8.9h-1.3v1.3 l1.3,0V8.9z M20.7,8.9h-1.3v1.3h1.3V8.9z M13.4,8.9h-1.3v1.3l1.3,0V8.9z M11.9,8.9h-1.3v1.3l1.3,0V8.9z M4.6,8.9H3.3v1.3h1.3 V8.9z M3.1,8.9H2.4v1.3h0.7V8.9z M20.5,3H3.3C2.8,3,2.4,3.4,2.4,3.9l0,0v5h19.1v-5C21.4,3.4,21,3,20.5,3L20.5,3z"></path> </g> </g> </g> </g> </g> </g> </g> </svg> 