<?xml version="1.0" encoding="UTF-8"?> <!-- Generator: Adobe Illustrator 23.0.6, SVG Export Plug-In . SVG Version: 6.00 Build 0) --> <svg xmlns="http://www.w3.org/2000/svg" xmlns:xlink="http://www.w3.org/1999/xlink" id="Layer_1" x="0px" y="0px" viewBox="0 0 30 30" style="enable-background:new 0 0 30 30;" xml:space="preserve"> <style type="text/css"> .st0{fill:#FFFFFF;} </style> <title>1pxFORMAT ICON- format_ctp_2</title> <g id="OUTLINED"> <path class="st0" d="M15,7c-3.2,0-5.8,2.6-5.8,5.8s2.6,5.8,5.8,5.8s5.8-2.6,5.8-5.8c0,0,0,0,0,0C20.8,9.6,18.2,7,15,7 C15,7,15,7,15,7z M12.9,16.1V9.5l5.5,3.3L12.9,16.1z M15,7c-3.2,0-5.8,2.6-5.8,5.8s2.6,5.8,5.8,5.8s5.8-2.6,5.8-5.8c0,0,0,0,0,0 C20.8,9.6,18.2,7,15,7C15,7,15,7,15,7z M12.9,16.1V9.5l5.5,3.3L12.9,16.1z M26.8,0.5H3.2c-1.5,0-2.7,1.2-2.7,2.7c0,0,0,0,0,0v23.5 c0,1.5,1.2,2.7,2.7,2.7h23.5c1.5,0,2.7-1.2,2.7-2.7V3.2C29.5,1.7,28.3,0.5,26.8,0.5z M28.5,26.8c0,1-0.8,1.7-1.7,1.7H3.2 c-1,0-1.7-0.8-1.7-1.7v-2.1h3c0.3,0.8,1.1,1.2,1.9,0.9c0.4-0.1,0.8-0.5,0.9-0.9h21.2V26.8z M28.5,23.7H7.3 c-0.3-0.8-1.1-1.2-1.9-0.9c-0.4,0.1-0.8,0.5-0.9,0.9H1.5V3.2c0-1,0.8-1.7,1.7-1.7h23.5c1,0,1.7,0.8,1.7,1.7V23.7z"></path> </g> </svg> 