<?xml version="1.0" encoding="UTF-8"?> <!-- Generator: Adobe Illustrator 23.0.6, SVG Export Plug-In . SVG Version: 6.00 Build 0) --> <svg xmlns="http://www.w3.org/2000/svg" xmlns:xlink="http://www.w3.org/1999/xlink" id="Layer_1" x="0px" y="0px" viewBox="0 0 81.9 81.9" style="enable-background:new 0 0 81.9 81.9;" xml:space="preserve"> <style type="text/css"> .st0{fill:#FFFFFF;} </style> <title>1pxFINAL EXP ICON-Branded_video</title> <g id="OUTLINED"> <path class="st0" d="M41,81.9c-22.6,0-41-18.4-41-41s18.4-41,41-41s41,18.4,41,41S63.6,81.9,41,81.9z M41,3C20,3,3,20,3,41 s17,38,38,38s38-17,38-38S62,3,41,3z M33,27.2L56,41L33,54.8V27.2 M30,21.9v38.2l4.5-2.7l23-13.8l4.2-2.5l-4.3-2.6l-23-13.8 L30,21.9z"></path> </g> </svg> 