<svg width="50" height="50" fill="none" xmlns="http://www.w3.org/2000/svg"><path d="M49.999 15.843c-.084.168-.145.352-.256.5-.238.314-.582.428-.968.428H45.51c-.277 0-.277 0-.277.285v1.65c-.002.722-.48 1.202-1.202 1.203-1.067.001-2.133-.001-3.2.001-.418.001-.364-.053-.367.358-.002.355-.104.666-.374.911a1.06 1.06 0 01-.724.296c-1.622.003-3.244.007-4.866-.001-.63-.004-1.095-.51-1.097-1.168-.003-1.35-.001-2.7-.001-4.049 0-.05-.002-.1 0-.15.004-.091-.039-.133-.13-.129-.039.002-.078 0-.117 0h-4.383c-.24 0-.24 0-.24.235v12.33c0 .23 0 .23.229.23 1.905.001 3.81 0 5.716.002.595 0 1.06.34 1.173.866.035.162.042.33.042.497.002 3.588.001 7.175.001 10.763 0 .056.005.111 0 .166-.012.133.049.173.176.172.589-.004 1.178-.002 1.767-.001.759.001 1.232.471 1.232 1.224v6.082c0 .759-.467 1.224-1.227 1.224H12.36c-.76 0-1.226-.465-1.226-1.225v-6.081c0-.753.473-1.223 1.232-1.225h1.683c.259 0 .259 0 .259-.253v-7.565c0-1.105-.002-2.21.002-3.315 0-.155.008-.313.041-.463.113-.521.576-.866 1.157-.866 1.883-.002 3.766-.001 5.65-.002.055 0 .111-.003.166 0 .109.008.153-.043.146-.148-.003-.039 0-.078 0-.117V16.246c0-.269 0-.27-.274-.27h-4.367c-.229 0-.23.002-.23.23v4.032c0 .773-.461 1.238-1.231 1.238h-4.6c-.758 0-1.226-.47-1.23-1.226-.003-.39.042-.341-.351-.342-1.061-.002-2.122 0-3.183 0-.767-.001-1.235-.47-1.236-1.238v-1.633c0-.267 0-.267-.26-.267H1.39c-.8 0-1.088-.192-1.39-.929v-9.83c.084-.168.145-.353.257-.5.248-.326.607-.428 1.003-.428 1.1 0 2.2-.002 3.3.003.157 0 .213-.044.21-.207-.008-.566-.003-1.132-.002-1.699 0-.765.47-1.234 1.24-1.234l3.182-.001c.392-.001.344.045.347-.346.005-.747.476-1.221 1.22-1.222h4.598c.779 0 1.243.465 1.244 1.244v4.032c0 .223.001.223.219.223h16.365c.218 0 .218 0 .219-.223v-.15c0-1.322-.003-2.643 0-3.965.003-.656.488-1.158 1.127-1.16 1.605-.004 3.21-.002 4.815 0 .297 0 .55.114.767.317.296.28.364.634.354 1.02-.007.229 0 .23.229.23 1.11 0 2.222-.002 3.333 0 .724.002 1.203.48 1.206 1.201v1.683c0 .253 0 .254.258.254h3.25c.428 0 .803.125 1.054.493.09.13.138.289.205.434v9.833zm-25.002 15.17h-8.148c-.251 0-.251.001-.251.243v9.729c0 .253 0 .253.256.254h16.295c.25 0 .251 0 .251-.26v-9.71c0-.255 0-.255-.256-.255h-8.147zm0-22.896H16.83c-.232 0-.232 0-.232.228v5.148c0 .247 0 .247.245.247H33.16c.24 0 .24 0 .24-.235V8.373c0-.256 0-.256-.254-.256h-8.15zm-.005 39.414h11.263c.056 0 .111-.003.167 0 .119.01.17-.037.17-.161-.002-1.244-.002-2.488 0-3.732 0-.11-.037-.162-.154-.162-.445.004-.889 0-1.333.004-.054 0-.108.023-.162.032-.174.03-.348.084-.522.084-6.282.004-12.563.004-18.845.002-.121 0-.242-.022-.363-.035-.263-.028-.525-.068-.789-.083-.26-.014-.522-.003-.783-.003-.233.001-.234.002-.234.23v3.549c0 .275 0 .275.272.275h11.313zM14.306 10.944v-8.08c0-.247 0-.247-.249-.247-.672 0-1.344.005-2.017-.004-.17-.002-.217.053-.216.22.007 1.137.004 2.276.004 3.415v12.746c0 .245 0 .245.248.246h1.966c.264 0 .264 0 .264-.265v-8.03zm21.386-.016v6.065c0 .689.002 1.377-.002 2.066-.002.136.044.184.182.183.711-.005 1.422-.004 2.133 0 .122 0 .17-.041.167-.165-.006-.216-.002-.433-.002-.65V2.867c0-.249 0-.249-.245-.249h-1.967c-.266 0-.266 0-.266.263v8.048zm-26.156 0V4.446c0-.26 0-.26-.25-.26H7.268c-.223 0-.227.003-.227.22v13.046c0 .215.004.218.228.218h2.017c.248 0 .249 0 .249-.245v-6.498zm30.926-.008v6.514c0 .236 0 .236.241.236.678 0 1.356-.004 2.033.004.164.002.224-.043.223-.215a7109.18 7109.18 0 010-13.062c0-.173-.06-.216-.223-.215-.677.008-1.355.003-2.033.004-.24 0-.241 0-.241.236v6.498zM26.238 22.38V16.2c0-.22-.001-.221-.223-.222-.683 0-1.366.004-2.049-.003-.16-.002-.209.048-.209.208.004 4.131.004 8.262 0 12.394 0 .151.048.202.2.2.678-.007 1.356-.003 2.033-.003.247 0 .248 0 .248-.247V22.38zM2.272 10.91c0 1.133.003 2.266-.003 3.398 0 .158.047.213.208.21a99.03 99.03 0 012.083 0c.16.003.21-.047.21-.208-.005-2.254-.005-4.509 0-6.763 0-.158-.047-.211-.208-.21-.689.008-1.377.003-2.066.004-.222 0-.223 0-.224.22v3.35zm45.453.035c0-1.133-.002-2.266.003-3.398.001-.16-.047-.212-.208-.21a98.62 98.62 0 01-2.083 0c-.16-.002-.209.048-.209.209.005 2.254.005 4.509 0 6.763 0 .159.047.211.208.21.689-.008 1.377-.003 2.066-.004.222 0 .223 0 .223-.222v-3.348z" fill="#fff"/></svg>