<svg width="40" height="59" fill="none" xmlns="http://www.w3.org/2000/svg"><path d="M23.388.09c.281.05.563.09.842.149 2.744.583 4.857 2.897 5.22 5.751.285 2.243-.364 4.185-1.915 5.788-.591.612-.894 1.302-.874 2.163.02.84.01 1.68.001 2.519-.002.18.055.232.228.232 1.784-.006 3.569-.004 5.353-.004.768 0 1.155.467 1.08 1.254-.098 1.036-.172 2.074-.258 3.11-.083 1.018-.169 2.035-.252 3.053-.069.836-.136 1.672-.203 2.508-.042.525-.074 1.052-.13 1.575-.02.188.039.22.201.219.826-.007 1.651-.004 2.477-.003.656.001 1.067.425 1.028 1.098-.054.902-.132 1.803-.2 2.704l-.213 2.781-.256 3.385c-.065.856-.127 1.712-.195 2.568-.012.147.068.156.175.156a387.3 387.3 0 011.867 0c.54 0 1.08-.002 1.62 0 .632.002 1.044.423 1.013 1.073-.046.949-.116 1.896-.174 2.843-.044.708-.084 1.416-.127 2.123l-.217 3.505c-.056.91-.108 1.818-.164 2.727-.071 1.175-.145 2.35-.217 3.524-.014.221-.041.442-.04.662.008.569-.248.938-.772 1.115H5.52c-.37-.13-.652-.35-.737-.766a1.56 1.56 0 01-.025-.31c-.001-1.51-.004-3.02.003-4.529 0-.193-.046-.257-.243-.256-1.156.01-2.312.006-3.467.004-.86 0-1.294-.723-.908-1.514C1.7 48.1 3.261 44.907 4.817 41.71c.203-.417.517-.62.972-.618 1.161.004 2.324-.003 3.485.006.191.001.254-.052.248-.252-.013-.494-.01-.989 0-1.483.003-.171-.05-.225-.218-.223-.85.007-1.702.004-2.552.003-.82-.002-1.258-.688-.925-1.458 1.243-2.873 2.49-5.743 3.732-8.616.198-.458.53-.671 1.017-.669 1.149.007 2.298.003 3.447.002.256 0 .257 0 .258-.253 0-.481-.008-.963.004-1.444.004-.193-.046-.262-.244-.258-.54.014-1.08.008-1.619.004-.734-.005-1.18-.651-.924-1.354.94-2.585 1.886-5.168 2.833-7.75.157-.428.489-.658.94-.66 1.174-.002 2.35 0 3.523 0 .248 0 .249-.002.249-.262 0-.852-.002-1.705 0-2.557.004-.797-.263-1.474-.822-2.03-1.084-1.08-1.773-2.38-1.967-3.918-.31-2.457.444-4.534 2.254-6.18C19.555.79 20.798.266 22.193.124c.043-.004.085-.022.128-.034h1.067zM2.503 50.858h3.145c.616.002 1.011.407 1.014 1.039.003.481.006.963-.001 1.445-.004.177.044.225.22.187.815-.175 1.63-.338 2.447-.502.117-.024.24-.05.357-.04.493.046.795.429.824 1.026.023.458-.257.814-.721.91-.977.203-1.954.405-2.932.6-.146.03-.205.089-.196.244.012.201.002.403.003.605.002.383-.033.343.34.343h29.85c.057 0 .114-.003.171.001.128.011.184-.044.19-.177.024-.474.053-.948.081-1.421.054-.916.108-1.831.164-2.747l.218-3.543c.043-.695.082-1.39.125-2.084.071-1.143.145-2.285.214-3.427.016-.266.009-.267-.238-.267-10.42 0-20.84 0-31.26-.004-.164 0-.247.057-.32.205-1.193 2.459-2.393 4.914-3.59 7.37-.031.063-.057.128-.105.237zM8.134 37.19h2.254c.643.002 1.036.402 1.037 1.056v2.48c.002.412-.046.369.352.369h21.279c.05 0 .102-.004.152.001.143.015.198-.04.208-.195.044-.714.101-1.427.156-2.14.109-1.433.221-2.865.329-4.299.095-1.27.185-2.542.28-3.813.021-.29.024-.29-.251-.29-7.525 0-15.05 0-22.574-.005-.193 0-.29.055-.37.242-.797 1.858-1.605 3.711-2.41 5.567-.141.325-.28.651-.442 1.027zm5.624-12.69c.498 0 .947-.002 1.397 0 .64.002 1.031.404 1.032 1.06v2.537c0 .307 0 .307.3.307h13.77c.044 0 .088-.003.133 0 .108.009.16-.034.168-.153.016-.247.046-.492.066-.738.106-1.328.21-2.657.317-3.985.125-1.549.248-3.098.381-4.645.017-.192-.025-.243-.214-.243-4.996.005-9.992.005-14.988 0-.165 0-.245.05-.304.213-.592 1.635-1.192 3.266-1.79 4.898l-.268.748zM24.06 6.238c.071.062.112.092.147.128.364.372.724.749 1.094 1.115.11.11.1.178-.004.283-.458.46-.911.925-1.36 1.395-.06.064-.122.163-.123.246-.008 1.073-.005 2.147-.006 3.22 0 .104.033.158.142.157.26-.003.521.006.781-.007.053-.003.133-.076.146-.131.229-.903.71-1.636 1.35-2.291 1.099-1.125 1.545-2.507 1.34-4.082-.349-2.67-2.719-4.548-5.32-4.173-1.903.274-3.239 1.379-3.875 3.24-.639 1.867-.237 3.561 1.091 4.992.623.67 1.114 1.399 1.343 2.298.03.115.087.159.201.155.229-.006.458-.012.686.002.175.01.212-.065.211-.229-.005-1.028.001-2.056-.009-3.084a.522.522 0 00-.132-.32c-.445-.472-.9-.935-1.358-1.396-.099-.1-.107-.165-.003-.269.37-.367.734-.739 1.09-1.118.11-.117.178-.097.276.008.287.303.581.6.874.898.237.241.19.242.419.006.33-.34.657-.685 1-1.043zm-1.2 10.449c.565 0 1.13-.005 1.695.003.158.002.209-.053.206-.213a52.1 52.1 0 010-1.542c.003-.156-.053-.201-.2-.2a411.91 411.91 0 01-3.408-.001c-.159 0-.208.054-.205.214.007.507.009 1.015-.001 1.522-.004.174.055.223.219.22.565-.008 1.13-.003 1.694-.003zM9.397 1.565a.944.944 0 011.462-.818c.83.504 1.653 1.016 2.48 1.525.206.127.416.25.618.384.468.31.604.88.327 1.343a.928.928 0 01-1.312.326 338.055 338.055 0 01-3.131-1.928c-.298-.185-.447-.47-.444-.832z" fill="#fff"/><path d="M14.397 12.422a.896.896 0 01-.44.716c-1.046.65-2.095 1.298-3.148 1.935a.935.935 0 01-1.3-.324.976.976 0 01.32-1.344 183.239 183.239 0 013.148-1.934c.642-.384 1.424.097 1.42.951zM11.881 8.88c-.463 0-.926.002-1.39-.001a.956.956 0 01-.972-.96.958.958 0 01.963-.992 202.23 202.23 0 012.837 0c.556.004.97.44.963.993a.957.957 0 01-.973.959c-.476.003-.952 0-1.428 0zm-5.221 0a.959.959 0 01-.95-.983.966.966 0 01.945-.97.965.965 0 01.96.975.957.957 0 01-.955.977zm24.647 3.631c.001-.945.782-1.401 1.442-1.008.763.454 1.514.927 2.27 1.392.278.171.557.338.831.515.482.31.625.876.347 1.352-.274.469-.846.616-1.329.323-1.03-.628-2.055-1.266-3.082-1.9-.314-.193-.476-.476-.479-.674zm-.033-9.138c.004-.211.146-.496.438-.677A245.51 245.51 0 0134.881.748a.921.921 0 011.28.34.976.976 0 01-.309 1.334c-1.04.65-2.084 1.297-3.137 1.926-.662.394-1.445-.07-1.441-.975zM33.8 8.88c-.463 0-.926.002-1.39-.001-.563-.004-.982-.418-.983-.967 0-.556.41-.982.97-.985a233.5 233.5 0 012.817 0 .96.96 0 01.976.98c-.002.55-.42.966-.981.972h-1.408zm5.256 0a.955.955 0 01-.96-.97c0-.547.42-.983.95-.983.52 0 .947.432.954.963a.963.963 0 01-.944.99zM13.325 50.858c-1.58 0-2.854-1.31-2.854-2.933.001-1.618 1.281-2.927 2.863-2.926 1.578.002 2.854 1.313 2.854 2.935-.001 1.619-1.28 2.925-2.863 2.924zm.955-2.92c.004-.536-.429-.983-.952-.983-.515 0-.945.439-.949.967-.004.53.416.972.933.982a.967.967 0 00.968-.965zm1.9-9.771c-1.58-.001-2.851-1.31-2.85-2.935 0-1.616 1.282-2.925 2.863-2.923 1.577.001 2.854 1.316 2.852 2.936-.001 1.619-1.28 2.923-2.864 2.922zm.005-1.955a.965.965 0 00.952-.966c0-.533-.423-.975-.94-.981-.523-.007-.963.44-.96.978a.966.966 0 00.948.97zM19.04 24.5c-1.054-.002-1.9-.868-1.9-1.947-.001-1.086.851-1.961 1.91-1.96 1.046.002 1.9.878 1.9 1.95.001 1.09-.847 1.957-1.91 1.956z" fill="#fff"/></svg>