<svg width="50" height="50" fill="none" xmlns="http://www.w3.org/2000/svg"><path d="M49.999 18.596c-.038.23-.07.46-.114.689-.227 1.191-.794 2.206-1.608 3.092-.993 1.081-2.206 1.764-3.657 1.999a7.04 7.04 0 01-1.11.084c-3.822.006-7.644.004-11.467.004h-.258c.029.095.045.168.072.237.276.7.757 1.237 1.36 1.668.275.196.562.381.858.543a2.904 2.904 0 011.32 1.47c.064.153.13.169.286.142.5-.084.869-.324 1.19-.729.639-.803 1.333-1.563 2.001-2.344.376-.439 1.06-.513 1.483-.154a1.06 1.06 0 01.128 1.506c-.117.14-.24.272-.348.437.083-.02.167-.037.25-.06l8.16-2.245c.227-.063.454-.108.689-.04.236.068.433.201.523.43.13.328.193.675.09 1.025a.997.997 0 01-.728.713c-.92.26-1.84.513-2.76.769l-1.249.346c0 .015-.002.03-.003.044.163.036.325.076.489.109.286.057.56.137.764.369.298.337.342.823.103 1.242a.974.974 0 01-1.068.462c-1.494-.346-2.985-.699-4.479-1.043a.658.658 0 00-.308.008c-1.707.474-3.412.954-5.12 1.429-.112.03-.171.09-.223.194-.494 1.006-1.301 1.595-2.405 1.77-.748.119-1.436-.068-2.063-.473a.618.618 0 00-.557-.081c-1.01.285-2.024.556-3.039.827-.137.037-.21.092-.246.244a3.09 3.09 0 01-2.678 2.353c-1.256.119-2.225-.375-2.937-1.402-.036-.052-.07-.106-.125-.15a8.47 8.47 0 00.821 3.25 8.61 8.61 0 002.552 3.194c-.013-.077-.027-.154-.038-.232-.198-1.333-.059-2.618.593-3.815.565-1.037 1.397-1.817 2.437-2.373 1.168-.625 2.419-.924 3.742-.95 1.235-.022 2.427.183 3.55.7 1.98.91 3.206 2.47 3.717 4.562.596 2.442.047 4.642-1.566 6.574-1.38 1.655-3.158 2.685-5.194 3.308a16.451 16.451 0 01-3.843.698c-1.03.061-2.065.114-3.095.087-1.952-.051-3.864-.394-5.736-.95-.56-.167-.863-.722-.723-1.288.13-.527.677-.87 1.24-.748.525.115 1.04.277 1.566.394 1.354.3 2.723.467 4.112.481 1.817.02 3.618-.108 5.38-.58 1.34-.358 2.591-.906 3.666-1.8.929-.772 1.705-1.668 2.047-2.855.498-1.727.249-3.335-.876-4.765-.625-.796-1.467-1.261-2.445-1.484-1.472-.335-2.914-.263-4.3.376-.732.338-1.332.839-1.75 1.54-.243.407-.362.858-.42 1.324-.087.704-.051 1.403.22 2.065.39.947 1.084 1.518 2.126 1.602.507.04 1.019.077 1.527.063.68-.02 1.272-.264 1.734-.794.355-.407.985-.406 1.444-.025.412.342.48.95.14 1.395-.39.51-.902.867-1.485 1.126-.874.387-1.797.48-2.74.432-.833-.042-1.658-.146-2.464-.37a10.588 10.588 0 01-4.459-2.508 11.22 11.22 0 01-3.277-5.583 10.179 10.179 0 01-.313-3.005 13.41 13.41 0 01.213-1.767c.11-.581.51-.937 1.071-1.097.532-.151.989.002 1.361.4.588.63 1.01 1.363 1.332 2.158.208.514.67.773 1.166.66.577-.13.904-.758.678-1.334a9.458 9.458 0 00-1.46-2.53c-1.33-1.636-3.045-2.574-5.135-2.822-.43-.051-.863-.066-1.295-.09a1.06 1.06 0 01-1.003-1.066c.007-.559.47-1.038 1.03-1.042 1.759-.011 3.446.31 5.02 1.127.126.066.2.051.3-.048.847-.847 1.817-1.53 2.873-2.09.129-.068.175-.145.186-.293.055-.764.11-1.528.199-2.288a1.02 1.02 0 011.028-.93c.534.003.988.364 1.044.888.029.27-.031.55-.064.825-.21 1.752-.053 3.45.754 5.048.604 1.196 1.496 2.145 2.576 2.92.347.25.711.476 1.078.695.406.243.951.135 1.27-.233.275-.318.289-.852.006-1.204a1.362 1.362 0 00-.388-.305c-.787-.45-1.509-.979-2.1-1.675a5.403 5.403 0 01-1.272-3.024c-.08-.808.523-1.532 1.35-1.646a3.03 3.03 0 01.415-.027c4.078-.001 8.155-.004 12.233.001.973.001 1.864-.252 2.629-.85 1.161-.91 1.762-2.112 1.725-3.599-.02-.85-.322-1.617-.816-2.307l-5.96-8.317c-.375-.524-.744-1.052-1.13-1.569a.972.972 0 00-1.611.055 2394.935 2394.935 0 00-3.646 5.34c-.274.401-.644.597-1.123.528-.757-.108-1.116-.993-.661-1.637.336-.477.7-.933 1.052-1.399l.33-.441c-.095-.045-.173-.085-.253-.118a20.91 20.91 0 00-3.594-1.162 22.945 22.945 0 00-2.996-.436c-1.728-.146-3.438.005-5.14.292-.485.082-.912-.092-1.13-.458-.233-.387-.22-.867.053-1.203.117-.143.272-.254.418-.387-.029-.014-.07-.037-.113-.055a659.08 659.08 0 00-1.943-.796c-.747-.304-1.534-.032-1.937.67-.097.166-.192.334-.3.523.094.03.164.056.236.073.52.119 1.044.22 1.56.356.546.144.86.47.868 1.068.008.526-.335.916-.84 1.087-.614.208-1.21.47-1.81.72-.241.099-.47.226-.708.334-.667.302-1.404-.039-1.546-.722a1.054 1.054 0 01.278-.985l.1-.105c-.01-.015-.013-.03-.02-.032-.536-.122-1.066-.284-1.609-.351a1.464 1.464 0 00-1.548.942c-.076.206-.124.422-.191.656.094.006.158.015.223.013.45-.01.899-.027 1.349-.036.464-.008.848.248 1.001.66.156.42.026.922-.335 1.203-.49.383-1.002.74-1.485 1.13a19.3 19.3 0 00-4.91 5.948c-.412.767-.753 1.572-1.11 2.367-.2.444-.515.696-1.004.729-.32.021-.887-.3-1.024-.754-.016-.053-.036-.104-.064-.184-.4.23-.844.366-1.142.734a1.42 1.42 0 00-.326.99c.011.218.063.425.18.614.255-.246.515-.471.744-.725.301-.334.747-.42 1.143-.307.563.16.758.805.645 1.255a20.449 20.449 0 00-.55 3.55 19.796 19.796 0 001.03 7.842 20.197 20.197 0 003.98 6.878 20.097 20.097 0 006.476 4.908c.229.11.442.234.586.452.26.394.257.794.022 1.194-.2.343-.51.51-.904.48a1.488 1.488 0 01-.507-.146 22.144 22.144 0 01-5.313-3.525A22.478 22.478 0 017 38.766c-.07-.11-.137-.128-.258-.094-1.768.502-3.538.999-5.307 1.499-.715.202-1.16-.027-1.41-.73-.005-.016-.016-.03-.025-.045v-.4c.093-.168.168-.35.284-.501.179-.234.458-.297.73-.369 1.578-.416 3.156-.834 4.735-1.252.057-.015.112-.037.171-.057-.031-.183-.14-.284-.271-.376-.925-.655-1.847-1.314-2.771-1.97-1.27-.902-1.854-2.514-1.413-4.007.128-.432.354-.836.544-1.25.047-.1.042-.17-.03-.253-.153-.177-.297-.36-.443-.542-.787-.977-1.015-2.077-.707-3.288.176-.691.55-1.27 1.06-1.762.1-.095.121-.18.065-.307-.12-.275-.227-.555-.336-.835a3.647 3.647 0 011.298-4.32c.126-.087.31-.16.35-.28.043-.124-.046-.299-.093-.446a3.732 3.732 0 01-.166-1.547 3.636 3.636 0 012.614-3.097c.15-.042.188-.112.187-.256-.003-.305-.008-.612.023-.915.143-1.39.877-2.367 2.123-2.97.542-.261 1.124-.337 1.721-.307.133.007.2-.036.232-.172.08-.33.174-.655.266-.98.445-1.563 1.851-2.66 3.414-2.683.462-.006.905.086 1.344.208.11.031.172.01.226-.095.165-.315.34-.624.51-.937.77-1.42 2.393-2.164 3.956-1.767.518.131 1.008.372 1.507.574.12.048.187.028.27-.065.226-.252.441-.52.7-.735 1.367-1.143 3.268-1.13 4.651.026 1.283 1.073 2.554 2.158 3.835 3.232a.863.863 0 00.353.164 22.3 22.3 0 014.27 1.445c.132.06.204.05.286-.074.393-.586.793-1.168 1.194-1.748 1.075-1.557 3.16-1.832 4.57-.57.35.312.615.727.89 1.115 2.165 3.048 4.316 6.106 6.486 9.15.63.882 1.113 1.816 1.286 2.894l.08.492c-.002.344-.002.689-.002 1.033zM28.506 30.48c-1.374-1.321-2.313-2.872-2.795-4.712-.628.392-1.174.83-1.718 1.332.058.042.103.066.138.101.279.286.57.561.832.862.712.819 1.269 1.74 1.725 2.72.067.143.131.188.289.14.446-.134.898-.252 1.347-.377.051-.014.1-.036.182-.066zm-18-20.29l.043.022c-.031-.002-.063-.007-.094-.006-.338.017-.676.06-1.013.048-.664-.02-1.454.55-1.466 1.544 0 .102.031.147.14.113.184-.058.368-.125.557-.167.385-.086.718-.244.951-.58.068-.1.172-.173.253-.264.212-.235.42-.473.629-.71zM23.42 3.138c.033.022.05.038.069.046.842.36 1.678.735 2.53 1.066.23.089.511.042.769.057a6.91 6.91 0 00.01-.056c-.024-.022-.048-.045-.073-.066l-1.293-1.074a1.502 1.502 0 00-1.274-.34 1.42 1.42 0 00-.738.367zM5.26 16.495c.308-.18.6-.347.89-.52.035-.02.057-.067.08-.104l.792-1.31c.026-.042.045-.09.067-.135a2.788 2.788 0 01-.03-.036c-.277.072-.556.137-.83.219-.557.167-.903.546-1.044 1.105-.064.254-.088.513.075.781zM3.717 30.454c-.612.86-.452 1.883.571 2.435l-.57-2.435zm-.612-3.484c.12-.267.321-.483.305-.808-.013-.286.03-.574.047-.861l.034-.585c-.788.6-.971 1.687-.386 2.254z" fill="#fff"/><path d="M44.173 15.224c-.004 2.92-1.833 5.018-4.282 5.306-1.877.22-3.41-.461-4.575-1.948a1.082 1.082 0 01.1-1.456c.376-.352 1.013-.365 1.423-.023.067.056.122.128.178.196.762.902 1.73 1.292 2.883 1.024 1.147-.267 1.858-1.03 2.107-2.185.32-1.482-.796-3.04-2.299-3.242-1.297-.174-2.413.438-2.978 1.648-.193.412-.5.65-.949.682-.755.053-1.303-.709-1.03-1.433.195-.52.492-.984.866-1.394a4.901 4.901 0 016.97-.304c1.045.967 1.572 2.17 1.586 3.129zm-18.5 3.645c-.187-.063-.39-.096-.56-.192-.975-.556-1.534-1.407-1.713-2.508a3.578 3.578 0 01.096-1.55c.192-.692-.056-1.31-.685-1.655-1.073-.59-1.675-1.498-1.831-2.701a3.318 3.318 0 01.14-1.498c.177-.528.677-.795 1.217-.658.585.148.898.605.802 1.173-.027.164-.07.327-.074.492-.019.57.233.998.731 1.268 1.03.558 1.624 1.42 1.823 2.564.093.541.037 1.072-.105 1.599-.124.464-.051.9.264 1.267.124.144.288.26.452.359.43.26.625.71.496 1.198-.124.47-.56.808-1.053.842zm18.891 21.375c0-.217-.008-.434.002-.65.007-.15-.041-.206-.197-.202a37.38 37.38 0 01-1.266 0c-.546-.006-.979-.359-1.075-.866-.124-.656.368-1.246 1.06-1.26.41-.008.822-.002 1.233-.002.242 0 .243 0 .243-.25 0-.422-.006-.845.003-1.267.01-.502.396-.945.871-1.016.53-.079 1.01.191 1.178.685.054.159.07.337.074.507.011.383.008.766.001 1.15-.002.143.044.196.191.194a30.6 30.6 0 011.3 0c.442.012.785.203.964.62.171.402.12.785-.159 1.126-.218.266-.516.377-.854.38a43.75 43.75 0 01-1.25 0c-.146-.003-.192.049-.192.193 0 .477.011.956-.025 1.431-.043.564-.522.94-1.111.92-.526-.02-.968-.468-.988-1.01-.008-.227-.001-.455-.001-.682l-.002-.001zM4.212 42.026a2.839 2.839 0 012.853 2.845c-.001 1.546-1.301 2.85-2.845 2.855-1.553.005-2.857-1.3-2.856-2.858.001-1.553 1.292-2.841 2.848-2.842zm.722 2.841a.746.746 0 00-.724-.725c-.375-.003-.718.347-.716.732.002.403.33.725.737.722a.701.701 0 00.703-.729zM30.778 9.108c-.072.195-.12.403-.218.583-.342.632-.267 1.24.239 1.75 1.165 1.18 1.358 3.058.45 4.398a1.074 1.074 0 01-1.174.467c-.43-.1-.728-.434-.796-.902a1.037 1.037 0 01.154-.703c.358-.587.279-1.292-.239-1.805-1.147-1.135-1.326-2.97-.461-4.33.259-.406.68-.605 1.12-.528.435.076.767.392.86.824.017.075.02.153.029.23l.036.016zM10.866 16.16a1.02 1.02 0 011.044.902c.019.132.016.27.053.395.177.59.596.91 1.189 1.003 1.525.239 2.703 1.378 2.966 2.896.036.205.058.424.024.627-.085.51-.518.849-1.027.846a1.083 1.083 0 01-1.047-.862c-.024-.114-.03-.233-.06-.345-.16-.605-.545-.988-1.167-1.09-.728-.12-1.373-.403-1.913-.907-.683-.638-1.07-1.427-1.126-2.36-.038-.642.424-1.104 1.064-1.106zm4.342 17.587c-.002.525-.226.85-.64 1.046-.377.178-.725.108-1.043-.144a.861.861 0 01-.162-.187c-.406-.59-1.1-.8-1.76-.53a3.615 3.615 0 01-4.241-1.123c-.367-.467-.304-1.175.136-1.514a1.086 1.086 0 011.542.199c.463.591 1.07.745 1.778.484 1.368-.503 2.621-.297 3.73.664.178.155.325.349.469.539a.89.89 0 01.191.566zm13.44 5.83c.03-1.508 1.051-2.48 2.443-2.674 1.075-.15 2.04.142 2.85.872.472.426.797.95.907 1.59.09.518-.257 1.025-.782 1.15-.553.13-1.088-.164-1.24-.682a1.243 1.243 0 00-1.776-.741.5.5 0 00-.266.53c.014.115.041.23.065.343a1.01 1.01 0 01-.785 1.203c-.717.15-1.19-.16-1.325-.883-.044-.233-.061-.472-.09-.708zm-7.036-16.849c-.414-.019-.775-.23-.965-.682-.17-.403-.449-.653-.862-.818-1.365-.542-2.143-1.555-2.286-3.026a2.888 2.888 0 01.045-.858c.123-.589.711-.929 1.335-.808.535.103.882.622.806 1.205-.08.617.323 1.226.952 1.512.34.155.675.343.973.568.52.39.859.925 1.064 1.54.222.662-.296 1.367-1.062 1.367zm-4.617-6.778c-.128-.034-.26-.055-.382-.102a3.528 3.528 0 01-2.246-3.532c.043-.658.402-1.08.985-1.158.682-.091 1.258.445 1.167 1.13-.095.719.359 1.344.902 1.574.38.16.62.444.682.858.097.656-.414 1.212-1.108 1.23zM15.52 29.89c-1.387-.024-2.484-.594-3.19-1.827a2.885 2.885 0 01-.303-.823c-.108-.501.241-1.034.72-1.165.545-.148 1.104.125 1.296.633.29.763.72 1.06 1.545 1.051.463-.005.796.207.986.61.192.408.128.806-.163 1.153-.225.27-.531.37-.89.368zm-1.48 10.374c-.887-.017-1.65-.219-2.302-.757-.45-.372-.573-.956-.294-1.416.318-.526 1.07-.684 1.537-.282.557.48 1.315.462 1.874.063a1.063 1.063 0 011.495.232c.322.432.214 1.093-.243 1.462-.48.387-1.037.59-1.645.663-.16.02-.32.027-.422.035zm-3.787-13.863c-1.499-.012-2.791-.9-3.3-2.27-.099-.265-.148-.533-.066-.814.13-.445.505-.745.949-.756.508-.012.914.26 1.067.739.189.59.605.897 1.201.981.142.02.288.004.432.01.464.023.884.398.959.855.112.681-.37 1.252-1.059 1.255h-.183z" fill="#fff"/><path d="M39.29 14.324c.737.001 1.31.574 1.31 1.309 0 .711-.609 1.32-1.318 1.32a1.322 1.322 0 01-1.316-1.316 1.297 1.297 0 011.325-1.313zm2.944 19.446a1.335 1.335 0 01-1.307 1.326 1.319 1.319 0 01-1.325-1.321c.003-.725.59-1.31 1.317-1.312a1.305 1.305 0 011.315 1.307zm-.4 13.433c-.748-.002-1.308-.572-1.305-1.326a1.297 1.297 0 011.306-1.296c.714 0 1.323.602 1.327 1.31.004.736-.581 1.313-1.328 1.312z" fill="#fff"/></svg>