<svg width="50" height="51" fill="none" xmlns="http://www.w3.org/2000/svg"><path d="M0 33.04c.092-.2.157-.417.28-.593.156-.22.407-.31.674-.306 1.178.018 2.223.4 3.11 1.179.909.798 1.446 1.803 1.59 3.008.08.664.02 1.32-.197 1.955-.051.149-.017.211.118.28a3.962 3.962 0 011.408 1.173c.072.097.14.126.264.107 1.137-.175 2.247-.072 3.321.35.109.043.172.013.248-.06.791-.756 1.74-1.089 2.826-1.025 1.592.092 3.003 1.319 3.323 2.88.029.142.09.212.224.271 1.5.664 2.386 1.812 2.567 3.442.235 2.11-1.245 4.078-3.326 4.47-.34.065-.693.061-1.04.069-.733.015-1.466.019-2.199.025-.683.006-1.366.006-2.05.012-1.305.01-2.61.024-3.914.037-.978.01-1.955.02-2.932.032-.817.01-1.633.024-2.449.03-.9.005-1.557-.494-1.806-1.361-.01-.037-.026-.073-.04-.109V33.039zm1.91 1.09c-.005.081-.01.136-.01.19v13.93c0 .218.005.224.225.222.772-.009 1.544-.02 2.315-.03a1290.4 1290.4 0 013.048-.032l4.514-.04c1.327-.011 2.655-.021 3.982-.039a1.38 1.38 0 00.482-.079c.811-.322 1.527-1.234 1.404-2.43-.097-.948-.927-1.865-1.865-2.014-.504-.08-.982.008-1.443.218a.912.912 0 01-1.217-.43.875.875 0 01.42-1.183c.35-.16.73-.255 1.096-.38.05-.016.102-.029.173-.049-.04-.078-.066-.138-.1-.192-.723-1.15-2.397-1.156-3.132-.013-.34.53-.778.643-1.342.363a5.857 5.857 0 00-.765-.325 4.268 4.268 0 00-1.69-.219c-.125.01-.173.043-.147.185.033.178.046.364.045.545-.003.464-.404.854-.882.873-.443.017-.872-.356-.921-.801-.011-.1-.021-.2-.038-.297-.2-1.171-.975-1.994-2.09-2.167-.719-.111-1.015-.835-.615-1.445.86-1.314.62-2.907-.595-3.9a2.427 2.427 0 00-.853-.462zM50 49.005c-.114.245-.194.513-.348.73-.304.428-.745.639-1.274.64-.761.002-1.522-.001-2.283-.007-1.077-.008-2.154-.021-3.231-.032l-3.299-.034c-1.082-.01-2.165-.02-3.248-.033-.516-.006-1.032-.018-1.549-.026-.06-.001-.128-.01-.181.012-.377.151-.754.08-1.134.022-.175-.027-.354-.033-.527-.068a1.091 1.091 0 01-.372-.132c-.34-.22-.685-.435-.996-.69-.867-.713-1.362-1.636-1.497-2.753-.215-1.775.812-3.611 2.559-4.336a.328.328 0 00.165-.199c.38-1.603 1.494-2.671 3.118-2.903 1.16-.166 2.187.178 3.047.983.09.084.16.103.276.058a6.215 6.215 0 012.412-.426c.287.005.575.045.86.082.124.016.207-.004.287-.109a4.032 4.032 0 011.437-1.189c.114-.056.132-.114.096-.233-.474-1.553-.259-3.006.713-4.31.84-1.127 1.98-1.753 3.387-1.89a2.08 2.08 0 01.853.079c.378.12.614.361.73.733-.002 5.343-.002 10.687-.002 16.031zm-12.52-7.69c-.033-.029-.054-.055-.08-.071-.433-.259-.896-.357-1.391-.247-.891.198-1.466.94-1.47 1.89-.003.527-.27.855-.788.959-.487.097-.92.309-1.261.668-.963 1.014-.888 2.538.165 3.455.273.238.571.384.962.374.805-.02 1.61.012 2.416.02 1.138.013 2.277.024 3.415.035 1.038.01 2.077.023 3.115.032 1.772.015 3.544.028 5.315.04.218.002.223-.003.223-.225V34.297c0-.239-.017-.25-.25-.168a2.928 2.928 0 00-1.832 3.578c.12.406.12.406.543.43.407.024.607.157.7.556.062.265.08.552.051.822-.045.418-.256.526-.674.481a3.639 3.639 0 00-.957.005c-.79.128-1.349.59-1.711 1.296-.256.499-.654.676-1.189.517a4.543 4.543 0 00-1.995-.13c-.62.094-1.214.276-1.725.66-.388.292-.678.668-.924 1.084-.198.335-.564.517-.909.46-.67-.111-1-.791-.657-1.38a7.49 7.49 0 01.5-.726c.122-.162.267-.307.407-.467zm-7.935-12.063c-.041.059-.077.113-.116.164-.265.35-.525.703-.799 1.045-.18.227-.431.318-.721.317-.622-.003-1.244-.001-1.867 0-.242 0-.24 0-.244.235-.003.228.009.458-.024.682a.898.898 0 01-.934.777.925.925 0 01-.871-.89 6.298 6.298 0 010-.583c.006-.145-.047-.194-.193-.193-.627.006-1.255 0-1.883.004-.346.003-.63-.112-.839-.392l-.755-1.015-.1-.137c-.194.16-.379.308-.56.46-.983.825-1.963 1.651-2.947 2.475-.555.464-1.273.26-1.508-.425-.357-1.04-.619-2.106-.647-3.206-.031-1.203-.003-2.407.026-3.611.023-.923.152-1.836.397-2.73a5.388 5.388 0 011.753-2.734c.245-.209.506-.4.746-.614a.399.399 0 00.106-.255c.04-.759.024-1.524.114-2.277.132-1.095.292-2.191.521-3.27a34.049 34.049 0 013.075-8.551c.457-.885.961-1.741 1.59-2.518.319-.395.67-.757 1.098-1.036.635-.412 1.185-.41 1.815.018.484.328.87.758 1.224 1.217.577.745 1.058 1.55 1.49 2.385a34.274 34.274 0 013.288 9.646c.177.97.256 1.958.353 2.94.046.468.034.942.035 1.414 0 .143.044.234.16.32.59.438 1.145.913 1.592 1.505.572.758.896 1.624 1.043 2.55.114.711.193 1.43.236 2.15.051.869.067 1.741.065 2.613a12.294 12.294 0 01-.716 4.082.893.893 0 01-1.416.413c-.675-.543-1.331-1.108-1.995-1.665-.494-.414-.986-.829-1.48-1.242-.03-.024-.065-.04-.112-.068zM19.4 18.805c-.004.605.077 1.678.205 2.748.015.121.05.166.188.16 1.17-.053 2.34-.098 3.51-.142a8.07 8.07 0 01.516-.002c.107.002.15-.042.149-.148-.003-.2-.005-.4 0-.6.013-.49.359-.885.8-.918.54-.04.937.261 1.01.793.032.23.022.465.02.698-.002.129.046.172.175.176 1.325.042 2.651.087 3.977.14.143.005.197-.034.212-.174.153-1.386.25-2.774.177-4.17-.054-1.005-.18-2-.364-2.989a28.302 28.302 0 00-1.337-4.81c-.426-1.126-.919-2.227-1.379-3.34-.056-.136-.14-.212-.294-.225-.442-.039-.882-.103-1.324-.132a12.717 12.717 0 00-2.855.12c-.164.026-.25.1-.318.245a35.334 35.334 0 00-2.076 5.53c-.605 2.147-.995 4.327-.992 7.04zm7.256 10.163c.234 0 .467.01.7-.006a.396.396 0 00.248-.121c.13-.15.241-.319.348-.487.916-1.432 1.45-3.014 1.828-4.658.03-.135-.015-.182-.147-.187-1.203-.042-2.405-.089-3.608-.131-.223-.008-.225 0-.225.22v2.532c0 .882.002 1.765-.003 2.648 0 .145.047.198.193.192.222-.01.444-.002.666-.002zm-2.687-2.795c0-.866-.003-1.732.003-2.598 0-.153-.05-.209-.202-.2-.271.017-.543.019-.815.029-.931.035-1.863.07-2.794.107-.186.007-.214.032-.163.21.218.762.417 1.532.673 2.282a10.347 10.347 0 001.46 2.813c.08.108.167.158.305.155.439-.008.877-.01 1.316 0 .165.004.222-.044.22-.215-.007-.861-.003-1.722-.003-2.583zm-6.255-5.12c-.05.034-.087.049-.108.076-.192.258-.407.502-.565.779-.396.688-.54 1.458-.594 2.235a46.515 46.515 0 00-.127 3.174c0 .73.1 1.459.162 2.188.01.128.048.255.077.403.063-.04.103-.06.135-.087.821-.696 1.642-1.392 2.461-2.09.199-.17.196-.173.088-.43-.715-1.706-1.16-3.482-1.412-5.31-.042-.305-.077-.612-.117-.939zm14.346.002c-.012.055-.018.08-.022.106-.102.691-.186 1.385-.308 2.073a18.99 18.99 0 01-1.244 4.173c-.06.141-.023.22.086.311.71.596 1.416 1.196 2.125 1.794.159.134.32.265.483.401.021-.032.035-.044.038-.059a5.24 5.24 0 00.044-.229c.14-.828.19-1.662.18-2.502-.014-1.15-.014-2.298-.179-3.439-.092-.635-.244-1.254-.567-1.817a3.526 3.526 0 00-.636-.812zm-8.395-17.03h2.415c-.076-.122-.13-.23-.204-.325a65.45 65.45 0 00-.855-1.083c-.06-.073-.134-.134-.239-.04-.45.407-.774.909-1.117 1.448zm.301 36.062v-5.563c0-.481.28-.854.706-.95.57-.131 1.088.273 1.124.876.003.039.002.078.002.117v11.077c0 .256-.043.497-.215.7a.911.911 0 01-.977.292.934.934 0 01-.638-.852c-.003-.066-.002-.133-.002-.2v-5.497z" fill="#fff"/><path d="M20.966 35.222c0-.822-.002-1.644.001-2.465.002-.502.312-.885.76-.954.59-.09 1.061.328 1.07.96.007.54.002 1.078.002 1.616v3.298c-.002.45-.228.8-.596.934-.61.22-1.229-.21-1.235-.874-.007-.839-.002-1.677-.002-2.515zm6 .004c0-.828-.003-1.655.001-2.482.003-.49.314-.87.756-.94.578-.092 1.048.31 1.073.922.006.133.002.266.002.4l-.001 4.546c0 .453-.224.802-.59.937-.617.226-1.235-.211-1.24-.886-.005-.832 0-1.665 0-2.497zm-.393-18.248c-.003.998-.79 1.77-1.802 1.766a1.794 1.794 0 01-1.769-1.781c-.005-.97.82-1.792 1.8-1.79a1.782 1.782 0 011.771 1.805zm-1.374-.026a.41.41 0 00-.404-.402.41.41 0 00-.398.424c.004.231.17.396.402.396a.401.401 0 00.4-.418zm1.374-4.167c0 .987-.792 1.787-1.77 1.79-.981.001-1.803-.815-1.8-1.788a1.793 1.793 0 011.8-1.784c.99.002 1.77.788 1.77 1.782zm-2.176-.004c0 .223.177.414.387.417a.414.414 0 00.415-.409.402.402 0 00-.408-.412.388.388 0 00-.394.404zm.398-5.949c.998 0 1.762.774 1.782 1.769a1.786 1.786 0 01-1.799 1.797c-.967.006-1.782-.834-1.776-1.798a1.788 1.788 0 011.793-1.768zm0 2.176c.236.001.4-.157.404-.39a.389.389 0 00-.403-.412c-.236-.002-.396.155-.4.393-.002.249.154.409.4.41z" fill="#fff"/></svg>