<svg width="40" height="59" fill="none" xmlns="http://www.w3.org/2000/svg"><path d="M8.362 58.588c-.095-.021-.19-.038-.284-.065a1.241 1.241 0 01-.853-1.584c.33-1.069.674-2.134 1.014-3.2 1.01-3.174 2.019-6.349 3.032-9.522.045-.139.027-.221-.095-.311-3.5-2.587-6.998-5.18-10.5-7.764-.407-.3-.687-.648-.676-1.179a1.25 1.25 0 011.174-1.212c.09-.005.182-.002.273-.002 4.276 0 8.551-.002 12.826.004.21 0 .307-.058.372-.265.73-2.32 1.47-4.639 2.215-6.955.057-.178.014-.235-.156-.281-2.266-.619-4.53-1.244-6.794-1.866l-7.133-1.96c-.75-.206-1.138-.888-.915-1.635.724-2.432 1.452-4.862 2.18-7.293L7.313 2.56c.16-.536.326-1.07.481-1.608.144-.496.483-.785.958-.941H31.09c.573.173.86.58 1.03 1.141 1.728 5.745 3.47 11.486 5.208 17.228.236.778.472 1.556.71 2.334.247.811-.116 1.478-.932 1.703-4.618 1.27-9.236 2.537-13.853 3.808-.39.107-.342.056-.226.42a5886.59 5886.59 0 002.156 6.77c.124.386.058.333.469.333l13.043.001c.646 0 1.154.377 1.274.966.112.547-.084.982-.53 1.31l-6.08 4.484c-1.525 1.123-3.047 2.25-4.576 3.367-.156.114-.174.214-.119.389 1.342 4.202 2.68 8.406 4.014 12.612.25.788-.082 1.416-.872 1.685-.018.007-.035.017-.052.026h-.469c-.195-.1-.408-.177-.584-.306a5285.535 5285.535 0 01-10.544-7.768c-.144-.107-.238-.116-.388-.005a3336.628 3336.628 0 01-9.805 7.224c-.46.338-.87.78-1.485.855h-.117zM5.06 36.254l-.016.054.296.217c2.75 1.993 5.501 3.986 8.25 5.98.515.375.68.896.487 1.498l-2.855 8.923-.353 1.115c.08-.056.123-.084.164-.114l2.875-2.12c1.764-1.302 3.528-2.606 5.293-3.907.602-.443 1.109-.437 1.714.01l8.027 5.92c.076.056.155.107.272.186-.024-.1-.032-.15-.047-.197-.266-.837-.533-1.674-.801-2.51-.774-2.417-1.549-4.833-2.32-7.25-.22-.685-.064-1.158.514-1.59 2.683-1.996 5.366-3.992 8.049-5.99.078-.058.154-.12.23-.182l-.021-.043h-10.46c-.628 0-1.077-.32-1.266-.907-1.012-3.147-2.021-6.294-3.032-9.44-.02-.064-.044-.127-.083-.238-.042.11-.068.168-.088.227l-3.192 9.388c-.231.681-.634.97-1.356.97H5.061zM15.709 2.527c.023.094.034.151.05.206.446 1.49.891 2.98 1.338 4.468l4.948 16.507c.08.269.081.27.357.194l5.64-1.573c.304-.085.3-.086.212-.38a14846.657 14846.657 0 01-5.758-19.197c-.054-.18-.134-.245-.326-.245-2.07.007-4.139.005-6.208.005-.075 0-.15.009-.253.015zm19.506 17.859c-.021-.087-.032-.144-.05-.2-1.73-5.812-3.46-11.623-5.187-17.436-.054-.181-.135-.243-.325-.242-1.451.008-2.903.004-4.354.004h-.24c.031.123.05.216.077.307l2.32 7.72c1.082 3.602 2.164 7.204 3.24 10.807.053.174.123.203.29.158.962-.26 1.926-.51 2.888-.763.44-.115.878-.233 1.34-.355zm-30.516-.01c.092.027.152.048.214.064 1.346.356 2.693.708 4.037 1.069.17.046.226-.003.273-.16.46-1.547.929-3.09 1.395-4.634 1.098-3.644 2.198-7.286 3.29-10.932a.845.845 0 000-.45c-.25-.875-.522-1.744-.777-2.618-.044-.153-.111-.207-.27-.206-.88.007-1.757.007-2.636 0-.16-.001-.227.059-.27.207C9.4 4.594 8.84 6.47 8.28 8.346L5.178 18.763l-.479 1.612zM15.388 9.978c-.036.087-.056.124-.068.165-1.18 3.95-2.358 7.902-3.536 11.853-.074.246-.074.248.173.317 2.512.7 5.025 1.398 7.537 2.096.053.014.108.02.207.036L15.388 9.979z" fill="#fff"/></svg>