<svg width="50" height="52" viewBox="0 0 50 52" fill="none" xmlns="http://www.w3.org/2000/svg">
<g clip-path="url(#clip0)">
<path fill-rule="evenodd" clip-rule="evenodd" d="M48.6269 8.99161L26.7302 30.8883C25.8471 31.7479 24.661 32.2253 23.4285 32.2171C22.1961 32.2088 21.0165 31.7157 20.1449 30.8443C19.2733 29.9729 18.7799 28.7934 18.7714 27.5609C18.7629 26.3285 19.24 25.1423 20.0995 24.259L41.9963 2.36168C42.8787 1.49783 44.0662 1.01695 45.301 1.02347C46.5359 1.02999 47.7182 1.52338 48.5914 2.3965C49.4646 3.26961 49.9581 4.45196 49.9648 5.68677C49.9714 6.92158 49.4906 8.10916 48.6269 8.99161ZM10.94 51.01H0V40.07C0 37.9063 0.641618 35.7912 1.84372 33.9921C3.04581 32.193 4.7544 30.7908 6.75342 29.9628C8.75244 29.1348 10.9521 28.9181 13.0742 29.3403C15.1964 29.7624 17.1457 30.8043 18.6757 32.3343C20.2057 33.8643 21.2476 35.8136 21.6697 37.9357C22.0918 40.0579 21.8752 42.2575 21.0472 44.2565C20.2191 46.2556 18.8169 47.9642 17.0179 49.1663C15.2188 50.3684 13.1037 51.01 10.94 51.01ZM10.94 35.38C9.69674 35.3817 8.50494 35.8764 7.62598 36.7556C6.74703 37.6348 6.25269 38.8268 6.25141 40.07V44.7586H10.94C12.1836 44.7586 13.3764 44.2645 14.2558 43.3851C15.1352 42.5057 15.6292 41.313 15.6292 40.0693C15.6292 38.8256 15.1352 37.6329 14.2558 36.7535C13.3764 35.8741 12.1836 35.38 10.94 35.38Z" fill="#FCB316"/>
</g>
<defs>
<clipPath id="clip0">
<rect width="50" height="50.0219" fill="white" transform="translate(0 0.988129)"/>
</clipPath>
</defs>
</svg>
