<svg width="50" height="51" viewBox="0 0 50 51" fill="none" xmlns="http://www.w3.org/2000/svg">
<path d="M18.7699 6.23085C18.7699 6.12442 18.7817 6.02981 18.7817 5.92338C18.7817 4.97731 18.758 4.03125 18.7817 3.08518C18.8172 1.81982 19.4208 0.885582 20.5569 0.306117C20.9593 0.105078 21.3972 0.0222975 21.8587 0.0104717C23.196 -0.0131799 24.4032 0.873756 24.8174 2.11547C24.9239 2.42294 24.9712 2.74223 24.9712 3.07336C24.9712 3.51091 24.9712 3.96029 24.9712 4.39785C24.9712 4.87088 24.9712 5.33209 24.9712 5.80512C24.9712 5.86425 24.9712 5.9352 24.9712 5.99433C24.9831 6.24267 24.9949 6.26633 25.2553 6.27815C25.35 6.27815 25.4328 6.27815 25.5275 6.27815C29.93 6.27815 34.3325 6.27815 38.735 6.27815C39.0427 6.27815 39.3386 6.33728 39.6226 6.44371C40.5694 6.82214 41.4215 7.3543 42.1553 8.05202C43.1967 9.04539 44.2263 10.0506 45.2441 11.0676C46.5459 12.3684 47.8241 13.6811 49.1022 14.9938C49.5046 15.3959 49.7768 15.8807 49.907 16.4365C50.1555 17.5245 49.907 18.4942 49.1496 19.3102C48.6407 19.866 48.0963 20.3982 47.5637 20.9303C45.8832 22.6333 44.2027 24.3243 42.4985 25.98C42.1316 26.3347 41.7647 26.6777 41.3623 26.9733C40.8179 27.3636 40.238 27.6829 39.6226 27.9312C39.3386 28.0495 39.0427 28.0968 38.7232 28.0968C34.3088 28.0968 29.8945 28.0968 25.492 28.0968C25.3973 28.0968 25.2908 28.0968 25.1961 28.0968C24.9949 28.1086 24.9712 28.1323 24.9712 28.3215C24.9712 28.3806 24.9712 28.4279 24.9712 28.487C24.9712 33.4775 24.9712 38.4562 24.9712 43.4467C24.9712 43.5649 24.9476 43.6832 25.0186 43.7896C25.1133 43.8488 25.2316 43.8251 25.3381 43.8251C26.2967 43.8251 27.2435 43.8251 28.2021 43.8251C28.5098 43.8251 28.8057 43.8724 29.1016 43.9788C30.2377 44.3809 30.9478 45.1614 31.1845 46.3558C31.504 48.0114 30.4507 49.5488 28.853 49.9391C28.64 49.9864 28.427 50.01 28.214 50.01C27.5157 50.01 26.8056 50.01 26.1074 50.01C22.628 50.01 19.1367 50.01 15.6573 50.01C15.1839 50.01 14.7461 49.9272 14.32 49.7262C13.3732 49.265 12.7815 48.52 12.5803 47.4911C12.2726 45.8473 13.3022 44.2863 14.9354 43.8961C15.1484 43.8488 15.3615 43.8251 15.5745 43.8251C16.5213 43.8251 17.468 43.8251 18.4148 43.8251C18.5213 43.8251 18.6278 43.8133 18.7462 43.8133C18.758 43.7423 18.7817 43.695 18.7817 43.6477C18.7935 43.5649 18.7817 43.4822 18.7817 43.3994C18.7817 38.4325 18.7817 33.4657 18.7817 28.4989C18.7817 28.3806 18.8054 28.2623 18.7462 28.1441C18.687 28.1323 18.6278 28.1086 18.5687 28.1086C18.4622 28.0968 18.3556 28.1086 18.2491 28.1086C13.2904 28.1086 8.33164 28.1086 3.36106 28.1086C3.19537 28.1086 3.04152 28.0968 2.87584 28.0968C1.82255 28.0613 0.591736 27.3281 0.153851 25.98C0.082843 25.7434 0.0236694 25.5069 0.0236694 25.2704C0.0236694 25.1048 0.0118347 24.9511 0.0118347 24.7855C0 19.7123 0 14.6627 0 9.60121C0 9.29373 0 8.98626 0.0710083 8.69062C0.319537 7.53169 1.26631 6.59745 2.42612 6.34911C2.63914 6.3018 2.85217 6.28998 3.06519 6.28998C3.1717 6.28998 3.27822 6.28998 3.38473 6.28998C8.33164 6.28998 13.2904 6.28998 18.2373 6.28998C18.3438 6.28998 18.4503 6.28998 18.5568 6.28998C18.6278 6.27815 18.687 6.2545 18.7699 6.23085ZM22.0599 12.4631C17.3023 12.4631 12.5566 12.4631 7.79908 12.4631C7.66889 12.4631 7.55055 12.4631 7.42037 12.4631C6.92331 12.4512 6.40258 12.8415 6.24873 13.3382C6.20139 13.4919 6.18955 13.6575 6.18955 13.823C6.18955 16.0581 6.18955 18.2814 6.18955 20.5164C6.18955 20.5637 6.18955 20.611 6.18955 20.6465C6.17772 21.1195 6.53276 21.6754 7.11266 21.8409C7.27835 21.8882 7.44403 21.8882 7.62156 21.8882C17.2195 21.8882 26.8175 21.8882 36.4154 21.8882C36.6284 21.8882 36.8296 21.8764 37.0308 21.8291C37.6936 21.6754 38.2853 21.4034 38.7824 20.9185C39.6936 20.0197 40.6049 19.121 41.5043 18.2222C41.5872 18.1394 41.67 18.0567 41.7529 17.9739C42.1789 17.4535 42.1316 16.7795 41.7292 16.3183C41.6819 16.2591 41.6227 16.2 41.5635 16.1409C40.6286 15.2303 39.7055 14.3079 38.7705 13.3973C38.1314 12.7823 37.3622 12.4512 36.4628 12.4394C36.3562 12.4394 36.2497 12.4394 36.1432 12.4394C31.4448 12.4631 26.7583 12.4631 22.0599 12.4631Z" fill="#F47B20"/>
</svg>
