<svg width="50" height="51" viewBox="0 0 50 51" fill="none" xmlns="http://www.w3.org/2000/svg">
<g clip-path="url(#clip0)">
<path d="M49.9996 46.8661V26.8062C49.9996 25.0098 48.6523 23.6625 46.8559 23.6625H31.287C29.4906 23.6625 28.1433 25.0098 28.1433 26.8062V47.0158C28.1433 48.8122 29.4906 50.1595 31.287 50.1595H46.8559C48.6523 50.0098 49.9996 48.6625 49.9996 46.8661ZM35.6283 43.8721C34.8798 43.8721 34.4307 43.2733 34.4307 42.6745V31.2973C34.4307 30.5488 35.0295 30.0997 35.6283 30.0997H42.5146C43.2631 30.0997 43.7122 30.6985 43.7122 31.2973V42.6745C43.7122 43.423 43.1134 43.8721 42.5146 43.8721H35.6283Z" fill="#F15C2C"/>
<path d="M21.8563 46.8663V3.15372C21.8563 1.35731 20.509 0.0100098 18.7126 0.0100098H3.14371C1.34731 0.0100098 0 1.35731 0 3.15372V47.016C0 48.8124 1.34731 50.1597 3.14371 50.1597H18.7126C20.509 50.01 21.8563 48.6627 21.8563 46.8663ZM7.48503 43.8723C6.73653 43.8723 6.28742 43.2735 6.28742 42.6747V7.49504C6.28742 6.74654 6.88623 6.29743 7.48503 6.29743H14.3713C15.1198 6.29743 15.5689 6.89624 15.5689 7.49504V42.525C15.5689 43.2735 14.9701 43.7226 14.3713 43.7226H7.48503V43.8723Z" fill="#F15C2C"/>
<path d="M28.1433 3.15372V14.2316C28.1433 16.028 29.4906 17.3753 31.287 17.3753H46.8559C48.6523 17.3753 49.9996 16.028 49.9996 14.2316V3.15372C49.9996 1.35731 48.6523 0.0100098 46.8559 0.0100098H31.287C29.4906 0.0100098 28.1433 1.35731 28.1433 3.15372ZM42.5146 6.29743C43.2631 6.29743 43.7122 6.89624 43.7122 7.49504V9.89025C43.7122 10.6388 43.1134 11.0879 42.5146 11.0879H35.6283C34.8798 11.0879 34.4307 10.4891 34.4307 9.89025V7.49504C34.4307 6.74654 35.0295 6.29743 35.6283 6.29743H42.5146Z" fill="#F15C2C"/>
</g>
<defs>
<clipPath id="clip0">
<rect width="50" height="50" fill="white" transform="translate(0 0.0100098)"/>
</clipPath>
</defs>
</svg>
