<svg width="49" height="50" viewBox="0 0 49 50" fill="none" xmlns="http://www.w3.org/2000/svg">
<path d="M48.9772 25.4748C48.9772 32.0596 48.9372 38.6455 48.9997 45.229C49.021 47.3777 47.4802 49.4825 45.1014 49.8627C44.8763 49.899 44.6449 49.9027 44.4173 49.9027C31.1853 49.904 17.9521 49.9052 4.72009 49.9027C2.56771 49.9027 0.725477 48.4445 0.240221 46.3434C0.152675 45.9644 0.166431 45.5579 0.16518 45.1627C0.161428 38.3904 0.16268 31.6181 0.16268 24.8457C0.16268 18.4686 0.223964 12.0915 0.132666 5.71688C0.0963966 3.22557 2.1925 0.979381 4.87892 0.984383C18.0071 1.00815 31.1353 1.00189 44.2635 0.988135C46.5097 0.985634 48.3744 2.47267 48.8584 4.4212C48.9572 4.81891 48.971 5.24413 48.9722 5.6581C48.9797 10.5344 48.9772 15.4108 48.9772 20.2871C48.9772 22.0155 48.9772 23.7452 48.9772 25.4748ZM31.6944 32.8225C34.1744 30.3424 36.5719 27.9449 39.0157 25.5011C41.8159 28.3013 44.5749 31.0603 47.3339 33.8192C47.3714 33.7967 47.4089 33.7742 47.4464 33.7517C47.4464 33.5253 47.4464 33.299 47.4464 33.0713C47.4464 24.0691 47.4464 15.0656 47.4464 6.06332C47.4464 5.89698 47.4514 5.72939 47.4439 5.56305C47.3701 4.01348 46.1007 2.6165 44.4023 2.619C31.1903 2.63901 17.9771 2.6315 4.76512 2.6265C3.88215 2.6265 3.14301 2.9054 2.54019 3.567C1.92862 4.23735 1.69224 5.02152 1.69349 5.91199C1.69724 13.8724 1.69599 21.8342 1.69724 29.7946C1.69724 29.9935 1.71475 30.1911 1.72976 30.5313C2.73279 29.5282 3.64077 28.6202 4.54875 27.7123C5.46298 26.798 6.37597 25.885 7.2902 24.9708C8.21819 24.0428 9.14743 23.1136 10.0754 22.1856C10.9897 21.2714 11.8976 20.3534 12.8181 19.4466C13.7299 18.5474 14.6028 17.6044 15.5933 16.719C20.9749 22.103 26.304 27.4334 31.6944 32.8225ZM24.8332 28.4376C21.6916 25.2922 18.6049 22.2031 15.4408 19.0352C12.568 21.8767 9.64645 24.767 6.72615 27.6572C6.75992 27.7273 6.79369 27.7973 6.82746 27.8661C7.1914 28.0574 7.54783 28.2626 7.91928 28.4364C9.31627 29.0892 10.7583 29.2306 12.2278 28.7253C12.7368 28.5502 13.2233 28.3026 13.7048 28.0562C15.6534 27.0557 17.5844 27.0907 19.4917 28.1525C20.5735 28.7553 21.7128 29.0992 22.9572 29.0004C23.6351 28.9467 24.3192 28.8741 24.8332 28.4376ZM35.6314 31.2004C35.6477 31.2591 35.6452 31.3142 35.6715 31.3342C36.5932 32.0733 37.2698 32.1921 38.2353 31.6006C39.0295 31.1128 39.7811 31.1091 40.5715 31.6081C40.8442 31.7807 41.1781 31.887 41.4983 31.9495C41.946 32.0358 42.3512 31.9007 42.5989 31.6218C41.367 30.3637 40.1576 29.128 38.9244 27.8673C37.9226 28.8691 36.8933 29.8972 35.8653 30.9277C35.7778 31.0153 35.704 31.1153 35.6314 31.2004Z" fill="white"/>
<path d="M8.88475 17.9023C6.49348 18.0774 4.12473 15.835 4.13849 13.1598C4.14974 10.9486 5.91568 8.38854 8.92101 8.4098C11.6074 8.42856 13.6498 10.4609 13.6735 13.1923C13.696 15.8487 11.3698 18.0737 8.88475 17.9023Z" fill="white"/>
<path d="M33.0751 15.3096C32.4398 17.0542 32.6224 18.6563 33.7355 20.0783C34.8323 21.4803 36.3468 21.9981 38.1065 21.8805C37.59 23.6827 35.2338 24.9822 33.2815 24.7283C30.7752 24.4019 28.7328 22.227 29.068 19.2629C29.2919 17.2819 31.2179 15.3408 33.0751 15.3096Z" fill="white"/>
<path d="M37.9801 12.2153C37.805 12.0165 37.5787 11.7601 37.4036 11.56C39.686 9.27751 41.946 7.01756 44.2397 4.7251C44.4298 4.9127 44.6774 5.15658 44.86 5.33667C42.56 7.63414 40.3001 9.89533 37.9801 12.2153Z" fill="white"/>
<path d="M44.6787 7.70898C44.8776 7.88908 45.1327 8.1192 45.4216 8.38059C45.244 8.60071 45.1415 8.75079 45.0151 8.87835C44.0934 9.80759 43.1679 10.7331 42.2387 11.6561C41.7859 12.1051 41.7434 12.1026 41.2969 11.6486C41.1831 11.5335 41.0868 11.4022 41.0193 11.3221C42.2387 10.1203 43.4293 8.94464 44.6787 7.70898Z" fill="white"/>
<path d="M37.9639 7.38672C38.608 6.73762 39.2433 6.09853 39.9362 5.39941C40.1363 5.62328 40.3776 5.89468 40.5627 6.10229C39.9186 6.75013 39.2833 7.38922 38.5967 8.08083C38.3953 7.85946 38.1502 7.59057 37.9639 7.38672Z" fill="white"/>
<path d="M27.8411 13.3522C28.0162 13.2283 28.1612 13.1258 28.3813 12.9707C28.9116 13.7249 29.4169 14.444 29.9584 15.2144C29.7208 15.3432 29.5682 15.4258 29.3869 15.5233C28.8716 14.7992 28.3814 14.1113 27.8411 13.3522Z" fill="white"/>
<path d="M13.4535 8.82125C13.8174 8.71495 14.1664 8.59739 14.5216 8.51359C14.9255 8.41729 15.3357 8.346 15.7435 8.27472C15.9373 8.24095 16.1299 8.2447 16.1749 8.50108C16.2137 8.72245 16.1274 8.85002 15.8973 8.9013C15.2482 9.04387 14.6028 9.20396 13.9538 9.35028C13.5736 9.43408 13.496 9.19395 13.4535 8.82125Z" fill="white"/>
<path d="M26.3415 11.1037C26.2252 11.29 26.1414 11.4239 26.0714 11.5389C25.9876 11.5389 25.9375 11.5552 25.9088 11.5364C25.2922 11.1512 24.6806 10.7573 24.0615 10.3758C23.7214 10.1669 23.8302 9.94807 24.0478 9.63916C24.8445 10.0431 25.6011 10.4859 26.3415 11.1037Z" fill="white"/>
<path d="M18.8688 8.14209C19.768 8.29592 20.6172 8.44225 21.529 8.59858C21.4714 8.85997 21.4339 9.02756 21.3989 9.18889C21.2913 9.20265 21.2288 9.22641 21.1725 9.21641C20.5397 9.1076 19.9094 8.98253 19.274 8.88498C18.8163 8.8162 18.8125 8.8312 18.8688 8.14209Z" fill="white"/>
</svg>
