<svg width="200" height="42" viewBox="0 0 200 42" fill="none" xmlns="http://www.w3.org/2000/svg">
<g clip-path="url(#clip0)">
<path d="M42.0914 30.3747L26.4757 3.32213C25.3766 1.42867 23.0697 0.405762 21.4483 0.405762C19.816 0.405762 17.4981 1.42867 16.399 3.32213L0.783364 30.3747C-0.272189 32.192 -0.272189 34.3684 0.783364 36.1966C1.83892 38.0248 3.7215 39.1239 5.82172 39.1239H17.5199V28.8622H13.5915L21.4591 15.412L29.3268 28.8622H25.3875V39.1239H37.0421C39.1424 39.1239 41.0249 38.0357 42.0805 36.1966C43.1361 34.3684 43.136 32.192 42.0914 30.3747ZM30.1865 30.0265C30.4368 30.0265 30.6653 29.8959 30.785 29.6783C30.9047 29.4607 30.9047 29.1995 30.785 28.9819L22.0576 14.0627C21.9379 13.8559 21.7094 13.7253 21.4591 13.7253C21.2197 13.7253 20.9912 13.8559 20.8606 14.0627L12.1224 28.9819C12.0027 29.1995 11.9918 29.4607 12.1224 29.6783C12.2421 29.8959 12.4706 30.0265 12.7209 30.0265H16.3228V33.3673H6.38759C6.16995 33.3673 6.06113 33.2149 6.0176 33.1497C5.98495 33.0844 5.90878 32.9211 6.0176 32.7253L21.1327 6.56497C21.2306 6.40174 21.3612 6.35821 21.4591 6.35821C21.5897 6.35821 21.6985 6.43438 21.7747 6.56497C24.7346 11.5707 34.0496 27.861 36.8354 32.7253C36.9442 32.9211 36.868 33.0844 36.8354 33.1497C36.8027 33.2149 36.6939 33.3673 36.4872 33.3673H26.5737V30.0265H30.1865ZM41.0685 35.5981C40.2306 37.0563 38.7288 37.9268 37.053 37.9268H26.5846V34.5534H36.5089C37.0857 34.5425 37.5971 34.2379 37.8801 33.7373C38.163 33.2367 38.163 32.6382 37.8801 32.1376C35.0834 27.2734 25.7793 10.9831 22.8085 5.96646C22.5147 5.46588 22.0141 5.17207 21.47 5.17207H21.4591C20.9042 5.17207 20.4036 5.47677 20.1206 5.96646L5.01646 32.1376C4.73352 32.6382 4.72264 33.2367 5.00557 33.7373C5.28851 34.2379 5.79996 34.5425 6.38759 34.5534H16.3337V37.9268H5.82172C4.15678 37.9268 2.65507 37.0563 1.80627 35.5981C0.979239 34.1399 0.97924 32.4097 1.81715 30.9624L17.4328 3.92064C18.2598 2.48422 20.1642 1.5919 21.4591 1.5919C22.765 1.5919 24.6149 2.46246 25.4528 3.92064L41.0685 30.9624C41.9064 32.4097 41.9064 34.1399 41.0685 35.5981Z" fill="#fff"/>
<path d="M89.2324 14.3892H82.355V34.597H89.2324V14.3892Z" fill="#fff"/>
<path d="M105.751 13.8452C102.432 13.8452 100.713 15.3687 99.5378 17.3601L99.614 14.3893H92.7366V41.5943H99.614V31.8658C100.942 34.0204 103.053 35.1521 106.219 35.1521C111.258 35.1521 114.229 31.1258 114.229 24.3681C114.229 17.6321 111.018 13.8452 105.751 13.8452ZM103.444 29.4391C101.105 29.4391 99.4943 27.4042 99.4943 24.4334C99.4943 21.4626 101.094 19.395 103.444 19.395C106.067 19.395 107.318 20.9947 107.318 24.4007C107.308 27.7959 105.98 29.4391 103.444 29.4391Z" fill="#fff"/>
<path d="M123.728 5.05249H116.851V34.608H123.728V5.05249Z" fill="#fff"/>
<path d="M137.015 13.8452C130.53 13.8452 126.188 17.9477 126.188 24.749C126.188 31.4305 130.802 35.3045 137.135 35.3045C142.021 35.3045 145.656 33.3457 147.527 29.2867L141.705 27.4477C140.77 29.4391 139.17 29.9179 137.059 29.9179C134.828 29.9179 133.272 28.6229 132.837 26.1636H147.571C148.343 16.7398 142.054 13.8452 137.015 13.8452ZM132.869 22.2135C133.381 19.9065 134.828 19.1992 137.015 19.1992C139.442 19.1992 140.693 20.2982 141.009 22.2135H132.869Z" fill="#fff"/>
<path d="M89.2324 5.11768H82.355V11.7122H89.2324V5.11768Z" fill="#fff"/>
<path d="M74.0632 16.8486L74.1394 14.3892H67.262V34.5971H74.1394V24.1613C74.1394 21.5387 74.9991 20.3743 76.9578 20.3743C77.9372 20.3743 78.601 20.6464 79.1886 21.3102H79.2648L79.2866 21.2667V14.0628C79.0798 14.041 78.873 14.041 78.6445 14.041C76.8708 14.041 75.0752 15.053 74.0632 16.8486Z" fill="#fff"/>
<path d="M159.03 5.05249H152.152V34.608H159.03V5.05249Z" fill="#fff"/>
<path d="M168.911 5.11768H162.033V11.7122H168.911V5.11768Z" fill="#fff"/>
<path d="M168.911 14.3892H162.033V34.597H168.911V14.3892Z" fill="#fff"/>
<path d="M60.0361 5.12866L53.1587 9.10059V14.3892H49.8723V19.8302H53.1587V26.8817V29.2976C53.1587 29.3084 53.1587 29.3193 53.1587 29.3193V29.4064C53.1696 31.4848 53.6048 32.8342 54.4101 33.7483C55.3133 34.8038 56.913 35.1521 59.0567 35.1521C61.0916 35.1521 62.7675 34.6841 63.551 34.3686V28.5902H63.4748C63.083 28.8296 62.4192 29.0255 61.5596 29.0255C60.3625 29.0255 60.047 28.4052 60.0361 27.3388V19.8411H64.1821V14.4001H60.0361V5.12866V5.12866Z" fill="#fff"/>
<path d="M195.854 4.81307L188.976 8.78499V14.3892H182.404V11.5055C182.404 10.3738 183.144 9.86231 184.319 9.86231C185.494 9.86231 186.234 10.2541 186.778 10.6785H186.854L187.594 5.36805C186.223 4.78042 184.776 4.38867 182.284 4.38867C178.105 4.38867 175.526 6.22773 175.526 10.6458V14.4001H170.967V19.8411H175.526V34.6079H182.404V19.8302H188.976V26.8817V29.2975C188.976 29.3084 188.976 29.3193 188.976 29.3193V29.4064C188.987 31.4848 189.423 32.8342 190.228 33.7483C191.131 34.8038 192.731 35.152 194.874 35.152C196.909 35.152 198.585 34.6841 199.369 34.3685V28.5902H199.293C198.901 28.8296 198.237 29.0255 197.377 29.0255C196.18 29.0255 195.865 28.4052 195.854 27.3388V19.8411H200V14.4001H195.854V4.81307Z" fill="#fff"/>
</g>
<defs>
<clipPath id="clip0">
<rect width="200" height="41.1883" fill="white" transform="translate(0 0.405762)"/>
</clipPath>
</defs>
</svg>
