<svg width="394" height="356" viewBox="0 0 394 356" fill="none" xmlns="http://www.w3.org/2000/svg">
<path d="M386.8 275.542L243.3 26.9421C233.2 9.54209 212 0.14209 197.1 0.14209C182.1 0.14209 160.8 9.54209 150.7 26.9421L7.2 275.542C-2.5 292.242 -2.5 312.242 7.2 329.042C16.9 345.842 34.2 355.942 53.5 355.942H161V261.642H124.9L197.2 138.042L269.5 261.642H233.3V355.942H340.4C359.7 355.942 377 345.942 386.7 329.042C396.4 312.242 396.4 292.242 386.8 275.542ZM277.4 272.342C279.7 272.342 281.8 271.142 282.9 269.142C284 267.142 284 264.742 282.9 262.742L202.7 125.642C201.6 123.742 199.5 122.542 197.2 122.542C195 122.542 192.9 123.742 191.7 125.642L111.4 262.742C110.3 264.742 110.2 267.142 111.4 269.142C112.5 271.142 114.6 272.342 116.9 272.342H150V303.042H58.7C56.7 303.042 55.7 301.642 55.3 301.042C55 300.442 54.3 298.942 55.3 297.142L194.2 56.7421C195.1 55.2421 196.3 54.8421 197.2 54.8421C198.4 54.8421 199.4 55.5421 200.1 56.7421C227.3 102.742 312.9 252.442 338.5 297.142C339.5 298.942 338.8 300.442 338.5 301.042C338.2 301.642 337.2 303.042 335.3 303.042H244.2V272.342H277.4ZM377.4 323.542C369.7 336.942 355.9 344.942 340.5 344.942H244.3V313.942H335.5C340.8 313.842 345.5 311.042 348.1 306.442C350.7 301.842 350.7 296.342 348.1 291.742C322.4 247.042 236.9 97.3421 209.6 51.2421C206.9 46.6421 202.3 43.9421 197.3 43.9421H197.2C192.1 43.9421 187.5 46.7421 184.9 51.2421L46.1 291.742C43.5 296.342 43.4 301.842 46 306.442C48.6 311.042 53.3 313.842 58.7 313.942H150.1V344.942H53.5C38.2 344.942 24.4 336.942 16.6 323.542C9 310.142 9 294.242 16.7 280.942L160.2 32.4421C167.8 19.2421 185.3 11.0421 197.2 11.0421C209.2 11.0421 226.2 19.0421 233.9 32.4421L377.4 280.942C385.1 294.242 385.1 310.142 377.4 323.542Z" fill="black"/>
</svg>
