<svg width="394" height="356" viewBox="0 0 394 356" fill="none" xmlns="http://www.w3.org/2000/svg">
<g clip-path="url(#clip0)">
<path d="M386.8 275.4L243.3 26.8C233.2 9.4 212 0 197.1 0C182.1 0 160.8 9.4 150.7 26.8L7.20005 275.4C-2.49995 292.1 -2.49995 312.1 7.20005 328.9C16.9 345.7 34.2001 355.8 53.5 355.8H161V261.5H124.9L197.2 137.9L269.5 261.5H233.3V355.8H340.4C359.7 355.8 377 345.8 386.7 328.9C396.4 312.1 396.4 292.1 386.8 275.4ZM277.4 272.2C279.7 272.2 281.8 271 282.9 269C284 267 284 264.6 282.9 262.6L202.7 125.5C201.6 123.6 199.5 122.4 197.2 122.4C195 122.4 192.9 123.6 191.7 125.5L111.4 262.6C110.3 264.6 110.2 267 111.4 269C112.5 271 114.6 272.2 116.9 272.2H150V302.9H58.7001C56.7001 302.9 55.7001 301.5 55.3 300.9C55 300.3 54.3 298.8 55.3 297L194.2 56.6C195.1 55.1 196.3 54.7 197.2 54.7C198.4 54.7 199.4 55.4 200.1 56.6C227.3 102.6 312.9 252.3 338.5 297C339.5 298.8 338.8 300.3 338.5 300.9C338.2 301.5 337.2 302.9 335.3 302.9H244.2V272.2H277.4ZM377.4 323.4C369.7 336.8 355.9 344.8 340.5 344.8H244.3V313.8H335.5C340.8 313.7 345.5 310.9 348.1 306.3C350.7 301.7 350.7 296.2 348.1 291.6C322.4 246.9 236.9 97.2 209.6 51.1C206.9 46.5 202.3 43.8 197.3 43.8H197.2C192.1 43.8 187.5 46.6 184.9 51.1L46.1 291.6C43.5 296.2 43.4001 301.7 46 306.3C48.6 310.9 53.3 313.7 58.7001 313.8H150.1V344.8H53.5C38.2001 344.8 24.4001 336.8 16.6 323.4C9.00005 310 9.00005 294.1 16.7001 280.8L160.2 32.3C167.8 19.1 185.3 10.9 197.2 10.9C209.2 10.9 226.2 18.9 233.9 32.3L377.4 280.8C385.1 294.1 385.1 310 377.4 323.4Z" fill="white"/>
</g>
<defs>
<clipPath id="clip0">
<rect width="394" height="355.7" fill="white"/>
</clipPath>
</defs>
</svg>
