<svg width="81" height="81" viewBox="0 0 81 81" fill="none" xmlns="http://www.w3.org/2000/svg">
<path d="M40.5 80.9844C18.4512 80.9844 0.5 63.0332 0.5 40.9844C0.5 18.9356 18.4512 0.984375 40.5 0.984375C62.5488 0.984375 80.5 18.9356 80.5 40.9844C80.5 63.0332 62.5488 80.9844 40.5 80.9844ZM40.5 4.00877C20.0122 4.00877 3.42683 20.5941 3.42683 41.0819C3.42683 61.5697 20.0122 78.1551 40.5 78.1551C60.9878 78.1551 77.5732 61.5697 77.5732 41.0819C77.5732 20.5941 60.9878 4.00877 40.5 4.00877ZM32.6951 27.6185L55.1341 41.0819L32.6951 54.5453V27.6185ZM29.7683 22.4478V59.7161L34.1585 57.0819L56.5976 43.6185L60.6951 41.1795L56.5 38.6429L34.061 25.1795L29.7683 22.4478Z" fill="white"/>
</svg>
