<svg width="22" height="23" viewBox="0 0 22 23" fill="none" xmlns="http://www.w3.org/2000/svg">
  <g clip-path="url(#clip0)">
    <path fill-rule="evenodd" clip-rule="evenodd"
      d="M11.0003 22.01C8.82465 22.01 6.69785 21.3648 4.88886 20.1561C3.07988 18.9474 1.66994 17.2294 0.837353 15.2193C0.00476623 13.2093 -0.213076 10.9975 0.211373 8.86365C0.635822 6.7298 1.6835 4.76974 3.22192 3.23132C4.76034 1.6929 6.7204 0.645221 8.85425 0.220772C10.9881 -0.203677 13.1999 0.0141657 15.2099 0.846752C17.22 1.67934 18.938 3.08927 20.1467 4.89826C21.3554 6.70725 22.0006 8.83405 22.0006 11.0097C22.0006 12.4543 21.7161 13.8847 21.1633 15.2193C20.6104 16.554 19.8002 17.7666 18.7787 18.7881C16.7157 20.851 13.9178 22.01 11.0003 22.01ZM11.0003 2.76C9.36856 2.76 7.77347 3.24387 6.41672 4.15042C5.05998 5.05696 4.00253 6.34547 3.37809 7.853C2.75365 9.36054 2.59027 11.0194 2.90861 12.6198C3.22694 14.2202 4.0127 15.6902 5.16651 16.844C6.32033 17.9978 7.79038 18.7836 9.39076 19.1019C10.9912 19.4203 12.65 19.2569 14.1575 18.6324C15.6651 18.008 16.9536 16.9505 17.8601 15.5938C18.7667 14.2371 19.2505 12.642 19.2505 11.0102C19.2505 8.82214 18.3813 6.72368 16.8341 5.17648C15.2869 3.62928 13.1884 2.76007 11.0003 2.76007V2.76ZM9.53974 15.0423C9.45477 15.0989 9.35604 15.1313 9.25409 15.1361C9.15213 15.141 9.05078 15.118 8.96084 15.0698C8.87089 15.0215 8.79573 14.9498 8.74337 14.8622C8.69101 14.7745 8.66342 14.6744 8.66353 14.5723L8.66425 7.45368C8.66424 7.35174 8.69187 7.2517 8.7442 7.16421C8.79654 7.07672 8.87161 7.00506 8.96144 6.95686C9.05127 6.90865 9.15249 6.88571 9.25432 6.89047C9.35615 6.89522 9.45479 6.9275 9.53974 6.98387L14.5972 10.5432C14.6748 10.5945 14.7385 10.6643 14.7826 10.7462C14.8266 10.8282 14.8497 10.9198 14.8497 11.0128C14.8497 11.1058 14.8266 11.1974 14.7826 11.2794C14.7385 11.3613 14.6748 11.4311 14.5972 11.4824L9.53974 15.0423Z"
      fill="#fff" />
  </g>
  <defs>
    <clipPath id="clip0">
      <rect width="22" height="22" fill="white" transform="translate(0 0.0100098)" />
    </clipPath>
  </defs>
</svg>