<svg width="170" height="36" viewBox="0 0 170 36" fill="none" xmlns="http://www.w3.org/2000/svg">
<g clip-path="url(#clip0)">
<path d="M35.7776 25.4736L22.5043 2.47892C21.5701 0.869471 19.6092 0 18.231 0C16.8435 0 14.8734 0.869471 13.9391 2.47892L0.665835 25.4736C-0.231385 27.0183 -0.231385 28.8683 0.665835 30.4222C1.56305 31.9762 3.16325 32.9104 4.94844 32.9104H14.8919V24.1879H11.5527L18.2402 12.7553L24.9278 24.1879H21.5794V32.9104H31.4858C33.271 32.9104 34.8712 31.9854 35.7684 30.4222C36.6656 28.8683 36.6656 27.0183 35.7776 25.4736ZM25.6585 25.1777C25.8712 25.1777 26.0655 25.0667 26.1672 24.8817C26.269 24.6967 26.269 24.4747 26.1672 24.2897L18.749 11.6084C18.6472 11.4326 18.453 11.3216 18.2402 11.3216C18.0367 11.3216 17.8425 11.4326 17.7315 11.6084L10.304 24.2897C10.2023 24.4747 10.193 24.6967 10.304 24.8817C10.4058 25.0667 10.6 25.1777 10.8127 25.1777H13.8744V28.0173H5.42942C5.24443 28.0173 5.15193 27.8878 5.11493 27.8323C5.08718 27.7768 5.02244 27.6381 5.11493 27.4716L17.9627 5.23532C18.046 5.09658 18.157 5.05958 18.2402 5.05958C18.3512 5.05958 18.4437 5.12433 18.5085 5.23532C21.0244 9.49018 28.9421 23.337 31.31 27.4716C31.4025 27.6381 31.3378 27.7768 31.31 27.8323C31.2823 27.8878 31.1898 28.0173 31.0141 28.0173H22.5876V25.1777H25.6585ZM34.9082 29.9135C34.1959 31.1529 32.9195 31.8929 31.495 31.8929H22.5968V29.0255H31.0326C31.5228 29.0163 31.9575 28.7573 32.198 28.3318C32.4385 27.9063 32.4385 27.3976 32.198 26.9721C29.8208 22.8375 21.9124 8.9907 19.3872 4.72659C19.1375 4.3011 18.712 4.05136 18.2495 4.05136H18.2402C17.7685 4.05136 17.343 4.31035 17.1025 4.72659L4.26396 26.9721C4.02347 27.3976 4.01422 27.9063 4.25471 28.3318C4.4952 28.7573 4.92994 29.0163 5.42942 29.0255H13.8836V31.8929H4.94844C3.53324 31.8929 2.25678 31.1529 1.53531 29.9135C0.832329 28.674 0.832329 27.2033 1.54455 25.9731L14.8179 2.98765C15.5208 1.76669 17.1395 1.00822 18.2402 1.00822C19.3502 1.00822 20.9226 1.74819 21.6349 2.98765L34.9082 25.9731C35.6204 27.2033 35.6204 28.674 34.9082 29.9135Z" fill="white"/>
<path d="M75.8478 11.886H70.002V29.0627H75.8478V11.886Z" fill="white"/>
<path d="M89.8888 11.4233C87.0677 11.4233 85.6062 12.7183 84.6072 14.411L84.672 11.8858H78.8262V35.01H84.672V26.7408C85.8005 28.5723 87.5949 29.5342 90.2866 29.5342C94.5692 29.5342 97.0944 26.1118 97.0944 20.3678C97.0944 14.6422 94.3657 11.4233 89.8888 11.4233ZM87.9279 24.6781C85.9392 24.6781 84.5702 22.9485 84.5702 20.4233C84.5702 17.8981 85.93 16.1407 87.9279 16.1407C90.1571 16.1407 91.2208 17.5004 91.2208 20.3955C91.2115 23.2814 90.0831 24.6781 87.9279 24.6781Z" fill="white"/>
<path d="M105.169 3.94971H99.3235V29.0719H105.169V3.94971Z" fill="white"/>
<path d="M116.463 11.4233C110.95 11.4233 107.26 14.9105 107.26 20.6915C107.26 26.3708 111.182 29.6637 116.565 29.6637C120.718 29.6637 123.807 27.9988 125.398 24.5486L120.45 22.9854C119.654 24.6781 118.295 25.0851 116.5 25.0851C114.604 25.0851 113.281 23.9844 112.911 21.894H125.435C126.092 13.8838 120.746 11.4233 116.463 11.4233ZM112.939 18.5363C113.374 16.5754 114.604 15.9742 116.463 15.9742C118.526 15.9742 119.59 16.9084 119.858 18.5363H112.939Z" fill="white"/>
<path d="M75.8478 4.00513H70.002V9.61043H75.8478V4.00513Z" fill="white"/>
<path d="M62.9539 13.9763L63.0187 11.8858H57.1729V29.0625H63.0187V20.192C63.0187 17.9629 63.7494 16.9732 65.4143 16.9732C66.2468 16.9732 66.811 17.2044 67.3105 17.7686H67.3753L67.3938 17.7316V11.6083C67.218 11.5898 67.0423 11.5898 66.848 11.5898C65.3403 11.5898 63.8141 12.4501 62.9539 13.9763Z" fill="white"/>
<path d="M135.175 3.94971H129.33V29.0719H135.175V3.94971Z" fill="white"/>
<path d="M143.574 4.00513H137.729V9.61043H143.574V4.00513Z" fill="white"/>
<path d="M143.574 11.886H137.729V29.0627H143.574V11.886Z" fill="white"/>
<path d="M51.0308 4.0144L45.185 7.39054V11.8859H42.3916V16.5107H45.185V22.5045V24.558C45.185 24.5672 45.185 24.5765 45.185 24.5765V24.6505C45.1943 26.4171 45.5642 27.5641 46.2487 28.3411C47.0164 29.2383 48.3762 29.5343 50.1983 29.5343C51.928 29.5343 53.3525 29.1366 54.0185 28.8683V23.9567H53.9537C53.6207 24.1602 53.0565 24.3267 52.3258 24.3267C51.3083 24.3267 51.0401 23.7995 51.0308 22.893V16.52H54.5549V11.8951H51.0308V4.0144V4.0144Z" fill="white"/>
<path d="M166.476 3.74624L160.63 7.12237V11.886H155.043V9.43479C155.043 8.47283 155.672 8.03809 156.671 8.03809C157.67 8.03809 158.299 8.37108 158.762 8.73182H158.826L159.455 4.21797C158.29 3.71849 157.06 3.3855 154.941 3.3855C151.39 3.3855 149.197 4.9487 149.197 8.70407V11.8952H145.322V16.5201H149.197V29.0719H155.043V16.5108H160.63V22.5046V24.558C160.63 24.5673 160.63 24.5765 160.63 24.5765V24.6505C160.639 26.4172 161.009 27.5642 161.694 28.3412C162.461 29.2384 163.821 29.5344 165.643 29.5344C167.373 29.5344 168.797 29.1366 169.463 28.8684V23.9568H169.399C169.066 24.1603 168.501 24.3268 167.771 24.3268C166.753 24.3268 166.485 23.7996 166.476 22.8931V16.5201H170V11.8952H166.476V3.74624Z" fill="white"/>
</g>
<defs>
<clipPath id="clip0">
<rect width="170" height="35.0101" fill="white"/>
</clipPath>
</defs>
</svg>
