<svg width="1381" height="343" viewBox="0 0 1381 343" fill="none" xmlns="http://www.w3.org/2000/svg">
<g clip-path="url(#clip0)">
<path d="M362.3 92.6H299.1V278.3H362.3V92.6Z" fill="white"/>
<path d="M514 87.6C483.5 87.6 467.7 101.6 456.9 119.9L457.6 92.6H394.4V342.6H457.6V253.2C469.8 273 489.2 283.4 518.3 283.4C564.6 283.4 591.9 246.4 591.9 184.3C592 122.5 562.5 87.6 514 87.6ZM492.9 230.9C471.4 230.9 456.6 212.2 456.6 184.9C456.6 157.6 471.3 138.6 492.9 138.6C517 138.6 528.5 153.3 528.5 184.6C528.4 215.8 516.2 230.9 492.9 230.9Z" fill="white"/>
<path d="M679.2 6.80002H616V278.4H679.2V6.80002Z" fill="white"/>
<path d="M801.4 87.6C741.8 87.6 701.9 125.3 701.9 187.8C701.9 249.2 744.3 284.8 802.5 284.8C847.4 284.8 880.8 266.8 898 229.5L844.5 212.6C835.9 230.9 821.2 235.3 801.8 235.3C781.3 235.3 767 223.4 763 200.8H898.4C905.5 114.2 847.7 87.6 801.4 87.6ZM763.3 164.5C768 143.3 781.3 136.8 801.4 136.8C823.7 136.8 835.2 146.9 838.1 164.5H763.3Z" fill="white"/>
<path d="M362.3 7.5H299.1V68.1H362.3V7.5Z" fill="white"/>
<path d="M222.9 115.3L223.6 92.7H160.4V278.4H223.6V182.5C223.6 158.4 231.5 147.7 249.5 147.7C258.5 147.7 264.6 150.2 270 156.3H270.7L270.9 155.9V89.7C269 89.5 267.1 89.5 265 89.5C248.7 89.4 232.2 98.7 222.9 115.3Z" fill="white"/>
<path d="M1003.7 6.80002H940.5V278.4H1003.7V6.80002Z" fill="white"/>
<path d="M1094.5 7.5H1031.3V68.1H1094.5V7.5Z" fill="white"/>
<path d="M1094.5 92.6H1031.3V278.3H1094.5V92.6Z" fill="white"/>
<path d="M94.0001 7.5L30.8001 44V92.6H0.600098V142.6H30.8001V207.4V229.6C30.8001 229.7 30.8001 229.8 30.8001 229.8V230.6C30.9001 249.7 34.9001 262.1 42.3001 270.5C50.6001 280.2 65.3001 283.4 85.0001 283.4C103.7 283.4 119.1 279.1 126.3 276.2V223H125.6C122 225.2 115.9 227 108 227C97.0001 227 94.1001 221.3 94.0001 211.5V142.6H132.1V92.6H94.0001V7.5Z" fill="white"/>
<path d="M1342.1 4.70001L1278.9 41.2V92.7H1218.5V66.1C1218.5 55.7 1225.3 51 1236.1 51C1246.9 51 1253.7 54.6 1258.7 58.5H1259.4L1266.2 9.70001C1253.6 4.30001 1240.3 0.700012 1217.4 0.700012C1179 0.700012 1155.3 17.6 1155.3 58.2V92.7H1113.4V142.7H1155.3V278.4H1218.5V142.6H1278.9V207.4V229.6C1278.9 229.7 1278.9 229.8 1278.9 229.8V230.6C1279 249.7 1283 262.1 1290.4 270.5C1298.7 280.2 1313.4 283.4 1333.1 283.4C1351.8 283.4 1367.2 279.1 1374.4 276.2V223H1373.7C1370.1 225.2 1364 227 1356.1 227C1345.1 227 1342.2 221.3 1342.1 211.5V142.6H1380.2V92.6H1342.1V4.70001Z" fill="white"/>
</g>
<defs>
<clipPath id="clip0">
<rect width="1379.6" height="341.9" fill="white" transform="translate(0.600098 0.700012)"/>
</clipPath>
</defs>
</svg>
