<svg width="20" height="20" viewBox="0 0 20 20" fill="none" xmlns="http://www.w3.org/2000/svg">
<path fill-rule="evenodd" clip-rule="evenodd" d="M7.28175 0.0969754C7.29142 0.0981618 7.29997 0.100535 7.30964 0.10178C7.37384 0.113648 7.43739 0.12599 7.50159 0.140526C7.54947 0.150198 7.59653 0.161116 7.64447 0.17322C7.72018 0.191378 7.79524 0.209593 7.8703 0.231369C7.94666 0.251959 8.02172 0.273735 8.09684 0.298002C8.14888 0.314913 8.19973 0.333071 8.25111 0.351404C8.30867 0.370808 8.36563 0.392584 8.42253 0.414419C8.46917 0.432575 8.51634 0.449486 8.56233 0.468948C8.6562 0.507694 8.74828 0.547627 8.83966 0.591177C8.87485 0.608208 8.90932 0.62512 8.94385 0.643276C9.01108 0.676029 9.07825 0.709849 9.14423 0.746222C9.16428 0.757139 9.18541 0.766752 9.206 0.77767L9.20481 0.778917C10.417 1.44584 11.3699 2.50082 11.9104 3.77443C12.4509 5.04803 12.5476 6.46634 12.1851 7.80155L18.9372 14.5525C19.5119 15.1353 19.8329 15.9218 19.8301 16.7403C19.8272 17.5588 19.5008 18.343 18.9221 18.9219C18.3433 19.5007 17.5591 19.8272 16.7406 19.8301C15.922 19.833 15.1356 19.5121 14.5527 18.9374L7.80034 12.185C6.4653 12.5476 5.04711 12.4509 3.77364 11.9105C2.50017 11.37 1.44535 10.4171 0.778658 9.20495L0.777293 9.20638C0.765782 9.18579 0.75611 9.1652 0.745193 9.14461C0.709591 9.07934 0.675533 9.01134 0.641593 8.94477C0.624683 8.90964 0.606526 8.87576 0.590149 8.84057C0.547191 8.74973 0.50708 8.65663 0.468453 8.5633C0.449109 8.51726 0.430953 8.47008 0.413389 8.42279C0.391554 8.36589 0.370371 8.30899 0.350375 8.25209C0.333049 8.19981 0.314477 8.14896 0.297864 8.09681C0.273655 8.02175 0.251879 7.94663 0.230637 7.87038C0.209513 7.79645 0.190704 7.7202 0.172547 7.64491C0.161036 7.59744 0.150178 7.54926 0.139854 7.50203C0.125732 7.43798 0.113014 7.37388 0.101701 7.30972L0.0963014 7.28308L0.0968354 7.28189C0.0331713 6.92491 0.000770094 6.56306 1.62532e-07 6.20045C0.0255729 5.59528 0.122729 4.99528 0.289438 4.41297C0.295026 4.35814 0.317293 4.30633 0.353236 4.26455C0.38918 4.22276 0.437072 4.193 0.490455 4.17927C0.543838 4.16555 0.600145 4.16853 0.651785 4.1878C0.703424 4.20707 0.747912 4.24172 0.779251 4.28706L3.23823 6.74538L3.78921 7.29756C3.83524 7.34363 3.88989 7.38019 3.95006 7.40512C4.01022 7.43006 4.0747 7.4429 4.13983 7.4429C4.20495 7.4429 4.26944 7.43006 4.3296 7.40512C4.38976 7.38019 4.44441 7.34363 4.49044 7.29756L7.29635 4.49171C7.38939 4.39851 7.44164 4.27219 7.44164 4.1405C7.44164 4.00881 7.38939 3.8825 7.29635 3.7893L5.44289 1.93649L4.28692 0.779924C4.24157 0.74857 4.20691 0.704077 4.1876 0.652433C4.16829 0.600792 4.16526 0.544476 4.17891 0.491058C4.19257 0.437641 4.22225 0.389687 4.26398 0.353645C4.3057 0.317604 4.35746 0.295202 4.41229 0.289457C4.99482 0.122803 5.59501 0.0256673 6.20037 7.82752e-05C6.56296 0.000894625 6.92479 0.0333176 7.28175 0.0969754ZM10.8439 10.8447C10.7864 10.9022 10.7407 10.9706 10.7095 11.0458C10.6783 11.121 10.6623 11.2016 10.6623 11.2831C10.6623 11.3645 10.6783 11.4451 10.7095 11.5203C10.7407 11.5955 10.7864 11.6639 10.8439 11.7214L16.3062 17.1831C16.4227 17.2986 16.5801 17.3632 16.7441 17.3629C16.9081 17.3626 17.0653 17.2973 17.1813 17.1813C17.2973 17.0654 17.3626 16.9082 17.3629 16.7442C17.3632 16.5802 17.2985 16.4227 17.183 16.3063L11.7213 10.8447C11.605 10.7284 11.4472 10.663 11.2826 10.663C11.1181 10.663 10.9603 10.7284 10.8439 10.8447ZM8.36682 5.8868L5.8831 8.36939C5.82553 8.42696 5.77987 8.4953 5.74871 8.57052C5.71756 8.64573 5.70152 8.72635 5.70152 8.80776C5.70152 8.88917 5.71756 8.96979 5.74871 9.04501C5.77987 9.12022 5.82553 9.18856 5.8831 9.24613C5.94067 9.3037 6.00901 9.34936 6.08422 9.38052C6.15944 9.41167 6.24006 9.42771 6.32147 9.42771C6.40288 9.42771 6.4835 9.41167 6.55871 9.38052C6.63393 9.34936 6.70227 9.3037 6.75984 9.24613L9.24362 6.76354C9.30205 6.70616 9.34854 6.63777 9.38039 6.56233C9.41225 6.48688 9.42884 6.40587 9.42921 6.32398C9.42958 6.24208 9.41373 6.16092 9.38256 6.08519C9.35139 6.00946 9.30552 5.94065 9.24761 5.88274C9.1897 5.82484 9.12089 5.77898 9.04516 5.74781C8.96942 5.71665 8.88826 5.7008 8.80637 5.70117C8.72447 5.70155 8.64347 5.71815 8.56802 5.75001C8.49258 5.78187 8.42419 5.82836 8.36682 5.8868Z" fill="white"/>
</svg>
