<?xml version="1.0" encoding="utf-8"?>
<!-- Generator: Adobe Illustrator 25.2.1, SVG Export Plug-In . SVG Version: 6.00 Build 0)  -->
<svg version="1.1" id="Layer_1" xmlns="http://www.w3.org/2000/svg" xmlns:xlink="http://www.w3.org/1999/xlink" x="0px" y="0px"
	 viewBox="0 0 189 40" style="enable-background:new 0 0 189 40;" xml:space="preserve">
<style type="text/css">
	.st0{fill-rule:evenodd;clip-rule:evenodd;fill:#FFFFFF;}
</style>
<desc>Created with Sketch.</desc>
<g id="Components">
	<g id="component_x2F_nav-header" transform="translate(-75.000000, -25.000000)">
		<g id="elements_x2F_brand_x2F_logo_x2F_colour" transform="translate(75.000000, 25.000000)">
			<path id="wordmark" class="st0" d="M180.6,34c-0.5,0-0.7-0.3-0.7-0.7c0-0.4,0.3-0.7,0.7-0.7c1.1,0,1.6-0.4,2.4-2.3l0.5-1.2
				l-4.2-11c0-0.1,0-0.2,0-0.3c0-0.3,0.3-0.6,0.7-0.6c0.3,0,0.5,0.2,0.7,0.5l3.6,9.6h0l3.5-9.6c0.1-0.4,0.4-0.5,0.7-0.5
				c0.4,0,0.7,0.3,0.7,0.6c0,0.1,0,0.3-0.1,0.3l-4.7,12.5c-1.1,2.8-1.9,3.4-3.4,3.4H180.6z M172.8,28.8v-13c0-2.9,0.9-3.7,3.3-3.7
				h0.4c0.5,0,0.7,0.3,0.7,0.7c0,0.4-0.3,0.7-0.7,0.7c-2,0-2.3,0.3-2.3,2.2v1.5c0,0.1,0,0.2,0.2,0.2h2.3c0.4,0,0.6,0.3,0.6,0.6
				c0,0.4-0.2,0.6-0.6,0.6h-2.3c-0.1,0-0.2,0.1-0.2,0.2v10.1c0,0.5-0.3,0.7-0.7,0.7C173.1,29.5,172.8,29.3,172.8,28.8L172.8,28.8z
				 M168.7,28.8V17.9c0-0.5,0.3-0.7,0.7-0.7c0.4,0,0.7,0.3,0.7,0.7v10.9c0,0.5-0.3,0.7-0.7,0.7C169,29.5,168.7,29.3,168.7,28.8
				L168.7,28.8z M168.3,13.1c0-0.6,0.5-1.1,1.1-1.1c0.6,0,1.1,0.5,1.1,1.1c0,0.6-0.5,1.1-1.1,1.1C168.8,14.1,168.3,13.7,168.3,13.1
				L168.3,13.1z M159.8,28.8V17.9c0-0.5,0.3-0.7,0.7-0.7c0.4,0,0.7,0.3,0.7,0.7v1.2h0c0.5-1.2,1.6-2.1,3.1-2.1c1,0,1.6,0.3,2.1,0.5
				c0.3,0.2,0.4,0.4,0.4,0.6c0,0.4-0.3,0.7-0.7,0.7c-0.1,0-0.2,0-0.4-0.1c-0.6-0.3-1.1-0.4-1.7-0.4c-2.1,0-2.9,1.8-2.9,4.1v6.3
				c0,0.5-0.3,0.7-0.7,0.7C160.1,29.5,159.8,29.3,159.8,28.8L159.8,28.8z M156,22.5c0.1,0,0.2-0.1,0.2-0.2c0-0.7-0.1-1.2-0.2-1.7
				c-0.5-1.5-1.7-2.3-3.2-2.3c-1.6,0-2.7,0.8-3.2,2.3c-0.2,0.5-0.2,1-0.2,1.7c0,0.1,0.1,0.2,0.2,0.2H156z M148.2,26.5
				c-0.3-0.8-0.4-1.6-0.4-3.2c0-1.5,0.1-2.4,0.4-3.2c0.7-2,2.3-3.2,4.4-3.2c2.2,0,3.8,1.1,4.4,3.2c0.3,0.8,0.4,1.7,0.4,2.9
				c0,0.4-0.3,0.6-0.6,0.6h-7.5c-0.1,0-0.2,0.1-0.2,0.2c0,1,0.1,1.5,0.3,2.1c0.5,1.6,1.8,2.4,3.4,2.4c1.4,0,2.3-0.4,3.2-1.4
				c0.1-0.1,0.3-0.3,0.5-0.3c0.4,0,0.6,0.3,0.6,0.6c0,0.2,0,0.3-0.2,0.5c-0.9,1.1-2.3,1.9-4.3,1.9C150.5,29.7,148.9,28.6,148.2,26.5
				L148.2,26.5z M134.4,22.5c0.1,0,0.2-0.1,0.2-0.2c0-0.7-0.1-1.2-0.2-1.7c-0.5-1.5-1.7-2.3-3.2-2.3c-1.6,0-2.7,0.8-3.2,2.3
				c-0.2,0.5-0.2,1-0.2,1.7c0,0.1,0.1,0.2,0.2,0.2H134.4z M126.6,26.5c-0.3-0.8-0.4-1.6-0.4-3.2c0-1.5,0.1-2.4,0.4-3.2
				c0.7-2,2.3-3.2,4.4-3.2c2.2,0,3.8,1.1,4.4,3.2c0.3,0.8,0.4,1.7,0.4,2.9c0,0.4-0.3,0.6-0.6,0.6h-7.5c-0.1,0-0.2,0.1-0.2,0.2
				c0,1,0.1,1.5,0.3,2.1c0.5,1.6,1.8,2.4,3.4,2.4c1.4,0,2.3-0.4,3.2-1.4c0.1-0.1,0.3-0.3,0.5-0.3c0.4,0,0.6,0.3,0.6,0.6
				c0,0.2,0,0.3-0.2,0.5c-0.9,1.1-2.3,1.9-4.3,1.9C128.9,29.7,127.3,28.6,126.6,26.5L126.6,26.5z M140.9,28.7L135.6,13
				c0-0.1-0.1-0.2-0.1-0.3c0-0.4,0.3-0.7,0.7-0.7c0.3,0,0.6,0.2,0.7,0.6l4.9,14.4h0.1l4.8-14.4c0.1-0.4,0.4-0.6,0.7-0.6
				c0.4,0,0.7,0.3,0.7,0.7c0,0.1,0,0.3,0,0.3l-5.3,15.7c-0.2,0.5-0.4,0.8-0.9,0.8C141.3,29.5,141.1,29.3,140.9,28.7L140.9,28.7z
				 M124,29.5c-1.8,0-2.5-0.9-2.5-2.9V12.8c0-0.5,0.3-0.7,0.7-0.7c0.4,0,0.7,0.3,0.7,0.7v13.9c0,1.2,0.3,1.6,1.4,1.6
				c0.5,0,0.7,0.3,0.7,0.7c0,0.4-0.3,0.7-0.7,0.7H124z M117.6,26.2c0.3-0.8,0.3-1.6,0.3-2.8c0-1.2-0.1-2-0.3-2.8
				c-0.5-1.4-1.5-2.2-3.1-2.2c-1.5,0-2.6,0.7-3.1,2.1c-0.2,0.7-0.3,1.7-0.3,2.9c0,1.2,0.1,2.2,0.3,2.9c0.5,1.4,1.6,2.1,3.1,2.1
				C116,28.3,117.1,27.5,117.6,26.2L117.6,26.2z M111.1,27.9L111.1,27.9l0,0.9c0,0.5-0.3,0.7-0.7,0.7c-0.4,0-0.7-0.3-0.7-0.7v-16
				c0-0.5,0.3-0.7,0.7-0.7c0.4,0,0.7,0.3,0.7,0.7v6.1h0c0.6-1,1.6-1.8,3.6-1.8c2,0,3.5,1.1,4.1,3c0.3,1,0.4,1.9,0.4,3.3
				c0,1.4-0.1,2.3-0.4,3.3c-0.6,1.9-2.1,3-4.1,3C112.8,29.7,111.7,28.9,111.1,27.9L111.1,27.9z M105.8,28.8v-0.8h0
				c-0.7,1.1-1.8,1.7-3.5,1.7c-2.6,0-4.1-1.7-4.1-4.6v-7.1c0-0.5,0.3-0.7,0.7-0.7c0.4,0,0.7,0.3,0.7,0.7v6.8c0,2.4,1,3.6,3.1,3.6
				c1.8,0,3.2-1.3,3.2-3.4v-7.1c0-0.5,0.3-0.7,0.7-0.7c0.4,0,0.7,0.3,0.7,0.7v10.9c0,0.5-0.3,0.7-0.7,0.7
				C106,29.5,105.8,29.3,105.8,28.8L105.8,28.8z M94.5,26.1c0.2-0.7,0.3-1.4,0.3-2.7c0-1.3-0.1-2-0.3-2.7c-0.5-1.5-1.6-2.3-3.2-2.3
				c-1.5,0-2.7,0.8-3.2,2.3c-0.2,0.7-0.3,1.4-0.3,2.7c0,1.3,0.1,2.1,0.3,2.7c0.5,1.5,1.6,2.3,3.2,2.3C92.9,28.3,94,27.5,94.5,26.1
				L94.5,26.1z M86.8,26.5c-0.3-0.8-0.4-1.7-0.4-3.2c0-1.5,0.2-2.3,0.4-3.2c0.7-2,2.3-3.2,4.5-3.2c2.2,0,3.8,1.1,4.5,3.2
				c0.3,0.8,0.4,1.7,0.4,3.2c0,1.5-0.2,2.4-0.4,3.2c-0.7,2-2.3,3.2-4.5,3.2C89.1,29.7,87.5,28.5,86.8,26.5L86.8,26.5z M74.6,28.1H78
				c2.6,0,3.9-0.9,4.6-3c0.3-1,0.5-2,0.5-4.3c0-2.2-0.1-3.2-0.5-4.3c-0.7-2.2-2.1-3-4.6-3h-3.4c-0.1,0-0.2,0.1-0.2,0.2V28
				C74.4,28.1,74.5,28.1,74.6,28.1L74.6,28.1z M73,12.9c0-0.4,0.3-0.7,0.7-0.7h4.5c3.1,0,5,1.4,5.8,3.9c0.4,1.2,0.5,2.2,0.5,4.7
				c0,2.5-0.1,3.5-0.5,4.7c-0.8,2.5-2.7,3.9-5.8,3.9h-4.5c-0.4,0-0.7-0.3-0.7-0.7V12.9z"/>
			<path id="D-1" class="st0" d="M2,34c-1.1,0-2-0.9-2-2.1V8.1C0,6.9,0.9,6,2,6s2,0.9,2,2.1v23.8C4,33.1,3.1,34,2,34"/>
			<path id="D-2" class="st0" d="M10.9,34H8.1C6.9,34,6,33.1,6,31.9c0-1.2,0.9-2.1,2.1-2.1h2.7c5.5,0,9.9-4.4,9.9-9.8
				c0-5.4-4.5-9.8-9.9-9.8H8.1C6.9,10.2,6,9.2,6,8.1S6.9,6,8.1,6h2.7C18.7,6,25,12.3,25,20C25,27.7,18.7,34,10.9,34"/>
			<path id="V-1" class="st0" d="M40,34c-0.8,0-1.5-0.4-1.9-1.2L27.2,9c-0.5-1,0-2.3,1-2.8c1-0.5,2.2,0,2.7,1L41.8,31
				c0.5,1,0,2.3-1,2.8C40.5,33.9,40.2,34,40,34"/>
			<path id="V-2" class="st0" d="M43.8,26c-0.3,0-0.6-0.1-0.8-0.2c-1-0.5-1.4-1.7-1-2.8l7-15.8c0.5-1,1.6-1.5,2.6-1
				c1,0.5,1.4,1.7,1,2.8l-7,15.8C45.3,25.6,44.6,26,43.8,26"/>
			<polygon id="line-break" class="st0" points="63,40 63.5,40 63.5,0 63,0 			"/>
		</g>
	</g>
</g>
</svg>
