<?xml version="1.0" encoding="utf-8"?>
<!-- Generator: Adobe Illustrator 25.2.1, SVG Export Plug-In . SVG Version: 6.00 Build 0)  -->
<svg version="1.1" id="Layer_1" xmlns="http://www.w3.org/2000/svg" xmlns:xlink="http://www.w3.org/1999/xlink" x="0px" y="0px"
	 viewBox="0 0 2696.116 438.934" enable-background="new 0 0 2696.116 438.934" xml:space="preserve">
<g>
	<path fill="#FFFFFF" d="M26.86,219.676c0-45.833-0.006-91.666,0.002-137.499C26.868,45.342,64.579,23.479,96.61,41.81
		c60.677,34.726,121.313,69.526,181.967,104.292c18.63,10.678,37.217,21.432,55.911,31.997
		c15.784,8.921,24.867,22.241,24.894,40.389c0.027,18.349-9.218,31.797-25.048,40.874
		c-75.503,43.295-150.994,86.612-226.471,129.953c-3.313,1.902-6.446,4.117-9.661,6.188c-15.307,9.86-31.364,11.059-47.346,2.504
		c-15.798-8.457-23.955-22.209-23.977-40.332C26.823,311.676,26.86,265.676,26.86,219.676z M220.02,218.701
		c-34.144-19.54-67.683-38.733-101.63-58.161c0,38.66,0,76.464,0,114.944C152.422,256.47,185.889,237.77,220.02,218.701z"/>
	<path fill="#FFFFFF" d="M515.858,319.887c0-62.975,0-124.602,0-186.479c0.859-0.205,1.62-0.548,2.378-0.544
		c21.987,0.101,44.018-0.612,65.951,0.543c46.895,2.468,81.619,39.217,82.878,86.236c0.526,19.632-1.698,38.623-11.777,55.908
		c-14.287,24.502-35.88,39.407-63.766,42.18C566.621,320.207,541.382,319.294,515.858,319.887z M540.084,154.797
		c0,48.199,0,94.722,0,140.492c15.682,0,31.077,1.136,46.234-0.28c20.087-1.877,36.25-11.678,46.711-29.524
		c9.356-15.96,10.394-33.447,8.777-51.292c-2.576-28.424-21.056-50.668-49.045-55.709
		C575.719,155.415,558.031,155.928,540.084,154.797z"/>
	<path fill="#FFFFFF" d="M1380.014,202.327c-13.051-16.671-19.121-34.333-6.45-53.432c10.516-15.852,26.028-22.474,44.886-19.93
		c18.307,2.47,28.955,14.166,35.406,31.185c-6.907,3.722-13.606,7.332-20.47,11.031c-1.693-3.159-3.143-6.31-4.982-9.215
		c-6.265-9.893-16.258-12.918-26.348-8.136c-9.065,4.296-13.087,14.537-9.639,25.107c0.865,2.651,2.3,5.148,3.714,7.576
		c1.083,1.86,2.525,3.513,3.839,5.234c19.413,25.41,38.831,50.816,58.826,76.978c5.679-9.422,11.102-18.421,16.789-27.856
		c6.285,3.857,12.33,7.566,18.967,11.638c-7.282,11.618-14.391,22.959-21.632,34.513c5.745,7.634,11.429,15.186,17.397,23.116
		c-6.083,4.572-11.904,8.947-18.209,13.685c-4.22-5.575-8.305-10.971-12.751-16.843c-18.473,16.198-39.811,20.122-62.961,14.11
		c-16.83-4.371-29.853-14.567-39.028-29.264C1341.84,266.95,1342.753,227.607,1380.014,202.327z M1445.896,289.178
		c-17.575-23.163-34.856-45.94-52.34-68.983c-15.092,9.572-24.059,22.243-23.137,40.425c0.882,17.396,12.192,32.489,29.179,38
		C1416.307,304.041,1432.067,302.561,1445.896,289.178z"/>
	<path fill="#FFFFFF" d="M2669.268,230.212c-0.624,22.993-5.466,44.477-18.264,64.01c-25.757,39.312-82.202,39.376-107.981,0.098
		c-11.1-16.912-16.549-35.457-17.511-55.441c-1.183-24.553,1.933-48.257,15.53-69.481c12.389-19.338,29.248-31.206,53.074-32.347
		c35.25-1.689,57.538,23.224,67.633,50.598c2.119,5.747,3.798,11.758,4.797,17.794
		C2667.899,213.625,2668.401,221.948,2669.268,230.212z M2643.928,227.313c0.126-12.816-2.486-28.222-10.095-42.564
		c-10.285-19.385-27.321-28.065-46.412-23.407c-13.161,3.211-21.354,12.364-27.425,23.738c-9.084,17.019-10.901,35.43-9.677,54.296
		c0.994,15.328,4.677,29.889,13.532,42.743c17.124,24.859,49.448,24.691,66.332-0.348
		C2640.627,266.282,2643.928,248.848,2643.928,227.313z"/>
	<path fill="#FFFFFF" d="M1871.683,209.017c0-25.729,0-50.627,0-75.864c7.756,0,15.328,0,23.293,0c0,61.942,0,123.802,0,185.914
		c-7.396,0-14.666,0-22.542,0c0-5.43,0-10.835,0-17.254c-1.309,1.075-1.852,1.36-2.169,1.805
		c-15.958,22.428-50.997,25.669-72.881,11.27c-40.527-26.666-40.612-91.751-0.184-118.52
		C1818.172,182.481,1853.049,183.725,1871.683,209.017z M1872.992,255.481c-1.389-6.45-1.927-13.241-4.336-19.284
		c-5.96-14.948-16.605-24.857-33.343-26.255c-16.816-1.404-29.66,5.779-37.653,20.308c-9.03,16.414-9.238,33.759-0.335,50.192
		c14.896,27.496,51.623,28.321,67.963,1.941C1870.334,274.233,1872.38,265.246,1872.992,255.481z"/>
	<path fill="#FFFFFF" d="M875.038,302.525c0,24.56,0,48.492,0,72.691c-7.808,0-15.405,0-23.345,0c0-61.152,0-122.176,0-183.468
		c7.513,0,14.756,0,22.688,0c0,5.691,0,11.228,0,16.766c8.031-9.495,17.384-16.19,29.002-19.032
		c23.908-5.848,44.012,0.618,59.946,19.564c26.243,31.202,20.467,80.568-11.872,104.397c-21.812,16.072-58.748,13.145-74.955-9.721
		C876.251,303.368,875.811,303.148,875.038,302.525z M874.036,253.77c0.789,6.313,1.017,10.827,1.958,15.188
		c3.791,17.554,17.479,30.466,33.85,32.233c17.466,1.885,33.315-6.652,40.746-22.81c6.729-14.632,7.029-29.866,0.323-44.521
		c-7.198-15.73-19.565-24.43-37.456-24.039c-15.607,0.34-29.559,10.14-35.267,25.768
		C875.891,241.887,875.142,248.752,874.036,253.77z"/>
	<path fill="#FFFFFF" d="M1552.997,132.849c8.842,0,16.946-0.172,25.025,0.195c1.148,0.052,2.635,2.568,3.192,4.207
		c10.925,32.114,21.728,64.269,32.573,96.409c5.316,15.753,10.663,31.495,16.012,47.237c0.31,0.911,0.764,1.772,1.556,3.582
		c3.292-9.221,6.319-17.573,9.259-25.955c14.089-40.162,28.218-80.311,42.132-120.534c1.367-3.952,3.082-5.518,7.341-5.279
		c6.778,0.381,13.594,0.102,21.044,0.102c-0.576,2.081-0.893,3.631-1.427,5.103c-21.425,59.077-42.897,118.137-64.238,177.244
		c-1.147,3.178-2.531,4.471-6.012,4.248c-5.309-0.339-10.676-0.368-15.981,0.004c-3.85,0.27-5.425-1.146-6.67-4.713
		c-17.859-51.172-35.879-102.287-53.855-153.418C1559.713,152.08,1556.504,142.871,1552.997,132.849z"/>
	<path fill="#FFFFFF" d="M2343.421,224.75c4.912,3.392,10.091,6.204,14.346,10.039c19.216,17.32,20.495,47.084,3.298,67.613
		c-27.022,32.257-87.079,29.32-105.307-18.026c-0.646-1.677-1.13-3.415-1.797-5.452c7.443-3.095,14.584-6.065,21.849-9.086
		c1.813,4.111,3.209,7.832,5.035,11.327c13.692,26.196,48.051,23.537,61.609,5.128c8.543-11.6,7.53-27.154-2.644-37.41
		c-7.127-7.185-15.82-10.95-25.879-11.355c-5.778-0.233-11.573-0.042-17.626-0.042c0-7.76,0-14.853,0-23.062
		c5.996,0,11.953,0.25,17.883-0.049c14.93-0.753,27.113-11.87,27.82-25.098c0.885-16.562-10.095-28.21-27.289-28.951
		c-17.493-0.754-26.242,4.907-34.699,22.898c-7.343-3.088-14.72-6.19-22.449-9.441c8.501-20.688,23.061-33.45,44.934-36.217
		c19.933-2.522,37.933,2.283,52.573,17.169c16.074,16.345,18.618,52.581-8.958,68.187
		C2345.151,223.469,2344.27,224.17,2343.421,224.75z"/>
	<path fill="#FFFFFF" d="M2457.538,136.835c6.58,4.521,12.844,8.825,19.544,13.429c-14.465,20.053-28.741,39.843-42.793,59.324
		c6.001-1.079,12.051-2.558,18.188-3.204c28.077-2.956,61.893,26.824,57.734,63.431c-3.175,27.947-28.409,52.055-55.85,53.761
		c-38.778,2.411-61.45-25.87-65.284-48.978c-2.916-17.57,1.413-34.01,10.324-48.867c11.292-18.826,23.731-36.967,35.767-55.343
		C2442.449,159.272,2449.905,148.271,2457.538,136.835z M2485.86,264.103c-0.01-20.103-16.043-36.226-36.076-36.278
		c-20.45-0.053-36.906,15.98-36.945,35.996c-0.041,20.999,15.522,36.499,36.646,36.497
		C2470.342,300.316,2485.87,284.857,2485.86,264.103z"/>
	<path fill="#FFFFFF" d="M2038.475,260.13c-34.124,0-67.056,0-99.914,0c-2.51,13.871,8.323,31.149,23.449,37.906
		c19.081,8.524,35.591,2.63,52.925-19.2c6.867,3.304,13.845,6.661,21.267,10.231c-6.713,13.055-16.311,22.725-29.355,28.354
		c-45.742,19.74-92.573-8.311-93.831-59.273c-0.58-23.504,6.655-43.804,25.574-58.524c37.398-29.099,91.354-7.052,98.198,39.942
		C2037.74,246.107,2037.892,252.765,2038.475,260.13z M2011.933,240.058c0.064-16.43-14.739-29.649-33.559-30.228
		c-19.899-0.612-37.137,13.015-38.169,30.228C1964.117,240.058,1988.025,240.058,2011.933,240.058z"/>
	<path fill="#FFFFFF" d="M1149.953,319.119c-7.446,0-14.725,0-22.617,0c0-5.555,0-10.946,0-17.829
		c-2.087,2.474-3.257,3.75-4.306,5.12c-19.693,25.695-61.968,21.141-78.699-2.749c-17-24.274-4.709-56.127,25.119-64.198
		c18.485-5.002,36.899-4.459,54.794,3.109c0.735,0.311,1.52,0.502,2.302,0.756c2.717-11.75-4.063-24.221-16.481-30.661
		c-15.687-8.135-32.588-3.647-47.976,13.139c-6.707-4.215-13.534-8.506-20.784-13.062c5.24-8.277,12.043-14.512,20.59-18.467
		c20.296-9.392,41.075-9.761,61.342-0.477c17.903,8.201,26.595,23.442,26.985,42.768c0.535,26.481,0.139,52.98,0.119,79.471
		C1150.341,317.009,1150.103,317.977,1149.953,319.119z M1096.397,256.15c-8.117-0.487-16.646,1.25-24.159,6.541
		c-14.988,10.555-13.344,28.828,3.226,36.647c20.913,9.867,50.338-7.884,51.566-31.007c0.156-2.946-0.895-4.562-3.318-5.959
		C1115.524,257.651,1106.653,256.025,1096.397,256.15z"/>
	<path fill="#FFFFFF" d="M2114.6,323.485c-38.364-0.002-65.665-28.18-65.638-67.747c0.027-40.393,27.324-68.114,66.807-68.305
		c36.574-0.177,65.618,30.21,64.77,69.475C2179.706,295.493,2152.686,323.487,2114.6,323.485z M2156.444,255.865
		c-0.547-4.448-0.709-8.983-1.702-13.329c-7.217-31.596-44.31-43.611-67.579-21.809c-12.832,12.022-15.441,27.506-13.22,44.104
		c3.636,27.17,30.361,43.459,55.438,34.009C2145.929,292.605,2156.021,276.347,2156.444,255.865z"/>
	<path fill="#FFFFFF" d="M833.17,217.189c-7.252,2.945-14.267,5.795-21.392,8.688c-7.515-12.897-18.908-17.8-32.675-16.478
		c-5.52,0.53-11.357,2.829-16.038,5.877c-7.9,5.146-7.53,14.947,0.587,19.704c4.923,2.886,10.653,4.544,16.183,6.212
		c8.751,2.64,17.758,4.46,26.438,7.297c10.511,3.436,19.727,9.004,25.142,19.236c7.581,14.326,4.104,31.207-8.498,42.668
		c-22.507,20.47-75.082,20.456-92.992-20.753c-0.261-0.601-0.411-1.251-0.828-2.549c6.9-2.962,13.851-5.946,21.237-9.117
		c1.017,1.824,1.944,3.507,2.889,5.18c9.431,16.686,27.596,23.375,44.885,16.423c2.287-0.92,4.532-2.161,6.482-3.662
		c7.57-5.825,8.06-15.536,0.431-21.246c-4.404-3.295-9.828-5.56-15.124-7.26c-10.597-3.4-21.62-5.53-32.097-9.232
		c-11.181-3.95-20.402-10.782-23.877-22.994c-4.109-14.44,1.307-28.948,13.83-37.772c20.657-14.557,54.034-13.204,73.409,3.034
		C826.45,204.879,830.587,210.188,833.17,217.189z"/>
	<path fill="#FFFFFF" d="M1175.802,375.485c7.19-15.595,13.932-30.218,20.673-44.841c1.253-2.719,2.144-5.687,3.823-8.111
		c5.365-7.748,4.007-14.802,0.219-23.072c-15.576-34.004-30.411-68.347-45.508-102.571c-0.663-1.503-1.224-3.05-2.151-5.374
		c8.5,0,16.542-0.183,24.557,0.196c1.212,0.057,2.692,2.57,3.388,4.224c11.399,27.125,22.689,54.295,34.011,81.453
		c0.7,1.679,1.456,3.335,2.561,5.858c2.371-5.785,4.478-10.86,6.535-15.955c9.645-23.893,19.353-47.761,28.822-71.724
		c1.268-3.209,2.816-4.287,6.178-4.164c6.968,0.255,13.951,0.077,21.651,0.077c-0.915,2.331-1.566,4.155-2.335,5.927
		c-25.093,57.795-50.238,115.566-75.202,173.417c-1.59,3.686-3.446,4.966-7.369,4.752
		C1189.36,375.234,1183.034,375.485,1175.802,375.485z"/>
	<path fill="#FFFFFF" d="M1019.919,319.169c-7.731,0-15.203,0-23.121,0c0-61.914,0-123.737,0-185.959c7.521,0,15.094,0,23.121,0
		C1019.919,194.957,1019.919,256.796,1019.919,319.169z"/>
	<path fill="#FFFFFF" d="M688.967,191.679c8.047,0,15.499,0,23.34,0c0,42.424,0,84.654,0,127.262c-7.649,0-15.354,0-23.34,0
		C688.967,276.6,688.967,234.36,688.967,191.679z"/>
	<path fill="#FFFFFF" d="M1726.023,191.689c7.877,0,15.333,0,23.232,0c0,42.306,0,84.534,0,127.196c-7.488,0-15.191,0-23.232,0
		C1726.023,276.696,1726.023,234.453,1726.023,191.689z"/>
	<path fill="#FFFFFF" d="M700.392,164.484c-9.922-0.026-16.744-6.976-16.698-17.01c0.045-9.803,7.229-16.786,17.135-16.656
		c9.533,0.125,16.531,7.254,16.532,16.843C717.363,157.513,710.304,164.511,700.392,164.484z"/>
	<path fill="#FFFFFF" d="M1720.694,147.711c-0.009-9.886,7.032-16.926,16.898-16.895c9.573,0.031,16.673,7.063,16.769,16.607
		c0.099,9.901-6.894,17.032-16.732,17.061C1727.628,164.513,1720.703,157.654,1720.694,147.711z"/>
</g>
</svg>
