<?xml version="1.0" encoding="utf-8"?>
<!-- Generator: Adobe Illustrator 25.2.1, SVG Export Plug-In . SVG Version: 6.00 Build 0)  -->
<svg version="1.1" id="Layer_1" xmlns="http://www.w3.org/2000/svg" xmlns:xlink="http://www.w3.org/1999/xlink" x="0px" y="0px"
	 viewBox="0 0 1026.2 299.9" style="enable-background:new 0 0 1026.2 299.9;" xml:space="preserve">
<style type="text/css">
	.st0{fill:#FFFFFF;}
</style>
<g>
	<path class="st0" d="M127.1,5.6c4,0.5,8,0.8,11.9,1.4c24.1,3.4,45,13.5,62.6,30.1c18.9,17.8,30.7,39.5,34.7,65.1
		c5.4,34.8-3.1,66.1-25.8,93.1c-18.6,22.1-42.4,35.3-70.9,39.4c-49.3,7.2-96.4-17.5-118.9-60.9C-1.8,130.1,5.3,78.2,38.9,42.4
		c19.5-20.9,43.6-32.8,72-35.9c2.6-0.3,5.1-0.6,7.7-0.9C121.4,5.6,124.3,5.6,127.1,5.6z M122.9,22.3c-54,0-98.5,44.2-98.6,97.9
		c0,54.8,44,99.3,98.4,99.3c54.1,0,98.4-43.4,98.8-97.4C221.8,66.6,177.7,22.3,122.9,22.3z"/>
	<path class="st0" d="M946.2,299.9c0-16.2,0-32.4,0-48.7c2.9,0,5.7,0,8.6,0c0.1,1.3,0.2,2.6,0.3,3.5c2.4-1.4,4.6-3.3,7.2-4
		c7.5-2,14.8,2.4,16.9,10c1.6,5.8,1.5,11.8-0.8,17.5c-2.7,6.8-10.1,10.5-17.1,8.3c-2.1-0.7-3.9-2.3-6.1-3.7c0,5.7,0,11.4,0,17.2
		C952.2,299.9,949.2,299.9,946.2,299.9z M970.8,268.8c-0.5-2-0.7-4.1-1.5-5.9c-1.2-3.2-3.7-4.7-6.8-4.5c-3.2,0.2-5.6,1.7-6.6,4.8
		c-1.2,3.6-1.4,7.3-0.3,10.9c1,3.2,3.3,5,6.6,5.2c3.2,0.2,5.8-1.2,7.1-4.4C970,272.9,970.3,270.8,970.8,268.8z"/>
	<path class="st0" d="M1013.6,277.1c-2.2,7.7-8,10.1-15.2,10c-3.4-0.1-7-0.5-10.2-1.6c-4.6-1.5-7.1-6-6.8-10.6
		c0.3,0,0.6-0.1,0.9-0.1c2.7,0,5.4,0,8,0c1.9,4.8,7,6.9,11.7,4.6c0.8-0.4,1.9-1.6,1.8-2.4c-0.1-0.9-1-2.2-1.9-2.6
		c-2.7-1-5.6-1.6-8.4-2.4c-1.7-0.5-3.5-0.9-5.2-1.6c-6-2.5-7.9-8.7-4.4-14.2c0.6-0.9,1.3-1.8,2.1-2.5c5.2-4.8,17.8-4.7,23,0.1
		c2,1.9,3.1,4.4,3.2,7.8c-2.9,0-5.9,0-8.9,0c-1.8-4-4.7-5.4-8.9-4.1c-1.1,0.4-2.4,1.7-2.6,2.8c-0.1,0.7,1.4,2.2,2.4,2.6
		c2.6,0.9,5.3,1.4,8,2.1c5.2,1.2,9.7,3.3,11.4,9C1013.6,274.9,1013.6,276,1013.6,277.1z"/>
	<path class="st0" d="M673.7,96.7c-0.5,0.7-1.2,1.4-1.6,2.1c-7.5,11.8-15.1,23.6-22.6,35.4c-1.2,1.9-2.7,2.9-5,2.8
		c-3.6-0.1-7.3-0.1-10.9,0c-2.5,0.1-4.1-0.8-5.4-2.9c-7.4-11.8-14.9-23.5-22.4-35.2c-0.5-0.8-1.1-1.4-1.7-2.2
		c-0.2,0.1-0.4,0.1-0.7,0.2c0,0.9,0,1.8,0,2.7c0,32.3,0,64.6,0,96.9c0,4-0.5,4.5-4.5,4.5c-7.9,0-15.8,0-23.7,0
		c-3.5,0-4.1-0.6-4.1-3.9c0-50.7,0-101.4,0-152.2c0-3.3,0.6-3.9,3.9-3.9c8,0,16,0.1,24-0.1c2.7-0.1,4.4,0.9,5.8,3.1
		c10.8,17,21.8,33.9,32.7,50.9c0.4,0.6,0.8,1.1,1.3,1.9c2.1-3.3,4.2-6.4,6.2-9.5c9.4-14.5,18.8-28.9,28.1-43.4c1.4-2.2,3-3.1,5.6-3
		c8.1,0.1,16.1,0,24.2,0.1c3.1,0,3.8,0.7,3.8,3.8c0,50.8,0,101.6,0,152.4c0,3.1-0.7,3.8-3.8,3.8c-8.1,0-16.1,0-24.2,0
		c-3.7,0-4.3-0.6-4.3-4.3c0-32.3,0-64.6,0-96.9c0-1-0.1-2-0.1-2.9C674,96.8,673.8,96.8,673.7,96.7z"/>
	<path class="st0" d="M975.2,140.2c0-0.9,0-1.7,0-2.6c0-28.5-0.1-57-0.1-85.5c0-2.7-0.1-5.4-0.1-8.1c0-2.2,1.1-3.2,3.2-3.2
		c8.6,0,17.3,0,25.9,0c2.4,0,3.2,0.9,3.2,3.6c0,10.2,0,20.4,0,30.6c0,40.4,0,80.7,0,121.1c0,4.1-0.5,4.7-4.6,4.7
		c-7.6,0-15.2-0.1-22.8,0c-2.4,0-3.9-0.7-5.2-2.9c-19.1-31.8-38.4-63.5-57.6-95.2c-0.4-0.7-0.9-1.4-1.4-2c-0.2,0-0.4,0.1-0.6,0.1
		c-0.1,0.8-0.2,1.6-0.2,2.4c0.1,27.8,0.2,55.7,0.3,83.5c0,3.5,0.1,7,0.1,10.4c0,2.7-0.8,3.5-3.6,3.5c-8.4,0-16.8,0-25.2,0
		c-2.7,0-3.5-0.9-3.7-3.5c0-0.5,0-0.9,0-1.4c0-50,0-100,0-150c0-4.6,0.5-5,5-5c7.7,0,15.4,0,23,0c2.1,0,3.3,0.7,4.4,2.5
		c18.9,31.3,37.9,62.6,56.8,93.9c0.7,1.1,1.4,2.1,2.1,3.2C974.7,140.4,975,140.3,975.2,140.2z"/>
	<path class="st0" d="M283.8,120.8c0-25.2,0-50.5,0-75.7c0-3.6,0.5-4.1,4.1-4.1c8,0,16,0,24,0c3.6,0,4.2,0.6,4.2,4.3
		c0,19.4,0,38.8,0,58.2c0,2.1,0.5,2.9,2.7,2.8c15.7-0.1,31.5-0.1,47.2,0c2.2,0,2.8-0.6,2.8-2.8c-0.1-19.5,0-38.9,0-58.4
		c0-3.6,0.6-4.1,4.1-4.1c8.1,0,16.1,0,24.2,0c3.2,0,3.9,0.7,3.9,3.9c0,50.7,0,101.4,0,152.2c0,3.3-0.7,4-4.1,4c-8.1,0-16.1,0-24.2,0
		c-3.4,0-4-0.7-4-4c0-19.9,0-39.9,0-59.8c0-2.4-0.6-3.1-3-3.1c-15.6,0.1-31.2,0.1-46.8,0c-2.5,0-3,0.8-3,3.1
		c0.1,19.9,0.1,39.7,0,59.6c0,3.7-0.6,4.3-4.3,4.3c-7.9,0-15.8,0-23.7,0c-3.8,0-4.3-0.5-4.3-4.2
		C283.8,171.4,283.8,146.1,283.8,120.8z"/>
	<path class="st0" d="M795.1,40.9c5.5,0,11.1,0.1,16.6,0c2.4-0.1,3.7,0.8,4.5,3.2C829.1,84.6,842,125,855,165.5
		c3.2,10.1,6.4,20.2,9.6,30.2c0.2,0.6,0.4,1.2,0.6,1.8c0.7,2.5,0,3.4-2.6,3.4c-5.1,0-10.3,0-15.4,0c-4.2,0-8.4-0.1-12.6,0
		c-2.2,0-3.3-0.8-3.9-2.9c-2-6.7-4.1-13.4-6.1-20.2c-0.5-1.8-1.3-2.5-3.3-2.5c-17.6,0.1-35.3,0.1-52.9,0c-1.8,0-2.7,0.5-3.2,2.3
		c-1.9,6.8-4,13.5-5.9,20.2c-0.6,2.2-1.8,3-4.1,3c-8.9-0.1-17.9,0-26.8,0c-3.9,0-4.5-0.8-3.3-4.5c7.4-23.3,14.9-46.6,22.3-69.9
		c8.7-27.2,17.4-54.4,26.1-81.7c1.2-3.7,1.4-3.9,5.4-3.9C784.2,40.9,789.7,40.9,795.1,40.9z M795,80.7c-0.2,0-0.5-0.1-0.7-0.1
		c-0.3,0.7-0.6,1.3-0.8,2c-6.4,21.7-12.9,43.4-19.3,65.1c-0.8,2.6-0.7,2.6,2.1,2.6c12.3,0,24.7,0,37,0c0.8,0,1.5-0.1,2.8-0.2
		C809,126.8,802,103.7,795,80.7z"/>
	<path class="st0" d="M544.5,98.9c0,16.4,0,32.8,0,49.1c0,26.7-15.8,46.8-41.8,52.8c-15.1,3.5-30.1,3-44.4-3.2
		c-20.9-9-31.7-25.5-32-48.1c-0.4-35-0.1-69.9-0.1-104.9c0-3.1,0.7-3.7,3.8-3.7c8.2,0,16.3,0,24.5,0c3.4,0,4,0.7,4,4
		c0,33.9,0,67.9,0,101.8c0,7.1,1.3,13.7,6,19.2c6.4,7.5,14.9,9.8,24.4,8.8c14.7-1.6,23.4-11.7,23.4-26.7c0.1-17.1,0-34.2,0-51.3
		c0-17.3,0-34.5,0-51.8c0-3.5,0.7-4.2,4.1-4.2c8,0,16,0,24,0c3.6,0,4.2,0.5,4.2,4.1C544.6,63,544.5,80.9,544.5,98.9z"/>
	<path class="st0" d="M754.2,250.2c-2.4,11.6-4.7,22.7-6.9,33.7c-0.3,1.5-0.8,2.2-2.4,2.1c-2.4-0.2-5.3,0.7-6.9-0.4
		c-1.5-1.1-1.7-4.2-2.3-6.4c-3.7-13-7.4-26-11.1-39c-0.1-0.4-0.1-0.8-0.2-1.4c3.5,0,6.9,0,10.5,0c2.5,10.8,4.9,21.8,7.5,33.2
		c0.7-3.6,1.3-6.7,2-9.9c1.4-7.3,2.8-14.6,4.3-21.8c0.1-0.7,1.1-1.6,1.7-1.7c3-0.2,6-0.1,9.2-0.1c2.3,11.1,4.5,22,6.9,33.5
		c0.3-0.9,0.5-1.4,0.7-1.9c2.2-9.9,4.5-19.9,6.7-29.8c0.3-1.3,0.8-1.8,2.2-1.8c2.7,0.1,5.3,0,8.4,0c-0.6,2.3-1.1,4.3-1.7,6.4
		c-3.6,12.9-7.3,25.8-10.8,38.8c-0.5,1.9-1.4,2.5-3.3,2.4c-2.3-0.2-4.6,0-7.1,0C759.1,274.1,756.7,262.4,754.2,250.2z"/>
	<path class="st0" d="M920.1,287.4c-13.2,0-21.8-8.1-22.7-21.8c-0.2-3.6-0.1-7.3,0.6-10.8c2.6-12.6,12.8-19.2,26-17.2
		c10.9,1.6,18,9.4,18.6,21.1c0.2,4.4,0,8.9-1.1,13.1C939.1,281.9,931.2,287.3,920.1,287.4z M933.1,262.9c-0.3-2.3-0.4-4.1-0.7-5.9
		c-0.2-1-0.5-2-0.8-3c-1.9-5.3-6-8.3-11.4-8.3c-5.4,0-9.6,2.9-11.6,8.2c-1.9,5.4-1.9,10.9-0.2,16.3c1.8,5.7,6.2,8.7,11.9,8.6
		c5.6-0.1,9.8-3.3,11.5-8.9C932.5,267.5,932.7,265,933.1,262.9z"/>
	<path class="st0" d="M795.6,285.8c-3.1,0-6,0-9.1,0c0-15.7,0-31.3,0-47c2.9,0,5.8,0,8.9,0c0,5.1,0,10.3,0,16.2
		c2.7-3.2,5.6-4.9,9.2-5.1c7.9-0.5,13.4,4.3,13.3,11.6c-0.2,8,0,16.1,0,24.3c-3.1,0-6.1,0-9.3,0c0-0.9-0.1-1.7-0.1-2.6
		c0-6.2,0-12.5,0-18.7c0-4.2-1.5-6.4-4.4-6.8c-4-0.6-6.9,1.3-8,5.3c-0.3,1.3-0.4,2.6-0.5,4C795.6,273.2,795.6,279.4,795.6,285.8z"/>
	<path class="st0" d="M887.6,271c-8.3,0-16.1,0-23.8,0c-0.5,3.5,1.2,6.7,4.2,8c3.2,1.4,6.6,0.6,8.8-2.1c0.4-0.5,1.2-1.1,1.8-1.2
		c2-0.1,4.1-0.1,6.2-0.1c0.6,0,1.2,0,2.5,0c-0.8,1.7-1.2,3.2-2,4.4c-3.8,5.8-10.8,8.3-18.4,6.6c-7-1.6-11.5-6.1-12.2-13.3
		c-0.4-4.1-0.2-8.4,0.7-12.4c1.7-7.2,8.3-11.4,16.2-11.1c7.9,0.3,13.6,4.8,15.2,12.2C887.3,264.8,887.3,267.8,887.6,271z
		 M877.6,264.7c-0.5-5-3.2-7.4-7.8-7.1c-3.5,0.2-6,3.2-5.9,7.1C868.5,264.7,873,264.7,877.6,264.7z"/>
	<path class="st0" d="M834.7,257.8c0-2.4,0-4.4,0-6.7c1.4,0,2.9,0,4.7,0c0-3.3,0-6.5,0-9.7c3.3,0,6.2,0,9.4,0c0,3.2,0,6.3,0,9.5
		c1.9,0,3.6,0,5.5,0c0,2.3,0,4.4,0,6.7c-1.7,0-3.4,0-5.5,0c0,1.4,0,2.5,0,3.7c0,4.7,0,9.5,0,14.2c0,3.5,0.2,3.8,3.7,3.9
		c0.5,0,1.1,0.1,1.8,0.1c0,2.1,0,4.2,0,6.6c-3.8,0.5-7.7,1-11.3-0.7c-1.4-0.7-2.7-2.5-3.2-4c-0.6-2.1-0.4-4.5-0.4-6.8
		c0-5.5,0-11,0-16.7C837.7,257.8,836.4,257.8,834.7,257.8z"/>
	<path class="st0" d="M832.6,285.8c-3,0-6.1,0-9.2,0c0-11.7,0-23.2,0-34.8c3.1,0,6,0,9.2,0C832.6,262.5,832.6,274.1,832.6,285.8z"/>
	<path class="st0" d="M622.2,247.1c3.3-2.3,6.5-2,9.7,1c2.2-0.8,4.1-2,6-2.2c4.1-0.5,6.7,1.8,6.8,6c0.2,4.2,0.1,8.4,0,12.6
		c0,0.5-0.9,1-1.4,1.6c-0.5-0.6-1.3-1.1-1.3-1.7c-0.1-3.8,0-7.6-0.1-11.4c-0.1-3.7-3.3-5.6-6.4-4.2c-1.9,0.9-2.5,2.5-2.5,4.5
		c0,3.6-0.1,7.1,0,10.7c0.1,2.1-0.8,2.5-2.9,1.8c0-3.2,0-6.5,0-9.8c0-1.2,0-2.4-0.1-3.5c-0.3-2.6-2.2-4.2-4.7-4
		c-2.4,0.2-4,1.8-4.1,4.4c-0.1,3.8,0,7.6,0,11.4c0,1.2-0.1,2-1.6,2c-1.4,0-1.4-0.9-1.4-1.9c0-5.4,0-10.8,0-16.1
		c0-0.6,0.5-1.8,0.9-1.8C620,246.1,620.8,246.6,622.2,247.1z"/>
	<path class="st0" d="M652.8,257.1c-0.1,2.9,0.5,5.1,3.1,6.1c3.1,1.2,5.7,0.3,7.7-2.7c0.8,0.5,1.4,0.9,2,1.2
		c-1.6,3.3-4.3,4.7-8.3,4.4c-3.3-0.2-6.1-2-6.6-5.1c-0.5-3.3-0.7-6.8-0.2-10c0.5-3.5,3.6-5.4,7.6-5.4c4,0,6.4,1.7,7.5,5.3
		c1.6,5.3,1,6.1-4.4,6.1C658.4,257.1,655.7,257.1,652.8,257.1z M663,254.4c0.1-4-1.8-6.2-5.1-6.2c-3.2,0-5.1,2.3-4.9,6.2
		C656.3,254.4,659.5,254.4,663,254.4z"/>
	<path class="st0" d="M598.7,256.1c-0.1,5.7-2,8.8-6,9.9c-4.9,1.3-9.5-1.3-10.2-6.3c-0.4-2.7-0.3-5.5,0.1-8.2
		c0.6-3.8,3.8-5.8,8.1-5.7c3.9,0.1,6.7,2.3,7.5,5.9C598.4,253.1,598.5,254.6,598.7,256.1z M595.8,255.9c-0.2-1.3-0.2-2.5-0.5-3.8
		c-0.5-2.5-2.6-4-5.1-4c-2.4,0.1-4.5,1.6-4.8,4.1c-0.3,2.5-0.3,5,0,7.5c0.3,2.4,2.4,4,4.8,4c2.4,0.1,4.5-1.5,5-3.8
		C595.5,258.6,595.6,257.3,595.8,255.9z"/>
	<path class="st0" d="M701,261.4c1.4-4.5,2.9-9,4.3-13.4c0.7-2.2,0.7-2.2,3.5-1.6c-1.7,4.9-3.3,9.7-4.9,14.5c-1,2.9-2,5.8-3.1,8.7
		c-1.4,3.5-2.9,4.3-7,4.1c-0.1-0.6-0.1-1.3-0.2-2c4.7-0.7,6.3-4.8,4.7-8.8c-2.1-5.4-3.9-11-5.8-16.5c2-0.7,3.1-0.3,3.7,1.7
		c1.3,4.5,2.8,8.9,4.3,13.3C700.6,261.4,700.8,261.4,701,261.4z"/>
	<path class="st0" d="M571.9,265.6c0-5.6,0-11.2,0-16.8c-1.1-0.1-1.9-0.2-2.9-0.2c0-0.8,0-1.5,0-2.3c0.9-0.1,1.8-0.2,2.8-0.4
		c0.1-0.6,0.2-1.2,0.3-1.8c0.3-4.3,2.1-5.9,6.4-5.7c0.5,0,1,0.7,1.4,1.1c-0.4,0.5-0.8,1.4-1.3,1.5c-3.5,0.7-3.8,1.1-3.6,5
		c1.4,0.1,2.9,0.2,4.5,0.3c0,0.8,0,1.5,0,2.4c-1.5,0-2.9,0-4.6,0c0,3.5,0,6.9,0,10.3c0,1.7-0.1,3.3,0,5
		C575,266.2,573.8,266.3,571.9,265.6z"/>
	<path class="st0" d="M688.6,252.1c0,4,0,8.1,0,12.1c0,1.1-0.2,2.1-1.5,1.7c-0.6-0.2-1.3-1.1-1.3-1.7c-0.1-8.1,0-16.1-0.1-24.2
		c0-1.1,0.2-2.1,1.5-1.7c0.6,0.2,1.3,1.1,1.3,1.7C688.6,244.1,688.6,248.1,688.6,252.1z"/>
	<path class="st0" d="M604.1,246.4c1.8-0.6,3-0.6,3,1.4c1.6-0.7,3.2-1.6,4.8-1.9c2.5-0.4,3,0.5,2.1,3.1c-0.6-0.1-1.3-0.2-2-0.2
		c-2.8,0.1-4.7,1.8-4.9,4.7c-0.2,3.1-0.1,6.3-0.2,9.5c0,0.9,0,1.7,0,2.6c-1.9,0.7-2.9,0.5-2.9-1.8
		C604.1,258,604.1,252.2,604.1,246.4z"/>
	<path class="st0" d="M671.3,265.6c0-5.9,0-11.6,0-17.4c0-0.7,0.7-2,1.1-2c0.8,0,1.6,0.7,2.7,1.2c1-0.4,2.5-1.3,4.2-1.5
		c2.5-0.3,2.9,0.5,1.9,3c-5.4-0.2-6.9,1.3-6.9,6.9c0,2.6-0.1,5.2,0,7.8C674.5,265.8,673.7,266.5,671.3,265.6z"/>
	<path class="st0" d="M832.6,246.5c-3.1,0-6,0-9.2,0c0-1.7,0-3.3,0-5.1c3,0,6.1,0,9.2,0C832.6,243.2,832.6,244.8,832.6,246.5z"/>
	<path class="st0" d="M147.6,120.7c0,28.3,0,56.6,0,85c0,2-0.5,2.8-2.5,3.3c-15,3.6-29.9,3.6-44.8-0.1c-2-0.5-2.4-1.3-2.4-3.2
		c0.1-15.3,0-30.5,0-45.8c0-41.1,0-82.3-0.1-123.4c0-2.2,0.5-3.1,2.8-3.7c14.9-3.5,29.7-3.6,44.6,0c1.9,0.5,2.4,1.3,2.4,3.2
		C147.6,64.2,147.6,92.4,147.6,120.7z"/>
	<path class="st0" d="M157.7,36.8c3.2,1.6,6.3,2.8,9,4.5c4.8,3,9.4,6.4,14.1,9.6c1.4,0.9,1.8,2.1,1.8,3.8c0,28.3,0,56.7,0,85
		c0,15.8,0,31.7-0.1,47.5c0,1.1-0.5,2.6-1.3,3.2c-6.6,5.7-14,10.3-22,13.7c-0.4,0.2-0.9,0.3-1.5,0.5
		C157.7,148.7,157.7,93.1,157.7,36.8z"/>
	<path class="st0" d="M88,204.7c-1.4-0.6-2.6-1.1-3.8-1.7c-7-3.3-13.6-7.5-19.5-12.5c-0.8-0.7-1.4-1.9-1.4-2.9
		c-0.1-44.5-0.1-88.9,0-133.4c0-0.9,0.4-2.1,1-2.7c6.9-5.9,14.5-10.6,22.9-14.2c0.2-0.1,0.5-0.1,0.8-0.1C88,93,88,148.7,88,204.7z"
		/>
</g>
</svg>
