<?xml version="1.0" encoding="utf-8"?>
<!-- Generator: Adobe Illustrator 25.2.1, SVG Export Plug-In . SVG Version: 6.00 Build 0)  -->
<svg version="1.1" id="Layer_1" xmlns="http://www.w3.org/2000/svg" xmlns:xlink="http://www.w3.org/1999/xlink" x="0px" y="0px"
	 viewBox="0 0 300 63" style="enable-background:new 0 0 300 63;" xml:space="preserve">
<style type="text/css">
	.st0{fill:#FFFFFF;}
</style>
<g id="Layer_2_1_">
	<g id="Layer_1-2">
		<path class="st0" d="M139.2,37.5h-4.4L125,62h4.6l2.6-6.9h9.6l2.7,6.9h4.6l-9.7-24.4L139.2,37.5z M140.5,51.8h-7.1l3.6-9.6
			L140.5,51.8z"/>
		<rect x="129.7" y="1.1" class="st0" width="4.3" height="24.5"/>
		<path class="st0" d="M163,26c-0.6,0-4.8-0.2-4.8-5.3V10h-2.5V6.7h2.5V1.1h4.2v5.6h4.6V10h-4.6v10.4c0,0.5,0.2,1,0.6,1.3
			c0.4,0.3,0.8,0.4,1.3,0.4c0.8,0,1.6-0.3,2.1-0.8l1.6,3C166.7,25.5,164.8,26.1,163,26"/>
		<path class="st0" d="M215.1,14.4c0.5-1.2,1.3-2.2,2.4-2.9c1.2-0.7,2.5-1.1,3.8-1.1h0.1V6.6c-0.3-0.1-0.7-0.1-1-0.1
			c-1.3,0.1-2.5,0.5-3.4,1.3c-0.9,0.7-1.7,1.6-2.2,2.6V6.7h-3.9v19h4.2L215.1,14.4z"/>
		<path class="st0" d="M238.6,20.9v-6.8c0.1-2.1-0.7-4.1-2.2-5.6c-1.7-1.5-3.9-2.3-6.1-2.3c-2.6-0.1-5.2,0.8-7.2,2.3L223,8.6
			l1.6,2.9c1.6-1.1,3.5-1.7,5.4-1.8c1.2-0.1,2.4,0.3,3.3,1.1c0.8,0.8,1.2,1.9,1.1,3v0.9c-1.6-0.4-3.2-0.6-4.8-0.7
			c-1.2,0-8,0.3-8,6.1c0,0.8,0.2,1.6,0.5,2.4c0.3,0.7,0.8,1.4,1.4,1.9c0.6,0.6,1.4,1,2.1,1.3c0.9,0.3,1.9,0.5,2.9,0.5
			c3.6,0,5.5-1.5,6.5-2.9c0,0.8,0.4,1.6,1,2.1c0.6,0.4,1.3,0.7,2.1,0.6c0.6,0,1.2-0.1,1.8-0.2V22C239.9,22,238.7,22.3,238.6,20.9
			 M229.2,22.9c-0.9,0-1.8-0.3-2.5-0.9c-0.6-0.6-1-1.4-1-2.2c0-0.9,0.5-1.8,1.3-2.2c1-0.6,2.2-0.9,3.4-0.8c1.4,0,2.8,0.3,4.2,0.7v1
			C234.5,20,233.4,23,229.2,22.9"/>
		<path class="st0" d="M211.6,56.2c-0.2,0.4-0.4,0.7-0.7,0.9c-0.3,0.3-0.7,0.6-1.1,0.8c-0.4,0.2-0.9,0.4-1.4,0.5
			c-1.2,0.3-2.5,0.2-3.6-0.3c-0.7-0.3-1.3-0.7-1.8-1.3c-0.5-0.6-0.9-1.2-1.2-1.9c-0.3-0.8-0.4-1.6-0.4-2.4c0-0.8,0.1-1.7,0.4-2.5
			c0.3-0.7,0.7-1.4,1.2-1.9c0.5-0.5,1.1-1,1.7-1.2c0.7-0.3,1.4-0.5,2.2-0.5c0.9,0,1.8,0.2,2.6,0.6c0.8,0.4,1.4,1,1.9,1.8l0.1,0.1
			l3.9-1.3l-0.1-0.2c-0.7-1.4-1.8-2.6-3.2-3.4c-1.5-0.9-3.3-1.3-5.1-1.3c-1.4,0-2.8,0.2-4.1,0.8c-2.3,1-4.2,2.9-5.1,5.2
			c-0.5,1.2-0.7,2.5-0.7,3.8c0,1.3,0.2,2.6,0.7,3.8c0.5,1.2,1.1,2.2,2,3.1c0.9,0.9,1.9,1.7,3.1,2.2c1.3,0.5,2.6,0.8,4,0.8
			c1.8,0.1,3.7-0.4,5.2-1.3c1.4-0.8,2.5-2,3.2-3.5l0.1-0.2l-3.9-1.3L211.6,56.2z"/>
		<path class="st0" d="M276.1,56.2c-0.2,0.4-0.4,0.7-0.7,0.9c-0.3,0.3-0.7,0.6-1.1,0.8c-0.4,0.2-0.9,0.4-1.4,0.5
			c-1.2,0.3-2.5,0.2-3.6-0.3c-0.7-0.3-1.3-0.7-1.8-1.3c-0.5-0.6-0.9-1.2-1.2-2c-0.3-0.8-0.4-1.6-0.4-2.4c0-0.8,0.1-1.7,0.4-2.5
			c0.3-0.7,0.7-1.4,1.2-1.9c0.5-0.5,1.1-1,1.7-1.2c0.7-0.3,1.4-0.5,2.2-0.5c0.9,0,1.8,0.2,2.6,0.6c0.8,0.4,1.4,1,1.9,1.8l0.1,0.1
			l3.9-1.3l-0.1-0.2c-0.7-1.4-1.8-2.6-3.2-3.4c-1.5-0.9-3.3-1.3-5.1-1.3c-1.4,0-2.8,0.2-4.1,0.8c-2.3,1-4.2,2.9-5.1,5.2
			c-0.5,1.2-0.7,2.5-0.7,3.8c0,1.3,0.2,2.6,0.7,3.8c0.5,1.2,1.1,2.2,2,3.1c0.9,0.9,1.9,1.7,3.1,2.2c1.3,0.5,2.6,0.8,4,0.8
			c1.8,0,3.7-0.4,5.2-1.4c1.4-0.8,2.5-2.1,3.1-3.5l0.1-0.2l-3.9-1.3L276.1,56.2z"/>
		<rect x="217" y="36.8" class="st0" width="4.2" height="4.3"/>
		<rect x="217" y="43" class="st0" width="4.2" height="19"/>
		<path class="st0" d="M253.9,42.7c-2.7-0.1-5.2,1.4-6.5,3.7V43h-3.9v19h4.2V50.8c1.2-4.1,4.4-4.3,5-4.3c2.4,0,3.6,1.8,3.6,4.9V62
			h4.2V50.6C260.6,44.4,256,42.7,253.9,42.7"/>
		<path class="st0" d="M147.6,6.4c-2.7-0.1-5.2,1.4-6.5,3.7V6.7h-3.9v19h4.2V14.4c1.2-4.1,4.4-4.3,5-4.3c2.4,0,3.6,1.8,3.6,4.9v10.6
			h4.2V14.3C154.3,8.1,149.7,6.4,147.6,6.4"/>
		<path class="st0" d="M186.9,12.5c-0.4-1.1-1-2.2-1.9-3.1c-0.9-0.9-1.9-1.6-3.1-2.1c-1.3-0.5-2.6-0.8-4-0.8c-1.4,0-2.8,0.2-4.1,0.8
			c-1.2,0.5-2.2,1.2-3.1,2.1c-0.9,0.9-1.5,2-2,3.1c-0.5,1.2-0.7,2.5-0.7,3.8c0,1.3,0.2,2.6,0.7,3.8c0.5,1.2,1.1,2.2,2,3.1
			c0.9,0.9,1.9,1.6,3.1,2.1c1.3,0.5,2.6,0.8,4,0.8c1.9,0,3.8-0.4,5.5-1.4c1.5-0.8,2.6-2,3.4-3.5l0.1-0.1L183,20l-0.1,0.1
			c-0.2,0.4-0.5,0.7-0.8,1c-0.3,0.4-0.7,0.7-1.2,0.9c-0.4,0.2-0.9,0.4-1.4,0.5c-1.2,0.3-2.4,0.2-3.6-0.2c-0.6-0.2-1.2-0.6-1.7-1
			c-0.5-0.5-0.9-1-1.2-1.6c-0.3-0.6-0.5-1.3-0.6-1.9h15v-0.1c0-0.2,0-0.4,0.1-0.6c0-0.3,0-0.5,0-0.8C187.6,15,187.4,13.7,186.9,12.5
			 M183.3,14.8h-10.8c0.1-0.7,0.3-1.3,0.5-1.9c0.3-0.6,0.7-1.1,1.2-1.6c0.5-0.4,1.1-0.8,1.7-1c1.3-0.5,2.8-0.5,4.1,0
			C181.9,11,183.2,12.8,183.3,14.8"/>
		<path class="st0" d="M241.6,48.7c-0.4-1.1-1-2.2-1.9-3.1c-0.9-0.9-1.9-1.6-3.1-2.1c-1.3-0.5-2.6-0.8-4-0.8c-1.4,0-2.8,0.2-4.1,0.8
			c-1.2,0.5-2.2,1.2-3.1,2.1c-0.9,0.9-1.5,2-2,3.2c-0.5,1.2-0.7,2.5-0.7,3.8c0,1.3,0.2,2.6,0.7,3.8c0.5,1.2,1.1,2.2,2,3.1
			c0.9,0.9,1.9,1.6,3.1,2.1c1.3,0.5,2.6,0.8,4,0.8c1.9,0,3.8-0.4,5.5-1.3c1.5-0.8,2.6-2,3.4-3.5l0.1-0.2l-3.9-1.1l-0.1,0.1
			c-0.2,0.4-0.5,0.7-0.8,1c-0.3,0.3-0.7,0.6-1.1,0.8c-0.4,0.2-0.9,0.4-1.4,0.5c-1.2,0.3-2.4,0.2-3.6-0.2c-0.6-0.2-1.2-0.6-1.7-1
			c-0.5-0.5-0.9-1-1.2-1.6c-0.3-0.6-0.5-1.3-0.6-1.9h15v-0.1c0-0.2,0-0.4,0.1-0.6c0-0.3,0-0.5,0-0.8C242.2,51.2,242,49.9,241.6,48.7
			 M238,50.9h-10.8c0.1-0.7,0.3-1.3,0.5-1.9c0.3-0.6,0.7-1.1,1.2-1.6c0.5-0.4,1.1-0.8,1.7-1c1.3-0.5,2.8-0.5,4.1,0
			C236.6,47.2,237.9,48.9,238,50.9"/>
		<path class="st0" d="M299.4,48.7c-0.4-1.1-1-2.2-1.9-3.1c-0.9-0.9-1.9-1.6-3.1-2.1c-1.3-0.5-2.6-0.8-4-0.8c-1.4,0-2.8,0.2-4.1,0.8
			c-1.2,0.5-2.2,1.2-3.1,2.1c-0.9,0.9-1.5,2-2,3.2c-0.5,1.2-0.7,2.5-0.7,3.8c0,1.3,0.2,2.6,0.7,3.8c0.5,1.2,1.1,2.2,2,3.1
			c0.9,0.9,1.9,1.6,3.1,2.1c1.3,0.5,2.6,0.8,4,0.8c1.9,0,3.8-0.4,5.5-1.3c1.5-0.8,2.6-2,3.4-3.5l0.1-0.2l-3.9-1.1l0,0.1
			c-0.2,0.4-0.5,0.7-0.8,1c-0.3,0.3-0.7,0.6-1.1,0.8c-0.4,0.2-0.9,0.4-1.4,0.5c-1.2,0.3-2.4,0.2-3.6-0.2c-0.6-0.2-1.2-0.6-1.7-1
			c-0.5-0.5-0.9-1-1.2-1.6c-0.3-0.6-0.5-1.3-0.6-1.9h15v-0.1c0-0.2,0-0.4,0.1-0.6c0-0.3,0-0.5,0-0.8C300,51.2,299.8,49.9,299.4,48.7
			 M295.7,51h-10.8c0.1-0.7,0.3-1.3,0.5-1.9c0.3-0.6,0.7-1.1,1.2-1.6c0.5-0.4,1.1-0.8,1.7-1c1.3-0.5,2.8-0.5,4.1,0
			C294.4,47.2,295.6,49,295.7,51"/>
		<path class="st0" d="M204.3,6.7v3.1c-0.6-1-1.5-1.9-2.6-2.4c-2.4-1.2-5.2-1.3-7.6-0.2c-1.1,0.5-2,1.2-2.8,2.1
			c-0.8,0.9-1.4,2-1.8,3.1c-0.4,1.2-0.7,2.5-0.6,3.8c0,1.2,0.2,2.5,0.6,3.7c0.4,1.1,1,2.2,1.8,3.1c0.8,0.9,1.7,1.6,2.7,2.1
			c1.1,0.5,2.3,0.8,3.5,0.8c1.4,0,2.7-0.3,4-0.9c1.1-0.5,2-1.3,2.7-2.3v2.7c0,3.5-2.6,5.2-6.2,5.2c-2.4,0-4.7-1-6.4-2.7l-2.3,2.8
			c2.3,2.3,5.4,3.6,8.7,3.6c1.4,0,2.7-0.2,4-0.6c1.2-0.3,2.3-0.9,3.2-1.7c2.4-2,2.9-4.5,2.9-7.4V6.7H204.3z M203.4,18.6
			c-0.7,2.2-2.7,3.6-5,3.6c-0.8,0-3.5-0.1-5-3.6c-0.3-0.7-0.4-1.5-0.4-2.3c0-0.8,0.1-1.6,0.4-2.3c0.2-0.7,0.6-1.4,1.1-2
			c0.5-0.6,1-1.1,1.7-1.4c1.4-0.7,3.1-0.7,4.6,0c0.7,0.4,1.2,0.8,1.7,1.4c0.5,0.6,0.8,1.3,1.1,2c0.3,0.7,0.4,1.5,0.4,2.3
			C203.9,17.1,203.7,17.9,203.4,18.6"/>
		<path class="st0" d="M168.4,58.3c-0.9,0-1.1-0.6-1.1-1.4V36.8h-4.2v9.1c-0.7-0.8-1.5-1.5-2.4-2c-1.2-0.6-2.6-1-4-1
			c-1.2,0-2.3,0.3-3.4,0.8c-1,0.5-1.9,1.2-2.7,2.1c-0.8,0.9-1.4,1.9-1.8,3c-0.4,1.2-0.6,2.4-0.6,3.7c0,1.3,0.2,2.6,0.7,3.9
			c0.4,1.2,1.1,2.2,1.9,3.1c0.8,0.9,1.8,1.6,2.8,2.1c1.1,0.5,2.3,0.8,3.6,0.8c2.7,0.1,5.2-1.2,6.7-3.5v0.6c0,0.8,0.3,1.5,0.9,2
			c0.6,0.5,1.3,0.7,2,0.7c0.6,0.1,1.3,0,1.9-0.4L168.4,58.3L168.4,58.3z M152.4,52.5c0-0.8,0.1-1.6,0.4-2.3c0.3-0.7,0.6-1.4,1.1-1.9
			c0.5-0.6,1.1-1,1.7-1.4c0.7-0.3,1.4-0.5,2.2-0.5c0.7,0,1.4,0.2,2,0.5c0.7,0.3,1.3,0.8,1.8,1.3c0.5,0.5,1,1.2,1.2,1.9
			c0.3,0.9,0.5,1.8,0.4,2.8c0,0.8-0.1,1.6-0.4,2.3c-0.3,0.7-0.7,1.4-1.1,2c-0.5,0.6-1,1-1.7,1.4c-0.7,0.3-1.4,0.5-2.1,0.5
			c-0.7,0-1.4-0.2-2-0.5c-0.7-0.3-1.3-0.8-1.8-1.3c-0.5-0.6-1-1.3-1.2-2C152.6,54.4,152.5,53.4,152.4,52.5"/>
		<path class="st0" d="M248.8,22.1c-0.8,0.2-1.6,0.1-2.3-0.3c-0.4-0.3-0.6-0.8-0.6-1.3V1.1h-4.2v19.5c0,5.1,4.1,5.3,4.8,5.3
			c0.8,0,1.6-0.1,2.3-0.3V22.1z"/>
		<rect y="45" class="st0" width="12.2" height="17.2"/>
		<path class="st0" d="M104.6,45c-0.7,3.3-3.6,5.7-7,5.9h-0.3c-3.5,0-6.5-2.5-7.3-5.9H77.7c0.1,0.9,0.2,1.8,0.4,2.8
			c2,8.7,9.7,15,18.6,15.2h0.6c10.2,0,18.7-7.8,19.5-18H104.6z"/>
		<polygon class="st0" points="15.2,62.2 27.7,62.2 35.1,45 22.6,45 		"/>
		<polygon class="st0" points="73.4,45 61,45 68.2,62.2 80.7,62.2 		"/>
		<path class="st0" d="M195.8,51.9c-0.4-0.8-1-1.5-1.7-2c-0.8-0.6-1.7-1-2.6-1.3c-1.1-0.4-2.3-0.7-3.4-1c-1-0.2-1.9-0.5-2.7-0.7
			c-0.7-0.2-1.3-0.4-1.9-0.7c-0.4-0.2-0.8-0.5-1.1-0.9c-0.2-0.4-0.4-0.9-0.4-1.4c0-0.9,0.4-1.7,1.1-2.2c1.1-0.6,2.3-0.9,3.6-0.8
			c0.7,0,1.5,0.1,2.2,0.2c0.7,0.1,1.3,0.3,1.9,0.6c0.5,0.2,1,0.5,1.5,0.8c0.4,0.3,0.8,0.5,1.1,0.8l2-3.5l-0.1-0.1
			c-1.2-0.8-2.5-1.5-3.9-2c-1.5-0.5-3.2-0.8-4.8-0.8c-1.2,0-2.5,0.2-3.6,0.5c-1.1,0.3-2.1,0.8-2.9,1.5c-0.8,0.6-1.5,1.5-2,2.4
			c-0.5,1-0.7,2.1-0.7,3.3c0,0.9,0.1,1.7,0.5,2.5c0.3,0.7,0.8,1.3,1.4,1.8c0.7,0.6,1.5,1.1,2.3,1.5c1.1,0.4,2.1,0.7,3.2,1
			c1.1,0.3,2,0.5,2.9,0.8c0.7,0.2,1.4,0.5,2.1,0.8c0.5,0.2,0.9,0.6,1.3,1c0.8,1.1,0.5,2.6-0.6,3.4c-0.1,0-0.1,0.1-0.2,0.1
			c-1.1,0.5-2.3,0.8-3.5,0.7c-0.9,0-1.8-0.1-2.7-0.3c-0.8-0.2-1.7-0.4-2.5-0.7c-0.7-0.3-1.4-0.6-2-0.9c-0.5-0.3-1-0.6-1.4-1
			l-1.9,3.6l0.1,0.1c1.5,1.1,3.1,2,4.9,2.5c1.8,0.6,3.7,0.9,5.6,0.9c1.2,0,2.4-0.1,3.6-0.4c1.1-0.2,2.1-0.7,3-1.3
			c0.8-0.6,1.5-1.3,2-2.2c0.5-1,0.7-2.1,0.7-3.2C196.4,53.9,196.2,52.9,195.8,51.9z"/>
		<path class="st0" d="M9.8,0.7H2.4C1.1,0.7,0,1.8,0,3.2V45h12.2V3.2C12.2,1.8,11.2,0.7,9.8,0.7z"/>
		<path class="st0" d="M112.7,31.2c-2.7-3.4-6.5-5.8-10.7-6.8c0,0-5.7-1.3-6.9-1.6c-2.9-0.8-4.5-3.8-3.7-6.7s3.8-4.5,6.7-3.7
			c1.9,0.6,3.4,2.1,3.8,4.1c0.1,0.7,0.5,1.2,1.1,1.6c0.6,0.4,1.2,0.5,1.9,0.4l6.9-1.4c0.7-0.1,1.2-0.5,1.6-1.1
			c0.4-0.6,0.5-1.2,0.4-1.9C111.7,4.6,102.5-1.5,93,0.4c-8.2,1.7-14,8.8-14.1,17.2c-0.1,7.9,5.2,14.9,12.9,16.9l7.3,1.7
			c1.6,0.4,3.1,1.3,4.1,2.6c1.1,1.3,1.6,3,1.6,4.7c0,0.4,0,0.7-0.1,1.1c0,0-0.1,0.3-0.1,0.5h12.3v-0.4c0-0.4,0-0.8,0-1.2
			C116.9,39,115.4,34.7,112.7,31.2z"/>
		<path class="st0" d="M49.7,0.8h-3.4c-2.9,0-5.6,1.7-6.7,4.4L22.6,45h12.6L48,15.3l7.9,18.1h-8.3c-2.2-0.2-4.2,1.2-4.8,3.2L39.2,45
			h34.1L56.4,5.2C55.3,2.5,52.6,0.8,49.7,0.8z"/>
	</g>
</g>
</svg>
