<?xml version="1.0" encoding="utf-8"?>
<!-- Generator: Adobe Illustrator 25.2.1, SVG Export Plug-In . SVG Version: 6.00 Build 0)  -->
<svg version="1.1" id="Layer_1" xmlns="http://www.w3.org/2000/svg" xmlns:xlink="http://www.w3.org/1999/xlink" x="0px" y="0px"
	 viewBox="0 0 600 225" style="enable-background:new 0 0 600 225;" xml:space="preserve">
<style type="text/css">
	.st0{fill:#FFFFFF;}
</style>
<g>
	<path class="st0" d="M267.8,1.3c-18.9,0-34.7,6.5-48.2,19.7c-13.5,13.3-20.1,28.7-20.1,47.1c0,21,7.2,37.6,22,50.5
		c13.3,11.6,28.6,17.5,45.3,17.5c19.2,0,35.1-6.4,48.7-19.7c13.5-13.1,20-28.7,20-47.5c0-18.7-6.5-34.4-20-47.7
		C302.1,7.8,286.5,1.3,267.8,1.3 M307,109c-10.8,10.9-24.3,16.4-40,16.4c-14.5,0-27.5-5.4-38.6-16.1s-16.8-24.5-16.8-41
		c0-15.8,5.5-29.2,16.2-39.9C238.5,17.5,251.9,12,267.5,12c15.7,0,29,5.5,39.6,16.4c10.7,10.8,16.1,24.3,16.1,40.3
		C323.3,84.5,317.8,98,307,109 M24.5,136.2H12.2L32.4,1.3l0,0L88.9,108L145.2,1.4h0.2l20.1,134.8h-12.3l-14.4-96.5L88.9,134
		l-50-94.3L24.5,136.2z M586.4,13.5h-31.7v122.7h-12.2V13.5h-31.7V1.3h75.6L586.4,13.5L586.4,13.5z M376,136.2l21-45.1h56.7l21,45.1
		h13.4L431.6,14.7l-6.2-13.4L420,12.9l-57.4,123.2H376V136.2z M425.4,30.1L425.4,30.1l22.7,48.8h-45.4L425.4,30.1z"/>
	<g>
		<path class="st0" d="M12.2,212.9V181h5.4v12c1.8-1.7,3.9-2.6,6.3-2.6c3,0,5.4,1,7,3c1.6,2,2.4,4.9,2.4,8.7s-1.1,6.9-3.3,9.1
			c-2.2,2.2-5.2,3.3-9,3.3c-1.5,0-3-0.2-4.7-0.5C14.7,213.7,13.3,213.3,12.2,212.9z M22.6,194.3c-2,0-3.7,0.9-5.1,2.6v12.8
			c1,0.3,2.2,0.5,3.4,0.5c4.7,0,7-2.8,7-8.3c0-2.5-0.5-4.4-1.4-5.7C25.6,195,24.3,194.3,22.6,194.3z"/>
		<path class="st0" d="M45.9,213.7l-8.1-22.9h5.5l6.6,19.5l5.4-19.5h5.3L54,212.7c-0.7,2.3-1.5,4.2-2.5,5.7
			c-0.9,1.5-2.1,2.6-3.5,3.4c-1.4,0.8-3.1,1.4-5.2,1.8l-1.1-4.4c2-0.5,3.5-1.1,4.5-1.9c1-0.8,1.8-2,2.3-3.6H45.9z"/>
		<path class="st0" d="M93.9,214.5c-4.7,0-8.3-1.4-10.8-4.3c-2.5-2.9-3.8-7-3.8-12.3s1.3-9.3,3.8-12.2s6.1-4.3,10.8-4.3
			c4.7,0,8.3,1.4,10.8,4.3c2.5,2.9,3.8,6.9,3.8,12.2s-1.3,9.4-3.8,12.3C102.2,213.1,98.6,214.5,93.9,214.5z M93.9,209.8
			c6,0,9-4,9-11.9c0-3.9-0.8-6.8-2.3-8.8s-3.8-3-6.7-3c-3,0-5.2,1-6.7,3s-2.3,4.9-2.3,8.8C84.9,205.9,87.9,209.8,93.9,209.8z"/>
		<path class="st0" d="M116.7,214v-32h11.6c3.8,0,6.6,0.8,8.6,2.5s2.9,4.1,2.9,7.3c0,2.3-0.6,4.3-1.8,5.8c-1.2,1.6-3,2.6-5.3,3.3
			l8.4,13.1H135l-7.5-12l-5.4-1.1V214H116.7z M122.1,197.2h4.1c2,0,3.6-0.2,4.8-0.5c1.2-0.4,2-0.9,2.5-1.7s0.7-1.8,0.7-3.1
			s-0.2-2.4-0.7-3.2s-1.3-1.4-2.5-1.7s-2.8-0.5-4.8-0.5h-4.1V197.2z"/>
		<path class="st0" d="M145,214l12.2-32h5.4l12.3,32h-6.1l-2.5-7.2h-13l-2.5,7.2H145z M155,202.1h9.8l-5-14.5L155,202.1z"/>
		<path class="st0" d="M203.5,207.9v4.7c-1.2,0.6-2.6,1.1-4.1,1.5c-1.5,0.3-3.2,0.5-4.9,0.5c-4.9,0-8.7-1.5-11.3-4.4
			s-3.9-7.1-3.9-12.6c0-3.4,0.6-6.3,1.9-8.7c1.2-2.4,3-4.3,5.4-5.6c2.3-1.3,5.1-2,8.3-2c1.4,0,2.8,0.2,4.2,0.5s2.6,0.8,3.6,1.4v4.6
			c-1.5-0.6-2.9-1.1-4-1.3c-1.1-0.3-2.3-0.4-3.4-0.4c-3.3,0-5.8,1-7.6,3s-2.7,4.8-2.7,8.4c0,3.9,0.9,6.9,2.7,9s4.3,3.1,7.6,3.1
			c1.3,0,2.6-0.1,3.9-0.4C200.4,209,201.9,208.5,203.5,207.9z"/>
		<path class="st0" d="M210.9,214v-32h5.5v27h14.9v4.9h-20.4V214z"/>
		<path class="st0" d="M238.6,214v-32h20.3v4.7h-14.8v8.8h13.5v4.7h-13.5v9.2h15.2v4.7L238.6,214L238.6,214z"/>
		<path class="st0" d="M277.6,214l12.2-32h5.4l12.3,32h-6.1l-2.5-7.2h-13l-2.5,7.2H277.6z M287.5,202.1h9.8l-5-14.5L287.5,202.1z"/>
		<path class="st0" d="M313.8,214v-32H324c5.2,0,9.1,1.3,11.8,4c2.7,2.7,4,6.7,4,12c0,5.2-1.3,9.2-4,11.9s-6.6,4-11.8,4h-10.2V214z
			 M323.9,186.5h-4.6v22.9h4.6c3.4,0,5.9-0.9,7.6-2.8c1.7-1.9,2.5-4.7,2.5-8.6c0-3.9-0.8-6.7-2.5-8.6
			C329.9,187.5,327.3,186.5,323.9,186.5z"/>
		<path class="st0" d="M355.6,214l-11.9-32h6.2l8.5,25.1L367,182h5.9L361,214H355.6z"/>
		<path class="st0" d="M379.2,214v-32h20.3v4.7h-14.8v8.8h13.5v4.7h-13.5v9.2h15.2v4.7L379.2,214L379.2,214z"/>
		<path class="st0" d="M407.8,214v-32h11.6c3.8,0,6.6,0.8,8.6,2.5s2.9,4.1,2.9,7.3c0,2.3-0.6,4.3-1.8,5.8c-1.2,1.6-3,2.6-5.3,3.3
			l8.4,13.1h-6.1l-7.5-12l-5.4-1.1V214H407.8z M413.3,197.2h4.1c2,0,3.6-0.2,4.8-0.5c1.2-0.4,2-0.9,2.5-1.7s0.7-1.8,0.7-3.1
			s-0.3-2.4-0.7-3.2c-0.5-0.8-1.3-1.4-2.5-1.7s-2.8-0.5-4.8-0.5h-4.1V197.2z"/>
		<path class="st0" d="M446.6,214v-27.3h-9.8V182h25v4.7H452V214H446.6z"/>
		<path class="st0" d="M469.4,214v-32h5.5v32H469.4z"/>
		<path class="st0" d="M483.1,212.7v-4.9c3.3,1.3,6.4,1.9,9.5,1.9c2.1,0,3.8-0.4,5-1.2s1.8-1.9,1.8-3.3c0-1-0.4-1.9-1.1-2.5
			c-0.8-0.7-2.2-1.4-4.3-2.1l-3.3-1.2c-2.8-1.1-4.9-2.3-6.1-3.7s-1.8-3.2-1.8-5.2c0-2.8,1.1-5,3.2-6.7c2.1-1.6,5-2.4,8.6-2.4
			c1.5,0,3.1,0.2,4.6,0.5s2.9,0.8,4,1.3v4.9c-3-1.3-5.9-1.9-8.6-1.9c-4.2,0-6.3,1.3-6.3,4c0,1,0.4,1.8,1.1,2.4
			c0.8,0.6,2.2,1.3,4.2,2.1l3.4,1.2c3,1.1,5,2.3,6.2,3.7s1.8,3.2,1.8,5.5c0,2.9-1,5.2-3.1,6.9s-5,2.5-8.7,2.5
			c-1.2,0-2.4-0.1-3.7-0.2s-2.5-0.4-3.6-0.7C484.7,213.3,483.8,213,483.1,212.7z"/>
		<path class="st0" d="M512.5,214v-32h5.5v32H512.5z"/>
		<path class="st0" d="M527.3,214v-32h5.1l15.3,23v-23h5.5v32h-5.1l-15.3-23v23H527.3z"/>
		<path class="st0" d="M576.6,200.2V197h11.3v15.3c-1.4,0.7-3.1,1.2-4.9,1.6c-1.8,0.4-3.7,0.6-5.6,0.6c-5.2,0-9.2-1.4-11.9-4.3
			c-2.7-2.9-4.1-7.1-4.1-12.6c0-3.4,0.7-6.3,2-8.7s3.2-4.2,5.7-5.5s5.5-1.9,8.9-1.9c1.4,0,2.8,0.1,4.2,0.4s2.6,0.6,3.7,1.1v4.7
			c-1.5-0.5-2.8-0.9-4-1.1c-1.2-0.2-2.4-0.3-3.6-0.3c-3.6,0-6.4,1-8.3,3c-1.9,2-2.9,4.8-2.9,8.5c0,8.1,3.5,12.1,10.6,12.1
			c1.7,0,3.4-0.2,5.1-0.5v-7.3L576.6,200.2z"/>
	</g>
</g>
</svg>
