<?xml version="1.0" encoding="utf-8"?>
<!-- Generator: Adobe Illustrator 25.2.1, SVG Export Plug-In . SVG Version: 6.00 Build 0)  -->
<svg version="1.1" id="Layer_1" xmlns="http://www.w3.org/2000/svg" xmlns:xlink="http://www.w3.org/1999/xlink" x="0px" y="0px"
	 viewBox="0 0 1000 151.4" style="enable-background:new 0 0 1000 151.4;" xml:space="preserve">
<style type="text/css">
	.st0{fill:#FFFFFF;}
</style>
<path class="st0" d="M56.8,151.4l-3.9-1.9C0,122.9,0,96.7,0,56.9V0h113.6v56.9c0,39.7,0,66-52.9,92.5L56.8,151.4z M17.2,17.2V57
	c0,36.8,0,54.2,39.6,75.1C96.4,111.2,96.4,93.8,96.3,57V17.2H17.2z"/>
<path class="st0" d="M138.8,17.3h28.5l30.4,50.8l12.7,25.4L207.9,65V17.3h25.5v107.9h-24.4l-36.3-57.4l-12-23.3L164,70v55.1h-25.2
	V17.3z"/>
<path class="st0" d="M248.5,84.6c0-28,16.6-43.4,41.2-43.4c26.2,0,38.2,16.6,38.2,39.8c0,0.8,0,7.8-0.2,8.3h-53
	c1.1,13.3,8,19.2,18,19.2c7.5,0,14.3-3.3,17.9-9.3l14.6,11.4c-7.2,9.9-18.4,16.4-35.3,16.4C265.1,127.1,248.5,112.8,248.5,84.6z
	 M275,76h27.2v-1c0-10.4-3.2-16.9-12.9-16.9C280.9,58.1,275.5,63,275,76z"/>
<path class="st0" d="M334.6,43.5h27.6l6.5,41l2.8,22.3h1.1l3.9-22.3l9.6-41h28.8l8.3,41l3.6,22.6h1.3l2.8-22.6l7.2-41h25.4
	l-21.8,81.7h-31.2l-8.1-38.9L399,61.9h-1.1l-3.4,24.4l-9.3,38.9h-29.3L334.6,43.5z"/>
<path class="st0" d="M468,111.3l13.8-13.2c4.2,5.8,10.2,11.2,19.7,11.2c5.5,0,9.4-2.6,9.4-6.7c0-6-9.4-8.8-21.1-13
	c-9.9-3.4-19-10.2-19-23.2c0-12.5,12-24.7,34.2-24.7c17.2,0,26.2,5.8,32.4,13.5l-14,13.3c-2.3-3.9-7.5-9.8-15.9-9.8
	c-6.2,0-9.8,2.8-9.8,6.5c0,6.2,8.1,8.5,19.2,12.2c10.9,3.7,21.5,9.1,21.5,24.2c0,13.8-12.7,25.2-35.1,25.2
	C488.4,126.9,475,121.4,468,111.3z"/>
<path class="st0" d="M548.8,72c0-34.5,20.2-57.1,55.1-57.1c26,0,39.5,11.1,46.5,27.8L622,50.5c-2.2-9.6-8.3-14.5-18.6-14.5
	c-14.7,0-25.9,11.2-25.9,34.5V72c0,23.4,9.3,34.7,26.2,34.7c14.5,0,22.6-9.6,23.9-20.5h-22.4V64.6h47.2v60.5h-20.7L629.6,96
	c-3.1,18.9-15.5,31.2-34.5,31.2C565.7,127.3,548.8,104,548.8,72z"/>
<path class="st0" d="M669.2,94.6V43.5h26v46.8c0,12.2,2.5,15.6,9.3,15.6c7.7,0,13.2-9,13.2-20.3V43.5h26.8v81.7h-24.7v-10.1
	l0.7-12.2H719c-1.3,9.6-8.3,23.9-24.9,23.9S669.2,117.7,669.2,94.6z"/>
<path class="st0" d="M809.8,109c-3.9,12.9-14.8,17.9-25.5,17.9c-15.9,0-25-9.1-25-22.3c0-15.6,13.2-21.8,30.9-25.4
	c11.7-2.4,18.4-3.7,19.5-5.2v-2c0-6.8-3.2-11.7-12.7-11.7c-7.9-0.2-15.1,4.5-18.1,11.9l-19-10.6c6-12,20.8-20.2,39.7-20.2
	c24.7,0,35.5,11.4,35.5,31.2v26.1c0,16.9,2.1,24.4,4.7,26.4h-25.9C812,123.5,810.3,119.4,809.8,109z M809.6,96.5v-14
	c-2,1.9-5.2,3.4-10.1,5c-8.9,2.8-14.6,6.5-14.6,13.3c0,6.2,4.2,9.3,9.3,9.3C800.8,110.2,808.6,106.3,809.6,96.5L809.6,96.5z"/>
<path class="st0" d="M853.4,43.5H877V57l-1.5,23.9h1.5c2-21.6,9.6-38.9,29.6-38.9h2.1v30h-6c-17.4,0-22.3,7-22.3,25.2v28h-27
	L853.4,43.5z"/>
<path class="st0" d="M917.5,84c0-29.8,15-43.1,33.2-43.1c14.5,0,21.6,9.3,23.9,17.7h1.1l-1.6-17.4V6.6h25.9v118.6h-24.6l0.7-20
	l0.3-3.3l-0.7,1c-2.3,13.5-12,23.7-27.2,23.7C930.7,126.6,917.5,112.2,917.5,84z M975,85.1v-6.3c0-10.7-3.6-20.5-14.7-20.5
	c-8.6,0-15,7.5-15,24.1c0,16.4,4.4,26.3,14.3,26.3C969.8,108.7,975,97.3,975,85.1z"/>
</svg>
