<?xml version="1.0" encoding="utf-8"?>
<!-- Generator: Adobe Illustrator 25.2.1, SVG Export Plug-In . SVG Version: 6.00 Build 0)  -->
<svg version="1.1" id="Layer_1" xmlns="http://www.w3.org/2000/svg" xmlns:xlink="http://www.w3.org/1999/xlink" x="0px" y="0px"
	 viewBox="0 0 144.7 144.7" style="enable-background:new 0 0 144.7 144.7;" xml:space="preserve">
<style type="text/css">
	.st0{fill:none;stroke:#5EA7A5;stroke-width:3;stroke-miterlimit:10;}
	.st1{fill:#5EA7A5;}
</style>
<path class="st0" d="M77.7,28.4c0,3.1-2.5,5.5-5.5,5.5s-5.5-2.5-5.5-5.5c0-3.1,5.5-10.5,5.5-10.5S77.7,25.4,77.7,28.4z"/>
<path class="st1" d="M110.8,81h-3.3V55.3c0-3.3-2.7-6-6-6h-6.9v-6.1h-4v6.1H74.2V37.4h-4v11.9H52.9v-6.1h-4v6.1h-6.1
	c-3.3,0-6,2.7-6,6V81h-2.9c-3.3,0-6,2.7-6,6v41.8h88.9V87C116.8,83.7,114.1,81,110.8,81L110.8,81z M40.8,55.3c0-1.1,0.9-2,2-2h58.8
	c1.1,0,2,0.9,2,2V81H40.8V55.3z M112.8,124.8H31.9v-3.5h80.9V124.8z M112.8,117.3H31.9v-16.1c1.9,1.9,4.5,3,7.3,3
	c3.3,0,6.4-1.6,8.4-4.2c3.4,4.6,9.9,5.6,14.5,2.3c0.9-0.6,1.6-1.4,2.3-2.3c3.4,4.6,9.9,5.6,14.5,2.3c0.9-0.6,1.6-1.4,2.3-2.3
	c3.4,4.6,9.9,5.7,14.5,2.3c0.9-0.6,1.6-1.4,2.3-2.3c2,2.7,5.1,4.3,8.4,4.3c2.4,0,4.7-0.8,6.6-2.4L112.8,117.3z"/>
<path class="st0" d="M56.4,35.2c-0.1,3.1-2.7,5.4-5.8,5.3c-2.9-0.1-5.2-2.4-5.3-5.3c0-3.1,5.5-10.5,5.5-10.5S56.4,32.2,56.4,35.2z"
	/>
<path class="st0" d="M98.1,34.8c-0.1,3.1-2.7,5.4-5.8,5.3c-2.9-0.1-5.2-2.4-5.3-5.3c0-3.1,5.6-10.5,5.6-10.5S98.1,31.7,98.1,34.8z"
	/>
<path class="st1" d="M106.4,69.9"/>
</svg>
