<?xml version="1.0" encoding="utf-8"?>
<!-- Generator: Adobe Illustrator 25.2.1, SVG Export Plug-In . SVG Version: 6.00 Build 0)  -->
<svg version="1.1" id="Heart" xmlns="http://www.w3.org/2000/svg" xmlns:xlink="http://www.w3.org/1999/xlink" x="0px" y="0px"
	 viewBox="0 0 144.7 144.7" style="enable-background:new 0 0 144.7 144.7;" xml:space="preserve">
<style type="text/css">
	.st0{fill:#5EA7A5;}
</style>
<path class="st0" d="M131.6,61.9c-0.2-1.2-0.6-2.5-1-3.7c-0.3-0.8-0.6-1.6-1-2.4l0,0c-5.6-11.8-16.9-14-19.1-14.3h-0.1
	c-7.1-1.2-14.3,0.4-20,4.4c-3.7-5.3-9.2-9.1-15.7-10.6l0,0c-1-0.7-2-1.3-3.1-1.9c-0.9-0.5-1.9-0.8-2.8-1.1c-3.2-1-6.7-1.2-10.2-0.5
	c-6.9,1.4-12.4,6.1-14.9,12c-4.7-4.5-11.5-6.7-18.4-5.4C14.1,40.7,6.9,51.3,9.1,62.2c0.4,2.1,1,3.6,1.3,4.2c1.1,2.2,2.9,4.6,5.2,7.1
	c11.3,12,34,25.5,39.7,28.8c0.9-1.2,2.4-3.2,4.2-5.7c6.2,9.1,12.6,17.2,15.8,21.2l1.9,2.4l2.6-1.6c9-5.4,30.8-19.2,42.9-31.9
	l1.2-1.2c0.3-0.3,0.5-0.6,0.7-0.8l1.1-1.2c0.6-0.7,1.2-1.5,1.8-2.3l0,0l0.6-0.9c0.1-0.1,0.1-0.2,0.2-0.2c0.6-1,1.2-1.9,1.7-2.9
	c0.1-0.1,0.1-0.2,0.2-0.4c0.2-0.5,1.1-2.6,1.7-5.6C132.3,68.1,132.3,64.9,131.6,61.9z M121.6,82c-0.2,0.2-0.4,0.4-0.6,0.7l-0.6,0.6
	c-11.4,12.3-33,26-42.2,31.6c-3.5-4.3-10-12.6-16.2-21.8c-2.6-3.9-5.2-8-7.5-12h13.1l6.4-7.8l0.3,0.6l9,18.7l6.6-11.5h32.5L121.6,82
	z M126.5,75c-0.3,0.7-0.7,1.4-1.2,2.1H87.6l-4,6.9l-7-14.5l-1.8-3.6l-9.2,11.2H52.3c-1.2-2.3-2.2-4.4-3-6.3L48.9,70
	c-0.3-0.8-0.6-1.6-0.9-2.3c-0.9-2.6-1.5-4.9-1.7-6.8c0-0.6-0.1-2.4,0.3-4.7c2-11.7,13.6-19.5,25.7-17.3c3,0.5,5.7,1.6,8.2,3.1
	c3.1,1.9,5.7,4.6,7.5,7.8l1.2,2.1l1.8-1.6c5.1-4.3,11.8-6.1,18.5-4.9l0,0l0,0c0,0,0.1,0,0.3,0c0.1,0,0.2,0,0.2,0l0,0
	c2.3,0.4,12.4,2.8,16.6,13.9l0,0c0,0.1,0.1,0.1,0.1,0.2c0.4,1,0.7,2.1,0.9,3.1c0.5,2.6,0.6,5.2,0.1,7.8l0,0
	C127.4,73,126.6,74.7,126.5,75z"/>
</svg>
