<?xml version="1.0" encoding="utf-8"?>
<!-- Generator: Adobe Illustrator 25.2.1, SVG Export Plug-In . SVG Version: 6.00 Build 0)  -->
<svg version="1.1" id="Layer_9" xmlns="http://www.w3.org/2000/svg" xmlns:xlink="http://www.w3.org/1999/xlink" x="0px" y="0px"
	 viewBox="0 0 144.7 144.7" style="enable-background:new 0 0 144.7 144.7;" xml:space="preserve">
<style type="text/css">
	.st0{fill:#5EA7A5;}
</style>
<path class="st0" d="M71.8,84.3L71.8,84.3L71.8,84.3C71.9,84.3,71.8,84.3,71.8,84.3z"/>
<path class="st0" d="M71.8,84.3L71.8,84.3L71.8,84.3C71.9,84.3,71.8,84.3,71.8,84.3z"/>
<path class="st0" d="M77.3,76.8l3,3l0,0L77.3,76.8z"/>
<path class="st0" d="M123.4,122.9l-4.6-4.6l-2.8-2.9L103.5,103V27.5c0-4.3-3.5-7.7-7.7-7.7H78.3c-0.8-1.8-2.5-3-4.5-3h-3
	c-1.6-4.4-6.5-6.7-10.9-5c-2.3,0.9-4.2,2.7-5,5h-3c-2,0-3.7,1.2-4.5,3H27.9c-4.3,0-7.7,3.5-7.7,7.7v91.1c0,4.3,3.5,7.7,7.7,7.7h67.9
	c3.3,0,6.2-2,7.3-5.1l3.5,3.5l2.8,2.8l4.6,4.6c0.8,0.8,2,1.3,3.2,1.2c0.3,0,0.6,0,0.8-0.1c1.4-0.3,2.7-1,3.7-2l0.9-0.9
	c1.2-1.2,2-2.8,2-4.6C124.6,124.8,124.2,123.7,123.4,122.9z M89,32.4c0.8,0,1.5,0.7,1.5,1.5V90L80.3,79.8l-3-3L76.5,76l-14.4-4.7
	l5,14.1l0.8,0.8l3,3l19.5,19.5v3.6c0,0.8-0.7,1.5-1.5,1.5H34.6c-0.8,0-1.5-0.7-1.5-1.5V33.9c0-0.8,0.6-1.5,1.4-1.5l0,0H89z
	 M75.5,80.6c-0.5,0.8-1,1.5-1.7,2.2c-0.2,0.2-0.3,0.3-0.5,0.5c-0.1,0.1-0.2,0.2-0.4,0.3c-0.3,0.2-0.5,0.4-0.8,0.6l-0.2,0.1l-0.1,0.1
	l0,0l-1.2-1.2l-2-5.6l5.7,1.9L75.5,80.6z M99.5,118.7c0,2-1.7,3.7-3.7,3.7H27.9c-2.1,0-3.7-1.7-3.7-3.7V27.5c0-2.1,1.7-3.7,3.7-3.7
	H47v4.6H34.6c-3,0-5.5,2.4-5.5,5.5v78.4c0,3,2.4,5.5,5.5,5.5H89c2.9,0,5.3-2.2,5.4-5.1l5.1,5.1V118.7z M99.5,99l-5.1-5V33.9
	c0-3-2.4-5.5-5.4-5.5H78.8v-4.6h17c2.1,0,3.7,1.7,3.7,3.7V99z M119.8,127.7l-0.9,0.9c-0.4,0.4-0.9,0.7-1.5,0.8c-0.3,0-0.5,0-0.6-0.1
	l-4.6-4.6l3.7-3.7l4.6,4.6c0.1,0.1,0.1,0.2,0.1,0.3C120.6,126.7,120.3,127.3,119.8,127.7z"/>
</svg>
