<?xml version="1.0" encoding="utf-8"?>
<!-- Generator: Adobe Illustrator 25.2.1, SVG Export Plug-In . SVG Version: 6.00 Build 0)  -->
<svg version="1.1" id="Layer_7" xmlns="http://www.w3.org/2000/svg" xmlns:xlink="http://www.w3.org/1999/xlink" x="0px" y="0px"
	 viewBox="0 0 144.7 144.7" style="enable-background:new 0 0 144.7 144.7;" xml:space="preserve">
<style type="text/css">
	.st0{fill:#5EA7A5;}
</style>
<g>
	<path class="st0" d="M65.4,47.2l0.6,4c5.8-0.8,11.5-0.4,16.9,1.3c2.7,0.8,5.3,2,7.8,3.5l2-3.5c-2.7-1.6-5.6-2.9-8.6-3.8
		C78.1,46.8,71.8,46.3,65.4,47.2z"/>
	<path class="st0" d="M123.5,67.8c-0.7-3.7-2.2-7.2-4.1-10.5h0.1c-7.3-11.1-15.3-15-18.2-16.1c-7.9-4-17.4-6.3-27.5-6.3
		c-5.9,0-11.7,0.8-17.3,2.3c-2.6-2-10.5-7.1-21.5-5.6l-0.5,0.1L34,32c-1.3,1-3.1,3.9-0.5,8c0.5,0.9,1.1,1.7,1.6,2.5
		c1,1.5,2.2,3.2,2.4,4.2c-5.2,4.1-9.1,9.1-11.5,14.5h-1.6c-4.2,0-7.6,3.4-7.6,7.6v9.7c0,4.2,3.4,7.6,7.6,7.6h1.3
		c2.5,5.9,6.8,11.3,12.6,15.7v7.4c0,4.2,3.4,7.6,7.6,7.6h10.4c3.1,0,5.9-1.9,7-4.7c6.5,1,13.4,1.1,19.9,0.1c1.2,2.7,3.9,4.6,7,4.6
		H97c3,2.1,6.7,3.4,10.7,3.4c10.3,0,18.8-8.4,18.8-18.8c0-5.3-2.2-10.1-5.8-13.5c1.4-2.9,2.4-5.9,2.9-9c2.3-0.3,4.1-2.2,4.1-4.6
		v-1.8C127.9,69.9,125.9,67.9,123.5,67.8z M112.5,96.7h-3.6h-2.4v2v1.3h4.8h1.2v0.2v2.6v3.4v2.8h-3.4v1.1h-0.8h-1.8V109h-2.2h-0.6
		v-2.8h0.6h4h1.4v-3.4h-1.4h-4h-0.6V100v-6h2.8v-1.1h2.6V94h2.6h0.7v2.7H112.5z M123.9,74.2c0,0.4-0.3,0.7-0.7,0.7h-3l-0.2,1.8
		c-0.3,3-1.1,5.9-2.4,8.7c-2.8-1.7-6.2-2.8-9.7-2.8C97.5,82.6,89,91,89,101.4c0,4.3,1.5,8.2,3.9,11.4h-2.6c-1.8,0-3.3-1.3-3.6-3.1
		l-0.3-2.1l-2.1,0.4c-7.1,1.3-14.9,1.3-22.1-0.1l-2.1-0.4l-0.2,2.1c-0.2,1.8-1.8,3.2-3.6,3.2H46c-2,0-3.6-1.6-3.6-3.6v-9.4l-0.8-0.6
		c-6-4.3-10.3-9.8-12.5-15.8l-0.5-1.3h-4.1c-2,0-3.6-1.6-3.6-3.6v-9.7c0-2,1.6-3.6,3.6-3.6h4.3l0.5-1.3c2.1-5.4,6.1-10.4,11.4-14.5
		l0.5-0.4l0.2-0.5c1-2.7-0.8-5.4-2.8-8.3c-0.5-0.7-1-1.5-1.6-2.3c-0.8-1.3-0.8-2-0.7-2.4c11-1.2,18.3,5.4,18.4,5.4l0.8,0.8l1.1-0.3
		c5.5-1.6,11.2-2.5,17.1-2.5c9.3,0,18,2.1,25.3,5.7v0.1c0.1,0,8.6,2.5,16.6,14.1l0,0c2.2,3.5,3.7,7.3,4.2,11.3l0.2,1.7h3.1
		c0.4,0,0.7,0.3,0.7,0.7v1.7H123.9z"/>
	<circle class="st0" cx="45.4" cy="62.8" r="5.2"/>
</g>
</svg>
