<?xml version="1.0" encoding="utf-8"?>
<!-- Generator: Adobe Illustrator 25.2.1, SVG Export Plug-In . SVG Version: 6.00 Build 0)  -->
<svg version="1.1" id="Layer_8" xmlns="http://www.w3.org/2000/svg" xmlns:xlink="http://www.w3.org/1999/xlink" x="0px" y="0px"
	 viewBox="0 0 144.7 144.7" style="enable-background:new 0 0 144.7 144.7;" xml:space="preserve">
<style type="text/css">
	.st0{fill:#5EA7A5;}
</style>
<g>
	<path class="st0" d="M122.3,52.4c-0.6,0-1.1-0.1-1.7-0.2c-2.6-0.6-4.6-2.6-5.2-5.2c-0.1-0.5-0.2-1.1-0.2-1.7c0-0.8,0.1-1.6,0.4-2.3
		H29.1c0.3,0.7,0.4,1.5,0.4,2.3c0,0.6-0.1,1.1-0.2,1.7c-0.5,2.3-2.2,4.2-4.4,5c-0.8,0.3-1.6,0.5-2.5,0.5c-0.5,0-1-0.1-1.5-0.2v41.1
		c0.5-0.1,1-0.2,1.5-0.2c0.9,0,1.7,0.2,2.5,0.5c1.9,0.7,3.4,2.2,4.1,4.1c0.3,0.8,0.5,1.6,0.5,2.5c0,0.5-0.1,1-0.2,1.5h86
		c-0.1-0.5-0.2-1-0.2-1.5c0-0.9,0.2-1.7,0.5-2.5c0.8-2.2,2.7-3.8,5-4.4c0.5-0.1,1.1-0.2,1.7-0.2c0.8,0,1.6,0.1,2.3,0.4V52
		C123.9,52.3,123.1,52.4,122.3,52.4z M120.6,89.7c-4.3,0.7-7.7,3.9-8.7,8h-27V93h-4v4.8H32.8c-0.9-3.9-4-6.9-7.8-7.8V55.7
		c4.1-1,7.3-4.4,8-8.7h47.9v6h4v-6h26.9c0.7,4.6,4.3,8.2,8.9,8.9v33.8H120.6z"/>
	<rect x="80.9" y="77" class="st0" width="4" height="8"/>
	<rect x="80.9" y="61" class="st0" width="4" height="8"/>
	<path class="st0" d="M62.6,60.5c0,0-3,3.2-6.8,7c1.3,5.5,2.5,10.9,3.8,16.4c-0.6,0.5-1.1,1-1.7,1.4c-1.9-3.2-3.7-6.3-5.6-9.5
		c-0.9-0.8-1.8-1.5-2.7-2.2c-2.7,2.6-5.4,4.9-7.3,6.4c0.1,2.4,0.1,4.9,0.2,7.4c-0.5,0.3-1.1,0.6-1.6,0.9c-0.8-1.6-1.6-3.2-2.3-4.7
		c-0.3-0.2-0.6-0.5-0.9-0.7c-0.4,0.2-0.6,0.3-0.8,0.3c-0.5-0.1-0.8-0.3-0.9-0.4c-0.1-0.2-0.3-0.7-0.3-0.7c0-0.1,0.1-0.4,0.3-0.8
		c-0.2-0.3-0.4-0.6-0.7-0.9c-1.6-0.8-3.2-1.6-4.7-2.3c0.3-0.6,0.6-1.1,0.9-1.6c2.5,0.1,4.9,0.1,7.3,0.2c1.4-2,3.8-4.6,6.4-7.3l0,0
		c-0.8-0.9-1.5-1.8-2.2-2.7c-3.1-1.9-6.3-3.7-9.5-5.5c0.5-0.6,1-1.1,1.4-1.7c5.5,1.3,10.9,2.5,16.4,3.8c3.9-3.8,7-6.8,7-6.8
		c4.4-2.8,5.5-1.2,5.5-1.2S65.4,56.1,62.6,60.5z"/>
</g>
</svg>
