<?xml version="1.0" encoding="utf-8"?>
<!-- Generator: Adobe Illustrator 25.2.1, SVG Export Plug-In . SVG Version: 6.00 Build 0)  -->
<svg version="1.1" id="Ding" xmlns="http://www.w3.org/2000/svg" xmlns:xlink="http://www.w3.org/1999/xlink" x="0px" y="0px"
	 viewBox="0 0 144.7 144.7" style="enable-background:new 0 0 144.7 144.7;" xml:space="preserve">
<style type="text/css">
	.st0{fill:#5EA7A5;}
</style>
<path class="st0" d="M122.8,90c-1-25.3-20.8-45.8-45.8-48c0.4-0.7,0.5-1.5,0.5-2.3c0-2.9-2.3-5.2-5.2-5.2c-2.8,0-5.2,2.3-5.2,5.2
	c0,0.8,0.2,1.6,0.5,2.3C46.4,44,29,59.2,23.7,79.3l0,0c0,0,0,0.2-0.1,0.5c0,0.2-0.1,0.4-0.1,0.6l0,0c-0.4,1.9-1.1,6.1-0.9,9.8h-5.9
	v14h111.1V90H122.8z M26.8,90c-0.3-3.8,0.8-8.9,1-9.8l0,0C33,60.4,51.1,45.8,72.5,45.8c24.8,0,45.2,19.7,46.2,44.3L26.8,90L26.8,90z
	"/>
</svg>
