<?xml version="1.0" encoding="utf-8"?>
<!-- Generator: Adobe Illustrator 25.2.1, SVG Export Plug-In . SVG Version: 6.00 Build 0)  -->
<svg version="1.1"
	 id="svg1936" inkscape:version="0.91 r13725" sodipodi:docname="Amazon II.svg" xmlns:cc="http://creativecommons.org/ns#" xmlns:dc="http://purl.org/dc/elements/1.1/" xmlns:inkscape="http://www.inkscape.org/namespaces/inkscape" xmlns:rdf="http://www.w3.org/1999/02/22-rdf-syntax-ns#" xmlns:sodipodi="http://sodipodi.sourceforge.net/DTD/sodipodi-0.dtd" xmlns:svg="http://www.w3.org/2000/svg"
	 xmlns="http://www.w3.org/2000/svg" xmlns:xlink="http://www.w3.org/1999/xlink" x="0px" y="0px" viewBox="0 0 1000 301.4"
	 style="enable-background:new 0 0 1000 301.4;" xml:space="preserve">
<style type="text/css">
	.st0{fill:#FFFFFF;}
</style>
<sodipodi:namedview  bordercolor="#666666" borderopacity="1" gridtolerance="10" guidetolerance="10" id="namedview19" inkscape:current-layer="svg1936" inkscape:cx="426.12453" inkscape:cy="94.816171" inkscape:pageopacity="0" inkscape:pageshadow="2" inkscape:window-height="705" inkscape:window-maximized="1" inkscape:window-width="1366" inkscape:window-x="-8" inkscape:window-y="-8" inkscape:zoom="0.72245926" objecttolerance="10" pagecolor="#ffffff" showgrid="false">
	</sodipodi:namedview>
<path id="path8" inkscape:connector-curvature="0" class="st0" d="M620.4,235.7c-58.1,42.8-142.3,65.7-214.9,65.7
	c-101.7,0-193.2-37.6-262.5-100.2c-5.4-4.9-0.6-11.6,6-7.8c74.7,43.5,167.2,69.6,262.6,69.6c64.4,0,135.2-13.3,200.3-41
	C621.8,217.9,630,228.5,620.4,235.7"/>
<path id="path10" inkscape:connector-curvature="0" class="st0" d="M644.5,208c-7.4-9.5-49.1-4.5-67.8-2.3c-5.7,0.7-6.6-4.3-1.4-7.8
	c33.2-23.4,87.7-16.6,94.1-8.8c6.4,7.9-1.7,62.5-32.9,88.6c-4.8,4-9.4,1.9-7.2-3.4C636.3,256.8,652,217.6,644.5,208"/>
<path id="path12" inkscape:connector-curvature="0" class="st0" d="M578,32.9V10.2c0-3.4,2.6-5.7,5.7-5.7h101.7
	c3.3,0,5.9,2.4,5.9,5.7v19.5c0,3.3-2.8,7.5-7.7,14.3L631,119.2c19.6-0.5,40.3,2.4,58,12.4c4,2.3,5.1,5.6,5.4,8.8v24.2
	c0,3.3-3.7,7.2-7.5,5.2c-31.3-16.4-72.9-18.2-107.5,0.2c-3.5,1.9-7.2-1.9-7.2-5.2v-23c0-3.7,0-10,3.7-15.6L637,38.6h-53.1
	C580.6,38.6,578,36.3,578,32.9"/>
<path id="path14" inkscape:connector-curvature="0" class="st0" d="M206.9,174.7H176c-3-0.2-5.3-2.4-5.5-5.3V10.6
	c0-3.2,2.7-5.7,6-5.7h28.9c3,0.1,5.4,2.4,5.6,5.3V31h0.6c7.5-20.1,21.7-29.4,40.7-29.4c19.4,0,31.5,9.4,40.2,29.4
	C300,10.9,317,1.6,335.2,1.6c13,0,27.2,5.4,35.8,17.4c9.8,13.4,7.8,32.8,7.8,49.8V169c0,3.2-2.7,5.7-6,5.7h-30.9
	c-3.1-0.2-5.6-2.7-5.6-5.7V84.8c0-6.7,0.6-23.4-0.9-29.8c-2.3-10.7-9.2-13.7-18.2-13.7c-7.5,0-15.3,5-18.5,13s-2.9,21.4-2.9,30.4
	v84.2c0,3.2-2.7,5.7-6,5.7H259c-3.1-0.2-5.6-2.7-5.6-5.7V84.7c0-17.7,2.9-43.8-19.1-43.8c-22.2,0-21.4,25.4-21.4,43.8v84.2
	C212.9,172.1,210.2,174.7,206.9,174.7"/>
<path id="path16" inkscape:connector-curvature="0" class="st0" d="M779,1.5c45.9,0,70.8,39.4,70.8,89.6c0,48.4-27.5,86.9-70.8,86.9
	c-45.1,0-69.6-39.4-69.6-88.6C709.3,40,734.2,1.5,779,1.5 M779.2,34C756.4,34,755,65,755,84.4s-0.3,60.9,24,60.9
	c24,0,25.1-33.4,25.1-53.8c0-13.4-0.6-29.4-4.6-42.1C796,38.3,789.1,34,779.2,34"/>
<path id="path18" inkscape:connector-curvature="0" class="st0" d="M909.3,174.7h-30.8c-3.1-0.2-5.6-2.7-5.6-5.7V10.1
	c0.3-2.9,2.8-5.2,6-5.2h28.7c2.7,0.1,4.9,2,5.5,4.4v24.3h0.6c8.7-21.7,20.8-32.1,42.2-32.1c13.9,0,27.4,5,36.1,18.7
	c8.1,12.7,8.1,34.1,8.1,49.4v100c-0.3,2.8-2.9,5-6,5h-31c-2.8-0.2-5.2-2.3-5.5-5V83.4c0-17.4,2-42.8-19.4-42.8
	c-7.5,0-14.5,5-17.9,12.7c-4.4,9.7-4.9,19.4-4.9,30.1v85.5C915.3,172.1,912.6,174.7,909.3,174.7"/>
<path class="st0" d="M552,145.5c-5.7-7.8-11.7-14.2-11.7-28.7V68.6c0-20.4,1.5-39.1-13.6-53.2C514.8,4,495.2,0,480.1,0
	c-29.4,0-62.3,11-69.3,47.3c-0.8,3.9,2.1,5.9,4.6,6.5l30,3.2c2.8-0.2,4.9-2.9,5.4-5.7c2.6-12.5,13.1-18.6,24.9-18.6
	c6.4,0,13.7,2.4,17.4,8.1c4.4,6.3,3.8,15,3.8,22.4v4c-17.9,2.1-41.4,3.4-58.2,10.8c-19.4,8.4-33,25.5-33,50.6
	c0,32.1,20.2,48.2,46.3,48.2c22,0,34-5.2,51-22.5c5.7,8.1,7.5,12.1,17.8,20.6c2.3,1.3,5.3,1.1,7.3-0.7c6.3-5.3,17.5-15.1,23.8-20.5
	C554.4,151.6,554,148.3,552,145.5z M491.1,131.6c-4.9,8.7-12.8,14.1-21.4,14.1c-11.9,0-18.8-9.1-18.8-22.4
	c0-26.4,23.6-31.2,46.1-31.2l-0.1,6.7C496.9,110.9,497.2,120.9,491.1,131.6z"/>
<path class="st0" d="M146.3,145.5c-5.7-7.8-11.7-14.2-11.7-28.7V68.6c0-20.4,1.5-39.1-13.6-53.2C109.1,4,89.5,0,74.4,0
	C45,0,12.1,11,5.2,47.3c-0.7,3.9,2.1,5.9,4.6,6.5l30,3.2c2.8-0.2,4.9-2.9,5.4-5.7c2.6-12.5,13.1-18.6,24.9-18.6
	c6.4,0,13.6,2.4,17.4,8.1c4.3,6.3,3.7,15,3.7,22.4v4C73.3,69.3,49.8,70.6,33,78c-19.4,8.4-33,25.5-33,50.6
	c0,32.1,20.3,48.2,46.3,48.2c22,0,34-5.2,51-22.5c5.7,8.1,7.5,12.1,17.8,20.6c2.3,1.3,5.3,1.1,7.3-0.7c6.3-5.3,17.5-15.1,23.8-20.5
	C148.7,151.6,148.3,148.3,146.3,145.5z M85.4,131.6c-4.9,8.7-12.7,14.1-21.4,14.1c-11.9,0-18.8-9.1-18.8-22.4
	c0-26.4,23.6-31.2,46-31.2v6.7C91.2,110.9,91.5,120.9,85.4,131.6z"/>
</svg>
