<?xml version="1.0" encoding="utf-8"?>
<!-- Generator: Adobe Illustrator 25.2.1, SVG Export Plug-In . SVG Version: 6.00 Build 0)  -->
<svg version="1.1" id="Layer_1" xmlns="http://www.w3.org/2000/svg" xmlns:xlink="http://www.w3.org/1999/xlink" x="0px" y="0px"
	 viewBox="0 0 1843 322.6" style="enable-background:new 0 0 1843 322.6;" xml:space="preserve">
<style type="text/css">
	.st0{fill:#FFFFFF;}
</style>
<g>
	<path class="st0" d="M383.4,0c0.5,0.3,1.1,0.7,1.6,0.9c20.2,6.9,29.3,22.1,32,42.2c0.3,1.9,0.2,3.9,0.2,5.8
		c0,57.6,0.1,115.3-0.1,172.9c0,6.1-1,12.5-2.9,18.4c-6.5,20.6-22.9,32.1-45.2,32.2c-37,0.1-74.1,0-111.1,0c-1.4,0-2.8,0-5.1,0
		c1.8,1.4,2.9,2.4,4,3.1c15,10.6,31.4,18.3,49,23.8c9,2.8,12.8,11.5,8.4,19c-1.6,2.7-3.6,4.2-7.2,4.2c-52.8-0.1-105.6-0.1-158.4-0.1
		c-9,0-13.9-8.1-9.7-16.3c2.6-5,6.9-7.1,12.5-7.1c16.8,0,33.6,0,50.5,0c12.9,0,25.8,0,38.7,0c1.2,0,2.5,0,4.4,0
		c-5.7-4.6-11.1-8.4-15.9-12.9c-6-5.8-11.6-12-17-18.3c-3.6-4.2-4.2-9.2-1.6-14.2c2.5-4.8,6.6-7,12.1-7c47.3,0.1,94.7,0.1,142,0.1
		c1.6,0,3.1,0,4.7,0c12.6-0.3,20.1-6.9,21.9-19.4c0.3-2.4,0.5-4.9,0.5-7.4c0-56.3,0-112.7,0-169c0-2.5-0.1-5-0.5-7.4
		c-1.9-12.8-9.5-19.3-22.3-19.3c-97.8,0-195.6,0-293.3,0c-14,0-22,7.7-23,21.7c0,0.6-0.1,1.3-0.1,1.9c0,55-0.1,110.1,0.2,165.1
		c0.1,21.1,13.3,32.8,34.4,31.7c15.8-0.8,30.2-6.2,44.5-12.3c4.4-1.9,8.8-3.9,13.1-6c2-1,2.9-0.6,3.9,1.4c2.6,5.3,5.3,10.5,8.1,15.5
		c1.3,2.3,1.2,3.6-1.3,4.9c-20,10.3-40.5,19.3-63.2,21.4c-20.4,1.9-38.7-2.4-52.3-19c-8.6-10.4-13-22.8-13-36
		c-0.3-55.8-0.3-111.7-0.1-167.5C26.8,29,36.4,7.8,59.1,0.8c0.4-0.1,0.8-0.5,1.2-0.8C168,0,275.7,0,383.4,0z"/>
	<path class="st0" d="M1816.5,263.1c-30,0-60-0.1-90-0.1c-24,0-48,0-72,0c-1.4,0-2.8,0-4.5,0c0-68.6,0-136.8,0-205.4
		c54.8,0,109.6,0,164.7,0c0,16,0,31.9,0,48.2c-36.1,0-72.2,0-108.5,0c0,10.4,0,20.4,0,30.9c32.7,0,65.5,0,98.4,0c0,15.3,0,29.9,0,45
		c-32.8,0-65.4,0-98.3,0c0,11,0,21.6,0,32.7c1.6,0,3.1,0,4.6,0c33.6,0,67.3,0,100.9,0c1.6,0,3.1,0.1,4.7,0.2
		C1816.5,230.9,1816.5,247,1816.5,263.1z"/>
	<path class="st0" d="M877.1,136.8c13-21.1,25.6-41.6,38.3-62c3.1-5,6.1-10,9.3-14.9c0.7-1.1,2.3-2.4,3.5-2.4c19-0.1,38.1,0,57.1,0
		c0.2,0,0.5,0.2,1,0.3c0,68.2,0,136.4,0,204.9c-18.7,0-37.4,0-56.5,0c0-38.7,0-77.3,0-116c-0.3-0.1-0.5-0.2-0.8-0.2
		c-0.8,1.1-1.6,2.1-2.4,3.3c-14,21.5-28.2,42.8-41.9,64.5c-4.6,7.4-11,8-16.2-0.1c-13.7-21.4-27.7-42.5-41.6-63.8
		c-0.8-1.2-1.6-2.4-2.9-4.4c0,39.4,0,77.9,0,116.7c-18.9,0-37.3,0-56.1,0c0-68.2,0-136.6,0-205.2c1.3-0.1,2.6-0.2,3.9-0.2
		c17.5,0,34.9,0.1,52.4-0.1c2.9,0,4.4,1,5.9,3.3c14.7,24.1,29.6,48.1,44.4,72.1C875.2,133.9,876,135.1,877.1,136.8z"/>
	<path class="st0" d="M1387.9,154.9c7.3,4.1,14.7,7.6,21.4,12.2c15.1,10.3,19.2,25.7,18,42.8c-1.8,24.6-16.1,40.9-41.7,48.5
		c-11.2,3.3-22.7,4.6-34.3,4.6c-34.8,0.1-69.6,0-104.4,0c-1,0-2-0.1-3.3-0.2c0-68.4,0-136.6,0-205c0.7-0.1,1.5-0.4,2.2-0.4
		c37.5,0.1,75.1,0,112.6,0.4c12.6,0.1,24.7,3.4,35.8,9.8c26.3,15.3,27.9,43.5,19.9,62.8c-4.5,10.8-13.3,17.7-23.4,23.2
		C1389.7,154,1388.8,154.5,1387.9,154.9C1387.8,155.1,1387.7,155.2,1387.9,154.9z M1299.1,216.9c16.7,0,32.9,0.2,49.2-0.1
		c4-0.1,8.2-1.4,12-3c6.9-2.8,10-8.4,10-15.7c0-7.3-3.3-12.9-10.2-15.6c-3.9-1.6-8.3-2.7-12.4-2.8c-13.5-0.4-27.1-0.3-40.6-0.3
		c-2.6,0-5.2,0-8,0C1299.1,192,1299.1,204.3,1299.1,216.9z M1299.1,138.8c15.1,0,29.6,0.3,44.2-0.2c3.8-0.1,7.8-2,11.4-3.7
		c3.7-1.7,5.8-5.1,6.7-9.1c2.7-11.9-4-21-17.4-21.8c-14.7-0.9-29.4-0.5-44.1-0.6c-0.2,0-0.4,0.3-0.8,0.5
		C1299.1,115.4,1299.1,127.1,1299.1,138.8z"/>
	<path class="st0" d="M1003.2,160.4c0.2-58.4,43.8-99,93.4-105.8c33.6-4.6,64.5,2.4,90.7,24.4c28.1,23.6,40.2,54.4,37.1,90.9
		c-4.6,54.9-49.3,91.9-97.7,96.5c-25.8,2.5-50.1-2-72.5-15.4C1022.5,232.1,1003.2,197.8,1003.2,160.4z M1167.2,160.3
		c-0.8-5.1-1.1-10.4-2.5-15.3c-5.6-19.9-18.1-33.6-38.5-38.6c-20.1-4.9-37.8,0.4-51.5,16.1c-12,13.7-14.9,30.2-12.3,47.9
		c4.8,32.5,37,52.7,68.2,42.9C1152.4,206.3,1166.8,185.4,1167.2,160.3z"/>
	<path class="st0" d="M1453.6,262.8c0-68.5,0-136.7,0-205.1c54.9,0,109.8,0,164.9,0c0,16,0,31.9,0,48.2c-36.2,0-72.2,0-108.5,0
		c0,10.5,0,20.5,0,31.1c32.8,0,65.4,0,98.3,0c0,15.1,0,29.8,0,44.8c-32.6,0-65.3,0-98.2,0c0,11,0,21.6,0,32.6c36.5,0,73,0,109.9,0
		c0,16.3,0,32.3,0,48.4C1564.6,262.8,1509.3,262.8,1453.6,262.8z"/>
	<path class="st0" d="M528.2,263c3.3-7.9,6.4-15.2,9.4-22.5c25.5-60.2,51-120.3,76.4-180.6c1.3-3.2,2.9-4.1,6.3-4.1
		c15.6,0.2,31.3,0.2,46.9,0c2.8,0,4.1,0.8,5.1,3.4c28.1,66.7,56.4,133.3,84.6,199.9c0.4,1,0.7,2.1,1.2,3.5c-1.5,0.1-2.6,0.2-3.7,0.2
		c-17.9,0-35.7-0.1-53.6,0.1c-2.8,0-4.1-0.9-5.1-3.5c-3.9-10-8.2-20-12.1-30c-0.9-2.3-2-3.4-4.7-3.4c-24.2,0.1-48.5,0.1-72.7,0
		c-2.8,0-3.8,1-4.7,3.4c-3.9,10.2-8,20.3-12.2,30.4c-0.5,1.2-2.1,2.9-3.3,2.9C567.1,263.1,548.1,263,528.2,263z M665.7,181.9
		c-7.5-19.2-15-38.1-22.8-58c-7.9,19.9-15.4,38.7-23,58C635.4,181.9,650.3,181.9,665.7,181.9z"/>
</g>
</svg>
