<?xml version="1.0" encoding="UTF-8"?>
<svg xmlns="http://www.w3.org/2000/svg" xmlns:xlink="http://www.w3.org/1999/xlink" viewBox="0 0 253.04 76.71">
  <defs>
    <style>
      .cls-1 {
        fill: none;
      }
      .cls-2 {
        fill: #fff;
      }
      .cls-3 {
        fill: #fff;
      }
      .cls-4 {
        fill: #fff;
      }
      .cls-5 {
        fill: #fff;
      }
    </style>
    <clipPath id="clip-path" transform="translate(-2.39 -4.78)">
      <rect class="cls-1" width="258.83" height="86.28"></rect>
    </clipPath>
  </defs>
  <g id="Layer_2" data-name="Layer 2">
    <g id="Layer_1-2" data-name="Layer 1">
      <g class="cls-2">
        <g class="cls-2">
          <path
            d="M100.85,36.83V11.1h7.87a12.76,12.76,0,0,1,9.49,3.57,12.61,12.61,0,0,1,3.56,9.3,12.6,12.6,0,0,1-3.56,9.29,12.76,12.76,0,0,1-9.49,3.57Zm3.3-3.16h4.57a9.67,9.67,0,0,0,7.07-2.55,9.55,9.55,0,0,0,2.6-7.15,9.61,9.61,0,0,0-2.6-7.14,9.61,9.61,0,0,0-7.07-2.57h-4.57Z"
            transform="translate(-2.39 -4.78)"></path>
          <path d="M128.06,14.8a2.34,2.34,0,1,1,0-3.31,2.35,2.35,0,0,1,0,3.31m0,22h-3.31V19.22h3.31Z" transform="translate(-2.39 -4.78)"></path>
          <path
            d="M138.5,37.41A8,8,0,0,1,133.62,36a8.53,8.53,0,0,1-2.82-3.6l2.95-1.21a4.88,4.88,0,0,0,4.78,3.3,4.38,4.38,0,0,0,2.54-.68,2.09,2.09,0,0,0,1-1.8c0-1.15-.8-1.93-2.41-2.33l-3.55-.87a8.53,8.53,0,0,1-3.2-1.63,3.93,3.93,0,0,1-1.51-3.26,4.44,4.44,0,0,1,2.06-3.79,8.93,8.93,0,0,1,9.08-.4,6,6,0,0,1,2.63,3l-2.88,1.19a3.91,3.91,0,0,0-4-2.34,4.71,4.71,0,0,0-2.48.61,1.88,1.88,0,0,0-1,1.66c0,1,.78,1.69,2.33,2.05l3.49.82a6.59,6.59,0,0,1,3.66,2,4.72,4.72,0,0,1,1.19,3.16,4.89,4.89,0,0,1-1.94,4,7.62,7.62,0,0,1-5,1.58"
            transform="translate(-2.39 -4.78)"></path>
          <path
            d="M157.45,37.41a7.43,7.43,0,0,1-3.61-.86,6.07,6.07,0,0,1-2.39-2.16h-.14l.14,2.45V44.6h-3.31V19.22h3.16v2.45h.15a6,6,0,0,1,2.39-2.16,7.32,7.32,0,0,1,3.61-.86,7.76,7.76,0,0,1,5.9,2.69A9.53,9.53,0,0,1,165.83,28a9.52,9.52,0,0,1-2.48,6.68,7.74,7.74,0,0,1-5.9,2.7m-.54-3a5.28,5.28,0,0,0,4-1.74A6.49,6.49,0,0,0,162.52,28a6.47,6.47,0,0,0-1.65-4.62,5.39,5.39,0,0,0-7.63-.32c-.1.09-.2.2-.3.3A6.48,6.48,0,0,0,151.3,28a6.44,6.44,0,0,0,1.64,4.63,5.26,5.26,0,0,0,4,1.73"
            transform="translate(-2.39 -4.78)"></path>
          <rect x="166.36" y="6.32" width="3.31" height="25.74"></rect>
          <path
            d="M181.51,37.41a6.92,6.92,0,0,1-4.69-1.62,5.36,5.36,0,0,1-1.89-4.27A5.31,5.31,0,0,1,177.16,27a9,9,0,0,1,5.5-1.63,9.35,9.35,0,0,1,4.78,1.08v-.51a3.94,3.94,0,0,0-1.33-3.11,4.76,4.76,0,0,0-3.27-1.16,5.09,5.09,0,0,0-2.61.68,3.53,3.53,0,0,0-1.59,1.87l-3-1.3A6.86,6.86,0,0,1,178,20a7.72,7.72,0,0,1,4.75-1.34,8.13,8.13,0,0,1,5.61,2,7.1,7.1,0,0,1,2.23,5.57V36.84h-3.17V34.39h-.14a6.47,6.47,0,0,1-5.79,3m.54-3a5.38,5.38,0,0,0,3.72-1.53,4.73,4.73,0,0,0,1.67-3.61,6.48,6.48,0,0,0-4.2-1.15,5.4,5.4,0,0,0-3.63,1,3.13,3.13,0,0,0-1.23,2.44,2.36,2.36,0,0,0,1.12,2.06,4.43,4.43,0,0,0,2.55.75"
            transform="translate(-2.39 -4.78)"></path>
          <polygon points="195.76 39.82 192.34 39.82 196.44 30.94 189.18 14.44 192.77 14.44 198.02 27.09 198.09 27.09 203.2 14.44 206.79 14.44 195.76 39.82"></polygon>
          <path
            d="M238.7,27.63l-3,4.78,2.41,3.13-2.48,1.87-1.77-2.34a8.47,8.47,0,0,1-6,2.34,9.21,9.21,0,0,1-6.65-2.63,8.6,8.6,0,0,1-2.74-6.46A8.46,8.46,0,0,1,219.72,24,9.1,9.1,0,0,1,223,20.73a7.6,7.6,0,0,1-1.87-4.28,5.58,5.58,0,0,1,1.83-4.2,6.16,6.16,0,0,1,4.39-1.73A5.5,5.5,0,0,1,231,11.76a6.67,6.67,0,0,1,2.1,3.11l-2.84,1.51q-1-2.7-2.91-2.7a3,3,0,0,0-2.05.74,2.6,2.6,0,0,0-.83,2,3.7,3.7,0,0,0,.83,2.3l8.52,11.15,2.3-3.85Zm-10.78,6.76a5.38,5.38,0,0,0,4.13-1.73l-7.26-9.52a6.55,6.55,0,0,0-2.36,2.23,5.51,5.51,0,0,0-.88,2.95,5.68,5.68,0,0,0,1.85,4.34,6.36,6.36,0,0,0,4.52,1.73"
            transform="translate(-2.39 -4.78)"></path>
          <polygon points="105.36 70.4 96.3 44.66 99.96 44.66 107.01 65.55 107.15 65.55 114.49 44.66 118.15 44.66 108.81 70.4 105.36 70.4"></polygon>
          <path d="M125.87,53.14a2.34,2.34,0,1,1,.68-1.65,2.27,2.27,0,0,1-.68,1.65m0,22h-3.31V57.57h3.31Z" transform="translate(-2.39 -4.78)"></path>
          <path
            d="M137.23,75.76a7.77,7.77,0,0,1-5.9-2.7,10.27,10.27,0,0,1,0-13.37,7.74,7.74,0,0,1,5.9-2.7,7.57,7.57,0,0,1,3.61.86A6.07,6.07,0,0,1,143.23,60h.15l-.15-2.45V49.44h3.31V75.18h-3.16V72.74h-.15a6.19,6.19,0,0,1-2.39,2.15,7.46,7.46,0,0,1-3.61.87m.54-3a5.26,5.26,0,0,0,4-1.73,7.4,7.4,0,0,0,0-9.28,5.4,5.4,0,0,0-7.63-.28l-.3.3a7.29,7.29,0,0,0,0,9.24A5.29,5.29,0,0,0,137.77,72.74Z"
            transform="translate(-2.39 -4.78)"></path>
          <path
            d="M158.43,75.76a8.54,8.54,0,0,1-6.49-2.66,9.44,9.44,0,0,1-2.49-6.73,9.67,9.67,0,0,1,2.42-6.61,7.88,7.88,0,0,1,6.2-2.77,8.16,8.16,0,0,1,6.28,2.55,9.7,9.7,0,0,1,2.35,6.83l0,.61H152.75a6,6,0,0,0,1.78,4.21,5.42,5.42,0,0,0,3.83,1.55,4.76,4.76,0,0,0,4.82-3l2.94,1.22a7.84,7.84,0,0,1-2.84,3.43,8.27,8.27,0,0,1-4.85,1.39m4.75-11.51a4.67,4.67,0,0,0-1.38-2.87A5,5,0,0,0,158,60a4.75,4.75,0,0,0-3.18,1.15A5.85,5.85,0,0,0,153,64.25Z"
            transform="translate(-2.39 -4.78)"></path>
          <path
            d="M171.25,59.67a9.24,9.24,0,0,1,13,0,10.09,10.09,0,0,1,0,13.41,9.24,9.24,0,0,1-13,0,10.07,10.07,0,0,1,0-13.41M173.71,71a5.55,5.55,0,0,0,7.86.23l.23-.23a7.12,7.12,0,0,0,0-9.24,5.56,5.56,0,0,0-7.86-.22,2.39,2.39,0,0,0-.23.22,7.1,7.1,0,0,0,0,9.24"
            transform="translate(-2.39 -4.78)"></path>
          <path
            d="M205.07,75.76a8.71,8.71,0,0,1-4.81-1.55,8,8,0,0,1-3.24-4.6l3-1.26A6.23,6.23,0,0,0,202,71.48a4.68,4.68,0,0,0,3.12,1.11,5.07,5.07,0,0,0,3.47-1.26,4,4,0,0,0,0-6.22,5.38,5.38,0,0,0-3.58-1.25h-2.12V60.77h1.87a4.83,4.83,0,0,0,3.22-1.08,3.6,3.6,0,0,0,1.27-2.88,3.22,3.22,0,0,0-1.24-2.66,4.85,4.85,0,0,0-3.07-1,4.24,4.24,0,0,0-4.28,3.2l-3.06-1.3a8.39,8.39,0,0,1,2.56-3.52A7.17,7.17,0,0,1,204.86,50a8,8,0,0,1,5.5,1.92,6.2,6.2,0,0,1,2.19,4.87,5.6,5.6,0,0,1-3.31,5.28v.15a7.08,7.08,0,0,1,3,2.3,5.91,5.91,0,0,1,1.17,3.67A6.94,6.94,0,0,1,211,73.62a8.61,8.61,0,0,1-5.9,2.14"
            transform="translate(-2.39 -4.78)"></path>
          <path
            d="M225.28,59.47a7.46,7.46,0,0,1,5.29,2.35,7.68,7.68,0,0,1,2.4,5.7,7.83,7.83,0,0,1-2.5,5.75,8.12,8.12,0,0,1-5.91,2.49,8.36,8.36,0,0,1-8.45-8.24A13.93,13.93,0,0,1,219,59.9L225.68,50l2.66,1.83L222.48,60l.07.07a5.16,5.16,0,0,1,2.73-.57m-.72,13.09a5,5,0,0,0,3.66-8.46l-.08-.08a5,5,0,0,0-3.58-1.46A5,5,0,0,0,221,64a4.93,4.93,0,0,0-.12,7l.1.11a5.05,5.05,0,0,0,3.61,1.44"
            transform="translate(-2.39 -4.78)"></path>
          <path
            d="M252.69,72.05a8.76,8.76,0,0,1-12.21,2.1,8.91,8.91,0,0,1-2.1-2.1,15.05,15.05,0,0,1-2.73-9.17,15,15,0,0,1,2.73-9.18,8.79,8.79,0,0,1,14.31,0,15,15,0,0,1,2.73,9.18,14.92,14.92,0,0,1-2.73,9.17m-7.15.54a5.38,5.38,0,0,0,4.72-2.77A12.45,12.45,0,0,0,252,62.88a12.48,12.48,0,0,0-1.78-7,5.44,5.44,0,0,0-7.43-2,5.35,5.35,0,0,0-2,2,12.69,12.69,0,0,0-1.77,7,12.59,12.59,0,0,0,1.77,6.93A5.36,5.36,0,0,0,245.54,72.59Z"
            transform="translate(-2.39 -4.78)"></path>
          <path class="cls-3" d="M57.21,34.88a9.56,9.56,0,1,1,9.63,16.51l-.07,0L17.1,80.11A9.56,9.56,0,0,1,7.49,63.58l0,0Z" transform="translate(-2.39 -4.78)"></path>
          <path class="cls-4" d="M21.57,14.42A9.6,9.6,0,0,0,12,4.83,9.45,9.45,0,0,0,10,5,9.78,9.78,0,0,0,2.4,14.76v57l19.17.34Z" transform="translate(-2.39 -4.78)"></path>
          <path class="cls-5" d="M57.41,51.47A10,10,0,0,0,70.48,48a9.48,9.48,0,0,0-3.29-13l-.12-.07L16.9,6.16a9.44,9.44,0,0,0-13,3.16,2.71,2.71,0,0,0-.21.37,9.51,9.51,0,0,0,3.42,13l.11.06Z" transform="translate(-2.39 -4.78)"></path>
          <path class="cls-3" d="M66.74,51.53,21.57,76.85V55.1L57.37,35a9.8,9.8,0,0,1,13.35,3.69,10.33,10.33,0,0,1,.7,1.55,9.53,9.53,0,0,1-4.68,11.26" transform="translate(-2.39 -4.78)"></path>
          <path d="M12,62.32A9.59,9.59,0,1,1,2.4,71.9,9.58,9.58,0,0,1,12,62.32" transform="translate(-2.39 -4.78)"></path>
        </g>
      </g>
    </g>
  </g>
</svg>
