<?xml version="1.0" encoding="utf-8"?>
<!-- Generator: Adobe Illustrator 25.2.1, SVG Export Plug-In . SVG Version: 6.00 Build 0)  -->
<svg version="1.1" id="Layer_1" xmlns="http://www.w3.org/2000/svg" xmlns:xlink="http://www.w3.org/1999/xlink" x="0px" y="0px"
	 viewBox="0 0 266 72.7" style="enable-background:new 0 0 266 72.7;" xml:space="preserve">
<style type="text/css">
	.st0{fill:#FFFFFF;}
</style>
<g id="Layer_1-2">
	<path class="st0" d="M261.7,44.8l3.5,0.6c1.5-6.6,1.1-13.4-1.1-19.8l-3.4,1.1C262.7,32.6,263,38.8,261.7,44.8z"/>
	<path class="st0" d="M233.6,4l0.7-3.3c-6.9-1.3-14-0.8-20.7,1.5l1.1,3.2C220.8,3.3,227.3,2.9,233.6,4z"/>
	<path class="st0" d="M234.3,0.7L233.6,4c6.2,1.1,12,3.8,16.8,7.8l2.4-2.6C247.5,4.9,241.1,1.9,234.3,0.7z"/>
	<path class="st0" d="M260.7,26.8l3.4-1.1c-2.2-6.4-6.1-12-11.3-16.4l-2.4,2.6C255.1,15.8,258.7,21,260.7,26.8z"/>
	<path class="st0" d="M253.2,61l2.6,2.2c4.6-5,7.9-11.2,9.4-17.8l-3.5-0.6C260.3,50.8,257.4,56.4,253.2,61z"/>
	<path class="st0" d="M234.2,11c4.2,1.1,8.2,3.1,11.5,5.9l1.4-1.5c-4.2-3.5-9.2-5.8-14.6-6.8l-0.4,2C232.8,10.7,233.5,10.8,234.2,11
		z"/>
	<path class="st0" d="M254,29l2.1-0.7c-1.7-5-4.8-9.5-8.9-12.9l-1.4,1.5C249.5,20.1,252.4,24.3,254,29z"/>
	<path class="st0" d="M254.8,43.5l2.2,0.4c1.1-5.2,0.8-10.6-0.9-15.6L254,29C255.6,33.7,255.9,38.7,254.8,43.5z"/>
	<path class="st0" d="M232.1,10.6l0.4-2c-5.5-1-11.1-0.6-16.3,1.2l0.7,1.9C221.8,10,227.1,9.6,232.1,10.6z"/>
	<path class="st0" d="M216.9,11.6l-0.7-1.9c-5.2,1.7-10,4.8-13.7,8.8l1.6,1.4C207.6,16.1,212,13.3,216.9,11.6z"/>
	<path class="st0" d="M232.5,16.9c3.3,0.8,6.4,2.4,9,4.6l1.1-1.2c-3.3-2.7-7.2-4.5-11.4-5.3l-0.4,1.5
		C231.4,16.6,231.9,16.7,232.5,16.9z"/>
	<path class="st0" d="M218.9,17.4l-0.5-1.5c-4.1,1.3-7.8,3.7-10.8,6.9l1.3,1.1C211.6,20.9,215.1,18.6,218.9,17.4z"/>
	<path class="st0" d="M208.9,23.8l-1.3-1.1c-2.9,3.1-4.9,6.9-5.8,11.1l1.7,0.3c0.1-0.6,0.3-1.1,0.4-1.7
		C204.9,29.2,206.6,26.3,208.9,23.8z"/>
	<path class="st0" d="M230.8,16.5l0.4-1.6c-4.3-0.8-8.7-0.5-12.8,0.9l0.5,1.5C222.7,16.1,226.8,15.8,230.8,16.5z"/>
	<path class="st0" d="M248,31l1.6-0.5c-1.4-4-3.8-7.5-7-10.1l-1.1,1.2C244.5,24,246.7,27.3,248,31z"/>
	<polygon class="st0" points="18.8,63.4 18.6,63.4 7.2,36.4 0,36.4 0,72.1 4.8,72.1 4.8,42.8 4.9,42.8 17,72.1 20.2,72.1 32.3,42.8 
		32.4,42.8 32.4,72.1 37.2,72.1 37.2,36.4 30,36.4 	"/>
	<path class="st0" d="M54.6,47.6c-7.2,0-12.3,5.4-12.3,12.5S47,72.7,54.5,72.7c4.6,0,8.1-1.6,10.6-4.9l-3.4-2.6
		c-1.8,2.2-3.8,3.6-6.6,3.6c-4.2,0-8.1-2.8-8.1-7h19.2v-1.6C66.2,54,63,47.6,54.6,47.6z M47.1,58.2c0.2-3.9,3.5-7,7.4-7
		c4.6,0,6.8,3,6.9,7H47.1z"/>
	<path class="st0" d="M89.8,36.4v15.2h-0.1c-2-2.6-5.1-4.1-8.3-4c-7.4,0-12.2,5.4-12.2,12.5s4.7,12,12.2,12h13V36.4H89.8z M82,68.5
		c-4.8,0-7.9-3.5-7.9-8.3s3-8.3,7.9-8.3s7.9,3.5,7.9,8.3S86.8,68.5,82,68.5z"/>
	<rect x="100.3" y="48.2" class="st0" width="4.5" height="23.9"/>
	<path class="st0" d="M120.4,47.6c-3.5,0-6.9,1.2-9.5,3.5l2.7,2.9c1.7-1.3,3.3-2.7,6.8-2.7c3.9,0,5.7,2.6,5.7,5v1h-3.3
		c-7.3,0-13.2,2.1-13.2,8.3c0,4.6,3.8,6.6,8.3,6.6h12.4V55.6C130.4,51.4,127.4,47.6,120.4,47.6z M126.1,62.1c0,3.2-1.8,7-6.8,7
		c-3.1,0-5.2-1.2-5.2-3.9c0-3.8,5.3-4.6,9.5-4.6h2.4V62.1z"/>
	<path class="st0" d="M188.1,47.6c-3.5,0-6.9,1.2-9.5,3.5l2.7,2.9c1.7-1.3,3.3-2.7,6.8-2.7c3.9,0,5.7,2.6,5.7,5v1h-3.3
		c-7.3,0-13.2,2.1-13.2,8.3c0,4.6,3.8,6.6,8.3,6.6h12.5V55.6C198.1,51.4,195.2,47.6,188.1,47.6z M193.9,62.1c0,3.2-1.8,7-6.8,7
		c-3.1,0-5.1-1.2-5.1-3.9c0-3.8,5.2-4.6,9.5-4.6h2.4V62.1z"/>
	<polygon class="st0" points="155.3,63.4 155.1,63.4 143.7,36.4 136.5,36.4 136.5,72.1 141.4,72.1 141.4,42.8 141.5,42.8 
		153.5,72.1 156.8,72.1 168.8,42.8 168.9,42.8 168.9,72.1 173.8,72.1 173.8,36.4 166.5,36.4 	"/>
	<path class="st0" d="M211.4,63V52.1h6.5v-3.9h-6.5v-6.7h-4.5v6.7h-5.2v3.9h5.2v12.5c0,3.8,0.1,8.1,7.1,8.1c1.4,0,2.8-0.3,4.1-0.8
		v-4.1c-1,0.5-2.1,0.8-3.2,0.7C211.4,68.5,211.4,65.7,211.4,63z"/>
	<path class="st0" d="M235,47.6h-7.9L227,36.4h-4.5v35.7h4.5V59.8c0-5.5,2.9-8,6.7-8c2.9,0,5.4,1.7,5.4,6.2v14.2h4.5V56.7
		C243.6,50.4,239.6,47.6,235,47.6z"/>
	<rect x="100.3" y="39.8" class="st0" width="4.5" height="4.5"/>
</g>
</svg>
