<svg xmlns="http://www.w3.org/2000/svg" viewBox="0 0 600 74"><g id="Layer_2" data-name="Layer 2"><g id="layer"><path d="M111,65.4c-9,0-13.5-5.2-13.5-13.7V29H89.3V20.1h8.2V8.8l10.7-2.7v14h11.3V29H108.2V50.7c0,3.4,1.5,4.9,5,4.9a64.1,64.1,0,0,0,7-.4v9a35.18,35.18,0,0,1-9.2,1.2" style="fill:#fff"/><path d="M152.3,64.8V37.2c0-5.2-1.7-8.3-7.4-8.3-6.5,0-9.2,6.9-9.2,12.4V64.8H125V2.8h10.7V24.9c2.6-3.8,7.6-5.8,12.2-5.8,9.5,0,15.1,6.8,15.1,16V64.9H152.3v-.1Z" style="fill:#fff"/><path d="M209.2,45.8H179.3a11.76,11.76,0,0,0,3.3,8.8,9.21,9.21,0,0,0,6.6,2.8c3.1,0,5-.6,6.5-2.2a7.73,7.73,0,0,0,2.1-3.8h10.3a18.53,18.53,0,0,1-3.8,8.3c-3.8,4.5-9.4,6.3-15,6.3a19.28,19.28,0,0,1-14.1-5.5c-4.5-4.3-6.9-10.6-6.9-17.9,0-7.1,2.1-13.5,6.4-17.9A19.71,19.71,0,0,1,189,19c6.6,0,12.6,2.7,16.3,8.2,3.3,4.9,4,10,3.9,15.6a28.5,28.5,0,0,1,0,3M195.8,30.2a9.25,9.25,0,0,0-6.8-2.6,9.4,9.4,0,0,0-7.5,3.4,11.3,11.3,0,0,0-2.3,7h19.3a11.34,11.34,0,0,0-2.7-7.8" style="fill:#fff"/><polygon points="231.8 14.2 231.8 64.8 220.7 64.8 220.7 14.2 202.7 14.2 202.7 3.9 249.8 3.9 249.8 14.2 231.8 14.2" style="fill:#fff"/><path d="M268.2,29.7c-7.6,0-11.5,5.4-11.5,12.6V64.8H245.9V20.1H255l.9,6.7c2.1-5.2,7.4-7.3,12.6-7.3a20.41,20.41,0,0,1,3.4.3V30.1a23.25,23.25,0,0,0-3.7-.4" style="fill:#fff"/><path d="M308.3,65.5c-4.6,0-7.2-2.9-7.6-6.3-2.1,3.6-7.2,6.7-13.6,6.7-10.7,0-16.2-6.7-16.2-14,0-8.5,6.6-13.4,15.1-14l13.2-1V34.2c0-4.2-1.5-7-7.6-7-5,0-7.9,2.2-8.2,6.4H273c.6-10.1,8.6-14.5,18.6-14.5,7.7,0,14.2,2.4,16.8,9.1a24.88,24.88,0,0,1,1.3,9V53.8c0,2.1.7,2.8,2.5,2.8a5.85,5.85,0,0,0,1.4-.2v7.9a10.66,10.66,0,0,1-5.3,1.2M299.2,45l-11.3.9c-3.3.3-6.4,2.2-6.4,5.8,0,3.4,3,5.6,6.4,5.6,6.7,0,11.4-3.6,11.4-10.2V45Z" style="fill:#fff"/><path d="M347.6,64.8l-.7-4.9c-2.7,4.1-7.7,5.9-12.5,5.9A17.07,17.07,0,0,1,323.5,62c-5.3-4.4-7.9-11.1-7.9-19.5,0-8.8,2.7-15.6,8-19.9A17,17,0,0,1,334.5,19c5.7,0,9.8,1.9,11.7,4.2V2.8h10.7v62ZM336.5,28.1a8.71,8.71,0,0,0-7.2,3.5c-2.2,2.9-2.8,7-2.8,10.8s.6,8,2.8,10.9a8.71,8.71,0,0,0,7.2,3.5c8.4,0,10.1-8,10.1-14.4S345,28.1,336.5,28.1" style="fill:#fff"/><path d="M403.7,45.8H373.8a11.76,11.76,0,0,0,3.3,8.8,9.21,9.21,0,0,0,6.6,2.8c3.1,0,5-.6,6.5-2.2a7.73,7.73,0,0,0,2.1-3.8h10.3a18.53,18.53,0,0,1-3.8,8.3c-3.8,4.5-9.4,6.3-15,6.3a19.28,19.28,0,0,1-14.1-5.5c-4.5-4.3-6.9-10.6-6.9-17.9,0-7.1,2.1-13.5,6.4-17.9A19.71,19.71,0,0,1,383.5,19c6.6,0,12.6,2.7,16.3,8.2,3.3,4.9,4,10,3.9,15.6a28.5,28.5,0,0,1,0,3M390.3,30.2a9.25,9.25,0,0,0-6.8-2.6A9.4,9.4,0,0,0,376,31a10.72,10.72,0,0,0-2.3,7H393a11.34,11.34,0,0,0-2.7-7.8" style="fill:#fff"/><path d="M450.8,58.3c-4,4.2-10.1,6.5-17.1,6.5H410V3.9h23.7c7,0,13.1,2.3,17.1,6.5,6.3,6.4,7.1,15.5,7.1,23.9s-.8,17.6-7.1,24m-8.5-41a12,12,0,0,0-8.6-3.4H421.1v41h12.6a12.43,12.43,0,0,0,8.6-3.4c4.3-4.3,4.4-11.5,4.4-17.1s-.1-12.8-4.4-17.1" style="fill:#fff"/><path d="M501.8,45.8H471.9a11.76,11.76,0,0,0,3.3,8.8,9.21,9.21,0,0,0,6.6,2.8c3.1,0,5-.6,6.5-2.2a7.73,7.73,0,0,0,2.1-3.8h10.3a18.53,18.53,0,0,1-3.8,8.3c-3.8,4.5-9.4,6.3-15,6.3a19.28,19.28,0,0,1-14.1-5.5c-4.5-4.3-6.9-10.6-6.9-17.9,0-7.1,2.2-13.5,6.4-17.9A19.71,19.71,0,0,1,481.6,19c6.6,0,12.6,2.7,16.3,8.2,3.3,4.9,4,10,3.9,15.6v3M488.4,30.2a9.25,9.25,0,0,0-6.8-2.6,9.4,9.4,0,0,0-7.5,3.4,11.3,11.3,0,0,0-2.3,7h19.3a11.84,11.84,0,0,0-2.7-7.8" style="fill:#fff"/><polygon points="548.1 2.8 548.1 64.8 558.8 64.8 558.8 53.1 565.9 45.3 578.5 64.8 590.9 64.8 573.3 37.4 589.2 20.2 575.7 20.2 558.8 38.3 558.8 2.8 548.1 2.8" style="fill:#fff"/><path d="M530.1,38.4c-4.4-.7-5.5-.8-9.5-1.3-2.4-.3-5.2-1.3-5.2-4.5a5,5,0,0,1,3.4-4.7,10.78,10.78,0,0,1,4.6-.7,8.38,8.38,0,0,1,5.8,2.1,6.24,6.24,0,0,1,1.8,4.2h10.2a13.86,13.86,0,0,0-3.9-9.2c-3.3-3.5-8.7-5.2-14-5.2-5.6,0-10.3,1.6-13.6,4.5a12.63,12.63,0,0,0-4.6,10.1,12.24,12.24,0,0,0,10.2,11.9c3.9.9,8.4,1.1,12.4,1.7,2.8.4,4.5,2.2,4.5,4.7,0,4.9-5.5,5.7-9.1,5.7-3.1,0-5.1-.6-6.8-2a7,7,0,0,1-2.3-4.3H503.9a14.91,14.91,0,0,0,4.7,9.4c3.7,3.5,8.8,5.2,14.4,5.2,6.1,0,11.7-1.5,15.3-5.2a13.37,13.37,0,0,0,3.9-9.8c.1-7-5-11.5-12.1-12.6" style="fill:#fff"/><polygon points="17.6 0 17.6 11.5 29.4 11.5 29.4 41.6 40.8 41.6 40.8 11.3 40.8 0 17.6 0" style="fill:#fff"/><path d="M11.4,38.9A23.59,23.59,0,0,1,23.8,18.1H6.9A35,35,0,0,0,24,72.2V59.9a23.77,23.77,0,0,1-12.6-21" style="fill:#fff"/><path d="M46.5,5.7V18.1A23.68,23.68,0,0,1,35.2,62.6a21.21,21.21,0,0,1-5.7-.7V73.5a34.54,34.54,0,0,0,5.7.5A35.08,35.08,0,0,0,46.5,5.7" style="fill:#fff"/><path d="M595.9,22.8a4.08,4.08,0,0,1-4.1-4.2,4.14,4.14,0,0,1,4.1-4.2,4.08,4.08,0,0,1,4.1,4.2A4.08,4.08,0,0,1,595.9,22.8Zm0-7.6a3.34,3.34,0,0,0-3.4,3.5,3.4,3.4,0,1,0,6.8,0A3.34,3.34,0,0,0,595.9,15.2Zm.9,5.6-.7-1.6h-.9v1.6h-.8V16.4H596a1.48,1.48,0,0,1,1.6,1.4,1.44,1.44,0,0,1-.8,1.3l.8,1.7Zm-.8-3.7h-.9v1.4h.9c.5,0,.8-.2.8-.7S596.5,17.1,596,17.1Z" style="fill:#fff"/></g></g></svg>