<?xml version="1.0" encoding="utf-8"?>
<!-- Generator: Adobe Illustrator 25.2.1, SVG Export Plug-In . SVG Version: 6.00 Build 0)  -->
<svg version="1.1" id="Layer_1" xmlns="http://www.w3.org/2000/svg" xmlns:xlink="http://www.w3.org/1999/xlink" x="0px" y="0px"
	 viewBox="0 0 1000 438.2" style="enable-background:new 0 0 1000 438.2;" xml:space="preserve">
<style type="text/css">
	.st0{fill:#FFFFFF;}
</style>
<g>
	<g>
		<polygon class="st0" points="977.9,0 923.4,116.9 902.8,72.5 880.6,72.5 914.4,145 932.4,145 1000,0 1000,0 		"/>
		<path class="st0" d="M743.6,217h44v-80.4c0-18.3,10.7-31.3,26.5-31.3c15.2,0,23.1,10.7,23.1,26V217h44v-94.3
			c0-31.9-19.2-54.5-50.2-54.5c-19.8,0-33.6,8.5-44,24h-0.8V72.5h-42.6V217L743.6,217z M657.2,68.6c-46,0-76.8,33-76.8,76.5
			c0,43.2,30.8,76.5,76.8,76.5c46,0,76.8-33.3,76.8-76.5C734,101.6,703.2,68.6,657.2,68.6 M656.9,189.1c-20.9,0-31.9-17.5-31.9-44
			c0-26.8,11-44,31.9-44c20.9,0,32.5,17.2,32.5,44C689.4,171.6,677.8,189.1,656.9,189.1 M455.2,217h123.6v-34.7h-70v-0.8l66.9-75.1
			V72.5H455.2v34.7h67.7v0.8l-67.7,75.6L455.2,217L455.2,217z M398.7,217H443V72.5h-44.3V217z M296,217h44v-66.3
			c0-30.2,18.1-43.5,45.7-39.8h0.8V72.8c-2.3-0.8-4.8-1.1-9-1.1c-17.2,0-28.8,7.9-38.7,24.8h-0.9v-24h-42V217z M215,189.3
			c-19.5,0-31.3-12.7-33.6-32.2h104.1c0.3-31-7.9-55.9-25.1-71.4c-12.1-11.3-28.2-17.5-48.5-17.5c-43.5,0-73.7,33-73.7,76.2
			c0,43.5,28.8,76.8,76.5,76.8c18.1,0,32.5-4.8,44.3-13c12.7-8.7,21.7-21.4,24.3-34.1H241C236.8,183.7,228,189.3,215,189.3
			 M212.8,99.9c15.5,0,26.2,11.6,27.9,28.5h-59C185.1,111.2,194.4,99.9,212.8,99.9 M50.2,217h46.3l50.2-144.5h-44.3l-28.2,92.8h-0.6
			L45.4,72.5H0L50.2,217z M398.7,21.2H443v39.2h-44.3V21.2z"/>
	</g>
	<path class="st0" d="M27.9,289H72v20.6h0.8c9-15,22.9-24.9,43.8-24.9c18.9,0,33.3,9.9,40.7,25.4h0.6c11.3-17.5,26.8-25.4,45.5-25.4
		c32.8,0,49.2,22.3,49.2,54.8v94.1h-46v-85.9c0-15.5-6.5-24.6-20.3-24.6c-14.7,0-22.9,12.1-22.9,29.4v81.1h-46v-85.9
		c0-15.5-6.5-24.6-20.3-24.6c-14.4,0-22.9,12.1-22.9,29.4v81.1h-46V289z M262.4,361c0-43.2,30.2-76.3,74.3-76.3
		c20.6,0,37,6.8,49.4,18.1c17.2,15.8,25.7,41,25.4,70.3h-104c2.8,19.5,13.6,31.6,32.5,31.6c12.1,0,20.1-5.4,24-14.4H409
		c-3.1,13-11.6,25.4-24.3,34.2c-12.1,8.5-26.8,13.3-45.2,13.3C291.8,437.9,262.4,404.8,262.4,361z M365,345.8
		c-1.7-17.2-12.4-28.2-27.4-28.2c-17.5,0-26.6,11-29.7,28.2H365z M589.5,237.8h46v39.5h-46V237.8z M589.5,289h46v144.6h-46V289z
		 M646.6,393.2c0-31.9,25.4-41.5,55.4-45.5c27.1-3.4,36.7-6.2,36.7-16.1c0-9.3-5.9-15.5-19.8-15.5c-14.7,0-22,6.5-23.4,18.6h-42.4
		c1.1-26.8,21.8-49.7,65.5-49.7c21.8,0,36.4,4,46.9,11.9c12.4,9,18.4,23.2,18.4,41.2V411c0,11.6,1.1,18.1,5.1,20.6v2h-44.6
		c-2.3-3.1-3.7-8.8-4.8-16.1H739c-8.5,12.1-21.2,19.8-42.9,19.8C667.2,437.3,646.6,421.8,646.6,393.2z M739.8,381.9v-17.2
		c-5.9,3.1-14.4,5.4-23.7,7.6c-17.8,4-25.1,8.5-25.1,19.5c0,11.6,8.5,16.1,19.8,16.1C728,407.9,739.8,397.5,739.8,381.9z
		 M525.7,237.8v67.6h-0.8c-8.5-12.1-20.1-20.6-40.4-20.6c-37.3,0-63.3,31.4-63.3,76.6c0,48.3,26.3,76.8,63.3,76.8
		c18.9,0,33.9-9,42.7-24h0.6v19.5h44.1V237.8H525.7z M496.3,401.7c-17.8,0-28.5-15.8-28.5-41c0-24.3,10.7-41.2,29.1-41.2
		c20.1,0,29.9,17.5,29.9,41.8C526.8,385,515.5,401.7,496.3,401.7z"/>
</g>
</svg>
