<?xml version="1.0" encoding="utf-8"?>
<!-- Generator: Adobe Illustrator 25.2.1, SVG Export Plug-In . SVG Version: 6.00 Build 0)  -->
<svg version="1.1" id="Layer_1" xmlns="http://www.w3.org/2000/svg" xmlns:xlink="http://www.w3.org/1999/xlink" x="0px" y="0px"
	 viewBox="0 0 738.9 190.7" style="enable-background:new 0 0 738.9 190.7;" xml:space="preserve">
<style type="text/css">
	.st0{fill:#FFFFFF;}
</style>
<g>
	<path class="st0" d="M622.4,66c0-1.4,0-2.4,0-3.3c0-17,0-33.9,0-50.9c0-2.1,0.5-2.8,2.7-2.8c7.4,0.1,14.8,0.1,22.1,0
		c2,0,2.8,0.5,2.8,2.7c-0.1,51.6,0,103.2-0.1,154.8c0,0.7-0.1,1.5-0.1,2.1c-5.4,0-10.7,0.6-15.7-0.2c-5.8-0.9-9.8-6.1-10.5-12
		c-0.1-0.5-0.1-0.9-0.2-1.5c-2.9,2.5-5.5,5.1-8.4,7.1c-10.4,7.2-22.2,9.4-34.6,8.5c-16.9-1.2-31.4-7.6-42.1-21.2
		c-9.4-12-12.8-25.8-12.4-40.8c0.4-14.5,4.6-27.6,14.3-38.5c10.8-12.2,24.8-18,40.9-18.9c12.1-0.7,23.5,1.5,33.6,8.5
		C617.2,61.4,619.4,63.5,622.4,66z M553.4,111.8c0.2,1.7,0.3,4.5,0.9,7.2c2.9,13.8,10.8,23.5,24.7,26.8c14.1,3.4,26.7,0.2,36.1-11.5
		c7-8.7,8.7-19,7.3-29.8c-4.2-30.7-35.9-36.6-53.5-24.9C557.9,87.1,553.6,98,553.4,111.8z"/>
	<path class="st0" d="M349.5,65.4c0.5-3.5,1.7-6.9,4.6-9.2c2-1.5,4.5-3.2,6.9-3.5c5.2-0.5,10.5-0.2,15.9-0.2c0,38.8,0,77.5,0,116.3
		c-4.9,0-9.8,0.5-14.5-0.1c-6.1-0.8-10.3-5.7-11.3-11.9c-0.1-0.6-0.2-1.1-0.3-1.8c-0.4,0.1-0.7,0.1-0.8,0.3
		c-9,10.1-20.7,14.5-33.9,15.2c-15.9,0.9-30.5-2.9-42.9-13.3c-12.2-10.3-18.2-23.8-19.6-39.5c-1.2-13.7,0.5-27,7.6-39.1
		c9.6-16.4,24.4-25,43-27.3c11.6-1.4,22.9-0.3,33.3,5.6C341.6,59.3,345.3,62.4,349.5,65.4z M350.1,109.3c-0.2-1.7-0.3-4.6-0.9-7.4
		c-2.8-13.2-10.3-22.6-23.4-26.2c-13.5-3.7-25.9-1.3-35.9,9.4c-7.5,8.1-9.5,18-8.9,28.6c1.7,29.5,29.9,40,50.6,29.6
		C344.8,136.6,349.9,124.8,350.1,109.3z"/>
	<path class="st0" d="M397,168.9c0-38.9,0-77.5,0-116.5c5.7,0.4,11.4-1,16.9,0.9c4.5,1.6,7.4,5,8.6,9.7c0.3,1.1,0.5,2.3,0.6,3.1
		c4-2.9,7.7-6.5,12.1-8.6c20.1-9.3,40-9.8,59,2.9c10.1,6.8,14.8,17.2,16.6,29c0.7,4.3,1,8.8,1,13.2c0.1,21,0,42.1,0,63.1
		c0,1,0,2,0,3.3c-0.9,0.1-1.6,0.2-2.3,0.2c-3.7,0-7.5,0-11.2,0c-7.1-0.1-13-5.4-13.8-12.5c-0.1-1.3-0.2-2.7-0.2-4.1
		c0-15.9,0.1-31.7-0.1-47.6c0-3.4-0.4-6.8-1.1-10.1c-2.5-11.5-10-18.1-21.8-19.6c-14.5-1.9-26.7,3.6-32.9,14.8
		c-3.1,5.7-4.3,12-4.3,18.4c0,15.1,0,30.2,0,45.3c0,8-4.5,14.1-11.7,15C407.6,169.4,402.4,168.9,397,168.9z"/>
	<path class="st0" d="M140.7,52.4c3.3,0,5.9,0,8.6,0c4.7,0,9.3,0.1,14,0c5.4-0.1,9.4,2.1,12.5,6.4c7.4,10.3,14.8,20.5,22.1,30.8
		c0.4,0.6,0.9,1.1,1.6,1.9c0.7-0.8,1.2-1.5,1.7-2.1c7.4-10.3,14.8-20.5,22.1-30.8c3-4.2,6.9-6.3,12.1-6.2c6.4,0.1,12.7,0,19.1,0
		c0.8,0,1.6,0.1,3,0.1c-1.4,1.9-2.5,3.5-3.7,5c-12.8,17.1-25.6,34.3-38.5,51.3c-1.2,1.6-0.9,2.5,0.2,3.9
		c14.3,18.1,28.5,36.3,42.7,54.5c0.3,0.4,0.6,0.9,1.3,1.9c-1.5,0-2.5,0-3.6,0c-6.4,0-12.9-0.1-19.3,0c-5.4,0.1-9.4-2.1-12.6-6.3
		c-7.9-10.3-15.8-20.6-23.7-30.9c-0.4-0.5-0.9-1-1.5-1.6c-4.4,5.7-8.7,11.3-13,16.8c-4.3,5.5-8.5,11-12.8,16.5
		c-2.8,3.6-6.6,5.5-11.2,5.5c-7.5,0-14.9,0-22.9,0c0.6-1,1-1.7,1.5-2.3c14-18,28-36,42.1-54c1.3-1.7,1.3-2.7,0-4.3
		c-13.5-18-26.9-36-40.3-54.1C141.7,53.9,141.4,53.4,140.7,52.4z"/>
	<path class="st0" d="M696.9,68.4c0.7-0.6,1.1-0.8,1.2-1c7.8-10.5,18.8-14.6,31.2-16c2.4-0.3,4.7-0.3,7.1-0.5
		c1.7-0.1,2.5,0.5,2.5,2.3c-0.1,7-0.1,14.1,0,21.1c0,2.4-0.9,2.6-2.9,2.4c-8.5-0.9-16.6,0.2-23.9,5c-9.4,6.2-13.1,15.6-13.6,26.3
		c-0.4,9.8-0.2,19.7-0.2,29.5c0,5.4,0,10.9,0,16.3c-0.1,9.4-6,15.2-15.3,15.2c-3.9,0-7.8,0-12,0c-0.1-1-0.2-1.9-0.2-2.8
		c0-37,0-74-0.1-111c0-2.4,0.6-3,3-3c6.9,0.1,13.9,0.1,20.9,0c1.8,0,2.4,0.5,2.3,2.3C696.8,59,696.9,63.4,696.9,68.4z"/>
	<path class="st0" d="M29,164.7c-9.6-16.6-19.2-33.2-29-50.2c19.7,0,39.1,0,58.9,0c-9.7,16.9-19.3,33.4-28.8,50
		C29.7,164.6,29.4,164.6,29,164.7z"/>
	<path class="st0" d="M100.4,164.5c-9.5-16.5-19.1-33.1-28.8-50c19.8,0,39,0,58.9,0c-9.8,17-19.4,33.6-29.1,50.2
		C101.1,164.7,100.7,164.6,100.4,164.5z"/>
	<path class="st0" d="M65.2,117.8c9.9,17.1,19.5,33.7,29.1,50.4c-2.7,1.2-55.4,1.2-58.1,0C45.8,151.5,55.4,134.9,65.2,117.8z"/>
	<path class="st0" d="M29.5,56c10,17.4,19.6,33.9,29.3,50.9c-19.8,0-39,0-58.9,0C9.9,89.9,19.2,73.1,29.5,56z"/>
	<path class="st0" d="M130.1,106.9c-19.5,0-38.7,0-58.5,0c9.8-16.9,19.3-33.5,29.1-50.4c0.9,1.1,1.7,1.8,2.3,2.7
		c9,15.5,18,31.1,27,46.7C130,106,130,106.3,130.1,106.9z"/>
	<path class="st0" d="M35.9,52.7c19.8,0,38.9,0,58.7,0c-9.9,17.1-19.4,33.7-29.3,50.9C55.4,86.5,45.8,69.9,35.9,52.7z"/>
</g>
</svg>
