<svg width="41" height="42" fill="none" xmlns="http://www.w3.org/2000/svg"><path d="M28.68.5c6.467.006 11.709 5.243 11.72 11.71v17.58c-.011 6.467-5.253 11.704-11.72 11.71H12.21C5.745 41.494.506 36.255.5 29.79V12.21C.506 5.745 5.745.506 12.21.5h16.47zm0 3H12.21a8.72 8.72 0 00-8.71 8.71v17.58a8.72 8.72 0 008.71 8.71h16.47a8.72 8.72 0 008.71-8.71V12.21a8.72 8.72 0 00-8.71-8.71zm-8.18 6.54a11.26 11.26 0 018.14 3.31 10.52 10.52 0 012.713 7.285l-.013.335a11.13 11.13 0 01-3.23 7.66 10.71 10.71 0 01-7.61 3.21 10.9 10.9 0 01-10.94-10.9 11.07 11.07 0 013.33-7.9 10.44 10.44 0 017.61-3zm-.3 3.68a6.79 6.79 0 00-4.7 1.95 7.42 7.42 0 00-2.22 5.27 7.22 7.22 0 0014.44 0 6.94 6.94 0 00-1.71-5 7.69 7.69 0 00-5.57-2.15l-.24-.07zM31.6 7.2a2.54 2.54 0 110 5.08 2.54 2.54 0 010-5.08z" fill="#4A4A4A"/></svg>