<svg width="45" height="36" fill="none" xmlns="http://www.w3.org/2000/svg"><path d="M44.5 4.404a18.41 18.41 0 01-5.18 1.43 9.05 9.05 0 004-5 18 18 0 01-5.73 2.19 9 9 0 00-15.66 6.15c.003.69.084 1.378.24 2.05a25.6 25.6 0 01-18.6-9.4 9.06 9.06 0 002.79 12.06 9 9 0 01-4.09-1.14v.12a9 9 0 007.23 8.85 8.881 8.881 0 01-2.38.32 9.515 9.515 0 01-1.7-.16 9 9 0 008.45 6.3 18.14 18.14 0 01-11.21 3.83 19.25 19.25 0 01-2.16-.13 25.55 25.55 0 0013.84 4.05c16.6 0 25.68-13.75 25.68-25.68v-1.16a18.54 18.54 0 004.48-4.68z" fill="#4A4A4A"/></svg>