<svg xmlns="http://www.w3.org/2000/svg" viewBox="0 0 262.8 43.8"><path d="M92.8.8H81.5c-.3 0-.5.1-.6.3-.2.4-.4.7-.6 1.1l-8.8 14.2c-.4.7-.4.7-.8 0-3.1-5-6.2-10-9.2-15-.1-.3-.5-.5-.8-.5H49.5c-.5 0-.6.1-.6.6v40.8c0 .5.2.6.7.6h10.1c.6 0 .7-.1.7-.7V20.9c-.1-.6-.1-1.2.1-1.8.2.3.3.5.4.6 2.9 4.5 5.8 9 8.8 13.4.9 1.3 2 1.3 2.9 0L79 23l2.6-4h.1v23c0 .6.2.8.8.8h9.9c.9 0 .9 0 .9-.9V1.5c0-.3.1-.7-.5-.7zM182.2 26c-1.1-1.7-2.6-3.1-4.4-4-.8-.4-1.7-.8-2.7-1.2l.7-.4c3.1-1.7 5.1-4 5.5-7.6.6-4.2-1.6-8.3-5.4-10.2-2.4-1.2-5.1-1.8-7.8-1.8h-21.7c-.5 0-.6.1-.6.7v40.6c0 .6.2.7.7.7h22c2.3 0 4.5-.4 6.7-1.1 5.5-1.9 8.5-5.7 8.1-11.8 0-1.3-.4-2.7-1.1-3.9zm-25-15.3c0-.3 0-.6.5-.6 2.9.1 5.7-.1 8.6.1.7.1 1.5.3 2.1.6 1.4.8 1.8 2 1.7 3.5-.2 1.3-1.1 2.4-2.4 2.7-.8.3-1.7.4-2.6.4h-7.3c-.5 0-.6-.1-.6-.6v-6.1zm12.4 22.2c-.9.4-1.9.6-2.9.6h-8.8c-.5 0-.6-.1-.6-.6v-6.6c0-.4.1-.6.6-.6h5.2c1.5 0 3.5-.1 5.5.3 1.6.3 2.9 1 3.3 2.8.3 1.7-.7 3.5-2.3 4.1zm-67.2 3.6c4.3 4.7 10.4 7.3 16.8 7.2 1.2-.1 2.2-.1 3.2-.2 5.1-.5 9.9-2.9 13.4-6.5 5.1-5.2 7.1-11.6 5.9-18.8-1.5-8.5-6.5-14.1-14.6-16.9-5.4-1.9-11.4-1.7-16.7.5-3.9 1.5-7.2 4.1-9.6 7.5-3.2 4.3-4.6 9.7-3.9 15 .4 4.5 2.4 8.8 5.5 12.2zm9.9-23.3c4.1-4 11.3-3.5 15 .8 2 2.3 2.9 4.9 2.9 8.6 0 3.6-1.8 6.9-4.8 8.8-1 .7-2 1.1-3.2 1.5-5.6 1.6-11.5-1.8-13-7.4-1.3-4.6-.5-8.9 3.1-12.3zM261.9 33H241c-.6 0-.8-.1-.8-.7v-5.1c0-.7.1-.9.8-.9h18.6c.7 0 .8-.2.8-.8v-7.6c0-.6-.2-.7-.8-.7h-18.9c-.3 0-.6 0-.6-.5v-5.5c0-.4.2-.5.5-.5h1.9c3.3-.1 6.6 0 9.8 0h9.4c.4 0 .6 0 .6-.6V1.4c0-.5-.1-.6-.6-.6h-32.5c-.5 0-.7.2-.7.7v40.7c0 .5.1.7.6.7h32.7c.6 0 .7-.2.7-.7v-8.3c.3-.9.3-.9-.6-.9zm-40 0h-21.2c-.3 0-.4-.1-.4-.4v-5.9c0-.2.1-.4.4-.4h19.1c.5 0 .7-.1.7-.7V18c0-.9 0-.9-.9-.9h-18.5c-.6 0-.8-.2-.8-.8v-4.9c0-.6.1-.8.8-.8h21c.4 0 .5-.1.5-.5V1.7c0-.5-.1-.9-.8-.9h-32.2c-.6 0-.8.1-.8.7V42c0 .5.1.7.6.7h32.7c.5 0 .7-.1.7-.7v-8.3c0-.7 0-.7-.9-.7zM41.2 29.4c-4-9.4-7.9-18.8-11.9-28.2-.1-.5-.6-.8-1-.7-3 0-6 .1-9 0-1 0-1.8.1-2.1 1.3-.1.3-.2.5-.3.7L9 21.3c-2.9 7-5.9 13.9-8.9 20.9-.2.5-.1.6.4.6h11.1c.3.1.7-.2.7-.5.9-2.2 1.8-4.3 2.6-6.4.1-.3.4-.6.7-.5h15.2c.3 0 .7.2.7.5.8 2.1 1.7 4.3 2.6 6.4.1.4.4.6.8.5H46c.7 0 .8-.1.5-.7-1.7-4.2-3.5-8.5-5.3-12.7zm-13.8-3.1h-8.3c-.3 0-.6 0-.4-.5 1.5-3.7 3-7.4 4.4-11.1.1-.1.1-.2.2-.3l3.3 8.4c.4.9.7 1.9 1.1 2.9.3.5.2.6-.3.6z" fill="#fff"/></svg>