<svg version="1.1" id="Layer_1" xmlns="http://www.w3.org/2000/svg" x="0" y="0" viewBox="0 0 1368 747" xml:space="preserve"><style>.st0{fill:#fff}</style><path class="st0" d="M849.8 301.3h6.7c16.9 36.9 33.8 73.9 51 111.5H888c-3.8-8.4-7.7-17.2-11.7-26.2h-48c-4 8.5-8.3 17.3-12.6 26.3h-19.1s2.9-6.4 4.3-9.4c15.9-33.5 31.9-67 47.8-100.5.2-.4.6-.8 1.1-1.7zm19.1 68.3c-5.6-12.1-10.4-23.8-16.3-35.9-5.8 12.5-11.1 24-16.6 35.9h32.9zm55 45.3c-2-1.5-3.4-2.4-4.7-3.4-.5-.4-.9-.9-1.7-1.8 7.9-11.3 15.8-22.6 24.2-34.6-1.9.3-3 .4-4.2.7-25.9 6.2-50.8-13.6-50.7-40.1.1-18.8 13.7-35.1 32.8-39.5 21.2-4.8 42.9 8 48.7 28.9 3.7 13.1 1 25.1-6.6 36-10.3 14.7-20.8 29.4-31.1 44-2.1 3.3-4.3 6.4-6.7 9.8zm4.8-45.9c15.5.8 33.2-12.3 33-32.9-.1-18.5-14.6-32.9-33.3-32.8-18.8.1-33.2 14.5-33 33.1.2 21.5 18.3 33.4 33.3 32.6zm-128.1 49.5c6.3 2.9 12.2 5.9 18.3 8.5 26.1 11.1 53.4 15 81.5 12.8 16.7-1.3 32.8-5.4 48.3-11.6 1.1-.4 2.2-.9 3.3-1.1h.1c2.5-.4 3.9 2.8 2 4.5-.6.6-1.3 1.1-2 1.6-13.3 9.1-28.1 14.5-43.7 17.5-22.8 4.4-45.4 2.9-67.4-4.8-14.1-4.9-27.1-11.9-38.5-21.6-1.7-1.5-3.3-2.9-1.9-5.8z"/><path class="st0" d="M957 445.7c.6-1.9 1-3.3 1.5-4.8 1.3-4.3 2.9-8.5 4-12.8 1.3-5-.2-7-5.3-7.1-5-.1-9.9.3-14.9.5-.9 0-1.9.1-4.1.2 1.3-1.7 4.8-3.9 5.8-4.4 3.4-1.7 4-2.1 7.7-2.7 5.3-.9 10.8-1.2 15.9.3 1.6.5 2.8 1.8 3 3.4 1.4 10.1-5.6 25.4-13.6 27.4z"/></svg>