<svg version="1.1" id="Layer_1" xmlns="http://www.w3.org/2000/svg" x="0" y="0" viewBox="0 0 512 209.7" xml:space="preserve"><style>.st0{fill:#fff}</style><path class="st0" d="M436.3 80.7L512 33.5v12.8l-75.7 47.4-75.8-47.4V33.5z"/><path class="st0" d="M436.3 21.5c-17.1 0-32.1 8.6-40.7 21.9.7-.7 1.1-1.1 1.8-1.6 21.3-17.7 52-13.7 68.7 8.6l11.1-7.1c-8.8-12.9-23.9-21.8-40.9-21.8"/><path class="st0" d="M436.3 43.4c-9.3 0-17.5 4.7-22.4 11.5 4-2.9 8.6-4.4 13.5-4.4 8.2 0 15.5 4.2 20.4 11.3l10.6-6.6c-4.6-7.3-12.8-11.8-22.1-11.8m-51.2-19.2C416.3-.4 460.4 6.3 483.9 39l.2.2 11.5-7.1C483 12.8 461.1 0 436.3 0c-24.6 0-46.5 12.6-59.3 32.1 2.3-2.6 5.2-5.7 8.1-7.9M68.9 119.8V74.6h14.8v44.7c0 10.9 9.1 13.5 14.2 13.5 11.1 0 14.8-6.6 14.8-10.4V74.6h14.8v70.2h-8.6l-5.8-8c-4 4.9-10.6 9.3-20.4 9.3-14.1.1-23.8-9.2-23.8-26.3zm168.3-69.9v95h8.4l5.5-8c4 4.9 10.6 9.5 20.4 9.5 13.1 0 24.1-8 24.1-25.7V99c0-17.7-11.1-25.7-24.8-25.7-9.5 0-15.9 4.2-19.3 8.4V49.8l-14.3.1zm30.1 83c-9.1 0-15.7-4.4-15.5-14V99.6c0-7.5 6-13.3 15.7-13.3 6.9 0 13.7 5.1 13.7 13.3v19.7c0 8.7-7 13.6-13.9 13.6zm-85.5-83v31.9c-3.3-4.2-9.7-8.4-19.3-8.4-13.7 0-24.8 8-24.8 25.7v21.7c0 17.7 11.1 25.7 24.1 25.7 9.7 0 16.4-4.7 20.4-9.5l5.5 8h8.4V50h-14.3v-.1zm-29.7 69.7V99.9c0-8.2 6.9-13.3 13.7-13.3 9.7 0 15.7 5.5 15.7 13.3v19.3c.2 9.5-6.4 14-15.5 14-6.8-.3-13.9-5.2-13.9-13.6zm153.5-69.7h14.8v95h-14.8v-95zm-96.1 24.8h14.8v70.2h-14.8z"/><circle class="st0" cx="217" cy="57.8" r="8.4"/><path class="st0" d="M361.2 132.9c-10.2 0-15.1-5.3-15.1-12.6v-5.8h43.8V98.8c0-16.2-11.3-25.7-28.8-25.7-18.2 0-29.9 10.2-29.9 26.1v21.7c0 16.2 11.7 25.7 29.9 25.7 13.5 0 23.5-5.5 27.5-14.8l-10.6-6.6c-3.7 5.1-9.1 7.7-16.8 7.7zM346.1 99c0-7.3 5.1-12.4 14.6-12.4s14.6 5.1 14.6 12.4v4.4h-29l-.2-4.4zM30.8 73.1c-14.4 0-23.7 5.8-27.2 14.4l11.5 7.1c4.9-7.8 9.5-8.2 15.7-8.2 9.1 0 13.1 4.2 13.1 11.1v5.5H31.4C22.3 103 0 106.1 0 125.4 0 139.1 10.4 146 23 146c10 0 17.3-4.7 21.5-9.5l5.8 8h8.6V96.4c-.2-13.3-9.5-23.3-28.1-23.3zm13 49.4c-.2 1.1-.2 2.4-1.6 4.2-2.2 3.1-8 6.2-14.6 6.2-7.1 0-12.2-2.9-12.2-8.6 0-8.4 13.5-10.2 22.1-10.6h6.4l-.1 8.8z"/></svg>