<svg xmlns="http://www.w3.org/2000/svg" viewBox="0 0 1000 285"><path d="M541.8 184.2c0 31-38.5 29.1-38.5 29.1h-38.5v-56h38.5c39.6-.2 38.5 26.9 38.5 26.9M464.7 72h29.4c30.5 1.6 29.3 24.3 29.3 24.3 0 28.2-33.7 28.7-33.7 28.7h-25V72zm70 64s26.4-11.2 26.1-41.1c0 0 4-48.9-60.7-54.8h-71.8V245h82.3s68.8.2 68.8-57.8c0 0 1.6-39.5-44.7-51.2M348.8 0h302.5v285H348.8V0zM193 184.2c0 31-38.5 29.1-38.5 29.1H116v-56h38.5c39.7-.2 38.5 26.9 38.5 26.9M116 72h29.4c30.5 1.6 29.3 24.3 29.3 24.3 0 28.2-33.7 28.7-33.7 28.7h-25V72zm69.9 64s26.4-11.2 26.1-41.1c0 0 4-48.9-60.7-54.8H79.5V245h82.3s68.8.2 68.8-57.8c0 0 1.7-39.5-44.7-51.2M0 0h302.5v285H0V0zm938.3 54.8v37.8s-36.9-22.7-77.8-23.2c0 0-76.2-1.5-79.6 73 0 0-2.8 68.5 78.7 72.4 0 0 34.2 4.1 80.5-25.4v39.2s-62.2 36.9-134.2 8.5c0 0-60.5-22.1-62.9-94.7 0 0-2.5-74.6 78.2-99.4 0 0 21.6-8.3 60.3-4.6.1.1 23.3 2.4 56.8 16.4M697.5 285H1000V0H697.5v285z" fill="#fff"/></svg>