<svg version="1.1" id="Layer_1" xmlns="http://www.w3.org/2000/svg" x="0" y="0" viewBox="0 0 200 71.8" xml:space="preserve"><style>.st0{fill:#fff}</style><path class="st0" d="M120.4 46.1c-7.6 5.4-16.5 11-26.2 16.9l-.4.2c-.1.1-.2.3-.1.4s.3.2.4.1l.3-.2c8.2-4.3 17.5-9.3 27-14.5.1 0 .1-.1.2-.1-.4-.9-.9-1.8-1.2-2.8zM170 5.9C158.1-7.2 81.5 4.6 48.9 11.7l-.8.2c-.2 0-.3.2-.2.3 0 .2.2.3.3.2l.8-.1c27-4.8 83.2-11.5 95.2.5 3.7 3.7 2.8 8.4-1.5 13.9 2.3 1.5 3.9 3.8 4.7 6.7 16.7-11 27.9-21.6 22.6-27.5z" transform="scale(1.127)"/><path class="st0" d="M125.3 42.6c.2 4.6 3.1 8.4 6.9 8.4 7.4 0 10.5-9.1 10.3-15.1-.2-4.6-3.2-8.4-7-8.4-6.4 0-10.5 9-10.2 15.1zm-3.9-.2c-.3-7.9 5.9-16 14.9-16 6 0 9.9 4 10.1 10.1.3 8.3-5.5 16-14.9 16-6 0-9.9-4-10.1-10.1zm-85.1-2.1c-.3.1-.7.2-1.2.3-.5.1-1.5.3-2.8.5-.9.2-1.6.3-2 .6-.4.3-.6.6-.6 1-.1.4.1.7.4 1 .4.2 1 .4 1.8.4.6 0 1.3-.1 1.9-.3.6-.2 1.1-.5 1.5-.8.3-.2.5-.6.7-1 0-.2.2-.8.3-1.7zm7.8-4.9c0 .7-.2 1.4-.3 2.5l-1.3 7.4c-.1.7.1 1.2.7 1.5v.3h-7.6l-.1-1.9c-1.1.7-2.4 1.2-3.6 1.5-1.2.3-2.2.4-3.6.4-2.4 0-3.8-.2-4.8-1.1-1-.9-1.5-1.5-1.4-2.7 0-.7.4-1.6.9-2.2.5-.6 1.2-1 2-1.4.8-.4 1.7-.6 3-.8 1.3-.2 3.2-.4 5.7-.6 1.3-.1 2.1-.4 2.5-.6.5-.2.7-.4.8-.8.1-.8-.1-1.2-1.1-1.4-2.7-.5-7.8.3-10.5 1l1.4-3.9c3.5-.5 6.7-.8 10.2-.8 5.4.1 7.2 1.6 7.1 3.6zM66 47.1l2.6-14.8h7.2l-2.6 14.8H66zm3.1-18.2c.2-1.2 2.1-2.2 4.3-2.2 2.2 0 3.7 1 3.5 2.2-.2 1.2-2.1 2.2-4.3 2.2-2.2 0-3.8-1-3.5-2.2zm32.5 11.4c-.3.1-.8.2-1.3.3s-1.4.3-2.8.5c-.9.2-1.6.3-1.9.6-.3.2-.6.6-.6 1-.1.4.1.7.4 1 .4.2 1 .4 1.8.4.6 0 1.2-.1 1.9-.3.6-.2 1.1-.5 1.5-.8.3-.2.5-.6.6-1 .1-.2.2-.8.4-1.7zm7.8-4.8c0 .7-.2 1.4-.4 2.5l-1.3 7.4c-.1.7.1 1.2.7 1.5v.3h-7.6l-.1-1.9c-1.1.7-2.4 1.2-3.6 1.5-1.2.3-2.2.5-3.6.5-2.4 0-3.8-.2-4.8-1.1-1-.9-1.5-1.5-1.4-2.7 0-.7.4-1.6.9-2.2.5-.6 1.2-1 2-1.4s1.7-.6 3-.9c1.3-.2 3.2-.4 5.7-.6 1.3-.1 2.1-.4 2.5-.5.5-.2.7-.4.8-.9.1-.8-.1-1.2-1.1-1.4-2.7-.5-7.8.3-10.5 1l1.4-3.9c3.5-.5 6.7-.8 10.2-.8 5.5 0 7.2 1.6 7.2 3.6zm-88.3 6.3c-2.4.5-3.7.7-6 .7-3.5 0-6.2-1.7-6.1-4.9.1-2.1 2.6-6.5 8.9-6.5 2 0 3.5.4 5.6 1.5l.9-5.1c-2.8-1.1-4.7-1.2-7.2-1.2C9 26.4 1.1 30.1.1 37.8c-1 7.8 8.5 9.7 12.7 9.7 2.4 0 5-.1 7.3-.3l1-5.4zm58.8-9.6l.5-3 7.6-1.6-.8 4.7h3.7l-.7 3h-3.6l-2.2 11.9h-7.3l2.2-11.9h-2.7l.6-3 2.7-.1zm40.4-5.5l-3.5 20.4h-7.4l3.7-20.6zm-63.8 9.1c-1 0-1.8.3-2.6.9-.8.6-1.2 1.4-1.4 2.5-.2 1.3-.1 2.2.4 2.8.5.6 1.3.9 2.2.9.7 0 1.3-.1 1.8-.4.6-.3 1-.7 1.4-1.2.4-.6.7-1.2.8-2 .2-1.2 0-2-.5-2.6-.5-.6-1.2-.9-2.1-.9zM43.3 52.2l3.5-19.8h6.4l-.5 2.5c.5-.8 1.4-1.4 2.7-1.9 1.2-.5 2.6-.9 4.1-.9 1.7 0 2.7.1 3.9.7 1.2.7 2.1 1.6 2.6 2.8.5 1.2.6 2.6.3 4-.4 2.5-1.6 4.4-3.6 5.8-1.9 1.4-3.7 1.8-6.2 1.8-.9 0-1.6-.1-2.2-.2-.6-.2-1.1-.3-1.4-.6-.3-.2-.7-.6-1.2-1.1l-1.2 6.8-7.2.1zm131.4-14.6c0-1.2-.6-2-1.9-2-3 0-6.1 5.8-6.7 8.2 4.9 0 8.7-2.9 8.6-6.2zm.6 9.1l.6.4c-1.4 3-4.4 5.3-7.9 5.3-2.8 0-5.2-1.9-5.3-5.4-.2-6.3 5.7-12.2 10.6-12.2 2.1 0 4 .9 4.1 3.2.2 5-6.9 6.6-11.6 6.7-.1.5-.2 1.1-.2 1.9.1 2.1 1.3 3.8 4 3.8 2.3-.1 4.6-1.9 5.7-3.7z" transform="scale(1.127)"/><path class="st0" d="M146.3 37.5c.5-.1 1.3-.2 1.7-.2.5 0 1 .1 1.1.6 0 .3-.6 2.6-.7 3.1l-1.1 5c-.5 2-.9 4.2-1.4 5.9h2.9l1.6-7.9c5-5.2 6.9-6.9 8.1-6.9.5 0 .9.3.9.9 0 .9-.5 3-.7 3.6l-1.7 5.8c-.4 1.3-.7 2.5-.6 3.3.1 1.3.8 1.8 1.9 1.8 2.1 0 3.7-2.2 5-4.4l-.4-.7c-.5.9-1.8 2.8-2.8 2.8-.3 0-.6-.2-.6-.7 0-.7.2-1.7.4-2.3l1.9-6.7c.5-1.9.7-3 .7-3.7-.1-1.3-.8-1.8-1.9-1.8-1.9 0-4.4 1.4-9.8 7.6h-.1l.7-3c.4-1.7.7-3.4 1.1-4.6-1.9.7-4.5 1.4-6.2 1.7v.8z" transform="scale(1.127)"/></svg>