<svg version="1.1" id="Layer_1" xmlns="http://www.w3.org/2000/svg" x="0" y="0" viewBox="0 0 900 420" xml:space="preserve"><style>.st0{fill:#fff}</style><path class="st0" d="M850 0v338.3c0 11.3-6.1 21.8-15.9 27.4-7.3 4.2-15.9 5.3-24.1 3.2-8.2-2.2-15-7.4-19.2-14.8l-159-278.2c-2.1-3.6-5.9-5.8-10.1-5.8-3.1 0-6 1.2-8.3 3.4-2.2 2.2-3.4 5.1-3.4 8.3v256.6c0 11.3-6.1 21.8-15.9 27.4-7.3 4.2-15.9 5.3-24.1 3.2-8.2-2.2-15-7.4-19.2-14.8L391.8 76c-2.1-3.6-5.9-5.8-10.1-5.8-3.1 0-6 1.2-8.3 3.4-2.2 2.2-3.4 5.1-3.4 8.3v256.6c0 17.5-14.2 31.7-31.7 31.7H210c-88.2 0-160-71.8-160-160s71.8-160 160-160h70V0h-70C94 0 0 94 0 210s94 210 210 210h128.3c45.1 0 81.7-36.6 81.7-81.7V225.9l87.4 152.9c14.5 25.4 41.5 41.1 70.8 41.1 45.1.1 81.7-36.5 81.8-81.6V225.9l87.4 152.9c14.5 25.4 41.5 41.1 70.8 41.1 45.1.1 81.7-36.5 81.8-81.6V0h-50z"/><path class="st0" d="M70 210c0 77.2 62.8 140 140 140h128.3c6.5 0 11.7-5.2 11.7-11.7V81.7c0-8.5 3.3-16.4 9.3-22.4 6-6 13.9-9.2 22.4-9.2h.1c11.3 0 21.8 6.1 27.4 15.9l159 278.2c1.5 2.7 4.1 4.6 7.1 5.4 3 .8 6.2.4 8.9-1.2 3.6-2.1 5.8-6 5.9-10.1V81.7c0-8.5 3.3-16.4 9.3-22.4 6-6 13.9-9.2 22.4-9.2h.1c11.3 0 21.8 6.1 27.4 15.9l159 278.2c1.5 2.7 4.1 4.6 7.1 5.4 3 .8 6.2.4 8.9-1.2 3.6-2.1 5.8-6 5.9-10.1V0h-50v194.1L692.6 41.2A81.504 81.504 0 00621.8.1C576.7 0 540.1 36.6 540 81.7v112.4L452.6 41.2A81.504 81.504 0 00381.8.1C336.7 0 300.1 36.6 300 81.7v206.6c0 6.5-5.2 11.7-11.7 11.7H210c-49.7 0-90-40.3-90-90s40.3-90 90-90h70V70h-70c-77.2 0-140 62.8-140 140z"/></svg>