<svg version="1.1" id="layer" xmlns="http://www.w3.org/2000/svg" x="0" y="0" viewBox="0 0 652 652" xml:space="preserve"><style>.st0{fill:#fff}</style><g id="Layer_2_1_"><g id="Layer_1-2"><path class="st0" d="M142.1 402.3h-16.3V305h16.3v11.9c5.8-8.3 15.5-13 26.8-13 1.9 0 3.9.1 5.8.4l1.2.2v17.4l-1.7-.4c-2.9-.6-5.8-.9-8.7-.9-13.7 0-23.3 10.1-23.3 24.6l-.1 57.1zm189.5-.2c16.1 0 27.7-5 37.7-16.2l.9-1-10.4-10.8-1 1c-7.4 7.8-14.2 12.4-27.1 12.4-18.1 0-30-11.7-31.2-30.5H374l.1-1.3c.2-2.7.2-5.7.2-5.8 0-13.3-4.1-25.4-11.6-34.2-7.9-9.3-18.7-14.2-31.3-14.2-27.9 0-47.3 21.2-47.3 51.6v.7c-.1 28.9 19 48.3 47.5 48.3zm-30.2-59.5c1.6-14.2 14.7-25.6 29.9-25.6 14.1 0 25.6 11.3 26.3 25.6h-56.2zm-109.6-37.7h16.3v97.4h-16.3zm72.3 98.5c-5 0-12.4-.5-18.2-5-6.4-4.8-9.6-13.3-9.6-25.1v-91h16.3v22.5h21.2v15.4h-21.2v53.1c0 12.3 4.3 14.7 11.3 14.7 2.8.1 5.6-.1 8.3-.5l1.6-.3v15l-1 .3c-2.8.7-5.8 1-8.7.9zm170.4 0c13.2.1 25.9-5.1 35.2-14.4 9.6-9.7 14.8-22.9 14.7-36.5.2-13.6-5.1-26.8-14.7-36.5-19.5-19.2-50.9-19.2-70.4 0-9.6 9.7-14.8 22.9-14.6 36.5-.2 13.7 5.1 26.8 14.7 36.6 9.2 9.3 21.9 14.4 35.1 14.3zm0-86.4c9.1-.1 17.8 3.6 24 10.1 6.1 6.5 9.5 15.5 9.5 25.4s-3.4 18.9-9.5 25.4c-12.9 13.2-34.1 13.5-47.4.6l-.6-.6c-6.1-6.5-9.5-15.5-9.5-25.4s3.4-18.9 9.5-25.4c6.2-6.5 14.9-10.2 24-10.1zM71 403.4c-13.3.1-26-5.1-35.5-14.4-9.6-9.7-14.9-22.8-14.7-36.5-.2-13.6 5.1-26.8 14.7-36.5 9.4-9.3 22.2-14.5 35.5-14.4 14.2 0 26.6 5 35.7 14.4l.9.9-10 11.9-1-1.1C90 320.7 81.2 317 71 317c-9.1-.1-17.9 3.6-24.2 10.1-6.2 6.5-9.6 15.5-9.6 25.4s3.4 18.9 9.6 25.4c6.3 6.6 15.1 10.2 24.2 10.1 10.1 0 18.9-3.7 25.5-10.6l1-1.1 10 11.8-.9.9c-9 9.5-21.3 14.4-35.6 14.4zm128.9-138.8c-6.9.1-12.6-5.5-12.7-12.5-.1-6.9 5.5-12.6 12.5-12.7 6.9-.1 12.6 5.5 12.7 12.5v.1c0 7-5.6 12.6-12.5 12.6zm408.5 138.8c-6.9.1-12.6-5.5-12.7-12.5-.1-6.9 5.5-12.6 12.5-12.7 6.9-.1 12.6 5.5 12.7 12.5v.1c0 7-5.6 12.6-12.5 12.6z"/><path class="st0" d="M572.8 384.9h-33.2c-8.6 0-15.5-7-15.5-15.6v-97.8c0-14.1-11.4-25.4-25.4-25.4h-263v11.3h261.5c8.6 0 15.5 7 15.5 15.5v97.8c0 14.1 11.4 25.5 25.4 25.5h34.6l.1-11.3z"/></g></g></svg>