<svg xmlns="http://www.w3.org/2000/svg" viewBox="0 0 157 34"><path d="M48.6 21c.1-.2.3-.5.3-.7l4.1-9.9 4 10c.1.2.2.4.3.7l-.5.1c-1.1.3-2.4.5-3.7.5-1.3 0-2.5-.2-3.8-.5-.2-.1-.6-.2-.7-.2M7.1 6c4.5 0 7.7.9 9.7 2.7 2.4 2.1 3.6 4.9 3.6 8.3 0 3.3-1.2 6-3.5 8.2-2 1.9-5.3 2.9-9.9 2.9H5.7V6h1.4zm140.2 2.8c2.3 2.2 3.4 5 3.4 8.2 0 3.2-1.1 5.9-3.4 8.2-2.2 2.2-4.9 3.4-8.1 3.4-6.4 0-11.5-5.2-11.5-11.6 0-3.2 1.1-6 3.4-8.2 2.2-2.2 4.9-3.3 8.1-3.3s5.9 1.1 8.1 3.3zm-53.7 1.9l4-3.5C94.1 2.6 89.5.3 84 .3c-9.3 0-16.8 7.4-16.8 16.8 0 9.1 7.5 16.6 16.6 16.6 2.3 0 4.5-.5 6.6-1.5 2.1-.9 3.9-2.2 5.3-3.9 1.4-1.6 2.3-3.4 2.8-5.3.4-1.6.7-3.6.6-6l-.1-1H84.5v5h8.9c-.2 2-1.3 3.7-3.1 5.2-2 1.6-4.2 2.4-6.7 2.4-2.9 0-5.5-1.2-7.9-3.6-2.2-2.2-3.3-4.8-3.3-7.9 0-3.2 1.1-6 3.5-8.4 2.2-2.2 4.9-3.3 7.9-3.3 4.1 0 7.2 1.8 9.8 5.3zM59.3 26.1l3 7.1h5.9L54.4.7h-2.7L37.6 33.2h5.8l3.1-7.2c.1-.2.1-.3.1-.5.1.1.3.1.6.2 1.7.7 3.8 1 5.8 1s4-.4 5.1-.8c.6-.2.8-.3 1-.4.1.2.2.5.2.6zM7 33.2c5.9 0 10.5-1.3 13.6-4.1C24.1 26 25.9 22 25.9 17c0-5.1-1.8-9.2-5.4-12.3C17.5 2.1 13 .8 7.1.8h-7v32.4H7zM35.5.8h-5.3v32.4h5.3V.8zM108 18.1h11.3V13H108V6h12.3V.8h-17.6v32.4h17.7v-5.1H108v-10zm19.4-12.9c-3.3 3.2-4.9 7.2-4.9 11.8 0 9.3 7.5 16.7 16.8 16.7s16.8-7.3 16.8-16.7c0-4.6-1.7-8.5-4.9-11.8-3.3-3.3-7.2-4.9-11.9-4.9s-8.6 1.6-11.9 4.9z" fill="#fff"/></svg>