<svg version="1.1" id="Layer_5" xmlns="http://www.w3.org/2000/svg" x="0" y="0" viewBox="0 0 850.4 141.7" xml:space="preserve"><style>.st0{fill:#fff}</style><path class="st0" d="M18.7 29.2v-.6c.4-.3.3-.6 0-.9-.8-8.1 4-13.4 8.5-15.3 4.5-1.8 8.9-1.4 13.1 1 16.4 9.4 32.9 18.8 49.3 28.3 7.5 4.3 15.1 8.7 22.6 13-.6.1-1.1-.1-1.7-.3-3.6-.7-7.2-.7-10.4 1.1C95 58.3 90 61.3 84.9 64c-2.3 1.2-4.4 2.8-6.9 3.7C68 62 58.1 56.3 48.1 50.6c-.4-.2-.8-.7-1.4-.4-.2-.6-.8-.8-1.3-1.1-5.8-3.4-11.7-6.8-17.6-10-3.9-2.2-7.2-4.8-8.6-9.3 0-.4-.1-.6-.5-.6z"/><path class="st0" d="M78 67.7c2.5-.9 4.6-2.4 6.9-3.7 5.1-2.8 10.2-5.7 15.3-8.5 3.3-1.8 6.9-1.8 10.4-1.1.5.1 1.1.3 1.7.3.2.1.3.2.5.3 4.6 2 7.2 5.5 8.1 10.3 1 5.4-.8 10.1-5.2 13.4-3.9 2.9-8.3 4.9-12.6 7.4-18.9 10.9-37.9 21.8-56.8 32.7-1 .6-1.9 1.3-3.1 1.6 3.2-4 4.1-8.6 3.5-13.6 0-.7.1-1.4.1-2.1 0-6.5.1-13 .1-19.5.3-.1.7-.2 1-.4 5.3-3 10.6-5.9 15.9-8.9 4.6-2.7 9.5-5.2 14.2-8.2z"/><path class="st0" d="M46.7 85.1c0 6.5 0 13-.1 19.5 0 .7-.1 1.4-.1 2.1-1.2-1.3-1.5-3-2.5-4.5-4.7-6.7-15.1-7.7-20.9-2.1-2.2 2.1-3.4 4.7-4.4 7.4 0-.4-.1-.7-.1-1.1V29c.4 0 .5.2.6.6 1.3 4.5 4.6 7.1 8.6 9.3 5.9 3.2 11.7 6.7 17.6 10 .5.3 1 .5 1.3 1.1v35.1zM169.1 70V42.9c0-1.3.3-1.6 1.6-1.6 6.5.2 13-.2 19.5.2 14.4.9 25.1 12.1 25.5 26.6.2 6.1-.5 12-3.7 17.3-4.5 7.7-11.4 12-20.1 13-7.2.9-14.5.2-21.8.4-1.2 0-.9-.8-.9-1.4-.1-9.2-.1-18.3-.1-27.4zm7.4.1v20.3c0 .7-.1 1.3 1 1.3 4.4-.1 8.7.2 13.1-.3 6.5-.8 11.7-3.8 15-9.7 2.3-4.1 2.7-8.6 2.6-13.3-.4-10.8-6.6-18-17.3-19.6-4.2-.7-8.5-.2-12.7-.4-1.2 0-1.6.3-1.5 1.5-.2 6.8-.2 13.5-.2 20.2zm248.7 9.7c.2-6.8 3.2-12.2 8.7-16.1 1.1-.8 1.1-1.2.3-2.2-3.3-4.4-4.5-9.2-1.6-14.3 2.9-5.2 7.6-7.5 13.5-7.1 5.5.4 9.1 3.5 11.3 8.5.4.9.4 1.4-.6 1.9-1.6.7-3.1 1.6-4.6 2.4-.5.3-.8.2-1-.3-.3-.7-.7-1.5-1.1-2.2-1.9-3.1-5-4-8.1-2.5-2.8 1.3-4 4.4-3 7.7.3 1.1.9 2.1 1.6 3 6 7.8 12 15.6 17.9 23.5.8 1.1 1.2 1 1.8-.1 1.2-2.1 2.5-4.1 3.7-6.2.5-.8.8-1 1.6-.4 1.2.8 2.5 1.6 3.8 2.3.9.5 1 .9.4 1.8-1.8 2.7-3.5 5.6-5.3 8.3-.6.9-.6 1.5.1 2.4 1.4 1.7 2.6 3.4 3.9 5.1.5.6.5 1-.2 1.5-1.4 1-2.7 2-4.1 3.1-.7.6-1 .3-1.4-.3-.7-1-1.6-2-2.3-3.1-.6-1-1.1-1.2-2.2-.3-11.1 8.8-28.3 3.3-32.3-10.3-.5-2.2-.8-4.1-.8-6.1zm20.9 13.4c3.5 0 6.1-1 8.4-2.9.7-.6.8-1.1.2-1.9-4.9-6.5-9.9-13-14.8-19.5-.5-.6-.8-.7-1.5-.3-2.6 1.7-4.5 4-5.6 6.9-3 8.8 3.7 17.7 13.3 17.7zm385.7-21.9c0 7.1-1.5 13.8-5.5 19.8-7.9 11.9-25.1 12-33.1.1-3.5-5.2-5.2-11-5.5-17.2-.4-7.6.7-14.8 4.8-21.4 6-9.7 15.9-12 24.6-8.6 6.5 2.5 10.2 7.9 12.6 14.2 1.5 4.2 2.1 8.6 2.1 13.1zm-7.7 2.8c0-8.5-1-13.9-4.3-18.7-3.1-4.6-7.8-6.5-13-5.3-4.1 1-6.7 3.8-8.5 7.4-3.2 6.2-3.5 12.7-2.6 19.5.6 4.2 2 8 4.6 11.4 5 6.2 13.8 6.2 18.8 0 3.9-5 5-10.9 5-14.3zm-237.5-9.7c-.4-7.1-.1-14.2-.3-21.4 0-1.4.4-1.9 1.8-1.8 1.5.1 3.1.1 4.6 0 .8 0 1.2.2 1.1 1.1V97c0 1.4-.4 1.8-1.7 1.7-1.4-.1-2.9-.1-4.3 0-1 .1-1.2-.3-1.2-1.2.1-1.3 0-2.6 0-3.9-.2.1-.4.1-.5.1-5.3 7.6-17.8 8.5-25.1 1.7-9.8-9-9-26.2 1.7-34.1 7.1-5.2 18.2-4 23.1 2.8.1.2.1.4.2.6.3-.1.4-.2.6-.3zm-.1 14.8c.1-1.9-.2-3.9-1-5.9-1.9-4.5-5-7.6-10-8.2-5.3-.6-9.4 1.6-11.9 6.2-2.8 5.1-2.8 10.5 0 15.6 4.7 8.3 15.8 8.5 20.8.4 1.6-2.4 2.2-5.1 2.1-8.1zM279.6 93.5c.4 7.1.2 13.9.3 20.8 0 1.4-.4 1.9-1.8 1.8s-2.8-.1-4.1 0c-1.4.1-1.7-.4-1.6-1.7.1-.8 0-1.5 0-2.3V61.2c0-1.5.4-2 1.9-1.8 1.3.1 2.7.1 4 0 1-.1 1.4.2 1.3 1.3-.1 1.3 0 2.7 0 4h.4c7.8-9.3 20.8-8.6 28 1.5 6.6 9.3 4.9 22.6-3.7 30-6.9 5.9-19 5.1-24.1-2.4-.2 0-.3-.1-.6-.3zm24.8-14.3c0-1.5-.1-3-.5-4.4-1.5-5.7-6.1-9.6-11.5-9.7-6-.1-10.6 3.4-12.3 9.3-1 3.4-.9 6.9.2 10.3 1.6 4.9 5.8 8.2 10.4 8.5 5.4.3 9.8-2.2 12.1-7 1.2-2.2 1.7-4.6 1.6-7zm208.2 8.6c1.5-4.1 2.9-8.2 4.3-12.3 3.8-10.9 7.7-21.8 11.4-32.7.4-1.1 1-1.5 2.1-1.4 1.6.1 3.2 0 4.8 0 1.9 0 1.9 0 1.3 1.8-5.1 14.1-10.3 28.3-15.4 42.4-1.5 4-3 8.1-4.4 12.1-.3.9-.7 1.2-1.6 1.1-1.7-.1-3.4-.1-5.1 0-1.2.1-1.7-.4-2-1.5-5.9-17-11.9-33.9-17.8-50.8-.5-1.4-.9-2.7-1.5-4-.3-.8-.2-1.2.8-1.2 1.9.1 3.9.1 5.8 0 1 0 1.4.3 1.7 1.3 2.6 7.8 5.2 15.6 7.9 23.4 2.3 6.7 4.5 13.5 6.8 20.2.2.5.2 1.2.9 1.6zm218.8-18c3.1 1.4 5.6 3.3 7.3 6 3.9 6.3 2.3 14.6-3.7 19.8-8.7 7.5-25.1 6.1-30.4-7.8-.4-1.1-.4-1.7.9-2.1 1.3-.4 2.5-.9 3.7-1.5 1.3-.7 1.9-.6 2.5 1 1.4 4 4.2 6.8 8.5 7.6 3.8.6 7.2-.2 10.1-2.9 4.9-4.5 3.4-12-2.9-15.1-2.7-1.3-5.6-1.3-8.4-1.2-1.5.1-2-.3-1.8-1.8.2-1.7-.7-3.9.4-4.8.9-.8 3.1-.3 4.7-.4 4.9-.2 8.7-3.4 9.1-7.6.4-5.2-3-8.9-8.3-9.1-5.2-.2-8.1 1.5-10.2 6.1-.3.7-.6.9-1.3.6-1.7-.8-3.5-1.5-5.2-2.2-.7-.3-.8-.6-.5-1.3 2.8-6.1 7.5-9.7 14.3-10.3 5.5-.5 10.5.9 14.7 4.8 5.7 5.2 6.3 16.7-2 21.5-.6.1-.9.3-1.5.7zm28.8-4.8c8.9-3.3 16.5 1.3 20.6 8.1 4.1 6.8 2.6 16-3.4 21.7-10.4 9.8-27.2 5.6-31.2-7.8-1.5-5-.6-9.8 1.5-14.5 1-2.3 2.2-4.5 3.6-6.6 4.9-7.3 9.8-14.6 14.6-22 .7-1 1.1-1.1 2.1-.4 1.2 1 2.5 1.8 3.8 2.6.9.6.8 1 .3 1.8-4 5.4-7.9 10.9-11.8 16.3-.1.2-.3.4-.4.7 0 .1 0 .3-.1.4.1-.2.3-.3.4-.3zm4.1 27.9c6.3 0 11.1-4.8 11.1-11 0-6.3-4.9-11.2-11.2-11.2s-11.3 4.9-11.3 11.1c.1 6.4 4.9 11.1 11.4 11.1zM622.2 80.5h-14.1c-1.1 0-1.3.3-1.2 1.3.5 5.2 4.1 9.5 9 10.9 5.2 1.5 10.2-.2 13.3-4.8 1-1.5 1.8-1.7 3.2-.8 1.1.7 2.4 1.2 3.6 1.7 1 .4 1 .8.5 1.7-3.3 5.3-8.1 8.4-14.3 9.3-11.1 1.6-20.6-5-22.6-16-1.6-8.6.3-16.4 7.5-22.1 11.4-8.9 28-2.1 30.2 12.3.2 1.6.3 3.2.4 4.7.1 1.3-.2 1.8-1.7 1.7-4.6.1-9.2.1-13.8.1zm-3.8-6.1h8.1c3.7 0 4-.4 2.2-3.9-2.1-4.1-6.6-6.1-12.1-5.4-4.2.5-8.1 4.2-9.1 8.4-.2.9.2.9.8.9h10.1zM357.3 93.7c-2.7 3.1-5.5 5.5-9.5 6.1-6.2 1-11.8-.4-15.8-5.6-5.6-7.3-1.8-17.4 7.5-20 5.6-1.5 11.3-1.4 16.7.9.9.4 1.1.2 1.1-.8.2-7-7.8-11.8-15.2-8.4-1.7.8-3 1.9-4.1 3.4-.5.7-.9.7-1.5.2-1.5-1-3.1-2-4.7-3-.9-.5-.9-.9-.3-1.6 3.6-4.5 8.3-6.5 13.9-6.7 2.5-.1 5 .1 7.5.7 7.1 1.9 11.5 7.5 11.5 14.8.1 7.9 0 15.8 0 23.7 0 1.2-.4 1.5-1.5 1.4-1.4-.1-2.9-.1-4.3 0-1 .1-1.5-.2-1.4-1.3.2-1.3.1-2.6.1-3.8zm-9.7-14.4c-2.9 0-5 .5-7 1.9-2.2 1.5-3.6 3.4-3.3 6.2.3 2.7 2 4.3 4.3 5.3 6.4 2.8 15.2-2.5 15.7-9.5.1-1-.3-1.5-1.1-2-2.5-1.4-5.3-1.9-8.6-1.9zM661.3 100c-11.8 0-20.2-8.6-20.3-20.8 0-12.5 8.4-21 20.7-21.1 11.1 0 20.1 9.1 19.8 21.3-.2 12-8.6 20.6-20.2 20.6zM674 79.2c0-1.4-.1-2.7-.4-4-2.1-9.7-13.5-13.5-20.8-6.9-4 3.7-4.8 8.4-4.2 13.5 1.1 8.6 9.7 13.8 17.5 10.4 5.6-2.4 7.8-7.1 7.9-13zm-422.4 20.9c-7.2-.1-12.6-3.2-16.2-9.5-.7-1.3-.6-2 .9-2.4 1.3-.4 2.5-.9 3.7-1.6 1-.5 1.5-.4 2.1.7 2.8 5.5 8.5 7.6 14 5.4 1.1-.4 2-1 2.8-1.9 1.4-1.6 1.2-4-.5-5.6-1.3-1.3-3-1.9-4.8-2.4-3.4-.9-6.8-1.5-10-2.8-3.4-1.4-6.2-3.4-7.3-7.2-1.4-5.1.7-10 5.9-12.5 7.1-3.4 14.1-3.1 20.6 1.6 1.5 1.1 2.6 2.6 3.5 4.2.5.8.6 1.3-.5 1.7-1.5.5-3.1 1.2-4.5 1.8-.8.3-1.1.2-1.6-.5-3-4.4-9.4-5.7-13.8-2.9-3.2 2-3.1 5.2.2 7 2.5 1.4 5.3 1.7 8.1 2.4 2.7.7 5.3 1.4 7.8 2.8 7 3.9 7.4 13.5 1.1 18.1-3.5 2.6-7.3 3.7-11.5 3.6zM372.5 116c-.1-.8.3-1.3.6-1.8 2.6-5.6 5.1-11.2 7.7-16.7.4-.9.4-1.7 0-2.6-5-11.2-9.9-22.5-14.9-33.7-.2-.5-.5-1.1-.7-1.8h7.2c1 0 1.1.7 1.4 1.4 3.4 8.2 6.8 16.3 10.2 24.5.3.7.6 1.4 1 2.4 1.4-3.5 2.8-6.8 4.1-10.1 2.3-5.6 4.6-11.3 6.8-17 .3-.8.7-1.2 1.7-1.2 2.2.1 4.5 0 6.9 0-1.1 2.5-2.1 4.9-3.1 7.2-7 16-13.9 32-20.9 48-.4 1-1 1.5-2.1 1.4h-5.9z"/><path class="st0" d="M18.7 107.7c1-2.7 2.2-5.3 4.4-7.4 5.9-5.6 16.3-4.6 20.9 2.1 1 1.4 1.3 3.2 2.5 4.5.7 5-.2 9.6-3.5 13.6-3.3 2.9-7.1 4.6-11.6 4.3-6.8-.5-12.7-6.6-12.8-13.4.1-1.4.1-2.5.1-3.7zM317 70V42.9c0-1.3.3-1.7 1.6-1.6 1.6.1 3.2.1 4.8 0 .9 0 1.2.3 1.1 1.2v54.6c0 1.4-.3 1.9-1.8 1.8-1.4-.1-2.9-.1-4.3 0-1.2.1-1.5-.3-1.5-1.4V72.6c.1-1 .1-1.8.1-2.6zm-87.2 9.2v18c0 1.3-.4 1.7-1.6 1.6-1.6-.1-3.2-.1-4.8 0-.8 0-1-.2-1-1V60.6c0-.9.3-1.2 1.1-1.1 1.6.1 3.3.1 4.9 0 1.1-.1 1.4.3 1.4 1.4-.1 6 0 12.2 0 18.3zm311.7-.2V60.7c0-1.1.3-1.4 1.4-1.4 1.6.1 3.2.1 4.8 0 1-.1 1.3.3 1.3 1.3v36.6c0 1.3-.4 1.6-1.6 1.5-1.5-.1-3.1-.1-4.6 0-1 .1-1.3-.3-1.3-1.3V79zm3.6-27.9c-3.1 0-5.1-2.2-5.1-5.3 0-2.9 2.2-5.1 5.1-5.1 3 0 5.2 2.3 5.2 5.2.1 3-2.1 5.2-5.2 5.2zm-319.1 0c-3.1 0-5.2-2.1-5.1-5.2 0-3 2.2-5.1 5.1-5.2 3 0 5.3 2.2 5.3 5.2-.1 3-2.3 5.2-5.3 5.2zM18.7 27.7c.3.3.4.6 0 .9v-.9zm94 27.3c-.2-.1-.3-.2-.5-.3.2.1.4.2.5.3zm647.5 10c-.1 0-.3.1-.4.1 0-.1 0-.3.1-.4l.3.3z"/></svg>