<svg version="1.1" id="Layer_1" xmlns="http://www.w3.org/2000/svg" x="0" y="0" viewBox="0 0 300 120.3" xml:space="preserve"><style>.st0{fill:#fff}</style><path id="e" class="st0" d="M38.9 26.3c-21.1 0-38.8 9-38.8 36 0 21.4 11.8 34.9 39.3 34.9C71.7 97.3 73.8 76 73.8 76H58.1s-3.4 11.5-19.7 11.5c-13.3 0-22.9-9-22.9-21.6h59.9V58c0-12.5-7.9-31.7-36.5-31.7zm-.6 10.1c12.7 0 21.3 7.8 21.3 19.4H15.9c0-12.3 11.3-19.4 22.4-19.4z"/><path id="b" class="st0" d="M75.4.1v83.6c0 4.7-.3 11.4-.3 11.4H90s.5-4.8.5-9.2c0 0 7.4 11.5 27.5 11.5 21.1 0 35.5-14.7 35.5-35.7 0-19.6-13.2-35.3-35.5-35.3-20.9 0-27.3 11.3-27.3 11.3V.1H75.4zm38.8 36.8c14.4 0 23.5 10.7 23.5 24.9 0 15.3-10.5 25.4-23.4 25.4-15.3 0-23.6-12-23.6-25.2 0-12.4 7.4-25.1 23.5-25.1z"/><path id="a" class="st0" d="M190.6 26.3c-31.8 0-33.9 17.4-33.9 20.2h15.8s.8-10.2 16.9-10.2c10.5 0 18.6 4.8 18.6 14v3.3h-18.6c-24.6 0-37.7 7.2-37.7 21.8 0 14.4 12 22.2 28.3 22.2 22.2 0 29.3-12.3 29.3-12.3 0 4.9.4 9.7.4 9.7H224s-.5-6-.5-9.8V52.4c-.1-21.5-17.5-26.1-32.9-26.1zm17.5 37.1v4.4c0 5.7-3.5 19.9-24.2 19.9-11.3 0-16.2-5.7-16.2-12.2 0-12 16.4-12.1 40.4-12.1z"/><path id="y" class="st0" d="M214.9 29h17.8l25.6 51.2L283.8 29h16.1l-46.5 91.2h-16.9l13.4-25.4-35-65.8z"/></svg>