<svg xmlns="http://www.w3.org/2000/svg" viewBox="0 0 652 652"><path d="M497.6 383.2c-32 0-49.4-20.1-49.4-63.6 0-43.7 21-59.7 49-59.7 33.1 0 40.3 22.6 41.5 38.1h-16.1c-1.3-10.9-6.8-24-25.1-24-19.5 0-33 12-33 45.4 0 35 13.1 49.9 33.1 49.9 18.4 0 23.7-11.7 25.1-25.6h15.9c-1.2 19.6-10.5 39.5-41 39.5m-68.6-2.9l-54.3-95.2v95.2h-15.1V262.2h20.2l48.9 85.7v-85.7h14.8v118.1m-165.7 0V262.2h76.3v13.9h-60.7v35h58.2v14.3h-58.2v40.9h60.7v13.9m-210.3 3c-34.2 0-44.1-18.4-44.6-37.8h16.3c.5 16 8.2 24.2 28.9 24.2 14 0 23.9-7.4 23.9-21 0-13.9-13.1-17.4-27.8-20.8-18.9-4.4-40.9-9.5-40.9-36 0-22.4 19.8-31.8 39.8-31.8 34.1 0 39.6 19 40.3 30.3h-16.1c-.6-6-5.6-16.6-24.4-16.6-11.8 0-23.2 5.7-23.2 17 0 16 15.3 18.3 31.5 22.3 18 4.4 37 10 37 35.1.2 23.8-18.5 35.1-40.7 35.1m-123.7-2.9V262.2h76.4v13.9H35.8v35H94v14.3H35.8v40.9h60.7v13.9m447.2.1V262.2H620v13.9h-60.7v35h58.2v14.3h-58.2v40.9H620v13.9m-387.6 3c-34.2 0-44.1-18.4-44.6-37.8h16.3c.5 16 8.2 24.2 28.9 24.2 14 0 23.9-7.4 23.9-21 0-13.9-13.1-17.4-27.8-20.8-18.9-4.4-40.9-9.5-40.9-36 0-22.4 19.8-31.8 39.8-31.8 34.1 0 39.6 19 40.3 30.3h-16.1c-.6-6-5.6-16.6-24.4-16.6-11.8 0-23.2 5.7-23.2 17 0 16 15.3 18.3 31.5 22.3 18 4.4 37 10 37 35.1.2 23.8-18.5 35.1-40.7 35.1" fill="#fff"/></svg>