<svg xmlns="http://www.w3.org/2000/svg" viewBox="0 0 1368 747"><path d="M363.2 497.4v-26.6 46.3c-.1-6.6 0-13.1 0-19.7zm-192-25.8zm201.4-125.7c9-15.4 14-32.1 15.6-50 1.1-12.3.4-24.4-2.3-36.4-4.1-18.7-12.2-35.5-24.3-50.5-16.9-20.9-38.5-34.5-64.4-41.4-12.5-3.4-25.3-4.1-36.3-3.7h-17.7c-3.8 0-7.2 1.2-10.2 3.3-6.6 4.7-9.4 13.3-6.8 21 2.3 7 9.4 12.8 17.7 12.6 8.6-.2 17.2-.1 25.9 0s17.1 1.8 25.3 4.7c10.5 3.7 19.9 9.2 28.2 16.6 17.7 15.9 27.1 35.9 28.5 59.5.8 12.7-1.6 24.9-6.6 36.5-8.1 18.9-21.6 33.1-39.9 42.6-12.2 6.3-25.4 8.9-39 9.2-8 .2-16 0-24 0-10.1 0-18.6 10.8-16.8 21.1 1.8 10.2 9.6 15.7 19 15.7 10.7 0 21.5-.2 32.2-.6 13.9-.5 27.1-4.4 39.7-9.9 10.5-4.5 20-10.7 28.8-18 11.2-8.9 20.2-19.9 27.4-32.3zm156.7 59.6c9-4 13.2-13.7 9.9-23.1-.6-1.8-1.4-3.5-2.2-5.2-7.4-16-14.9-31.9-22.4-47.9-11.7-25-23.3-50-35-75.1-6-12.8-11.8-25.6-17.8-38.4-6.6-14-13.1-28.1-19.8-42-3.7-7.6-12.3-11.2-20.6-9.2s-14 9.3-14.5 17.8c.7 2.5 1.1 5.1 2.1 7.5 7.2 15.8 14.5 31.5 21.8 47.3 6.2 13.2 12.4 26.4 18.6 39.7 10.3 22 20.5 43.9 30.7 65.9 5.4 11.7 10.8 23.4 16.2 35 3.1 6.6 6 13.2 9.4 19.6 4.8 8.7 14.9 12 23.6 8.1zm-321.2-17.8V241.1v146.6zm-35.2 8.2c2.9 7.7 12.1 12.4 20.2 10.6 9.4-2.1 15-9 15-18.8V182.2c0-10.5-8.9-18.8-19.2-18.3-10.1.5-17.6 8.6-17.6 19.2 0 68.2 0 136.5.1 204.7-.1 2.8.6 5.6 1.5 8.1zm454.4-200.5c1.9-4.1 4.2-8 3.8-12.5 0-9.3-5.5-16.4-14.2-18.4-8.3-1.9-16.9 2.2-20.6 9.9-5.6 11.7-11.1 23.5-16.5 35.3-9.8 20.9-19.5 41.9-29.3 62.8-5.7 12.2-11.5 24.4-17.1 36.7-1.4 3.1-2.7 6.7-2.6 10 .1 7.2 3.5 13 10.2 16.3 6.5 3.2 12.8 2.6 18.8-1.3 3.1-2 4.9-4.8 6.4-8.1 12.3-26.4 24.6-52.7 36.9-79.1 8.1-17.2 16.2-34.4 24.2-51.6zM193.2 466.2c-5.5-.1-11 0-16.5 0-4.7 0-5.5.7-5.5 5.4V529c0 5 .7 5.7 5.5 5.7 5.5 0 11 .1 16.5 0 14.8-.3 22.4-8.5 23.7-22.3.8-7.9.8-16 0-23.9-1.2-13.3-8.4-22-23.7-22.3zm17 47c0 .2-.1.5-.1.7-2.1 9.8-7.5 14.3-17.6 14.4-3.7.1-7.5.1-11.2 0-2.9-.1-3.2-.3-3.2-3.2-.1-8.2 0-16.5 0-24.7v-24.3c0-3.5.2-3.7 3.6-3.7 5.5.1 11 .1 16.4.8 5.3.6 8.9 4 10.5 9 1.2 3.8 2.2 7.7 2.3 11.7.1 6.4-.5 12.9-.7 19.3zm128.1-28.3c-5.6-.3-10.6 1.1-15.3 5.6V479c0-3.5 0-7-.1-10.5 0-1.7-.8-2.9-2.6-3-1.9-.1-3.1.9-3.4 2.8-.2.8-.1 1.7-.1 2.6v58.4c0 1-.1 2.2.3 2.9.6.9 1.8 2.2 2.6 2.1 1.1-.1 2.2-1.2 3.1-2.1.5-.5.4-1.4.6-2.4 8.3 8.9 27.2 7.4 30.8-8.4a52.5 52.5 0 000-23c-1.9-7.8-8.2-13-15.9-13.5zm9.7 34.7c-1.3 6.3-6.5 10-13.3 9.6-6-.4-10.2-4.5-11.2-10.7-.8-5.6-.8-11.2 0-16.8 1-6.3 5.1-10.3 11.2-10.5 7.3-.3 11.8 2.9 13.2 9.5.7 3.2.8 6.4 1.2 9.7-.3 3-.4 6.2-1.1 9.2zm121-51c-.2-1.1-1-2.6-1.8-2.8-1.1-.2-2.7.4-3.5 1.2-.8.8-1.1 2.2-1.5 3.4L445.7 519c-.3 1-.8 2-1.5 3.7-.7-1.8-1.2-2.9-1.6-4-5.6-16.2-11.1-32.3-16.7-48.5-.3-.8-.5-1.7-.9-2.4-1-2-2.6-2.7-4.2-1.9-1.7.8-2.3 2.2-1.8 4 .4 1.2.7 2.4 1.1 3.6 6.5 18.7 13 37.5 19.5 56.2.8 2.2 1.1 5 4.2 5 3.2 0 3.9-2.6 4.7-5 6.6-19.2 13.3-38.5 19.9-57.7.4-1.2.8-2.4.6-3.4zm31.1 21.1c-5.9-5.4-13.1-6.1-20.4-3.5-6.8 2.4-10.3 7.8-11.4 14.6-.7 4-.9 8.2-.7 12.3.3 5.6 1.2 11.2 5 15.8 6.1 7.2 18.4 8.7 27.1 3.2 1.9-1.2 3.5-2.8 5-4.4 1.2-1.3 1.1-2.8-.2-4-1.2-1.2-2.5-1-3.7-.1-.6.4-1.2.9-1.7 1.5-2.3 2.3-5.2 3.4-8.3 4-9.3 1.6-16.7-4.5-16.6-13.6.1-2.9.3-3.2 3.2-3.3 4.1-.1 8.2 0 12.4 0h12.4c2 0 4-.5 4.2-2.8.5-7.4-.6-14.5-6.3-19.7zm-2.5 16.3c-6.6 0-13.3.1-19.9 0-3.1 0-3.4-.5-3.4-3.5.2-5.5 5.1-11.3 11.6-11.6 8.8-.3 14.4 4.9 14 14.7-.9.2-1.6.4-2.3.4zm-96.5-21.1c-9.3.1-16 5.3-17.8 14.5-1 4.7-1.3 9.7-1.2 14.5.2 5.4 1.2 10.7 4.9 15 7.4 8.5 23 8.6 30.9.2 2.1-2.2 2.5-3.8 1.3-5.2-1.3-1.5-3-1.3-5.4 1-2.4 2.2-5.1 3.5-8.3 4.1-9.4 1.7-17-4.4-16.8-13.6.1-2.8.3-3.2 3.3-3.2 4-.1 8 0 12 0 4.2 0 8.5.1 12.7 0 3.2-.1 4.4-1.1 4.2-4.3-.1-3-.4-6-1.1-8.9-2.1-9.1-9.1-14.2-18.7-14.1zm13.3 20.8c-.9.1-1.9.4-2.8.4-6.4 0-12.7.1-19.1 0-3.4 0-3.9-.6-3.6-4 .4-4.9 4.7-11.2 12.8-11.1 6.7 0 13.2 4.3 12.7 14.7zm-150.8-1.9c-.6-10-6.5-16.9-15.8-18.6-9.7-1.8-18.9 3.2-21.6 11.9-2.6 8.3-2.6 16.7-.2 25.1 2.3 8 8.4 12.7 17.2 13.1 6.9.3 14.5-2.3 18.3-10.5 2.2-4.8 2.4-9.9 2.2-15-.1-2 0-4-.1-6zm-7.5 17.1c-1.6 5.3-5.9 8.2-11.6 8.3-5.6.1-10.3-2.6-12-7.7-2.6-7.7-2.7-15.5.2-23.1 2-5.2 6.1-7.4 12.3-7.2 5.3.2 9.4 3.1 11.1 8 .5 1.4 1 2.9 1.1 4.3.3 2.2.3 4.5.4 6.7.1 0 .3.1.4.1-.7 3.5-.9 7.2-1.9 10.6zM629.2 486c-.8-.3-2.2.1-3 .7-.8.7-1.2 1.9-1.6 2.9-1.1 2.7-2 5.4-3 8.1l-9.6 25.5c-.2 0-.5-.1-.7-.1-4.1-10.6-8.1-21.2-12.2-31.8-.5-1.4-1.1-2.8-1.8-4.1-.8-1.5-2.3-2-3.8-1.3-1.6.7-2.1 2-1.7 3.7.2.7.5 1.4.8 2.1 4.4 11.3 8.8 22.6 13.2 33.8 3 7.5 3 7.5-.1 14.4-1.5 3.2-3.3 5.9-7.4 5.9-.5 0-1 .2-1.4.4-1.4.6-2.4 1.4-2.1 3.1.3 1.5 1.3 2.3 2.9 2.5 3.7.4 7.1-.2 9.4-3.3 1.6-2.2 3.3-4.5 4.3-7 6.4-16.4 12.7-32.8 19-49.2.5-1.3.9-2.7.8-4-.3-.8-1.2-2-2-2.3zM307 488.1c-.4-2.1-2.6-3.1-4.3-1.9-.9.7-1.5 2-1.7 3.1-.3 2.2-.1 4.5-.1 6.7 0 7 .1 14-.1 21-.2 7.5-5.5 12.3-12.9 12.1-6.7-.1-10.7-4.5-10.9-12.1v-25.1c0-1 0-2-.1-3-.3-2.1-1.6-3.3-3.4-3.2-2.1.2-2.7 1.6-2.7 3.4 0 10.4-.2 20.8.1 31.1.3 7.9 5.4 13.1 13 14.7 6.1 1.2 11.3-.5 16.6-4.5.6 2.4 1.3 4.5 3.9 4 2.6-.5 2.6-2.7 2.6-4.7v-38.6c.1-1 .2-2.1 0-3zm259.4 3.7zm14.8-20.1c1.8-.1 3.3-.6 3.4-2.7.1-2.2-1.5-3.2-3.3-3.3-3.5-.1-7.2-.1-10.1 2.1-1.6 1.2-2.9 3.1-3.6 5-.8 2.2-1 4.6-1.1 7-.1 4-.1 8-.1 12v37.1c0 .7 0 1.5.1 2.2.3 2.2 1.6 3.6 3.2 3.4 1.9-.2 2.8-1.5 2.8-3.4.1-2.1 0-4.2 0-6.4v-27c0-6.3-.6-6 5.8-6 1 0 2 0 3-.1 1.8-.2 3.1-1.1 3.1-3 0-2.1-1.5-2.7-3.3-2.8-2-.1-4-.1-6-.1-1.9 0-2.7-.9-2.6-2.7v-1.9c.2-9 2.1-9 8.7-9.4zm-205.9 57.1c-.4-.4-1.2-.3-1.8-.3-2.6-.2-3.7-1.8-4-4.1-.2-1.2-.1-2.5-.1-3.7v-49.8c0-3.5-.9-5.1-2.9-5.2-2.2-.1-3.3 1.5-3.3 5.2v52.8c0 2 .3 4 1 5.9 1.3 3.9 7.6 6.5 11.2 4.8.9-.4 1.9-1.8 1.9-2.8 0-1-1.1-2-2-2.8zm166.2-41.6c-2.2-.9-4.4-1.9-6.7-2.1-5.4-.6-10 1.5-13.6 6-.1-.6-.3-1-.3-1.3 0-2-.3-3.9-2.9-3.9-2-.1-3.1 1.3-3.3 4.1v39.3c0 .9 0 1.8.2 2.6.3 1.7 1.4 2.7 3.1 2.7 1.7-.1 2.7-1.1 2.9-2.8.1-.9 0-1.7 0-2.6 0-6.9-.2-13.7.1-20.6.1-3.3.5-6.8 1.5-9.9 2-6.3 6.9-8.7 13.3-6.9 1.2.3 2.4.8 3.6 1 1.6.3 3.1.1 3.7-1.7.6-1.9-.1-3.3-1.6-3.9zm14.7 23.1v-6.4 6.4zm0-6.4v-15c0-1.7-.6-3-2.5-3.1-1.9-.2-3.1.8-3.5 2.7-.2 1-.2 2-.2 3V529c0 1.1-.2 2.5.3 3.3.6 1 1.9 2 3 2.2 1.4.2 2.6-.8 2.8-2.4.1-1 .1-2 .1-3v-25.2zm-3-38.4c-2.6 0-4.7 2.2-4.6 4.8.1 2.4 2.3 4.3 4.7 4.3 2.4-.1 4.3-2.1 4.3-4.7s-1.8-4.4-4.4-4.4zm-375.2 35v-24.3 24.3z" fill="#fff"/></svg>