<svg xmlns="http://www.w3.org/2000/svg" viewBox="0 0 353.9 270"><path d="M172.7 0C133.2 0 104 25.2 104 52.2c0 13.9 7.9 25.7 17.7 33.8l.8-.5c-7.8-6.5-14.9-16.6-14.9-30.5 2.1-29.5 38.5-46.1 70.6-46.1 22.9 0 64 5.3 64 43.5 0 20-21.3 45.9-66.1 45.9-22.8 0-40.6-12.3-40.6-29.9 0-15.2 11.9-26.1 29.6-26.1 4.9 0 9.5 1.2 13 2.1-7.4-1.4-18.8.6-24.8 5.3v25.8h21.8V46.1c4.1.7 7.4 2.3 9.6 3.7v25.7h5.7c-4.5 5.1-12.8 8.1-20.1 7v1.1c20.8 1.6 29.7-8.2 29.7-19.4 0-13.1-12.3-20.7-24.8-22.3V22.4h-21.8V42c-14.2 2.9-28.1 11.3-28.1 25.2 0 21.5 30 34.8 56 34.8 39.7 0 70.3-19.2 70.3-46.1 0-32.6-44.2-55.9-78.9-55.9M203 64.9c0-9.5-6.5-17.1-18.3-20.8V22.4h21.9v53h-6.9c2.4-3.4 3.3-7.2 3.3-10.5M77.4 133.8v76.1l5.9.8v4.5H54v-4.5l6.3-.8v-34.6H22.9v34.6l5.8.8v4.5H0v-4.5l5.7-.8v-76.1L0 133v-4.4h28.7v4.4l-5.8.8v32.5h37.4v-32.5L54 133v-4.4h29.3v4.4m34.9 1.2c0 5.8-3.9 10.1-9.3 10.1-5.5 0-9.3-3.9-9.3-9.7 0-5.5 3.8-9.8 9.3-9.8 5.4-.1 9.3 4.2 9.3 9.4m-2 76.2l5.5.8v3.9H94.8v-3.9l5.5-.8v-52.1l-5.5-.8v-3.9h21.4v56.8zm17.2.8l5.4-.8v-79.6l-5.4-.8v-4h21.4v84.4l5.5.8v4h-26.9m59.4-61.6h14.5v5.8h-14.5V196c0 9.5 2 12.5 10.5 12.5 3.2 0 5.9 0 8.5-.6v4.2c-7.8 2.8-14.3 3.9-19.8 3.9-12.3 0-15.2-5.6-15.2-16.4v-40.2h-11.2v-5.8h11.7v-12.9l15.6-4.7m68.8 48.6c0-19.5-5.8-28-15.1-28-9.1 0-14.8 8.1-14.8 28 0 19.5 5.8 27.6 14.8 27.6 9.7.1 15.1-7.7 15.1-27.6m17.6.4c0 19.2-12.9 32-33.1 32-19.6 0-32-8.4-32-32 0-19.8 12.9-33.1 33.1-33.1 19.9 0 32 11.9 32 33.1m74.6 26.2v3.9H327v-3.9l5.4-.8v-35c0-9.7-3.5-14.1-10.9-14.1-3.4 0-8.8 2.4-12.7 5.1v43.9l5.5.8v3.9h-27v-3.9l5.5-.8v-51.7l-5.5-.8v-4.2h21.5v8.5c6.7-5.4 13.1-9.7 22.2-9.7 12.1 0 17.5 7.1 17.5 21.1v37m-101.8-117h-2v-.7h4.8v.7h-1.8v7.1h-1m8.4-1.4l2.5-6.4h1.2v7.8h-.9v-5.9l-2.3 5.9h-.9l-2.4-5.9v5.9h-.9v-7.8h1.3l2.4 6.4z" fill="#fff"/></svg>