<svg version="1.1" id="Layer_1" xmlns="http://www.w3.org/2000/svg" x="0" y="0" viewBox="0 0 800 144.7" xml:space="preserve"><style>.st0{fill:#fff}</style><path id="polyline3" class="st0" d="M435.2 135h103.3v-12.6h-85.6V82h64.3V69.3h-64.3V32.1h85.6V19.6H435.2V135"/><path id="polyline5" class="st0" d="M488.9.9l-14 15.7L518.8.9h-29.9"/><path id="polyline7" class="st0" d="M711.8 122.4V19.6h-16.2V135H800v-12.6h-88.2"/><path id="path9" class="st0" d="M605.4 19.6L546.7 135h19.8l15-29.9h70.4L667 135h19.6L628 19.6h-22.6m-16.5 71.1l27.7-55.1 28 55.1h-55.7z"/><path id="path11" class="st0" d="M379.2 86.7c26.5-7.1 29-26.7 28.9-33.8-1.6-20.6-15.5-33.4-40.4-33.4h-72.8V135h16.6V86.6h47.4l34.9 48.4h20.9c-.1 0-25.2-32.6-35.5-48.3m-13.8-13.8h-53.9V33.2h55.8c12.8 0 20.1 6 22.7 13.6 1.7 5.2.6 12.1-2.2 16.7-4.8 7.8-13.6 9.4-22.4 9.4z"/><path id="path13" class="st0" d="M195.2 0c-46.8 0-78.7 33-78.7 73 0 42.1 35.3 71.8 78.7 71.8 43.5 0 78.7-29.3 78.7-71.8 0-40-32.3-73-78.7-73m-.6 130.4c-32.4 0-59.1-26-59.1-57.4 0-31.3 25.4-58.6 60.3-58.6 34 0 59.1 27.3 59.1 58.6.1 31.4-27.9 57.4-60.3 57.4z"/><path id="polyline15" class="st0" d="M74.7 60.4h11.9l21.8-40.8H90.9L74.7 60.4"/><path id="polyline17" class="st0" d="M16.1 122.4V19.6H0V135h104.4v-12.6H16.1"/></svg>