<svg xmlns="http://www.w3.org/2000/svg" viewBox="0 0 93 36"><path d="M41.5.3c-3.1 0-5.6 1-7.8 3.2-2.2 2.1-3.2 4.5-3.2 7.5 0 3.4 1.2 6 3.5 8.1 2.1 1.9 4.6 2.8 7.3 2.8 3.1 0 5.7-1 7.8-3.1 2.2-2.1 3.2-4.6 3.2-7.6s-1.1-5.5-3.2-7.6C47 1.4 44.5.3 41.5.3m6.3 17.2c-1.7 1.7-3.9 2.6-6.4 2.6-2.3 0-4.4-.9-6.2-2.6-1.8-1.7-2.7-3.9-2.7-6.5 0-2.5.9-4.7 2.6-6.4C36.8 2.9 38.9 2 41.4 2s4.7.9 6.4 2.6c1.7 1.7 2.6 3.9 2.6 6.4 0 2.6-.9 4.8-2.6 6.5M2.3 21.8h-2L3.6.3l9.1 17 9.1-17L25 21.8h-2L20.7 6.4l-8 15.1-8-15.1-2.4 15.4zM92.8 2.3h-5.1v19.6h-2V2.3h-5.1v-2h12.2v2zM58.9 21.8l3.4-7.2h9.1l3.4 7.2H77L67.8 2.5l-1-2.1-.8 1.8-9.2 19.7h2.1zm7.9-16.9l3.7 7.8h-7.3l3.6-7.8z" fill-rule="evenodd" clip-rule="evenodd" fill="#fff"/></svg>