<svg version="1.1" id="layer" xmlns="http://www.w3.org/2000/svg" x="0" y="0" viewBox="0 0 652 652" xml:space="preserve"><style>.st0{fill:#fff}</style><path class="st0" d="M725.5 246.7H471.2v-.2h216.1v-87.4H471.2V76H348.4v58h-94.5v77.4h-28.2V100.9H83.4v76.8H-56.3v69h-37.9v165.4H83.4v44.6H141v-44.6h.1v94.3h207.3V576h122.8v-89.3h216.1v-74.6h38.4V246.7h-.2zm-127.3 31.7h12.9l.4 31.5h22.1c13.2 0 24.4 7.7 24.5 25.6v43.3h-12.8v-.1h-.1v-39.8c0-6.3-1.8-10.6-4.6-13.3-2.8-2.7-6.7-3.9-10.7-3.9-10.7 0-18.8 6.7-18.8 22.3v34.7h-12.8v-.1h-.1V278.4zm-58.5 32.9h14.8v-18.8h12.8v.2h.1v18.6h18.1v.2h.1v11.1h-18.1v30.2c0 7.5 0 15.4 9.6 15.4 3 0 6.6-.4 9-2.1v.7s.1 0 .1-.1v11.6c-3 1.7-8.8 2.3-11.4 2.3-6.8 0-11.3-1.5-14.3-3.8-5.8-4.4-6-12.1-6-19.3v-34.9h-14.6v-.2h-.2v-11.1zm-32.2 9.4c-1.6-.4-3.3-.7-5.3-.7-9.7 0-14.4 4.1-19.1 7.7l-.2-.2-.1.1-7.7-7.9c7.1-6.8 17.3-9.9 26.6-9.9 5.6 0 10.4.9 14.2 2.4 9.8 3.7 14.1 11.7 14.3 20.1v46.5h-35.1c-4.3 0-8.4-.6-11.9-2-6.9-2.6-11.7-7.9-11.7-16.5 0-17.3 16.5-23.3 36.9-23.3h9.4v-2.8c0-5.6-3.4-11.5-10.3-13.5zm-45.8 58H448v-82.5h-.2v.1l-33.9 82.4h-9.1l-33.9-82.5h-.4v82.5h-13.7V278.4h20.5l31.8 75.9h.5l31.7-75.9h20.4v100.3zm-293.9-33.6c0-13.2 5.8-24.3 15.6-30.3 1.4-.9 2.9-1.6 4.4-2.3 1-.4 2.1-.8 3.2-1.2 2.2-.7 4.6-1.1 7-1.4 1.2-.1 2.5-.2 3.8-.2.6 0 1.2 0 1.8.1h.2c8.9.6 17.2 4.7 21.3 11.2h.4v-42.8h12.8v100.4h-36.6c-1.3 0-2.6-.1-3.8-.2-1.9-.2-3.7-.4-5.4-.8-.6-.1-1.1-.3-1.7-.4-1.1-.3-2.2-.7-3.2-1.1l-1.5-.6c-1.5-.7-2.9-1.4-4.3-2.3-8.8-5.6-14-15.7-14-28.1zm87.4-33.5H268v67.1h-12.9l.1-67.1zm-.1-10.9v-12.8H268v12.8h-12.9zm84.7 65.7h-.1v12.3h-.1v.1h-34.9c-12.6 0-23.3-5.5-23.3-18.4 0-6 2-10.6 5.4-14.1 6.5-6.7 18.2-9.3 31.6-9.3h9.3v-2.7c0-7-5-14.3-15.9-14.3-9.7 0-14.4 4.1-19.1 7.7l-7.7-7.9.1-.1c7.1-6.8 17.3-9.9 26.6-9.9 19.9 0 28.1 10.7 28.1 22.3v34.3zM64.1 296.2l-34 82.5h-9l-33.9-82.5h-.2v82.5h-13.7V278.4h20.2l31.9 75.9h.6l31.7-75.9h20.2v100.3H64.2l-.1-82.5zm62.4 84.3c-17.3 0-29.3-10.1-33.2-24.8-.9-3.4-1.4-7-1.4-10.8 0-20.1 14.6-35.3 34.7-35.3 23.6 0 32.8 18.2 32.8 35.4v5.1h-53.8c0 2.5.5 4.9 1.4 7 3.4 7.6 12 12.2 21.2 12.2 7.9 0 13.5-3.9 18.4-10.1l9.6 7.3-.1.1.2.2c-7.1 9.2-16.9 13.7-29.8 13.7z"/><path class="st0" d="M126.3 320h-1.4c-11.7.7-19.3 10.6-19.5 19.3v.2h40.3c-.3-11.1-6.5-19.5-19.4-19.5zM321 346.3h-.2c-11.2 0-24.8 2-26.4 11 0 .2-.1.5-.1.8v1.2c0 1 .1 1.9.3 2.7.2.8.4 1.6.8 2.3.8 1.7 2.1 3 3.9 4 .7.4 1.5.7 2.3 1 2.1.7 4.5 1 7.2 1 14.2 0 19.1-10.5 19.1-19.5l.1-4.3h-7zm-117.4 22.1c13.7 0 22.1-9.8 22.1-23.4 0-2.3-.3-4.6-.8-6.7 0-.2-.1-.4-.1-.5v-.1c-1.3-4.8-3.8-8.8-7.3-11.6-3.6-2.9-8.3-4.5-13.9-4.5-13.7 0-22.1 9.7-22.1 23.4 0 13.6 8.4 23.4 22.1 23.4zM511 346.3c-4.8 0-10.1.4-14.6 1.5-6.7 1.7-11.8 5-11.8 11.3 0 7.7 5.6 10.9 14.4 10.9 14.2 0 19.1-10.5 19.1-19.5h.1v-4.3h-6.8c-.1.1-.3.1-.4.1z"/></svg>