<svg version="1.1" id="Layer_1" xmlns="http://www.w3.org/2000/svg" x="0" y="0" viewBox="0 0 500 500" xml:space="preserve"><style>.st0{fill:#fff}</style><g id="XMLID_17_"><g id="XMLID_55_"><path id="XMLID_56_" class="st0" d="M262 225.3c-.5.6-.8 1.3-.8 2.5v33h-.2s-18.1-32.2-19-33.7c-.6-1.1-1.3-1.8-2.2-2.3-.9-.5-1.9-.8-3.7-.8h-6c-1.4 0-2.2.5-2.9 1.2-.5.6-.8 1.3-.8 2.5v46.8c0 1.2.3 1.9.8 2.5.6.7 1.5 1.2 2.9 1.2h3.4c1.4 0 2.2-.5 2.9-1.2.5-.6.8-1.3.8-2.5v-33.8h.2s18.7 33.2 19.5 34.5c1.1 1.8 2.8 3 5.4 3h5.8c1.4 0 2.2-.5 2.9-1.2.5-.6.8-1.3.8-2.5v-42.2h75.9c.8 0 1.3-.2 1.8-.6.5-.4.7-1 .7-1.9v-3.2c0-.9-.2-1.5-.7-1.9-.4-.4-1-.6-1.8-.6h-82.8c-1.5 0-2.3.5-2.9 1.2m33.1 12.5c-12.6 0-19.7 9.8-19.7 20.2 0 11.1 7.6 20.8 19.8 20.8 6.1 0 12.1-2.3 15.4-6.3 1.5-1.8 2.7-4.2 2.7-5.7 0-.5-.1-.9-.4-1.3-.3-.4-.7-.6-1.5-.6h-5.9c-1.2 0-2 .4-2.5 1.3-1.7 2.5-4.2 3.8-7.8 3.8-5.4 0-9-4.2-9.2-8.7h25.3c1.1 0 1.9-.2 2.5-.8.6-.6.9-1.4.9-3 0-4.7-1.5-9.7-4.6-13.5-3.3-3.6-8.2-6.2-15-6.2m39 0c-9.9 0-16.5 4.7-16.5 12.3 0 2.7 1 4.9 2.6 6.6 1.9 2 4.5 3.4 8.4 4.4l8.3 2.1c2.3.6 4.3 1.3 4.3 3.3 0 3.1-3.3 4.2-6.8 4.2-1.7 0-3.5-.4-4.9-1.1-1-.5-1.9-1.2-2.5-2.2-.5-.8-.7-1.5-1.6-1.9-.5-.3-1.1-.4-2-.4H319c-1 0-1.5.3-1.8.7-.4.4-.4 1-.4 1.6 0 1.5.5 3.3 1.7 4.9 2.8 3.7 8.5 6.7 15.9 6.7 7.3 0 17.3-3 17.3-12.8 0-2.5-.7-4.6-2-6.4-1.7-2.2-4.2-3.7-8.3-4.8l-8.3-2.1c-3.4-.9-5-1.5-5-3.6 0-2 1.8-3.7 6-3.7 2.5 0 4.7.5 6.2 2 1.2 1.3 1 1.9 1.9 2.5.6.3 1.2.3 2.2.3h4.1c.6 0 1.1-.1 1.5-.5.3-.4.5-.8.5-1.7 0-1.9-1.2-4.3-3.4-6.2-2.9-2.5-7.5-4.2-13-4.2m22.6 1.4h-2c-.8 0-1.3.2-1.8.6-.5.4-.7 1-.7 1.9v2.5c0 .9.2 1.5.7 1.9.4.4 1 .6 1.8.6h2v18.1c0 4.6 1.3 7.5 3.6 9.9 2.2 2.2 5 3.5 9.9 3.5h3.1c.8 0 1.3-.2 1.8-.6.5-.4.8-1 .8-1.9v-3.2c0-.9-.3-1.5-.8-1.9-.4-.4-1-.6-1.8-.6h-.3c-2 0-3.3-.5-4.2-1.4-1.1-1-1.6-2.6-1.6-4.6v-17.4h6.6c.8 0 1.3-.2 1.8-.6.5-.4.7-1 .7-1.9v-2.5c0-.9-.2-1.5-.7-1.9-.4-.4-1-.6-1.8-.6h-6.6v-11.8c0-.9-.3-1.6-.7-2.2-.5-.6-1.3-1.1-2.5-1.1h-4.1c-1.1 0-1.9.4-2.5 1.1-.4.5-.7 1.2-.7 2.2v11.9zm22.3 35.7c0 .9.3 1.6.7 2.2.5.6 1.3 1.1 2.5 1.1h4.3c1.1 0 1.9-.4 2.5-1.1.4-.5.7-1.2.7-2.2v-47.6c0-.9-.3-1.6-.7-2.2-.5-.6-1.3-1.1-2.5-1.1h-4.3c-1.1 0-1.9.4-2.5 1.1-.4.5-.7 1.2-.7 2.2v47.6zm-93-21.2c.5-4.4 3.9-7.8 9.1-7.8 5.1 0 8.6 3.3 9.1 7.8H286zm142.9-21.5c.8 0 1.3-.2 1.8-.6.5-.4.7-1 .7-1.9v-3.4c0-1.3-.2-2-.7-2.5-.4-.4-1.1-.7-1.8-.7-.6 0-1.2.1-2.2.2l-29 2.9c-.8.1-1.2.4-1.5.6-.4.4-.5.8-.5 1.5v1.9c0 .7.1 1.1.4 1.3.4.4.8.5 1.5.5h31.3v.2zm-16 5.6c-12.6 0-19.7 9.8-19.7 20.2 0 11.1 7.6 20.8 19.8 20.8 6.1 0 12.1-2.3 15.4-6.3 1.5-1.8 2.7-4.2 2.7-5.7 0-.5-.1-.9-.4-1.3-.3-.4-.7-.6-1.5-.6h-5.9c-1.2 0-2 .4-2.5 1.3-1.7 2.5-4.2 3.8-7.8 3.8-5.4 0-9-4.2-9.2-8.7h25.3c1.1 0 1.9-.2 2.5-.8.6-.6.9-1.4.9-3 0-4.7-1.5-9.7-4.6-13.5-3.2-3.6-8.1-6.2-15-6.2m-9 15.9c.5-4.4 3.9-7.8 9.1-7.8 5.1 0 8.6 3.3 9.1 7.8h-18.2z"/></g><g id="XMLID_52_"><path id="XMLID_54_" class="st0" d="M185.5 232.7c-9.4-14-17.7-18.8-20-21-2.6-2.5-4.5-5.2-5.7-6.6-2.8-3-6.3-6.7-12.2-6.7-5.7 0-9.4 3.7-10.6 6.8-.4.9-.6 2-.9 2.4-.6.9-3 5.2-4.1 6.9h4.7l-2.3 4.3c2.6-.6 4.6-1 7.1-1 2.2 0 3.9.5 4.6 1.9 1.3 2.6 1.3 10.6 3.6 16.6 2 5.6 7.1 11.1 12.8 15.4.1.1.2.1.2.1.3 0 .5-.2.5-.4s-.1-.2-.2-.4c-4.7-4.7-8.6-10-10.7-15.8-2-5.6-1.7-13.5-3.5-17-1.2-2.3-3.7-2.9-6-2.9-1.9 0-3.6.4-4.4.6l2-3.5h-3.5c.8-1.3 1.5-2.5 1.9-3.2.4-.6.5-1.3.9-2.4 1.3-3.3 4.2-5.4 8-5.4 4.7 0 7.5 3 10.3 6.1 1.3 1.4 3.3 4.4 5.7 6.6 1.6 1.5 4.8 3.2 9.6 8.2 2.8 2.9 6 6.6 9.4 11.6 12.2 17.8 20.2 33.6 24.7 45.9l-.1.1c-12.8-8.7-23.9-16.9-32.9-27-6.3-7.2-11.9-15.6-16.7-26.2-.4-.7-.6-1.3-.9-2-.1-.3-.2-.4-.5-.4s-.4.2-.4.4c0 .3.1.9.4 2.1 2.6 11 9.7 20.9 17.2 29.1 7.5 8.2 16 15.2 23.1 20.3l5.4 15.6c.1.4.3.8.3 1.2 0 .3-.1.5-.2.6-.2.2-.4.2-.8.2h-1.6c-.7 0-1-.1-1.2-.3-.2-.2-.4-.5-.6-.9-.5-1.5-3.3-9.7-3.9-11.4-.1-.3-.3-.4-.5-.4s-.4.2-.4.4.1.4.2 1.1c.8 3.7 1.6 8 1.9 9.5.2.7.4 1.4.4 1.9s-.1.7-.5 1.1l-1.7 1.7c-.4.4-.6.5-.9.5-.4 0-.8-.3-.9-1-1.9-9-4.9-20.1-5.6-23.2-.2-.7-.3-1.1-.7-1.1-.4 0-.5.2-.5.5 0 .2.1.5.1.7.5 3.2 2.3 14.8 4.3 25.4.4 1.8 1.1 2.8 2.6 2.8.7 0 1.4-.3 2-.9 1.1-1.1 1.3-1.3 2.6-2.5.9-.9 1.5-1.2 3-1.2h3.7c.9 0 1.3-.2 1.8-.6.4-.4.6-.9.6-1.7s-.2-1.4-.5-2.2c-.9-2.6-4-11.3-5-13.8l.1-.1c3.2 2.4 7.8 5.4 9.8 5.4.6 0 1-.3 1-1.3 0-4-7.7-23.2-25.4-49.5"/><path id="XMLID_53_" class="st0" d="M98.8 203.3c.5-1.2 1.7-2 3.1-2 1.9 0 3.4 1.5 3.4 3.4 0 1.1-.5 2.1-1.3 2.8.2.6.3 1.2.3 1.8 0 2.1-1.3 3.6-3.6 4.4-.3 1.3-.9 2.5-1.8 3.3-1.5 1.5-3 1.5-3 2 0 .4.2.5.9.5 2.8 0 5.6-1.6 5.9-4.2 2.7-.9 4.3-3.6 4.3-5.8 0-.6-.1-1.1-.3-1.5.8-.7 1.6-1.9 1.6-3.7 0-1.6-.7-3.2-1.9-4.3-1.1-1.1-2.6-1.7-4.3-1.7-2.5 0-4.2 1.3-5.1 2.7-2.8 0-6.3 3-6.3 7.4h-.5c-.2-1.5-1.8-2.5-3.2-2.6-1.1-3.2-3.5-5.9-7.4-5.9-.5 0-1 0-1.5.1-1.2-1.1-2.5-1.7-4.3-1.7-3.5 0-6.3 2.8-6.3 6.3 0 2.2 1 3.7 2.9 5v.4c0 2.8 3 7.1 7.5 7.1 0 .7.9 1.7 1.9 1.9v.4h-.4c-6.2 0-8.8 3-8.8 5-1.9.8-3 2.8-3 4.7 0 3.7 2.8 6.4 6.4 6.4 1.2 0 2.5-.5 3.3-1.1.6.2 1.5.4 2.3.4 1.8 0 3.7-.6 5-2.6h.6c2.2 0 4.2-1.5 5.1-3.4.2-.5.4-.9.4-1.1 0-.3-.1-.5-.4-.5-.4 0-.4.4-1.1.9-1.4 1.3-3.6 1.8-5.8 1.8-1.1 1.6-2.4 2.4-4 2.4-1.1 0-2-.3-2.9-.9-.8.8-1.6 1.1-2.5 1.1-2 0-3.4-1.4-3.4-3.4 0-1.4.9-2.7 2.2-3.2.2-2.5 2.9-4.2 6.3-4.2.4 0 .9 0 1.3.1.5-.8 1.7-1.7 3.5-1.9.4-.1.6-.1.8-.2.2-.1.3-.3.3-.5s-.1-.4-.3-.5c-.2-.1-.5-.2-.8-.2-1.6-.3-3.5-1.3-4.4-3.7-3.8 0-6.6-3-6.6-6.5v-.2c-1.3-.5-2.1-1.7-2.1-3.2 0-1.9 1.5-3.4 3.4-3.4 1.1 0 2.1.6 2.8 1.4.5-.2 1.1-.2 1.7-.2 2.8 0 5.9 1.8 6.4 5.3 3.6.4 4.5 3.4 4.7 4.7.1.6.2 1.2.6 1.2.5 0 .5-.5.7-1.2.3-1.3.8-2.3 1.7-3.2-.1-3.3 2.4-6.2 6-6.2"/></g><g id="XMLID_28_"><path id="XMLID_51_" class="st0" d="M106.1 223.2c-1.2 1.7-2 2.5-4.7 5.7-3.6 4.2-5.4 7.6-8.5 15.2.5-.1 1.2-.1 2-.1h1.3l.4-.8c1.8-3.7 4.1-8.8 7.4-12.7l1.1-1.3c3.4-4 5.5-6.3 6.8-11.7.5-1.9.8-3.6 2.1-4.9 1.2-1.1 2.6-1.6 4.1-1.6 1.3 0 2.2.3 3.6.9 1.2.5 1.7.6 3 .6.5 0 .8 0 1.1-.1l-1.8 2.4 2.4 1.7c-3 .9-4.6 3.8-5.1 5.1-.1.3-.2.5-.2.6 0 .2.1.4.4.4.4 0 .6-.2 1-.8 1.5-1.8 2.6-3 8-4.7l-3.8-2.9 2.9-4.2h-2.7c-1.7 0-2.9 0-4.3-.7-2-.9-3-1.3-4.9-1.3-2.2 0-4.2.8-5.9 2.3-1.9 1.8-2.5 4.1-3.2 6.6-.4 2.1-1.1 4.2-2.5 6.3"/><path id="XMLID_50_" class="st0" d="M111.9 240.4c-1.5 1.9-3.4 4.5-4.9 7.2.5.2 2 1.1 2.6 1.4 1.8-2.6 4.2-5.9 5.7-8.3 1.5-2.2 2-3.2 2.1-6.1 0-.5 0-1 .1-1.5.1-1.5.5-3.1 2-4.6 1.1-1.1 2.6-1.6 4.2-1.6 1.5 0 2.4.4 3.7.4.9 0 1.6-.2 2.2-.5l.5-.2-1.2 2.8 2.8 1.1c-1.8 1.1-5.6 5.7-5.6 11.3 0 2 .3 3.9.8 5.5.1.2.2.4.4.4s.4-.2.5-.4v-.6c.1-1.7.2-4.4.9-6.8 1.1-4 4.2-7.8 7.3-9.7l-4.3-1.9 1.9-4.6-2 .4c-1.2.2-2.2.5-3.2.5-.7 0-1.5-.1-2.5-.4-.7-.2-1.5-.4-2.6-.4-2 0-4.2.8-5.6 2.2-2.7 2.6-2.8 5.3-3 7.8-.4 3.4-1 4.2-2.8 6.6"/><path id="XMLID_49_" class="st0" d="M176.8 241.9c-.2-.2-.4-.4-.5-.4-.3 0-.5.2-.5.4 0 .4.2.8.9 1.9 1.9 3.3 4.3 6.6 7.3 9.7 3.2 3.3 6.9 6.5 10.8 9.3l1.2.9c.2.1.3.2.5.2s.4-.2.4-.5c0-.1-.1-.2-.2-.4-3.7-3.3-7.7-7.4-11.4-11.4-2.9-3.1-5.9-6.4-8.5-9.7"/><path id="XMLID_48_" class="st0" d="M95.4 230.4c.4-.6 1.5-2.2 2-2.6-1.9-3.9-5.1-7.7-6.5-9.2l-1.2 1.1c1.3 1.9 3.6 5.8 5.7 10.7"/><path id="XMLID_47_" class="st0" d="M76.9 207.6c-.2-.2-.3-.4-.3-.5 0-.2.1-.4.4-.4.1 0 .2 0 .4.1 1.9.8 3.5 1.6 4.9 2.8 1.2.9 2.3 2 3.5 3.3l-1.1 1.2c-1.3-1.1-5.6-4.6-7.8-6.5"/><path id="XMLID_42_" class="st0" d="M94.8 216.1l-1.3-.8c.9-2.1 2-4 3.3-5.4.9-1.1 1.8-1.9 2.8-2.7.2-.2.4-.4.6-.4.2 0 .4.2.4.4 0 .1-.1.2-.2.4-1.6 2.3-4.6 7.1-5.6 8.5"/><path id="XMLID_41_" class="st0" d="M77.7 227.8c-.4.1-.5.2-.6.2-.3 0-.4-.2-.4-.4s.1-.3.2-.4c3.1-2.4 5.9-3.4 9.6-4l.5 1.5-9.3 3.1z"/><path id="XMLID_40_" class="st0" d="M142.5 208.2c0-.9.5-2.5 2.1-2.5.6 0 1.1.1 1.5.4.6.3 1 .7 1 1.1 0 .5-.5.9-1.1 1.5-.7.6-1.6 1.1-2.3 1.1-.9 0-1.2-.9-1.2-1.6"/><path id="XMLID_39_" class="st0" d="M116.9 215.6c0-1.1.6-2.3 1.9-2.3.6 0 1.2.2 1.7.7.3.2.4.5.4.8 0 .6-.6 1.2-1.3 1.6-.5.3-1.1.5-1.6.5-.8 0-1.1-.5-1.1-1.3"/><path id="XMLID_35_" class="st0" d="M122.8 231.2c0-.2 0-.6.1-.9.2-.6.6-1.3 1.7-1.3.5 0 1 .1 1.5.4.4.2.5.6.5.9 0 1.1-1.8 2.3-2.8 2.3-.6.1-1-.5-1-1.4"/><path id="XMLID_34_" class="st0" d="M112.9 263.1c-3.4 0-4.9-1.6-4.9-3.7 0-3.6 6.3-7.1 11.9-9.3l1.5 1.9c-3.5 1.4-10.5 4.4-10.5 7 0 .9.5 1.6 2.6 1.6 3.7 0 7.7-1.8 11.4-3.6.3-.1.6-.2.9-.2.5 0 .8.2 1.1.6l.6.8c-4.3 2.4-9.7 4.9-14.6 4.9"/><path id="XMLID_33_" class="st0" d="M122.3 264.1c-3.3 1.9-6.8 3.1-9.8 3.1-3.4 0-6.4-1.5-9-5.3-1.1-1.6-1.9-3.6-2.9-5.4-1.2-2.1-2.5-3.3-4.9-3.3-2.1 0-4.2.9-6.3 1.8l.1.5c.2.8.5 1.3 1.2 1.3.4 0 .6-.2.8-.2 1.2-.4 2.1-.7 3.3-.7 1.9 0 2.8 1.1 4.1 3.9l.5 1c-1.3.5-4.4.7-6.7.7h-1.1l.2 1.1c.1.5.2.8.6 1 .5.2 1.1.2 2.2.2 2.9 0 5-.4 6.2-.6 3.1 4.6 7.4 6.4 11.5 6.4 3.5 0 7.1-1.3 10.5-3.2l-.5-2.3z"/><path id="XMLID_31_" class="st0" d="M125.7 265.2l-.6-2.3c5.2-2.8 9.9-5 17.6-5.8.2 2.9-.1 6.6 2.1 6.6 2 0 6.3-5.1 11.2-11.5.5.4 1.2.9 1.9 1.4l-1.3 1.6c-4.9 6.2-9 11.5-12.3 11.5-3.2 0-4.3-3.7-4.4-6.5-4.9.5-9.5 2.2-14.2 5"/><path id="XMLID_30_" class="st0" d="M192.6 214.4c-2 0-2.5-1.1-2.5-2.6 0-3.2 2-7.8 3.3-10.4h-3c-1.6 3.1-7.8 13-11.2 17.1l1.9 2.1c1.8-2 3.8-5.4 6-8.8h.4v.6c0 2.9 1.5 5 5.1 5 2.2 0 5.7-1.1 9-2.2 2.8-.9 5.2-1.9 6.5-2.2v-3c-1.4.4-4.3 1.5-7.3 2.6-3.3.9-6.4 1.8-8.2 1.8"/><path id="XMLID_29_" class="st0" d="M199.3 223.6c3-1.3 8.5-3.5 11.6-4.6v-3.1c-6.3 2.3-17.3 6.9-24.9 11 .2.2 1.5 2.1 1.7 2.3 3.2-1.3 6-2.2 8.6-2.2 3.6 0 6.6 0 11.5-1.2v-2.3c-2.8.5-5.7 1.1-7.7 1.1-1.1 0-1.5-.2-1.5-.5.2-.2.3-.3.7-.5"/></g><g id="XMLID_25_"><path id="XMLID_27_" class="st0" d="M133.3 240.1h13l-1-2.2h-10.7z"/><path id="XMLID_26_" class="st0" d="M88 251.7c1.3 0 2.5-.5 3.5-.9s2-.8 3.4-.8c3.2 0 7.3 1.6 10.8 3 .2.1.4.1.6.1.6 0 1-.2 1.3-.8l.5-.8c-3.9-2.2-10.1-4.6-13.2-4.6-1.5 0-2.5.4-3.6.8-1.1.5-2.1.9-3.2.9-2.6 0-9.1-2.5-9.1-5 0-2.9 10.4-4 11.5-4l1.1-2.3c-7.5 0-16.6 2.6-16.6 6.1 0 1 .6 1.5.6 2.5 0 1.3-.6 2.1-.6 3.6 0 .9.6 2.1 1.2 3.2.7 1.1 1.5 1.8 1.5 2.7 0 .7-.5 1.5-.5 3.1 0 3.4 1.9 5.5 5.7 9.5l.8.8c-3.2 1.2-9 3.7-10.4 4.3-4.7 2-5.9 4.4-5.9 8.2 0 1.5 0 3.2.1 4.6h.9c1.9 0 2.1-1.1 2.1-2.2v-2.5c0-2.1.1-4 3.5-5.5 1.3-.6 8.1-3.3 13.1-5.4 1.5-.6 2.8-1.2 4.3-1.2 1.7 0 3.6.7 6.1 2.2 2 1.2 4.2 2.9 5.9 4.7l2.2-1.6c-1.9-2.2-4.4-4.1-7-5.6-2.6-1.5-4.9-2.4-6.7-2.4-.8 0-1.5.2-2.1.3-.7.2-1.3.4-2.1.4-.9 0-1.7-.2-2.9-1.5-.4-.5-3.2-3.6-3.7-4.5-.3-.4-.8-1.3-.8-2.3 0-.4.1-.9.4-1.4 2.3 1.8 5.3 2.9 8.8 3.3l-.5-2.4c-5.1-1.3-10.5-5.8-10.5-8.7 0-.6.2-1.1.4-1.6 2 1.8 6.6 3.7 9.1 3.7"/></g><g id="XMLID_18_"><path id="XMLID_24_" class="st0" d="M124.4 252.1c3.2-2.2 6.5-2.5 9.1-2.5 1.6 0 3.5.2 5.4.5 1.6.2 3 .4 4.7.4 3.5 0 7-1.3 8.5-1.9.4.5 1.2 1.2 1.8 1.8-.8.5-5.4 3-10.1 3-2.1 0-4.1-.2-5.8-.5-1.5-.2-3.2-.4-4.7-.4-1.8 0-5.3.5-7.4 1.5l-1.5-1.9z"/><path id="XMLID_23_" class="st0" d="M171.4 261.2c-3.8 8-9.5 13.8-15.4 17.1-2.8 1.6-5.3 2.6-10.8 2.6h-11.8c-4.2 0-6.8.5-9 1.1-2.2.6-3.6 1.2-5.9 1.2-3.3 0-6.4-1.6-7.9-3.2l2.8-2.2-1.4-1.8c-.8.6-10.7 7.9-12.8 9.5l-.1-.1c.1-.5.1-.9.1-1.4 0-5.6-2.6-6.9-6.5-8.5l-2.6 1.6c5.4 1.8 6.7 3.2 6.7 7.3 0 3.2-1.1 4.4-2.8 5.4-1.7 1-3.8 1.5-5.6 1.5-.8 0-1.1.2-1.4.4-.3.3-.5.8-.5 1.4v.9h.6c3.4 0 6.5-.5 9.9-3.2l11.2-8.7c1.6 1.8 5.6 4.3 10.4 4.3 2.7 0 4.4-.6 6.9-1.3 1.9-.5 3.8-.9 7.9-.9h11.9c6.1 0 9-1.3 12.2-3.1 7-3.9 13-10.6 16.4-18.3-1-.6-1.8-1.1-2.5-1.6"/><path id="XMLID_22_" class="st0" d="M152.3 270.7c3-4.9 5.8-9.2 12.5-12.8-.7-.4-1.7-1.1-2.2-1.5-2.6 1.1-5.2 3.4-7.4 5.7-5 5.3-4.6 8.3-9.9 10.4-1.3.5-3 1.1-5.1 1.5-1.2-3.8-4.3-7.6-7.6-7.6-2.3 0-4.9 1.2-8 2.5-3.6 1.6-6.8 3.3-7.8 4l1.4 1.9c1.1-.6 4.1-2.1 7.2-3.4 2.6-1.1 5-2 6.7-2 2.6 0 4.3 3 5.2 5.3-3.4.8-9 1-10.7 1-.8 0-1.1.1-1.3.4-.2.2-.5.6-.6 1.2l-.2.9h1.8c9.5 0 18.4-1.5 24.1-5 .8.2 1.5.4 2.4.4 3.3 0 6.7-1.8 8.8-3.5.8-.6.9-1.1.9-1.7 0-.3 0-.5-.1-.8l-.1-1c-3 2.4-5.6 4.2-8.7 4.2-.5.1-1 0-1.3-.1"/></g></g></svg>