<svg version="1.1" id="Layer_1" xmlns="http://www.w3.org/2000/svg" x="0" y="0" viewBox="0 0 1368 747" xml:space="preserve"><style>.st0{fill:#fff}</style><path class="st0" d="M668.7 326.1c0-.8-.6-1.4-1.4-1.4-.8 0-1.4.6-1.4 1.4 0 .8.6 1.4 1.4 1.4.8 0 1.4-.6 1.4-1.4zm10.9 27.4c-.6 0-1 .1-1 .1.2.5.5 2 .5 2 .9.1 2.3.6 5.1.6 2.1 0 3.5-.3 4.6-.7 1.1-.4 2-.9 2.6-1.4.6-.5 1-1 1.6-1.3.6-.3 1.3-.4 2.2-.4 1.3 0 2.7.4 3.7 1l.1-1.9c-.7-.3-3.1-1.2-5.3-1.2-2.4 0-3.3.7-4.2 1.5-1 .9-2.4 2.1-5.9 2.1-.8-.1-3.1-.4-4-.4zm-14.6-.9c.4 0 1.7.4 1.7.4 1.9-1.6 4.7-2.5 6.6-2.5.7 0 2.8.3 5.2.6 1.4.1 2.8.2 4.2.2 2.7 0 5.7-1.3 8.3-2.6l-.5-1.9c-1.2.7-3.6 1.4-5.5 1.7-.5.1-1.9.1-2.3 0-.7-.1-1.4-.3-2.3-.5-1.2-.2-2.5-.3-3.3-.3-.8 0-2.4.1-3.1.2-2.7.2-4.6.8-6.3 2-.8.5-1.9 1.5-2.7 2.7z"/><path class="st0" d="M644.1 355.2c-.3.3-.6.6-1.5 1.1-.4.3-1.1.7-1.6.9-.8.3-1.2.4-1.5.4-.3 0-.8 0-1.1-.3l-2.1 1.3c.6.5 1.4.7 2.6.7 1.4 0 2.5-.3 3.9-.8 1.8-.7 3.8-2.1 4.4-2.5 1.4-.8 2.7-1.3 4.2-1.3 1.3 0 2.7.8 4.4 1.5 1.9.9 4.3 1.8 6.4 1.8 1.3 0 2.7-.2 4.3-.5 2.7-.5 5.6-1.5 8.4-2.4l-.9-1.7c-.7.3-3.1.9-5.6 1.5-2.1.5-4.2.9-5.4.9-.9 0-2-.1-2.9-.4-1.6-.5-3.1-1-3.1-2.3 0-.9.4-1.5 1.5-2 1.8-.7 4.5-.7 6-.7.3-.3 1.4-1.6 1.4-1.6-.7-.2-2.1-.4-3.5-.4-1.8 0-3.5.2-4.9.8-1.3.5-2.3 1.3-3 2.4-.3.4-.6.8-1 .8-.7 0-2-.6-3.3-.6-.6 0-1.1.1-1.6.1-1.3 0-3.1-1-4.7-1.8-1-.5-2-1-3.2-1-.5 0-1.2.1-1.8.4-1.1.5-2.3 1.3-2.9 1.7l1 .7c.6-.3 1.7-.8 3.3-.8 1.3 0 1.9.4 2.6.9.5.3.9.7 1.3 1 .7 1 .5 1.7-.1 2.2zm84.1 5.3c-2.5-2.4-4.9-4.7-6.8-6.8-5.9-6.6-14-19.1-16.8-26.1-1-2.6-3.1-1.7-2 .9 2.6 6.4 8.6 15.8 14.9 23.5-1.5-.6-3.3-1.5-4.3-2-.3.5-1.2 1.6-2 2.5-1 1-2 1.9-2.3 2.1-.7.6-1.2.7-1.7 0-.2-.3-.7-.9-.9-2l-1.3-1.7c-.7-.9-4.1-5.5-5.1-7s-2.4-3.2-4.5-3.2c-2.7 0-3.6 2.9-3.8 5.6l1.8-.8c.4-1.7 1.2-2.5 2-2.5.6 0 1.3.8 1.3 1.4-.3.7-.7 2.2-.9 3.4l1.7.6c0-.8.4-2.4.8-3.2 0 0 .5.4.7.7.1.2 1 1.5 2 3.3.9 1.6 1.9 3.5 2.8 5 .4.7.9 1.4 1.3 1.9.4.7.9 1.2 1.3 1.4.4.2.8.2 1.2.2 1.1 0 1.6-.4 2.4-1 1.4-1.2 2.7-2.9 3.9-4.5l3 1.4c1.1.5 2.4 1.1 3.5 1.6 1.5 1.7 3.2 3.4 4.9 5.1h.2l2.7.2zm3.9 6.2c.1.1.3.2.4.4l2.3-.7c-.9-.8-1.8-1.5-2.7-2.3v2.6zm8.7-4.3c-6.2-4-15-12.9-18.9-19.9l-2.1-.2c3.7 6.9 10.6 14.7 18.2 20.5.2-.1.4-.2.7-.2.1 0 .9-.1 2.1-.2z"/><path class="st0" d="M709.4 346.4c-1.5-1.4-6.1-7.5-8-10.9-4.3-7.8-2.6-11.8-5.2-15.3-2.4-3.3-9.4-1.7-9.4-1.7l2.6-3.6-4.4.5 2-2.5c.4-.6.5-1 .7-1.6.9-3.2 3.1-6.3 7.5-6.3 5.3 0 6.8 4 10.4 7.2 3.7 3.3 11.4 9.5 18.5 17.6 5.5 6.3 12.5 20.6 18.1 32.3.7-.1 1.4-.1 2.3-.2-4.9-10.5-10.9-22.5-16.1-30.1L727 330c-1.9-2.6-4-4.8-6.1-6.9l-1.6-1.6c-4-3.9-8.5-7.8-12-10.6-3-2.4-5.2-8.1-12.1-8.1-6.3 0-8.4 4.3-9.1 6.7-.5 1.6-.7 2.2-1.1 2.8l-4 4.7 4.7-.4-2.4 3.9c1.4-.3 9.6-1.9 11.3.7 2.1 3.2.7 6.7 4.5 14l1.7 2.9c1.9 3.1 4.2 6.1 6.2 8.5l-1.9 4.1 1.3 1.7 3-6z"/><path class="st0" d="M727.5 316.5c1.5-2.4 2.8-5.2 3.3-8.6l2.9.3c-1.2 2.2-2.5 5.6-2.6 7.8.1 1.5.4 1.8 1.1 2.4 1.4 1.1 3.2.4 4.9-1.1 1.9-1.6 3.7-4.3 5.6-6.7l2.4 2c-3.1 1.9-3.9 3.9-3 5.3.4.5 1.2.9 2.1.9 1 0 2.1-.3 3.4-.6.9-.2 1.8-.5 2.7-.8v3.2c-7 .5-18.9 3.3-23.4 9.3l1.4 1.9c.4-.6.9-1.2 1.4-1.8 6.3.1 10.2 1.4 15.4 3.5l1-6.6c-2-.3-5.3-.9-6.4-2.4 4.7-1.4 9.6-2 12.5-1.9v-8.1c-1.3.8-2.9 1.5-4.4 1.9-1.9.6-3.6.8-4 0-.5-.9 2.1-2.5 4.7-3.9l-6-5c-.9 1.2-3 4.6-5.1 6.9-1.5 1.6-3 2.7-3.9 2-.5-.3-.5-1.4-.1-2.6.7-2.4 2.6-5.8 3.8-7.3l-8.3-.8c0 3.4-1.6 7.1-3.5 10.1-1.7 2.6-4.1 4.5-6.1 5.6l1.6 1.6c2.4-1.5 4.8-3.6 6.6-6.5zm16.5 12.1l-.4 2.5c-2.6-1.3-7.2-2.7-11.8-2.8 1.6-1.2 3.6-2.1 5.6-2.9 1.3 1.5 4.3 2.9 6.6 3.2zm-95.5-24.5l-.8-.6c-1.6 1.4-5.3 6.1-7 8.9l.9.7c2.4-1.9 5.2-5.5 6.9-9z"/><path class="st0" d="M618.1 333.1c3.6 1.4 7.4-.8 7.5-4.8 4 .4 5.5-2.8 5.2-6.1l-1.3-.1c-.5 3.1-2 4.4-5.4 4.4-.1 3-3.3 5.5-6.9 4.8-1 2.4-4 3.1-6 1.2-2-2-1.3-5.7 2.2-6.4-.1-3.6 3.4-5.9 8.4-5.6 1.4-1.8 2.6-2.5 4.7-2.3v-1c-2-.3-4.3-2.2-4.5-4.2-4.3.3-7.2-2.1-7.1-6-2.8-1.3-2.3-4.1-1.4-5.2 1.5-1.9 3.7-1.7 5.4-.2 4.9-1.9 8.9 2 8.9 6.2 0 0 2.3 0 3.6 1.3 1.7 1.8 1.7 3.3 2.1 5.1.4 1.6 1.2 3.8 3.2 5.4 3.5 2.8 9 2 9.6-3.8 4.7.4 7.8-3.3 6.3-7.8 3.3-2.4 2.6-7.2-.5-9.1-3.9-2.4-7.5.1-8.5 2.4-4.8-1.1-8.8 3.7-6.5 8.4-1.3.3-1.9.9-2.5 2.3.4-3.2-1.7-6.2-5.2-5.9.3-5.6-5.2-9-10.2-6.2-2.9-2.5-6.2-2-8.1.3-1.9 2.2-1.8 6 2 8-1 3.9 2.6 7.8 6.8 6.9.2 1.2 1.1 1.8 2.3 2.3-1.7.1-2.5 1.8-2.5 1.8-5.6-1.4-8.4 2.3-8.5 6.1-4.1 1.2-5.2 6.3-2.1 9.3 3.5 2.9 7.4 1.6 9-1.5zm21-22.8c-1.4-4.9 2.2-7.8 5.8-7.5 1.4-2.7 3.5-3.2 5.9-1.8 2.1 1.3 2 4.6.2 6.1.6 2.9-2 7.1-6 6.9.5 4-4.5 6.3-7.5 3.7-2.4-2.2-1.9-5.9 1.6-7.4zm20.2 27.5c.4-1.7-1.8-2-2.1-.4-.3 1.7-2.4 4.5-4.3 6.3l.7.7c2.5-1.8 5.1-4.4 5.7-6.6zm12.6-29.5c0-.8-.6-1.4-1.4-1.4-.8 0-1.4.6-1.4 1.4 0 .8.6 1.4 1.4 1.4.8 0 1.4-.6 1.4-1.4zm19.6 2.7c0 .9.8 1.7 1.7 1.7.9 0 1.7-.8 1.7-1.7 0-.9-.8-1.7-1.7-1.7-1 0-1.7.8-1.7 1.7zm-2.7 30.4l.2-2.2s-10.8-.8-21.3 0l-.8 2s10.9-.7 21.9.2z"/><path class="st0" d="M676.9 334.2c-3.3 0-6.7.1-10 .2 2.2-2.3 5.3-4.2 10-5.7l-3.4-1.9 3.8-2.1-5.1-1.9c-.9-.8-2-1.5-3.4-1.9 1.6-5.1 7.2-8 12.6-10l-3.8-1.5 3.8-2.1-5.8-1.9c-1.5-1.8-3-2.6-5.2-2.6-5.4 0-7.7 4.7-9.8 8.9-1.1 2.2-1.8 3.1-3.8 4.4-4.2 2.7-9.5 6.9-14.5 12.2-2.6-1.9-8.1-7.5-9.5-10.6-.6.7-1.2 2.3-1.2 2.3.6.6 6.9 7 9.3 9.8-.2.2-.4.4-.5.6-2.5.5-9.1 1.1-11.3.8l-1.3 2.2c1.7-.2 8.2-.9 10.9-1.1-.8 1-1.6 2-2.4 3.1-8.4 1-14 2.7-14 5.8 0 .5.2 1.1.2 1.6 0 1.3-.5 1.8-1.4 2.4-.6.4-.6.6-.4 1 1.4 2.2-2.9 3.4.1 7.4l2.6.2s-2.5-1.4-.8-4.7c0 0 .6.8 1.6 1.9.3.5.7.8 1.1 1.2 2 2 5 3.4 8 4 .9.2 1.6.3 2.5.3 1.3 0 2.5-.7 3.3-1.4l-1.2-1.4c-.4.1-1.2.1-1.7.1-4.4 0-10.1-2.9-11.4-6.3-.1-.3-.3-.5-.2-.8.1-.3.3-1 .4-1.6.3.3.8.7 1.5 1.2 1.7 1.1 4.8 2.5 5.4 2.9 1.6-.5 2.8-1 3.7-1.5.9-.5 2.2-.9 3.6-.9 3.2 0 7 1.8 10.5 3.6l2.4-.9c-3.1-2.2-9.9-5.2-13.6-5.2-2.2 0-4.3 1.6-5.8 1.6-1.8 0-7-2.5-7-4.7 0-1.6 3.4-2.6 8.8-3.2-.9 1.4-1.8 2.8-2.7 4.3l1.4.8c8.5-12.3 17.3-20.3 24.8-25.2 2.7-1.8 3.3-2.8 4.3-4.7 2.3-4.7 4.5-8.3 8.3-8.3 1.8 0 3.2 1 4.2 2.2l2.7.8-2.8 1.9 2.8 1.1c-3.7 1-8.7 4.6-10.8 9.9-3.9.2-5.8 3.4-7.1 6.1-.9 1.8-2.2 2.5-4.3 3.9L639.2 342l2.2.3 14.9-10c2.9-2 4.3-3.4 5-4.8 1.4-2.8 2.9-4.8 5.8-4.8 1.4 0 3 .6 4.2 1.8l2.6.8-2.9 1.7 2.4 1.5c-6.8 2.1-11.1 7-13.5 16.4l1.8.4c.9-3.1 1.8-5.9 3.4-8.5 4 0 8-.2 11.9-.2 10.5 0 19.2.4 23.9 1.8l-1.7-2.9c-5.1-.8-12.4-1.3-22.3-1.3zm-57.8-29.8l-.8.9c1.2 1.7 6.5 6.4 9.2 8.2l1-1.2c-1.9-2.1-6.9-6.6-9.4-7.9zm-3.7 23.9l.8.9c2-1 5.8-3.8 7.8-5.9l-.6-.8c-2.3.9-6 3.7-8 5.8zm113.4 35.6c-1.2-1.1-2.4-2.2-3.5-3.3-1.4.1-2.4 1.3-2.4 2.6v41.2c0 1.5 1.2 2.7 2.7 2.7h3.9c1.5 0 2.7-1.2 2.7-2.7v-37.7c-.4-.3-.8-.7-1.2-1.1l-2.2-1.7zm3.3-.7c0-1.5-1.2-2.7-2.7-2.7h-1.2c1.3 1.2 2.6 2.4 3.9 3.5v-.8z"/><path class="st0" d="M728.2 360.5h-2.9c1.2 1.1 2.3 2.2 3.5 3.3l2 1.8c.4.4.8.7 1.2 1.1V364c-1.2-1.1-2.5-2.3-3.8-3.5zm16.3 6.6c-2.2-1.2-4.4-2.7-6.5-4.4-.6.3-.9.9-.9 1.5v2c0 .8.7 1.5 1.5 1.5h27.2c1.2 0 2.2-1 2.2-2.2v-3.3c0-1.2-1-2.4-2.2-2.2 0 0-13.3 1.3-21.3 2.1.6 1.2 1.1 2.4 1.6 3.5l-1.6 1.5z"/><path class="st0" d="M742.2 362.2c-.5.1-1 .1-1.4.1.7.5 1.4.9 2 1.2-.2-.4-.4-.8-.6-1.3z"/><path class="st0" d="M742.8 363.5c-.6-.3-1.3-.7-2-1.2-1.2.1-2 .2-2.1.2-.3 0-.5.1-.7.2 2.1 1.6 4.3 3.1 6.5 4.4l1.6-1.6c-.5-1.1-1.1-2.3-1.6-3.5-.8.1-1.6.2-2.3.2.2.5.4.9.6 1.3zm-23.7 9.8h-6v-10.1c0-1.4-1.2-2.6-2.6-2.6h-3.8c-1.4 0-2.6 1.2-2.6 2.6v10.1h-1.9c-1 0-1.9.8-1.9 1.9v2.8c0 1 .8 1.9 1.9 1.9h1.9v16.5c0 5.7 4.3 10.8 11 10.8h3.6c1.1 0 2-.9 2-2v-3c0-1.1-.9-2-2-2h-.5c-3.2 0-5.1-2-5.1-5V380h6c1 0 1.9-.8 1.9-1.9v-2.8c0-1.2-.9-2-1.9-2zm-67.3-1.2c-10.9 0-17.1 8.6-17.1 17.6 0 9.6 6.6 18.1 17.1 18.1 7.2 0 14.4-3.8 15.7-10.1.2-.8-.4-2-1.6-2h-5.2c-.9 0-1.7.4-2.2 1.1-1.5 2.2-3.6 3.3-6.8 3.3-4.5 0-7.7-3.6-7.9-7.5h22c2 0 2.9-1.1 2.9-3 .1-8.8-5.1-17.5-16.9-17.5zm-7.8 13.8c.4-3.9 3.8-6.8 7.8-6.8s7.5 2.9 7.9 6.8H644zm125 3.7c0-8.8-5.2-17.6-17-17.6-10.9 0-17.1 8.6-17.1 17.6 0 9.6 6.6 18.1 17.1 18.1 7.2 0 14.4-3.8 15.7-10.1.2-.8-.4-2-1.6-2H761c-.9 0-1.7.4-2.2 1.1-1.5 2.2-3.6 3.3-6.8 3.3-4.5 0-7.7-3.6-7.9-7.5h22c2 .1 2.9-1 2.9-2.9zm-24.9-3.7c.4-3.9 3.8-6.8 7.8-6.8s7.5 2.9 7.9 6.8h-15.7z"/><path class="st0" d="M696.7 367.9c1.1 0 2-.9 2-2v-3c0-1.1-.9-2-2-2h-71.2c-1.6 0-2.9 1.3-2.9 2.9l.2 28s-15.3-27.7-16.1-29.1c-.8-1.3-2.4-2.6-4.6-2.6h-5.9c-1.6 0-2.9 1.3-2.9 2.9v41c0 1.6 1.3 2.9 2.9 2.9h3.8c1.6 0 2.9-1.3 2.9-2.9l-.2-28.7s15.5 28 16.2 29.1c.9 1.5 2.4 2.6 4.6 2.6h5.4c1.6 0 2.9-1.3 2.9-2.9v-36.2h64.9z"/><path class="st0" d="M691.9 387c-2.1-.5-7.1-1.8-8.2-2.1-1.9-.5-3.7-1.1-3.7-2.8 0-2.5 2.3-3.4 5.2-3.4 3.1 0 5.4 1.1 6.2 3.1.4.9 1.2 1.1 2.2 1.1h4.3c.7 0 1.5-.6 1.5-1.5 0-4.9-5.9-9.4-14.3-9.4-8.6 0-14.3 4.1-14.3 10.7 0 5 4 8 8.8 9.3 2.2.6 6 1.5 7.9 2 2 .5 3.8 1.1 3.8 2.8 0 2.7-2.8 3.6-5.9 3.6-2.9 0-5.9-1.3-6.7-3.4-.5-1.2-1.3-1.4-2.6-1.4h-4.3c-.8 0-1.6.6-1.6 1.6v.6c0 4.8 6.4 9.8 15.3 9.8 6.3 0 15-2.6 15-11-.1-4.8-3.3-8.2-8.6-9.6zm80.8 11.9c-2.2 0-4.2 1.5-4.2 4.2s2 4.2 4.2 4.2 4.2-1.5 4.2-4.2-2-4.2-4.2-4.2zm0 7.4c-1.7 0-3-1.3-3-3.2 0-1.9 1.3-3.2 3-3.2 1.6 0 3 1.3 3 3.2 0 1.9-1.4 3.2-3 3.2z"/><path class="st0" d="M774.6 402.2c0-1-.7-1.4-1.9-1.4H771v4.5h1v-1.9h.5l1 1.9h1.1l-1.2-2c.7 0 1.2-.3 1.2-1.1zm-1.7.5h-.9v-1.1h.7c.4 0 .9 0 .9.5s-.3.6-.7.6z"/></svg>