<svg xmlns="http://www.w3.org/2000/svg" viewBox="0 0 1000 151.4"><path d="M56.8 151.4l-3.9-1.9C0 122.9 0 96.7 0 56.9V0h113.6v56.9c0 39.7 0 66-52.9 92.5l-3.9 2zM17.2 17.2V57c0 36.8 0 54.2 39.6 75.1C96.4 111.2 96.4 93.8 96.3 57V17.2H17.2zm121.6.1h28.5l30.4 50.8 12.7 25.4-2.5-28.5V17.3h25.5v107.9H209l-36.3-57.4-12-23.3L164 70v55.1h-25.2V17.3zm109.7 67.3c0-28 16.6-43.4 41.2-43.4 26.2 0 38.2 16.6 38.2 39.8 0 .8 0 7.8-.2 8.3h-53c1.1 13.3 8 19.2 18 19.2 7.5 0 14.3-3.3 17.9-9.3l14.6 11.4c-7.2 9.9-18.4 16.4-35.3 16.4-24.8.1-41.4-14.2-41.4-42.4zM275 76h27.2v-1c0-10.4-3.2-16.9-12.9-16.9-8.4 0-13.8 4.9-14.3 17.9zm59.6-32.5h27.6l6.5 41 2.8 22.3h1.1l3.9-22.3 9.6-41h28.8l8.3 41 3.6 22.6h1.3l2.8-22.6 7.2-41h25.4l-21.8 81.7h-31.2l-8.1-38.9-3.4-24.4h-1.1l-3.4 24.4-9.3 38.9h-29.3l-21.3-81.7zM468 111.3l13.8-13.2c4.2 5.8 10.2 11.2 19.7 11.2 5.5 0 9.4-2.6 9.4-6.7 0-6-9.4-8.8-21.1-13-9.9-3.4-19-10.2-19-23.2 0-12.5 12-24.7 34.2-24.7 17.2 0 26.2 5.8 32.4 13.5l-14 13.3c-2.3-3.9-7.5-9.8-15.9-9.8-6.2 0-9.8 2.8-9.8 6.5 0 6.2 8.1 8.5 19.2 12.2 10.9 3.7 21.5 9.1 21.5 24.2 0 13.8-12.7 25.2-35.1 25.2-14.9.1-28.3-5.4-35.3-15.5zM548.8 72c0-34.5 20.2-57.1 55.1-57.1 26 0 39.5 11.1 46.5 27.8L622 50.5c-2.2-9.6-8.3-14.5-18.6-14.5-14.7 0-25.9 11.2-25.9 34.5V72c0 23.4 9.3 34.7 26.2 34.7 14.5 0 22.6-9.6 23.9-20.5h-22.4V64.6h47.2v60.5h-20.7L629.6 96c-3.1 18.9-15.5 31.2-34.5 31.2-29.4.1-46.3-23.2-46.3-55.2zm120.4 22.6V43.5h26v46.8c0 12.2 2.5 15.6 9.3 15.6 7.7 0 13.2-9 13.2-20.3V43.5h26.8v81.7h-24.7v-10.1l.7-12.2H719c-1.3 9.6-8.3 23.9-24.9 23.9s-24.9-9.1-24.9-32.2zM809.8 109c-3.9 12.9-14.8 17.9-25.5 17.9-15.9 0-25-9.1-25-22.3 0-15.6 13.2-21.8 30.9-25.4 11.7-2.4 18.4-3.7 19.5-5.2v-2c0-6.8-3.2-11.7-12.7-11.7-7.9-.2-15.1 4.5-18.1 11.9l-19-10.6c6-12 20.8-20.2 39.7-20.2 24.7 0 35.5 11.4 35.5 31.2v26.1c0 16.9 2.1 24.4 4.7 26.4h-25.9c-1.9-1.6-3.6-5.7-4.1-16.1zm-.2-12.5v-14c-2 1.9-5.2 3.4-10.1 5-8.9 2.8-14.6 6.5-14.6 13.3 0 6.2 4.2 9.3 9.3 9.3 6.6.1 14.4-3.8 15.4-13.6zm43.8-53H877V57l-1.5 23.9h1.5c2-21.6 9.6-38.9 29.6-38.9h2.1v30h-6c-17.4 0-22.3 7-22.3 25.2v28h-27V43.5zM917.5 84c0-29.8 15-43.1 33.2-43.1 14.5 0 21.6 9.3 23.9 17.7h1.1l-1.6-17.4V6.6h25.9v118.6h-24.6l.7-20 .3-3.3-.7 1c-2.3 13.5-12 23.7-27.2 23.7-17.8 0-31-14.4-31-42.6zm57.5 1.1v-6.3c0-10.7-3.6-20.5-14.7-20.5-8.6 0-15 7.5-15 24.1 0 16.4 4.4 26.3 14.3 26.3 10.2 0 15.4-11.4 15.4-23.6z" fill="#fff"/></svg>