<svg version="1.1" id="Layer_1" xmlns="http://www.w3.org/2000/svg" x="0" y="0" viewBox="0 0 651.8 243.4" xml:space="preserve"><style>.st0{fill:#fff}</style><path class="st0" d="M651.8 164.9c0 17.4-14.1 31.4-31.4 31.4s-31.4-14-31.4-31.4 14.1-31.4 31.4-31.4c17.4 0 31.4 14.1 31.4 31.4m0-80c0 17.4-14.1 31.4-31.4 31.4-17.4 0-31.4-14.1-31.4-31.4s14.1-31.4 31.4-31.4c17.4 0 31.4 14 31.4 31.4" id="colon"/><path class="st0" d="M98 154.7c-29.6 0-53.6-21.9-53.6-56.3s24-56.3 53.6-56.3 53.6 21.9 53.6 56.3-24 56.3-53.6 56.3M98 0C43.9 0 0 43.9 0 98s43.9 98 98 98 98-43.9 98-98S152.1 0 98 0m476.2 78.7c-2-6.9-5.6-13.3-10.4-18.8-4-4.4-8.9-7.9-14.3-10.4-6.9-3.3-14.5-4.9-22.1-4.8-10.1 0-18.4 1.9-24.9 5.6-6.8 4.3-12.7 10-17.4 16.5h-.8V6.3h-43.7v186h43.7v-79.8c0-9.2 2.3-16.6 7-22.4 4.9-5.8 11.3-8.7 19.2-8.7 8.3 0 14.4 2.9 18.3 8.7 1.9 2.8 3.3 5.9 3.9 9.2.6 3.6.9 7.3.8 10.9v82.1h43.7V98.9c.2-6.9-.9-13.7-3-20.2m-168.8 77.9a9.18 9.18 0 01-2.8-5.3c-.6-2.3-.9-4.6-.8-7V76.7h25.8V49h-25.8V6.3h-42.6V49h-19.3v27.7h19.3v76.7c0 2.6.1 5.1.3 7.6.1 3.8.9 7.6 2.2 11.2 1.8 4.9 4.9 9.3 9 12.6 4 3.1 8.6 5.4 13.4 6.7 6.2 1.6 12.6 2.3 19 2.2 6.3 0 11.7-.2 16-.6 2.9-.2 5.8-.6 8.7-1.4V160h-10.4c-5.2.2-9.2-1-12-3.4m-113.5-15.5c0 7.8-2.7 14.2-8.1 19-5.6 4.9-13 7.3-22.1 7.3-6 0-10.9-1.2-14.6-3.6-3.7-2.6-5.6-6.9-5.6-12.9 0-5.6 2.1-9.9 6.2-12.9 3.9-2.6 10.5-5 19.9-7.3 2.4-.6 4.8-1.1 7.1-1.7 2.2-.5 4.4-1.2 6.6-2 3.7-1.1 7.2-2.5 10.6-4.2v18.3zm42.9 42.6c-.6-3.1-1-6.3-1.1-9.5V97.7c.2-8.2-1.4-16.3-4.5-23.8-2.7-6.8-7.3-12.7-13.2-17.1-5.9-4.4-12.7-7.4-19.9-9-8.5-2-17.3-2.9-26-2.8-11 0-20.6 1.4-28.9 4.2-6.9 2.2-13.4 5.7-19 10.4-5.3 4.3-9.5 9.8-12.3 16-2.6 5.7-4 11.9-4.2 18.2h40c.7-6.4 3.3-11.3 7.6-14.5 3.7-3 9.3-4.5 16.8-4.6 7.1 0 12.3 1.4 15.7 4.2s5 6.6 5 11.5c0 5.1-3 8.7-9 11-4.3 1.5-11.4 3-21.3 4.5-2.4.4-4.9.8-7.6 1.1-7 .8-13.9 2.3-20.7 4.2-6.2 1.8-12 4.5-17.4 8.1-4.8 3.5-8.7 8-11.5 13.2-2.8 5.4-4.2 11.9-4.2 19.4-.1 6.5 1.1 13 3.6 19.1 2.3 5.3 5.8 9.9 10.2 13.7 4.6 3.9 9.9 6.8 15.7 8.4 6.4 1.9 13.1 2.8 19.9 2.8 10.3 0 18.7-1.6 25.2-4.8 7-3.4 12.9-8.5 17.4-14.8h.6c.3 3 .9 6.1 1.7 9 .5 2.5 1.5 4.9 3.1 7h42.3v-2c-2.2-1-3.5-3.3-4-6.6" id="lettering"/><path class="st0" d="M243.7 236.6l10.2-28.6h7l10.3 28.6H264l-1.7-5.4h-10l-1.7 5.4h-6.9zm12.4-17.5l-2.3 7.2h6.9l-2.2-7.2c0-.1-.1-.3-.2-.4s-.2-.5-.2-.8c-.1-.5-.3-1-.4-1.6s-.2-1-.3-1.4h-.1l-.2.6c-.1.2-.1.5-.2.7-.1.5-.3 1-.4 1.6-.2.5-.3.9-.4 1.3zm28.3 17.5l-9.5-28.6h7l4.4 14.8c.2.6.4 1.2.5 1.8.1.5.2.9.3 1.2.1.4.2.8.4 1.4l.3 1h.1l.3-1c.1-.5.2-.9.4-1.4.1-.5.2-.9.3-1.2l.2-.6c.1-.4.2-.8.4-1.2l4.4-14.8h6.8l-9.4 28.6h-6.9zm24.3.6c-1.6 0-3.2-.3-4.6-.9-1.3-.5-2.5-1.3-3.5-2.4-.9-.9-1.5-2-2-3.2-1-2.8-1-5.9 0-8.7.5-1.3 1.3-2.5 2.2-3.5.9-.9 1.9-1.6 3.1-2.1 1.4-.6 2.8-.9 4.3-.9 1.4 0 2.7.2 4 .7 1.1.4 2 1 2.9 1.8 1.3 1.2 2.2 2.7 2.8 4.4.6 1.8.8 3.6.8 5.5H304c.1 1.3.7 2.4 1.5 3.4.9.9 2.1 1.3 3.3 1.2.8 0 1.6-.2 2.2-.6.6-.4 1.1-.9 1.3-1.6h6.1c-.2.9-.6 1.8-1.2 2.6s-1.3 1.6-2.2 2.2c-.9.6-1.8 1.1-2.8 1.4-1.1.6-2.3.7-3.5.7zm-.3-17.1c-1.1-.1-2.2.3-3 1.1-.7.8-1.2 1.9-1.4 3h8.3c-.1-1.1-.5-2.2-1.2-3-.7-.7-1.7-1.1-2.7-1.1zm18.6-3.9v3.2h.1c.6-1.1 1.4-2 2.4-2.7.9-.5 1.9-.8 3-.8.4 0 .9 0 1.3.2v5.4h-.2c-1.6-.4-3.3 0-4.7 1-1.2 1-1.8 2.6-1.8 4.8v9.4H321v-20.4h6zm9-3v-5.1h6.2v5.1H336zm0 23.4v-20.4h6.2v20.4H336zm8.4 0V232l8.3-9 .4-.4c.2-.2.3-.3.4-.5l1-1v-.1h-9.1v-4.8H362v4.7l-7.5 8.3-1.4 1.4-1 1.1v.1h10.5v4.9l-18.2-.1zm29.5.7c-1.6 0-3.2-.3-4.6-.9-1.2-.5-2.3-1.3-3.2-2.2-1-1-1.8-2.3-2.3-3.6-.5-1.3-.7-2.7-.7-4.1 0-1.5.3-3 .8-4.5.5-1.2 1.2-2.3 2.2-3.3 1-1 2.3-1.8 3.6-2.4 1.4-.5 2.8-.7 4.2-.7 1.6 0 3.2.3 4.7.9 1.2.5 2.3 1.2 3.2 2.2.9 1 1.6 2.1 2.1 3.3.6 1.4.9 2.9.9 4.5 0 1.5-.3 3.1-.9 4.5-.5 1.2-1.2 2.3-2.1 3.2-.9.9-2 1.7-3.2 2.2-1.5.6-3.1.9-4.7.9zm0-4.5c1.4.1 2.6-.6 3.4-1.8 1.5-2.9 1.5-6.3 0-9.1-.7-1.1-2-1.8-3.4-1.8-1.4-.1-2.7.6-3.4 1.8-1.5 2.9-1.5 6.3 0 9.1.8 1.2 2.1 1.8 3.4 1.8zm19-16.6v2.8h.1c.7-1.1 1.7-2 2.8-2.6 1.1-.6 2.3-.8 3.5-.8 1 0 2.1.2 3 .6.9.4 1.7 1 2.3 1.7.6.6 1 1.4 1.2 2.2.4 1 .6 2.1.6 3.2v13.3h-6.2v-12.2c0-.9-.3-1.9-.8-2.6-.6-.7-1.5-1.1-2.5-1-1.1 0-2.2.5-2.8 1.4-.6.9-1 1.9-.9 3v11.4H387v-20.4h5.9zm32.7 21.1c-1.6 0-3.1-.3-4.6-.9-1.2-.5-2.3-1.3-3.3-2.2-1-1-1.7-2.2-2.2-3.6-.5-1.3-.7-2.7-.7-4.1 0-1.5.3-3 .8-4.4.5-1.2 1.2-2.4 2.1-3.3 1-1 2.2-1.8 3.5-2.3 2.6-.9 5.4-1 8-.2 1.1.3 2.1.9 2.9 1.6.8.7 1.5 1.6 2 2.6.5.9.8 2 .9 3h-6c-.2-.9-.6-1.7-1.3-2.3-.6-.5-1.4-.8-2.2-.8-1.3-.1-2.6.6-3.3 1.6-.8 1.4-1.2 2.9-1.1 4.5-.1 1.6.3 3.1 1.1 4.4.7 1.1 2 1.7 3.3 1.6 2.2 0 3.4-1.2 3.7-3.5h6c-.1 1-.3 2-.7 3-.4 1-1.1 2-1.9 2.8-.9.8-1.9 1.4-3 1.8-1.3.5-2.6.7-4 .7zm21.9 0c-1.6 0-3.2-.3-4.6-.9-1.2-.5-2.3-1.3-3.2-2.2-1-1-1.8-2.3-2.3-3.6-.5-1.3-.7-2.7-.7-4.1 0-1.5.3-3 .8-4.5.5-1.2 1.2-2.3 2.2-3.3 1-1 2.3-1.8 3.6-2.4 1.4-.5 2.8-.7 4.2-.7 1.6 0 3.2.3 4.7.9 1.2.5 2.3 1.2 3.2 2.2.9 1 1.6 2.1 2.1 3.3.6 1.4.9 2.9.9 4.5 0 1.5-.3 3.1-.9 4.5-.5 1.2-1.2 2.3-2.1 3.2-.9.9-2 1.7-3.2 2.2-1.6.6-3.1.9-4.7.9zm0-4.5c1.4.1 2.6-.6 3.4-1.8 1.5-2.9 1.5-6.3 0-9.1-.7-1.1-2-1.8-3.4-1.8-1.4-.1-2.7.6-3.4 1.8-1.5 2.9-1.5 6.3 0 9.1.7 1.2 2 1.8 3.4 1.8zm12.9 3.8v-20.4h6v2.9h.1c.6-1.1 1.5-2 2.6-2.6 1.1-.6 2.3-.9 3.6-.9 1.3 0 2.6.3 3.6 1.1.9.6 1.7 1.5 2.1 2.5h.1c.7-1.1 1.6-2.1 2.8-2.7 2-1 4.4-1.2 6.6-.3.8.3 1.6.8 2.2 1.5.6.7 1.1 1.5 1.3 2.4.2.7.4 1.5.4 2.3v14.3h-6.2v-12.4c.1-.9-.2-1.8-.8-2.6-.5-.6-1.4-1-2.2-.9-.1 0-.2 0-.3.1-.9 0-1.7.5-2.2 1.2-.4.6-.6 1.3-.7 2.1-.1.4-.1.8-.1 1.2v11.2h-6.2v-12.3c.1-.9-.2-1.8-.7-2.6-.6-.6-1.4-1-2.2-.9-.9 0-1.8.4-2.3 1.1-.7.9-1.1 2-1 3.1v11.6h-6.5zm34.1 6.8v-27.2h6v2.4h.1c.7-.9 1.6-1.7 2.7-2.3 1.1-.5 2.3-.8 3.5-.8 1.3 0 2.6.3 3.8.9 1 .5 1.9 1.3 2.6 2.2.8 1.1 1.4 2.3 1.8 3.6.4 1.3.6 2.7.6 4.1 0 1.6-.2 3.2-.7 4.7-.3 1.2-.9 2.3-1.7 3.2-.7.9-1.7 1.6-2.7 2.1-1.2.6-2.5.9-3.8.8-1.1 0-2.3-.2-3.3-.7-1-.5-1.8-1.2-2.5-2.1h-.1v8.9l-6.3.2zm10.6-11c1.2 0 2.3-.5 3-1.5.8-1.3 1.2-2.7 1.1-4.2.1-1.5-.3-3-1-4.4-.7-1.1-1.9-1.7-3.2-1.6-.7 0-1.3.1-1.9.4-.6.3-1.1.8-1.4 1.3-.4.6-.6 1.2-.8 1.8-.2.8-.3 1.6-.3 2.5-.1 1.5.3 3 1.2 4.2.7.9 2 1.5 3.3 1.5zm25.6 4.2c-.2-.3-.4-.6-.4-1-.1-.4-.2-.8-.2-1.3h-.1c-.6.9-1.5 1.6-2.5 2.1-1.1.5-2.4.7-3.6.7-1 0-1.9-.1-2.8-.4-.8-.2-1.6-.6-2.2-1.2-.6-.6-1.1-1.2-1.4-2-.4-.9-.5-1.8-.5-2.7 0-1 .2-1.9.6-2.8.4-.7 1-1.4 1.6-1.9.8-.5 1.6-.9 2.5-1.2 1-.3 2-.5 3-.6l1.1-.2c1-.1 2-.3 3-.6.7-.2 1.3-.8 1.3-1.6 0-.6-.2-1.2-.7-1.6-.7-.5-1.4-.7-2.2-.6-.9-.1-1.7.2-2.4.6-.6.5-1 1.3-1.1 2.1H518c0-.9.2-1.8.6-2.6.4-.9 1-1.7 1.8-2.3.8-.7 1.7-1.2 2.7-1.5 1.3-.4 2.7-.6 4.1-.6 1.2 0 2.5.1 3.7.4 1 .2 2 .7 2.8 1.3.8.6 1.5 1.5 1.9 2.4.4 1.1.7 2.2.6 3.4V234c0 .5.1.9.2 1.4 0 .4.2.8.6 1v.3l-6.3-.1zm-5-3.5c1.1.1 2.3-.3 3.2-1 .8-.7 1.2-1.7 1.2-2.7v-2.6l-1.5.6-.9.3-1 .2c-1 .2-1.9.5-2.8 1-.6.4-.9 1.1-.9 1.8-.1.7.2 1.4.8 1.8.5.4 1.3.6 1.9.6zm19.1-16.9v2.8h.2c.7-1.1 1.7-2 2.8-2.6 1.1-.6 2.3-.8 3.5-.8 1 0 2.1.2 3 .6.9.4 1.7 1 2.3 1.7.6.6 1 1.4 1.2 2.2.4 1 .6 2.1.6 3.2v13.3h-6.2v-12.2c0-.9-.3-1.9-.8-2.6-.6-.7-1.5-1.1-2.5-1-1.1 0-2.2.5-2.8 1.4-.6.9-1 1.9-.9 3v11.4H539v-20.4h5.8zm16.2 27.2v-4.9h2.2c.8.1 1.5-.2 2.1-.6.4-.4.7-1.1.6-1.7 0-.6-.1-1.1-.3-1.6-.2-.6-.5-1.5-.9-2.5l-.5-1.4-5.5-14.4h6.6l2.8 8.8c.1.2.1.4.2.6.1.3.2.7.3 1l.4 1.5.2.9c.1.3.1.5.2.7h.1l.4-1.6c.1-.5.2-1 .4-1.5s.3-1.1.4-1.6l2.7-8.8h6.3l-7.1 20.8c-.1.3-.2.6-.3.8-.3.7-.6 1.5-1 2.2-.4.7-.9 1.4-1.6 2-.6.5-1.3.9-2 1.1-.9.3-1.8.4-2.7.4l-4-.2z" id="text"/></svg>