<svg xmlns="http://www.w3.org/2000/svg" viewBox="0 0 200 87"><path d="M79.2 87c-6.8-.4-11.9-3.2-14.9-8.2-2-3.4-2.6-7.8-1.7-12.4 1-5 4.5-9.6 9.7-12.8 3-1.9 5.6-3 10.9-4.9 1.3-.5 2.5-.9 2.6-1 .1-.1.1-.4.1-1.3-.2-2.8.3-7 1.1-10.1 1.3-5.2 3.8-9.4 7.2-12 2.4-1.8 5.5-3.2 8.7-3.8 1.7-.3 4.6-.3 6.2 0 7 1.4 10.9 6.8 9.3 12.8-.3 1.3-1.3 3.4-2.2 4.5-2.2 3-5.6 5.6-10.3 8.1-.6.3-2.5 1.3-4.3 2.1-1.8.9-3.3 1.6-3.4 1.7-.1.1-.1.4.1 1.4.9 4.5 2.4 8.3 4.9 12.5 1 1.7 2.4 3.8 2.6 3.9.2.1 1.2-1.4 1.8-2.9.8-1.9 1.2-4.3 1-5.5-.2-.9-.6-1.8-1.2-2.4-.3-.3-.5-.5-.5-.6 0 0 2.4-.1 5.3-.1h5.3v.7c0 .9-.4 2.9-.7 4.2-1 3.9-2.9 7.2-6.2 10.9-.4.4-.7.8-.7.9s.5.7 1.2 1.3c4.1 4 11.5 8.7 17.5 11 .6.2 1.1.5 1.1.5 0 .1-3.5.1-10.1.1h-10.1l-.6-.3c-1.2-.7-3.8-2.8-6.3-5.1-.5-.5-1-.9-1.1-.9s-.7.3-1.3.8c-3.2 2.1-7.1 4.1-10.4 5.1-3.9 1.5-7 2-10.6 1.8zm8.5-8.8c1.5-.3 3.4-.8 5.1-1.5 1.7-.7 3.8-1.7 3.9-1.9 0-.1-.4-.7-.9-1.5-2.3-3.3-4.9-8-6.5-12.3-.6-1.6-1.8-5-2-5.9-.1-.3-.2-.6-.3-.6-.2-.1-2.2.9-3.8 2-5.9 3.9-8.8 8.7-8.1 13.7.3 2.2 1 3.8 2.3 5.2 2.3 2.6 6 3.6 10.3 2.8zm10.1-34.8c2.2-1.3 5.7-4.4 7.6-6.8 2.5-3.1 3.8-6 3.8-8.3 0-1.3-.2-1.9-.8-2.6-.6-.6-1.3-.9-2.4-.9-3.2 0-6.6 3.7-8.1 8.8-.8 2.6-.9 4-.9 7.1 0 2.4 0 2.9.2 2.9.1.1.3 0 .6-.2zm52.1 43.5c-5.2-.5-8.6-1.3-12.5-2.8-5.3-2.1-8.5-4.7-11.3-8.9-.8-1.3-2.2-3.9-2.7-5.4-2.4-6.5-2.9-14.8-1.5-23.4 1.5-8.7 4.8-17.1 9.3-23.6 3-4.2 7.4-8.7 11.9-12.1 7.5-5.6 16.1-9 25.7-10.2 2.9-.4 4.5-.5 8-.5 5.2 0 9.2.4 14.4 1.4 3.3.7 8.6 2.1 8.8 2.4.1.1-3.3 10.9-3.5 11.1 0 0-.6-.3-1.1-.8-4.7-3.8-9.6-6.1-14.6-6.8-1.6-.2-4.6-.2-6.1 0-6.9 1.1-13.4 5.5-19.1 13.2-1.9 2.5-3.9 5.8-5.5 8.9-2.2 4.2-3.6 8-5.1 13-4.8 15.9-5 27.1-.7 33.1 1.8 2.5 4.4 4.1 7.6 4.7 1.9.3 6.5.1 6.9-.3.1-.1 2.3-7.1 5-15.5 4.4-13.9 4.8-15.5 4.9-16.3.1-1.1-.1-2-.6-2.9-.4-.8-1.6-2-2.5-2.5-.4-.2-.7-.4-.7-.5s7.3-.1 16.3-.1 16.3 0 16.3.1c0 0-.4.3-.9.5-2.5 1.2-4.4 2.9-5.5 5.2-.2.5-2.3 6.9-5.4 16.7l-5 15.9-1.4.7c-5.9 2.8-13 4.8-20.2 5.7-1.4 0-8.1.1-9.2 0zM0 85.8c0-.1.2-.2.5-.4 1.8-1 3.8-3.1 4.6-4.9.2-.6 22.6-71.7 23.1-73.6.1-.3.2-1 .2-1.5 0-1.6-.5-2.7-1.6-3.7l-.6-.6c0-.1 39-.1 40.8 0 3.9.3 7.8 1.3 10.7 2.8 5.1 2.6 8.1 6.5 9 11.6.3 1.4.3 4.6.1 6.2-.9 6.3-3.7 13-7.6 17.8-6.3 7.8-16.6 12.9-29.2 14.2-4 .4-9 .5-12.6.3-1-.1-1.9-.1-1.9-.1-.1.1-8.2 26-8.3 26.5-.3 1.8.6 3.8 2.2 4.8.3.2.5.4.5.5-.1.2-29.8.2-29.9.1zm44.3-38.4c2.9-.5 5.5-1.6 8-3.4 1.2-.9 3.7-3.3 4.7-4.7 2.6-3.5 4.5-7.5 6-12.9 1-3.4 1.4-6 1.4-8.7 0-2.1-.2-3.3-.7-4.7-.8-2.1-2.4-3.7-4.4-4.5-1.7-.7-3.2-.9-6.7-.8h-2.7l-6.2 19.7c-3.4 10.9-6.2 19.8-6.2 19.8 0 .1.5.2 1 .2.5.1 1 .1 1.1.2.4.1 3.9-.1 4.7-.2z" fill="#fff"/></svg>