<svg version="1.1" id="Southwest_Logo_1_" xmlns="http://www.w3.org/2000/svg" x="0" y="0" viewBox="0 0 223 34" xml:space="preserve"><style>.st0{fill:#fff}</style><path class="st0" d="M59 27.1c-.9.2-2 .3-3.1.3-3.2 0-3.9-1.1-3.9-3.2V12.1h-6v12.8c0 5.7 3.2 8.3 9.6 8.3 3.1 0 6-.6 9.5-1.4V12.1H59v15zm19.5.6c-2.2 0-2.5-1-2.5-2.7v-7.8h5v-5.1h-5v-6h-6v6h-3v5h3v8.2c0 3.6.7 7.8 6.7 7.8 1.8 0 3.3-.4 5-.9l-.6-5c-.9.3-1.7.5-2.6.5zM15.4 16.4c-1.1-.4-2.4-.8-3.7-1.2-3.5-1-4.6-1.5-4.6-3.1 0-1.8 1.3-2.7 4.5-2.7 2.6 0 4.9.7 7.2 1.5l1.3-5.8c-2.7-1-5.2-1.9-8.3-1.9C4.6 3.2.6 7.3.6 12.2c0 3.7 1.6 6.1 5.2 7.6 1 .4 2.3.8 3.6 1.2 3.9 1.2 5.1 1.8 5.1 3.3 0 1.8-1.5 2.8-4.6 2.8-2.8 0-5.4-.8-8.1-2l-1.4 6c3 1.2 5.9 2 9.5 2 7.4 0 11.2-4.1 11.2-9.1 0-4-2.3-6.3-5.7-7.6zm78.8-5.3c-2 0-3.9.5-5.2.9V2.1h-6v31h6V17.6c1.1-.4 2.3-.8 3.8-.8 2.3 0 3.2.9 3.2 3.1v13.2h6V19.2c0-5.5-2.5-8.1-7.8-8.1zM33.4 11c-6.1 0-11 4.3-11 11s4.9 11.2 11 11.2 11-4.4 11-11.2-4.9-11-11-11zm0 16.2c-2.6 0-4.7-1.9-4.7-5.3s2-5.2 4.7-5.2 4.7 1.8 4.7 5.2c0 3.5-2.1 5.3-4.7 5.3zm134.7-6.9c-.9-.3-1.8-.6-2.9-.9-2.1-.6-2.9-.9-2.9-1.8s.8-1.5 2.7-1.5c2 0 3.8.4 5.8 1l1-5.2c-2.2-.5-4.3-.9-6.7-.9-5.7 0-8.8 2.9-8.8 6.9 0 2.8 1.4 4.6 4.2 5.8.8.3 1.7.7 2.8 1 2.2.6 3.3.9 3.3 1.9s-1.3 1.4-3.1 1.4c-2.2 0-4.2-.4-6.3-1.2l-.9 5.2c2.6.7 5 1.2 7.7 1.2 6 0 8.7-3.1 8.7-7-.1-2.7-1.2-4.7-4.6-5.9zM145.6 11c-6.3 0-10.8 4.4-10.8 11.4 0 6.5 3.9 10.8 10.9 10.8 3.1 0 5.6-.9 8.2-2l-.9-5c-2 .9-4 1.6-6.4 1.6-3.6 0-5.1-1.5-5.3-3.7h13.5s.2-2.4.2-2.9c0-5.7-3.1-10.2-9.4-10.2zm-4.2 9.1c.4-1.8 1.3-4.1 3.9-4.1 2.6 0 3.4 2.6 3.4 4.1h-7.3zm43.1 7.6c-2.2 0-2.5-1-2.5-2.7v-7.8h5v-5.1h-5v-6h-6v6h-3.1v5.1h3.1v8.2c0 3.6.9 7.8 6.9 7.8 1.8 0 3.3-.4 5-.9l-.7-5c-1 .2-1.8.4-2.7.4zm4-24.4c-1.5 0-2.6 1.2-2.7 2.7s1.2 2.7 2.6 2.7c1.5 0 2.7-1.2 2.7-2.7s-1.1-2.7-2.6-2.7zm0 4.9c-1.2 0-2.1-.9-2.1-2.2s.9-2.2 2.2-2.2c1.2 0 2.2.9 2.1 2.2s-1 2.2-2.2 2.2zm.3-2.1c.5-.1.8-.3.8-.8s-.4-.9-1-.9h-1v3.1h.6V6.2c.2 0 .3.1.4.3l.7 1h.7l-.6-1c-.4-.2-.5-.3-.6-.4zm-.4-.3h-.3v-.9h.4c.4 0 .5.2.5.4 0 .4-.3.5-.6.5zm-59.2 6.3l-3.8 11.5-3.8-11.5h-5.2l-3.9 11.5-3.8-11.5h-6.5l7.5 21h5.5l3.8-11.4 3.8 11.4h5.5l7.5-21h-6.6z" id="Type"/><path class="st0" d="M190.9 18.2c0 5.6 6 10.9 11 14.4 1.5-1 3-2.2 4.4-3.4-6.7-5.6-13.1-10.7-15.3-12.5 0 .4-.1.9-.1 1.5zm21.7 2.6c-4.9-4-7.8-6.1-11-8-.9-.5-2.6-1.3-4.5-1.3-1.8 0-3.4.6-4.5 1.7-.7.7-1.2 1.6-1.4 2.7 2.5 1.8 9.4 6.7 16.3 12.2 2.3-2.2 4.2-4.7 5.1-7.3zm-1.3-7.6c-1.1-1.1-2.6-1.7-4.4-1.7-1.9 0-3.3.6-4.4 1.2 1.9 1.1 6 3.4 10.3 6.6.1-.4.1-.9.1-1.3.1-2-.5-3.7-1.6-4.8z"/></svg>