<svg version="1.1" id="layer" xmlns="http://www.w3.org/2000/svg" x="0" y="0" viewBox="0 0 652 652" xml:space="preserve"><style>.st0{fill:#fff}</style><path class="st0" d="M136.5 354.4c-9 0-13.5-5.2-13.5-13.7V318h-8.2v-8.9h8.2v-11.3l10.7-2.7v14H145v8.9h-11.3v21.7c0 3.4 1.5 4.9 5 4.9 2.2 0 4-.1 7-.4v9c-3 .8-6 1.2-9.2 1.2m41.3-.6v-27.6c0-5.2-1.7-8.3-7.4-8.3-6.5 0-9.2 6.9-9.2 12.4v23.5h-10.7v-62h10.7v22.1c2.6-3.8 7.6-5.8 12.2-5.8 9.5 0 15.1 6.8 15.1 16v29.8h-10.7v-.1zm56.9-19h-29.9c-.1 3.4 1.1 6.7 3.3 8.8 1.5 1.5 3.7 2.8 6.6 2.8 3.1 0 5-.6 6.5-2.2.9-.9 1.7-2.1 2.1-3.8h10.3c-.3 2.7-2.1 6.2-3.8 8.3-3.8 4.5-9.4 6.3-15 6.3-6.1 0-10.6-2.1-14.1-5.5-4.5-4.3-6.9-10.6-6.9-17.9 0-7.1 2.1-13.5 6.4-17.9 3.4-3.4 8.2-5.7 14.3-5.7 6.6 0 12.6 2.7 16.3 8.2 3.3 4.9 4 10 3.9 15.6.1 0 0 2.1 0 3m-13.4-15.6c-1.5-1.5-3.7-2.6-6.8-2.6-3.3 0-5.9 1.4-7.5 3.4-1.5 2-2.2 4-2.3 7H224c0-3.3-1-5.9-2.7-7.8m36-16v50.6h-11.1v-50.6h-18v-10.3h47.1v10.3z"/><path class="st0" d="M293.7 318.7c-7.6 0-11.5 5.4-11.5 12.6v22.5h-10.8v-44.7h9.1l.9 6.7c2.1-5.2 7.4-7.3 12.6-7.3 1.1 0 2.2.1 3.4.3v10.3c-1.2-.2-2.5-.4-3.7-.4m40.1 35.8c-4.6 0-7.2-2.9-7.6-6.3-2.1 3.6-7.2 6.7-13.6 6.7-10.7 0-16.2-6.7-16.2-14 0-8.5 6.6-13.4 15.1-14l13.2-1v-2.7c0-4.2-1.5-7-7.6-7-5 0-7.9 2.2-8.2 6.4h-10.4c.6-10.1 8.6-14.5 18.6-14.5 7.7 0 14.2 2.4 16.8 9.1 1.1 2.8 1.3 6 1.3 9v16.6c0 2.1.7 2.8 2.5 2.8.7 0 1.4-.2 1.4-.2v7.9c-1.8.8-2.8 1.2-5.3 1.2m-9.1-20.5l-11.3.9c-3.3.3-6.4 2.2-6.4 5.8 0 3.4 3 5.6 6.4 5.6 6.7 0 11.4-3.6 11.4-10.2V334h-.1zm48.4 19.8l-.7-4.9c-2.7 4.1-7.7 5.9-12.5 5.9-4.5 0-8.2-1.6-10.9-3.8-5.3-4.4-7.9-11.1-7.9-19.5 0-8.8 2.7-15.6 8-19.9 2.7-2.2 6.4-3.6 10.9-3.6 5.7 0 9.8 1.9 11.7 4.2v-20.4h10.7v62h-9.3zM362 317.1c-3.3 0-5.7 1.5-7.2 3.5-2.2 2.9-2.8 7-2.8 10.8 0 3.9.6 8 2.8 10.9 1.5 2 3.9 3.5 7.2 3.5 8.4 0 10.1-8 10.1-14.4.1-6.4-1.6-14.3-10.1-14.3m67.2 17.7h-29.9c-.1 3.4 1.1 6.7 3.3 8.8 1.5 1.5 3.7 2.8 6.6 2.8 3.1 0 5-.6 6.5-2.2.9-.9 1.7-2.1 2.1-3.8h10.3c-.3 2.7-2.1 6.2-3.8 8.3-3.8 4.5-9.4 6.3-15 6.3-6.1 0-10.6-2.1-14.1-5.5-4.5-4.3-6.9-10.6-6.9-17.9 0-7.1 2.1-13.5 6.4-17.9 3.4-3.4 8.2-5.7 14.3-5.7 6.6 0 12.6 2.7 16.3 8.2 3.3 4.9 4 10 3.9 15.6.1 0 0 2.1 0 3m-13.4-15.6c-1.5-1.5-3.7-2.6-6.8-2.6-3.3 0-5.9 1.4-7.5 3.4s-2.2 4-2.3 7h19.3c0-3.3-1-5.9-2.7-7.8m60.5 28.1c-4 4.2-10.1 6.5-17.1 6.5h-23.7v-60.9h23.7c7 0 13.1 2.3 17.1 6.5 6.3 6.4 7.1 15.5 7.1 23.9 0 8.5-.8 17.6-7.1 24m-8.5-41c-2.1-2.1-5.1-3.4-8.6-3.4h-12.6v41h12.6c3.5 0 6.5-1.4 8.6-3.4 4.3-4.3 4.4-11.5 4.4-17.1 0-5.7-.1-12.8-4.4-17.1m59.5 28.5h-29.9c-.1 3.4 1.1 6.7 3.3 8.8 1.5 1.5 3.7 2.8 6.6 2.8 3.1 0 5-.6 6.5-2.2.9-.9 1.7-2.1 2.1-3.8h10.3c-.3 2.7-2.1 6.2-3.8 8.3-3.8 4.5-9.4 6.3-15 6.3-6.1 0-10.6-2.1-14.1-5.5-4.5-4.3-6.9-10.6-6.9-17.9 0-7.1 2.2-13.5 6.4-17.9 3.4-3.4 8.2-5.7 14.3-5.7 6.6 0 12.6 2.7 16.3 8.2 3.3 4.9 4 10 3.9 15.6v3m-13.4-15.6c-1.5-1.5-3.7-2.6-6.8-2.6-3.3 0-5.9 1.4-7.5 3.4-1.5 2-2.2 4-2.3 7h19.3c-.1-3.3-1-5.9-2.7-7.8m59.7-27.4v62h10.7v-11.7l7.1-7.8 12.6 19.5h12.4l-17.6-27.4 15.9-17.2h-13.5l-16.9 18.1v-35.5zm-18 35.6c-4.4-.7-5.5-.8-9.5-1.3-2.4-.3-5.2-1.3-5.2-4.5 0-2.3 1.5-4 3.4-4.7 1.6-.7 3.1-.7 4.6-.7 2.2 0 4.6.8 5.8 2.1 1 1.1 1.8 2.5 1.8 4.2h10.2c0-3.3-1.5-6.6-3.9-9.2-3.3-3.5-8.7-5.2-14-5.2-5.6 0-10.3 1.6-13.6 4.5-2.7 2.3-4.6 5.5-4.6 10.1 0 5.7 4.1 10.7 10.2 11.9 3.9.9 8.4 1.1 12.4 1.7 2.8.4 4.5 2.2 4.5 4.7 0 4.9-5.5 5.7-9.1 5.7-3.1 0-5.1-.6-6.8-2-1.2-.9-2-2.6-2.3-4.3h-10.1c.3 3.8 2.3 7.1 4.7 9.4 3.7 3.5 8.8 5.2 14.4 5.2 6.1 0 11.7-1.5 15.3-5.2 2.3-2.3 3.9-5.5 3.9-9.8.1-7-5-11.5-12.1-12.6M43.1 289v11.5h11.8v30.1h11.4V289z"/><path class="st0" d="M36.9 327.9c0-9 5-16.8 12.4-20.8H32.4c-4.3 5.8-6.9 13-6.9 20.8 0 15.5 10 28.6 24 33.3v-12.3c-7.5-4-12.6-11.9-12.6-21M72 294.7v12.4c7.4 4 12.4 11.8 12.4 20.8 0 13.1-10.6 23.7-23.7 23.7-2 0-3.9-.2-5.7-.7v11.6c1.8.3 3.7.5 5.7.5 19.4 0 35.1-15.7 35.1-35.1-.1-15.4-10-28.4-23.8-33.2m549.4 17.1c-2.4 0-4.1-1.9-4.1-4.2s1.8-4.2 4.1-4.2c2.4 0 4.1 1.9 4.1 4.2 0 2.4-1.8 4.2-4.1 4.2zm0-7.6c-2 0-3.4 1.5-3.4 3.5s1.3 3.5 3.4 3.5 3.4-1.5 3.4-3.5c-.1-2.1-1.4-3.5-3.4-3.5zm.9 5.6l-.7-1.6h-.9v1.6h-.8v-4.4h1.6c.8 0 1.6.5 1.6 1.4 0 .6-.3 1-.8 1.3l.8 1.7h-.8zm-.8-3.7h-.9v1.4h.9c.5 0 .8-.2.8-.7s-.3-.7-.8-.7z"/></svg>