<svg version="1.1" id="svg3058" xmlns="http://www.w3.org/2000/svg" x="0" y="0" viewBox="0 0 725.1 51.2" xml:space="preserve"><style>.st0{fill:#fff}</style><g transform="translate(-528 -192)" id="g16865"><g id="g16867"><path id="path16869" class="st0" d="M680.5 219.1l.4.1-.1.4.6-.7-.9.2zm.1-1l.5-.5-.7.1v.1l.3.1-.1.2zm-1.6 4.1h-.6v.1l.2.1-.1.2.5-.4zm1.2-.9h-.7v.1l.3.1-.1.3.5-.5zm.6-.7l.4.1-.1.4h.1l.5-.7-.9.2zm-1.9 2.9l.2.2-.1.2.5-.4v-.1l-.6.1zm3.6.1l.4-.4-.6.1v.1l.2.1v.1zm.3-3.7l.7-.9-1.1.3v.1l.5.1-.1.4zm-2.1 2.6h-.7v.1l.3.1-.2.3.6-.5zm1.3-5l.5.1-.2.5.8-.8-1.1.2zm-.3 5l.6-.7-.9.2v.1l.4.1-.1.3zm1.8-6.9l.5-.3v-.1h-.6v.1l.2.1-.1.2zm-1.6.9l.8-.5v-.1h-.9v.1l.4.2-.3.3zm3 4.5l.3.1-.1.3.5-.5-.7.1zm2.1-5.1l.5-.3v-.1h-.6v.1l.2.1-.1.2zm-5.7 7.7h-.6v.1l.2.1-.1.2.5-.4zm4.1-7.9l.6-.4v-.1h-.7v.1l.3.1-.2.3zm-1.1 3.8l.4.1-.1.4h.1l.6-.7-1 .2zm.6-5.2h2.9s.9.4 2.2.8c.6.2.9.7.8 1.3l.8.8c.3.4.4.9.1 1.2-.2.3-.6.4-.8.4v-.1c.2-.2.1-.5-.1-.8-.2-.3-.3-.3-.5-.2-.1.1-.2.1-.2.1l.5.7v.1c-.4.1-.9 0-1.1-.3h-2.3v.1l1.3.2v.1l-4.3 5.1 1.5-1.3v1.2l-.1.3.1.8v.3l1.3 1.2h.3l.1.1.1.1.1.1s0 .1.1.1c0 0 0 .1.1.1v.5h.1v-.6s0-.1-.1-.1c0 0 0-.1-.1-.1l-.1-.1-.1-.1h-.1c.2 0 .3-.1.5-.1h.3l.1.1.1.1.1.1s0 .1.1.1v.6h.1v-.6s0-.1-.1-.1c0 0 0-.1-.1-.1l-.1-.1-.1-.1h-.1c2.4-.5 4.2-.9 4.2-.9 2.4 1.4 2.2 1.3 2.7 1.6.9.5.9 2-.9 2-1.3 0-3.7.2-5.2.5l1.3-1.2s-1.3.9-2.8 1.7c-.8.3-2.1.9-3.4 1.4l1.9-1.8s-2.4 1.9-4.1 2.9c-1 .5-1.9.9-2.4 1.1-.7.3-1.2.4-2 .1-1.2-.4-1.7-.6-2.8-1-.6-.2-.7-1.1 0-1.3.3-.1 1-.3 1.5-.5.2.1.4.2.7.3.3.2.7.3 1 .4.2.1.3.1.5.2h.2c.1 0 .1.1.2.1.1.1.2.2.2.3v.6h.1v-.6c0-.1-.1-.2-.2-.4-.1-.1-.1-.1-.2-.1 0 0-.1 0-.1-.1-.1-.1-.3-.2-.4-.3-.3-.2-.6-.4-1-.6-.7-.4-1.5-.8-2-1.1 0 0 2.6-.8 5.8-1.7l.5.2-.3-.2-.8-.7-.4-.1-.3-.7-.4-.2-.4-1.6h-.1l.1 1.8-1 .6v-2.4h-.1l-.3 2.5-1.4.3.5-2.7h-.1l-.8 2.8-1.3.1 1-2.9h-.1l-1.4 2.9-1.3.1 1.5-3-2.1 3.1-1.4.2 2.3-3.4-3.8 4.5-.2-.1 3.4-5.4 5.3-2s.4-.2.6-.2c.1 0 .2-.1.3-.1.1 0 .1-.1.2-.1s.1-.1.2-.1c.1-.1.2-.2.3-.2l.1-.1.1-.1.1-.1.1-.1.1-.1s0-.1.1-.1c0 0 0-.1.1-.1 0-.1.1-.2.1-.2v-.3h-.1v.1s0 .1-.1.2c0 .1-.1.1-.1.2 0 0 0 .1-.1.1 0 0 0 .1-.1.1l-.1.1-.1.1-.1.1-.1.1-.1.1c-.1.1-.2.1-.3.2l-.1.1c-.1 0-.1.1-.2.1s-.2.1-.3.1c-.2.1-.4.1-.6.2-.2.1-.3.1-.4.1l-.3-.7.7-.6-1.8 1.1-.4-.9 2.5-1.8v-.1l-3.8 2.2-.3-.9 3.5-2.4-4.6 2.5-.6-1 3.9-2.5v-.1l-4.7 2.4-.1-1 3.9-2.1v-.1l-4.8 2v-1l3.9-1.5v-.1l-4.8 1.3.1-1.1 3.6-.8v-.1l-4.7.6.1-.9 3.4-.4v-.1l-4.8.1.1-.8h3.8v-.1l-6.9-.5v-.1l1.1-.4v-.1l-2.8-1.1v-.1l1.1-.1v-.1l-2.5-1.5v-.1l1.7.1v-.1l-2-1.9v-.1l.9.2-.9-1.2-.6-1.7h.1l.9 1.1 2 1.2-1.3-1.9-.5-2.1h.1l1 1.6 2 1.7-1.2-2.3-.4-2.8h.1l1.2 2.3 2.5 2.1-1.8-2.8-.4-3.4h.1l1.1 3 3.6 3.2 4.6 2.3 5 6.9 1.9 1.6-.9-1.1 2-.5v-.1l-1.7-.1v-.1l2.6-.5v-.1l-3.2-.2v-.1l4.1-.7 1.6.4v-.1l-1.5-.7-2.5.1v-.1l2.7-.5 1.7.6v-.1l-1.5-1-1.8-.1v-.1l2-.3 1.8.8v-.1l-1.4-1.4H683v-.1l1.9-.4 1.7 1.4-1.3-1.9-1.4-.3v-.1l1.8-.1 1.6 2-1.2-2.5-1.6-.5v-.1l2 .2 1.5 2.6h.1l-1-3-2-.7v-.1l2.4.4 1.3 3.1h.1l-.9-3.5-2.1-1.2v-.1l2.5.9 1.2 3.5h.1l-.7-3.8-2.3-1.7v-.1l2.6 1.5 1 3.7h.1l-.7-3.9-2.4-2.1 2.8 1.9.8 3.7h.1l-.4-4-2.4-2.6 2.8 2.4.6 3.6h.1l-.3-3.8-2.2-2.9 2.6 2.8.4 3.1h.1l-.1-3.3-2.1-3.2 2.4 3 .3 2.3h.1l-.1-2.4-1.5-3.3h.1l1.8 3.1.2 1.3h.1l.1-1.4-.8-3.1h.1l1 2.6h.1l.6-2.6h.1l-.2 2.5h.1l1.8-2.5-1.1 2.3 2.7-1.9-4.1 5.5s-1.3 3.6-1.8 4.7c-.1.2-.2.4-.5.5-.1.1-3.3 1.3-3.3 1.3l-.9.8-2.5 1.3zm-4.5-22.3c-13.9 0-25.2 11.3-25.2 25.2s11.3 25.2 25.2 25.2c13.9 0 25.2-11.3 25.2-25.2S694.3 192 680.4 192m3.7 25.8l.5.1-.2.5h.1l.7-.8-1.1.2zm2 2.1l.2.1-.1.2.4-.4-.5.1zm-3.9 7.9c0 .1.1.1 0 0l.1.1.1.1.1.1s0 .1.1.1c0 0 0 .1.1.1v.5h.1v-.6s0-.1-.1-.1v-.1l-.1-.1-.1-.1h-.5v.1c.1-.1.1-.1.2-.1m2.3 1c-.1 0-.1 0-.2.1-.1 0-.3.1-.5.1-.1 0-.3.1-.5.1-.1 0-.2 0-.2.1l-.3.1c-.3.1-.7.2-1.1.4-.2.1-.5.2-.7.3-.1 0-.3.1-.4.1-.1 0-.2.1-.3.1-.1 0-.1 0-.2.1-.1 0-.2.1-.3.1h-.1c-.2.1-.3.1-.5.2-.1 0-.1.1-.2.1-.2.1-.3.1-.3.1v.1s.1 0 .3-.1c.1 0 .1 0 .2-.1.1 0 .3-.1.5-.2l.1-.1c.1 0 .2-.1.3-.1l.2-.1c.1 0 .2-.1.3-.1.1 0 .2-.1.4-.1.2-.1.5-.2.7-.3.4-.1.7-.3 1.1-.4.2-.1.3-.1.5-.2.1 0 .2-.1.3-.1h.1c.2-.1.3-.1.5-.2.1 0 .1 0 .2-.1l.3-.1v-.1l-.2.3zm-4.9.8l.2-.1c.3-.1.5-.2.8-.3.1 0 .2-.1.3-.1h.1l.3-.1c.1 0 .3-.1.4-.1h.1c.1 0 .2-.1.2-.1v-.1h-.3c-.1 0-.2.1-.4.1l-.3.1c-.1 0-.2 0-.3.1h-.1c-.2.1-.5.2-.8.3-.2.1-.4.1-.6.2l-.2.1h-.1c-.2.1-.4.2-.6.2-.1 0-.2.1-.2.1h-.1l-.2.1c-.1 0-.2.1-.2.1v.1s.1 0 .2-.1h.3c.1 0 .1 0 .2-.1.1 0 .3-.1.4-.1.1 0 .2-.1.3-.1.2-.1.4-.1.6-.2m4.1-7.2l.3.1-.1.3.5-.5-.7.1zm-.5-.8l.6-.9-1.1.4v.1h.5v.4zm3.4-3.4l-.7.1v.1l.3.1-.1.3.5-.6zm-3.4 8.1l-1.5-1.8h-.1l.4 2.2.8.9h.3l.1.1.1.1.1.1.1.1s0 .1.1.1v.5h.1v-.6s0-.1-.1-.1c0 0 0-.1-.1-.1l-.1-.1s-.1 0-.1-.1h-.2.1c.1 0 .3-.1.4-.1h.3l.1.1s.1 0 .1.1l.1.1s0 .1.1.1c0 0 0 .1.1.1v.5h.1v-.6s0-.1-.1-.1c0 0 0-.1-.1-.1l-.1-.1-.1-.1h-.1l1.2-.3-1.3-.7-.7-.2zm2.5-9.7l.4.2-.2.4.7-.6v-.1l-.9.1zm-13.1-8.2l-1.7.9-.1-.5h-.1v.8h.1l1.8-1.2zm1.6 2l-2.4 1.3-.1-.5h-.1v.8h.1l2.5-1.6zm-.8-1l-2.2 1.2-.1-.5h-.1v.8h.1l2.3-1.5zm3.5 4l-1.7.9-.1-.5h-.1v.8h.1l1.8-1.2zm-.9-1l-2 1.1-.1-.5h-.1v.8h.1l2.1-1.4zm-.9-1l-2.3 1.2-.1-.5h-.1v.8h.1l2.4-1.5zm-5.5-1.2l-5.2-1.5-2.3-1.9-.1.1 2.2 2.2 5.4 1.1zm.1-1.1l-4.4-1.5-2.2-2-.1.1 2 2.3 4.7 1.1zm14.1 7.1l.4.2-.2.4.7-.6v-.1l-.9.1zm-19.4-5l1.9.6 3.8.3v-.1l-5.7-.8zm.5-6.5l1.5 2.2 3.9 1.3v-.1l-3.6-1.5-1.8-1.9zm12.8 9.8l-1.2.6-.1-.5h-.1v.8h.1l1.3-.9zm-8.1-3.5l-7.2-1.5v.1l1.9.7 5.3.8v-.1zm2.2-3.3l-3.3-1.7-2-2.7-.1.1 1.8 3 3.6 1.3zm14.1 20.7h.4c.1 0 .2 0 .4-.1.1 0 .2 0 .3-.1h.1c.1 0 .3-.1.4-.1.1 0 .3-.1.3-.1h.4v-.1h-.4c-.1 0-.2 0-.4.1-.1 0-.3.1-.4.1-.2.1-.5.1-.7.2-.1 0-.1 0-.2.1h-.1c-.1-.1-.2-.1-.1 0zm3-1.3h.4c.3 0 .6-.1 1-.2h.1c.1 0 .3-.1.4-.1h.2c.1 0 .2 0 .2-.1.1 0 .2 0 .2-.1h.2v-.1h-.4c-.1 0-.3 0-.4.1-.2 0-.3.1-.5.1-.3.1-.7.1-1 .2-.1 0-.2 0-.2.1h-.1c-.1 0-.1 0-.1.1zm-2.6-.3c.1 0 .1.1.1.1l.1.1.1.1s0 .1.1.1v.6h.1v-.6s0-.1-.1-.1c0 0 0-.1-.1-.1 0 0 0-.1-.1-.1l-.1-.1h-.4.3c-.1 0 0 0 0 0m2.8-8.8c0 .1 0 .1 0 0 0 .1 0 .1 0 0v-.2h.3v-.1h-.4s-.1 0-.1.1v.1s0 .1-.1.1c.3-.1.3-.1.3 0m.1-1.6c0 .1.1.1.1.2h.4l.1-.1s0-.1.1-.1v-.3h-.1v.1h-.2v-.1h-.2s0 .1-.1.1-.1 0-.1.2c0-.1 0-.1 0 0zm2 1.2c0 .1.1.1 0 0 .1.1.1.1 0 0 .1.1.1.1.1.2v-.5s0-.1-.1-.1c-.2-.2-.5-.4-.7-.7l-.2.2c.4.5.6.7.9.9m-12.5 0v-.2h-.1l-.1.5h.1l.9-.6v-.1l-.8.4zm-.3-2.1l-.9.4-.1-.3h-.1v.7h.1l1-.8zm.5 3.1v-.2h-.1l-.1.5h.1l.7-.5v-.1l-.6.3zm.4-2.4l-1 .5v-.3h-.1l-.1.6h.1l1.1-.8zm11.8 11.1c-.1 0-.2 0-.4.1-.1 0-.2 0-.4.1h-.6c-.1 0-.2 0-.3.1h-.3v.1h1.3c.1 0 .3 0 .4-.1h.7l.3-.1c.2 0 .3 0 .4-.1h.9v-.1h-1.7c0-.1-.3 0-.3 0m-15.5-4.1l.2.2-.1.2.5-.4v-.1h-.6v.1zm1.1 9.3l-.8-.4.8-.4v-.1l-1.2.3s-.1 0-.1.1 0 .2.1.2l1.2.4c.2.1.4.1.6.2l.6.2v-.1l-.6-.3c-.2.1-.4 0-.6-.1m.5-9.3l.2.2-.1.2.5-.4v-.1h-.6v.1z"/></g></g><path id="path16871" class="st0" d="M17.3.8h-3C7.8.8 5.5 3.8 3 9.9L.7 15.7H0V.1h42.7v15.7H42L39.7 10C37.2 3.8 34.9.9 28.4.9h-3v39.7c0 3.1 1 6.1 5.7 6.8l1.7.3v.7H9.9v-.7l1.7-.3c4.7-.8 5.7-3.7 5.7-6.8V.8zm40-.7v20.7c1.3-2.2 5.2-6.5 10.7-6.5 5.4 0 11 3 11 12.3v16.7c0 1.8.7 3.2 3 3.8l1.3.3v.7H67.1v-.7l1.3-.3c2.3-.6 3-2.1 3-3.8v-16c0-6.3-3.7-8.6-7.2-8.6-2.5 0-5 1.3-6.9 2.8v21.8c0 1.8.7 3.2 3 3.8l1.3.3v.7H45.5v-.7l1.3-.3c2.3-.6 3-2.1 3-3.8V5c0-1.8-.7-3.2-3-3.8L45.5.9V.1h11.8zm44 14.2c8.7 0 13.6 5.8 13.6 12.6v.3H93.2c-.1.8-.1 1.6-.1 1.9 0 8.9 4.7 15.3 12.2 15.3 4.8 0 8.2-3.2 9.4-5.9l.6.3c-.5 3-5 10.5-14.1 10.5-9.8 0-15.7-7.4-15.7-17.6.1-9.1 6-17.4 15.8-17.4m-8.1 12.2h14v-2.2c0-4.6-1.3-9.2-5.9-9.2-5.1 0-7.3 4.5-8.1 11.4"/><path id="path16873" class="st0" d="M196.6 42.4c0 3.2 1 6 5.9 7l1.8.4v.4h-23.7v-.4l1.8-.4c4.9-1 5.9-3.8 5.9-7V7.9c0-3.2-1-6.1-5.9-7.1l-1.8-.4V.1h23.7v.4l-1.8.4c-4.9 1-5.9 3.9-5.9 7.1v34.4zm57.5-31.9v40.7h-.5L217.2 8.3l.2 26.4c.1 12 3.9 13.6 8.2 14.7l1.1.3v.4h-19.4v-.4l1.1-.3c4.3-1.1 8.2-2.8 8.2-14.7V7.9l-.7-.9c-3.8-4.2-6.2-5.9-10.2-6.6V.1h17.4c1.8 3.2 4.4 6.4 10.1 13.1l20.4 24.2-.2-25.7c-.1-8.6-3.2-10.4-7.6-11l-1.6-.2V.1h45c18.6 0 28.1 11.7 28.1 24.8 0 13.1-9.5 25.2-28.1 25.2h-25v-.4l1.7-.3c5.1-.9 6-3.8 6-7.1V10.5c0-7.6-3.9-10.1-8.9-10.1s-8.9 2.5-8.9 10.1m33.5 39.3c13.3 0 20.3-9.4 20.3-24.7C307.9 9.9 300.3.4 287 .4h-6.9v41.9c0 4.1.9 7.4 5.9 7.4h1.6zm56.1 0c8 0 12.2-2.3 15.7-8.1l3.4-5.6h.4v14.2H319v-.4l1.8-.3c4.9-.8 5.9-3.9 5.9-7.1V7.7c0-3.4-1-5.9-5.9-6.9L319 .4V.1h42.2v14.2h-.4l-3.4-6.1c-3.4-6.1-8-7.7-16.7-7.7h-5.9v23.7l3.6-.1c7.7-.1 10.2-.5 12.7-8.2l.8-2.5h.4v21.9h-.4l-.8-2.4c-2.5-7.8-4.9-8.1-12.7-8.2l-3.6-.1v18c0 4.3 1.6 7.2 6.6 7.2h2.3zM390.5.1c11.2 0 19.1 6.1 19.1 14.9 0 8.9-7.9 15-19.1 15h-3.1v-.4h.1c8.1 0 12.9-5.6 12.9-14.6 0-8.9-4.8-14.6-12.9-14.6H385v41.2c0 5.4 1.4 6.6 7.2 7.8l1.4.3v.4h-24.7v-.4l1.8-.4c4.9-1 5.9-3.8 5.9-7V7.8c0-3.2-1-6-5.9-7l-1.8-.4V.1h21.6zm45.9 49.7c8 0 12.2-2.3 15.7-8.1l3.4-5.6h.4v14.2h-44.2v-.4l1.8-.3c4.9-.8 5.9-3.9 5.9-7.1V7.7c0-3.4-1-5.9-5.9-6.9l-1.8-.4V.1h42.2v14.2h-.4l-3.4-6.1c-3.4-6.1-8-7.7-16.7-7.7h-5.9v23.7l3.6-.1c7.6-.1 10.2-.5 12.7-8.2l.8-2.5h.4v21.9h-.4l-.8-2.4c-2.5-7.8-4.9-8.1-12.7-8.2l-3.6-.1v18c0 4.3 1.6 7.2 6.6 7.2h2.3zm71.3-39.3v40.7h-.5L470.9 8.3l.2 26.4c.1 12 3.9 13.6 8.2 14.7l1.1.3v.4H461v-.4l1.1-.3c4.3-1.1 8.2-2.8 8.2-14.7V7.9l-.7-.9c-3.8-4.2-6.2-5.9-10.2-6.6V.1h17.4c1.8 3.2 4.4 6.4 10.1 13.1l20.4 24.2-.2-25.7c-.1-8.6-3.2-10.4-7.6-11l-1.6-.2V.1h45C561.5.1 571 11.8 571 24.9c0 13.1-9.5 25.2-28.1 25.2h-25v-.4l1.7-.3c5.1-.9 6-3.8 6-7.1V10.5c0-7.6-3.9-10.1-8.9-10.1s-9 2.5-9 10.1m33.6 39.3c13.3 0 20.3-9.4 20.3-24.7C561.6 9.9 554 .4 540.7.4h-6.9v41.9c0 4.1.9 7.4 5.9 7.4h1.6v.1zm56.1 0c8 0 12.2-2.3 15.6-8.1l3.4-5.6h.4v14.2h-44.2v-.4l1.8-.3c4.9-.8 5.9-3.9 5.9-7.1V7.7c0-3.4-1-5.9-5.9-6.9l-1.8-.4V.1h42.2v14.2h-.4L611 8.2c-3.4-6.1-8-7.7-16.6-7.7h-5.9v23.7l3.6-.1c7.6-.1 10.2-.5 12.6-8.2l.8-2.5h.4v21.9h-.4l-.8-2.4c-2.5-7.8-4.9-8.1-12.6-8.2l-3.6-.1v18c0 4.3 1.6 7.2 6.6 7.2h2.3zm70.7-36.7c-.1-9.2-3.2-11.8-7.6-12.4l-1.6-.2V.1h19.2v.4l-1.6.2c-4.4.6-7.6 3.2-7.6 12.4v38.1h-.5L631.9 8.3l.2 26.4c.1 12 3.9 13.6 8.2 14.7l1.1.3v.4H622v-.4l1.1-.3c4.3-1.1 8.2-2.8 8.2-14.7V7.9l-.7-.9c-3.8-4.2-6.2-5.9-10.1-6.6V.1h17.4c1.8 3.2 4.4 6.4 10.1 13.1l20.4 24.2-.3-24.3zM698.8.4h-3.1c-6.7 0-9.5 3.4-12.1 9.9l-2.4 6.1h-.4V.1h44.3v16.3h-.4l-2.4-6.1C719.7 3.9 717 .4 710.2.4h-3.1v42c0 3.2 1 6.3 5.9 7.1l1.8.3v.4h-23.7v-.4l1.8-.3c4.9-.8 5.9-3.9 5.9-7.1V.4z"/></svg>