<svg version="1.1" id="svg3016" xmlns="http://www.w3.org/2000/svg" x="0" y="0" viewBox="0 0 935.4 672.3" xml:space="preserve"><style>.st0{fill-rule:evenodd;clip-rule:evenodd;fill:#fff}</style><path id="path3032" class="st0" d="M444.3 423.6c-36.2-22.5-62.9-100.1-62.9-192.4 0-3.4 0-6.7.1-10.1-100.5-15.6-173.3-58.6-175.2-109.5l-.3.6c-24.6 30.4-38.7 65.5-38.7 102.9 0 110.1 121.8 200.4 276.3 208.3l.7.2zM120.8 223.1C120.8 99.9 275.3 0 466 0c190.6 0 345.2 99.9 345.2 223.1S656.6 446.3 466 446.3c-190.7 0-345.2-99.9-345.2-223.2zM466 32.2c36.8 0 68.1 55.4 79.7 132.7v-.1c71.6-11.1 121.7-36.6 121.7-66.3 0-39.8-90.2-72.1-201.5-72.1S264.4 58.7 264.4 98.5c0 29.7 50.1 55.2 121.7 66.3v.1C397.9 87.6 429.2 32.2 466 32.2zm22.3 391.3c154.5-8 276.4-98.2 276.4-208.3 0-37.4-14.1-72.5-38.7-102.9l-.3-.6c-1.9 50.9-74.6 93.9-175.3 109.6.1 3.3.1 6.7.1 10.1 0 92.3-26.7 169.9-62.9 192.4l.7-.3zM466 170.6c16.5 0 32.5-.7 47.8-2-7.6-49.6-26.2-84.5-47.8-84.5-21.7 0-40.2 35-47.8 84.5 15.2 1.3 31.3 2 47.8 2zm0 183.5c27.7 0 50.3-57.2 51.5-129l.1.1c-16.7 1.5-34 2.3-51.7 2.3-17.7 0-35-.8-51.7-2.3l.2-.1c1.3 71.8 23.9 129 51.6 129z"/><g id="g3065" transform="translate(-1860.905 14.947) scale(1.31768)"><path id="path3034" class="st0" d="M1766.7 436.1c0-34.7 28.1-62.8 62.8-62.8 34.7 0 62.8 28.1 62.8 62.8 0 34.7-28.1 62.8-62.8 62.8-34.7 0-62.8-28.1-62.8-62.8zm62.8 39.7c19.4 0 35.1-17.8 35.1-39.8 0-22-15.7-39.8-35.1-39.8-19.4 0-35.1 17.8-35.1 39.8s15.7 39.8 35.1 39.8z"/><path id="polygon3036" class="st0" d="M1963.6 496h-26.5v-96.6h.1-37v-21.8h100.3v21.8h-36.9z"/><path id="path3038" class="st0" d="M2032.5 469.4l-10.2 26.7h-30.9l48.9-118.5h33l48.9 118.5h-30.9l-10.2-26.6h-48.6v-.1zm24.3-20h16.7L2057 406h-.2l-16.5 43.4h16.5z"/><path id="polygon3040" class="st0" d="M1475.7 496h-26.5v-96.6h.1-37v-21.8h100.3v21.8h-36.9z"/><path id="path3042" class="st0" d="M1519.4 436.1c0-34.7 28.1-62.8 62.8-62.8 34.7 0 62.8 28.1 62.8 62.8 0 34.7-28.1 62.8-62.8 62.8-34.7 0-62.8-28.1-62.8-62.8zm62.8 39.7c19.4 0 35.1-17.8 35.1-39.8 0-22-15.7-39.8-35.1-39.8-19.4 0-35.1 17.8-35.1 39.8s15.7 39.8 35.1 39.8z"/><path id="polygon3044" class="st0" d="M1705.8 496h13.5v-45l46.1-73.4h-30.9l-28.7 49.8-28.7-49.8h-30.9l46.2 73.4v45z"/></g></svg>