<svg version="1.1" id="Layer_1" xmlns="http://www.w3.org/2000/svg" x="0" y="0" viewBox="0 0 658.2 146" xml:space="preserve"><style>.st0{fill:#fff}</style><g id="AgQ0rQ_1_"><path class="st0" d="M499.7 117.8c-12.7 14.1-38.8 13-52.3.6-7.3-6.7-11.4-15-12.5-24.7-1.3-12.1.8-23.4 8.8-33 11.3-13.6 34-17.6 48.9-8.6 2.2 1.3 4.2 3.1 6.5 4.8.1-1 .2-1.8.2-2.6 0-10.8.1-21.6-.1-32.4 0-2.1.5-2.9 2.7-2.8 4.3.1 8.6.1 12.9 0 2.4-.1 3.2.6 3.2 3.1-.1 14.1-.1 28.2-.1 42.3v59.2c0 3.4 0 3.4-3.3 3.4h-2.3c-7.7-.1-10.2-1.9-12.6-9.3zm-23.3-6c13.6 0 23.1-9.7 23.1-23.9.1-14.4-9.3-24.5-22.9-24.5-13.5 0-23 9.9-23.1 24-.1 14.4 9.2 24.3 22.9 24.4zM315.6 56.2c2.8-7.2 5.2-8.8 12.7-8.8 6.3 0 6.3 0 6.3 6.3v69c0 3.3 0 3.3-3.4 3.3h-3c-6.6 0-9.3-1.9-11.4-8.1-.1-.2-.2-.4-.4-.7-.3.2-.6.3-.8.6-11.8 10.9-25.5 11.6-39.7 6.7-14-4.9-21.7-15.5-24-30-1.5-10-.6-19.7 4.5-28.7 6.5-11.5 16.7-17.5 29.7-18.9 11.1-1.2 21.1 1.2 29.5 9.3zm-45.3 30.6c0 11.6 6.2 20.6 16.1 23.3 14.7 3.9 27.4-4.6 29.6-19.7 2.5-17.8-11.4-31-28.7-27.2-10.4 2.3-17 11.6-17 23.6zm96-29.7c11-10.1 23.7-12.1 37.4-8.6 12.7 3.3 19.5 12.3 21.4 25.1.4 2.4.5 4.9.5 7.3.1 14.3 0 28.7.1 43 0 2.4-.6 3.4-3.1 3.2-1.8-.2-3.5 0-5.3 0-6.4-.1-10.4-4-10.4-10.5-.1-10.4.1-20.8-.1-31.1 0-3.2-.2-6.4-1-9.5-1.7-7.1-6.4-11.1-13.6-12.1-14.4-2.1-24.8 6.4-25.2 20.9-.3 10.4-.1 20.8-.1 31.1 0 7.4-3.8 11.2-11.2 11.2-1.7 0-3.4-.1-5.1 0-2.1.2-2.6-.8-2.6-2.7V50.5c0-2.2.8-2.9 2.8-2.7 1 .1 2 0 3 0 7.5.1 10.3 2.1 12.5 9.3z"/><path class="st0" d="M255.5 48.1c-.9 1.2-1.4 2-2 2.8-8.5 11.3-17 22.7-25.6 33.9-1.4 1.9-1.3 3 .1 4.7 9 11.3 17.9 22.6 26.8 33.9.6.7 1.1 1.5 1.6 2.1-.2.3-.3.5-.4.5-5.8 0-11.6.3-17.4-.3-2.2-.2-4.5-2.2-6.1-4.1-5.1-6.1-9.8-12.5-14.7-18.7-.6-.8-1.3-1.5-2.1-2.5-.8.9-1.4 1.5-1.9 2.2-4.8 6.1-9.6 12.2-14.3 18.4-2.7 3.6-6.1 5.4-10.6 5.2-3.5-.1-7.1 0-10.6 0-.9 0-1.8-.1-3.3-.2.9-1.3 1.5-2.1 2.1-3 8.8-11.3 17.7-22.6 26.6-33.8 1.3-1.7 1.5-2.7.1-4.5-8.5-11.2-16.9-22.5-25.4-33.8-.6-.8-1.2-1.7-2.1-3 1.4-.1 2.2-.2 3-.2h12.1c3.9-.1 6.8 1.5 9 4.6 4.3 6 8.7 12 13.1 18 .8 1.1 1.6 2.2 2.6 3.5.7-.9 1.3-1.6 1.8-2.3 4.6-6.3 9.2-12.7 13.8-19.1 2.3-3.3 5.4-4.9 9.5-4.8 3.8.1 7.6 0 11.4 0 .8.3 1.6.4 2.9.5zm322.8 16.7c-3.1 0-5.8-.3-8.5 0-9.9 1.1-16.6 7.8-18 17.7-.4 2.5-.5 5-.5 7.6-.1 8.9 0 17.7 0 26.6 0 6.4-4 10.4-10.4 10.5h-6.3c-1.5 0-2.2-.6-2.1-2.1V51.5c0-3.6 0-3.6 3.7-3.6s7.4.1 11.1 0c2.4-.1 3.4.6 3.2 3.1-.2 2.3 0 4.6 0 7.6 1.4-1.5 2.3-2.5 3.2-3.4 6.5-6.2 14.5-7.8 23.1-8.1.5 0 1.6.9 1.6 1.3-.1 5.4-.1 10.8-.1 16.4zM125.5 82.7c-6.8-11.7-13.3-22.8-20-34.4h40c-6.7 11.6-13.1 22.6-20 34.4zm-24.4 41.5c-6.4-11.2-12.7-22.3-19.3-33.9h39.5c-6.5 11.5-12.9 22.7-19.3 33.9-.3-.1-.6 0-.9 0zM81.6 85.3c6.7-11.7 13.2-22.8 19.6-34 .3 0 .6.1.9.1 6.4 11.2 12.8 22.3 19.5 33.9h-40zm87.7 4.9c-6.7 11.7-13 22.8-19.7 34.6-6.7-11.8-13.1-23-19.7-34.6h39.4zM150 50.9c6.3 11.1 12.7 22.3 19.3 33.9h-39.5c6.5-11.4 12.8-22.6 19.1-33.7.4-.1.7-.2 1.1-.2zm-4.7 75.7h-39.4c6.7-11.5 13-22.4 19.7-33.9 6.6 11.5 13 22.4 19.7 33.9z"/></g></svg>