<svg width="50" height="50" viewBox="0 0 50 50" fill="none" xmlns="http://www.w3.org/2000/svg">
<path d="M49.9988 15.8429C49.9151 16.0106 49.8545 16.1955 49.7435 16.3425C49.5051 16.6574 49.1611 16.7711 48.7751 16.7714C47.6865 16.7714 46.5975 16.7714 45.5088 16.7714C45.2322 16.7714 45.2322 16.7717 45.2322 17.0557C45.2322 17.6055 45.2332 18.1554 45.2318 18.7053C45.2298 19.4281 44.7518 19.9076 44.0298 19.9086C42.9632 19.9103 41.8965 19.9076 40.8302 19.91C40.4118 19.911 40.4662 19.8566 40.4632 20.2682C40.4609 20.6231 40.3589 20.9344 40.0892 21.179C39.8832 21.3656 39.6429 21.4743 39.3655 21.4749C37.7435 21.4779 36.1212 21.4819 34.4992 21.4736C33.8689 21.4703 33.4036 20.9647 33.4019 20.3059C33.3989 18.9562 33.4009 17.6068 33.4009 16.2572C33.4009 16.2072 33.3986 16.1572 33.4006 16.1072C33.4046 16.0156 33.3622 15.9739 33.2709 15.9782C33.2322 15.9802 33.1932 15.9779 33.1542 15.9779C31.6932 15.9779 30.2323 15.9779 28.7713 15.9779C28.5313 15.9779 28.5306 15.9786 28.5306 16.2132C28.5306 20.3229 28.5306 24.4329 28.5306 28.5426C28.5306 28.7728 28.5313 28.7738 28.7596 28.7738C30.6649 28.7742 32.5702 28.7732 34.4759 28.7745C35.0709 28.7748 35.5359 29.1147 35.6489 29.6413C35.6836 29.8026 35.6906 29.9719 35.6906 30.1378C35.6929 33.7256 35.6922 37.3134 35.6922 40.9009C35.6922 40.9566 35.6966 41.0122 35.6916 41.0675C35.6799 41.1998 35.7409 41.2405 35.8682 41.2395C36.4569 41.2352 37.0459 41.2368 37.6349 41.2378C38.3935 41.2392 38.8665 41.709 38.8665 42.4622C38.8669 44.4894 38.8669 46.5166 38.8665 48.5437C38.8665 49.3029 38.4002 49.7684 37.6402 49.7684C29.2133 49.7688 20.786 49.7688 12.359 49.7684C11.599 49.7684 11.133 49.3026 11.1327 48.5434C11.1324 46.5162 11.1324 44.489 11.1327 42.4619C11.1327 41.709 11.606 41.2388 12.3647 41.2375C12.9257 41.2365 13.4867 41.2375 14.048 41.2372C14.3067 41.2372 14.307 41.2368 14.307 40.9836C14.307 38.4622 14.307 35.9408 14.307 33.4194C14.307 32.3143 14.3054 31.2089 14.3087 30.1038C14.309 29.9492 14.3174 29.7909 14.35 29.6406C14.463 29.1197 14.9257 28.7752 15.507 28.7745C17.3903 28.7725 19.2733 28.7738 21.1566 28.7735C21.2123 28.7735 21.268 28.7702 21.3233 28.7735C21.4316 28.7805 21.4763 28.7305 21.469 28.6249C21.4663 28.5862 21.469 28.5472 21.469 28.5082C21.469 24.4205 21.469 20.3332 21.469 16.2455C21.469 15.9772 21.4686 15.9769 21.1946 15.9769C19.7393 15.9769 18.2837 15.9769 16.8283 15.9769C16.5993 15.9769 16.5987 15.9776 16.5987 16.2062C16.5983 17.5502 16.599 18.8942 16.5983 20.2382C16.598 21.0114 16.137 21.4756 15.3667 21.4759C13.8334 21.4769 12.3004 21.4769 10.7671 21.4759C10.0087 21.4753 9.54072 21.0067 9.53639 20.2499C9.53406 19.8596 9.57939 19.909 9.18573 19.9083C8.12473 19.9063 7.06374 19.9083 6.00275 19.9073C5.23609 19.9066 4.76842 19.4377 4.76742 18.6699C4.76676 18.1257 4.76742 17.5815 4.76709 17.037C4.76709 16.7701 4.76676 16.7697 4.50676 16.7697C3.4681 16.7697 2.42911 16.7697 1.39045 16.7697C0.589451 16.7697 0.30212 16.5778 0.00012207 15.8413C0.00012207 12.5644 0.00012207 9.28719 0.00012207 6.01031C0.0841215 5.84268 0.145454 5.65806 0.256787 5.51143C0.504785 5.18484 0.863783 5.08287 1.26011 5.0832C2.36011 5.08353 3.45977 5.08053 4.55976 5.0862C4.71709 5.08687 4.77309 5.04221 4.77076 4.87925C4.76242 4.31305 4.76709 3.74652 4.76776 3.17999C4.76876 2.41484 5.23842 1.94629 6.00708 1.94562C7.06807 1.94462 8.12907 1.94662 9.19006 1.94462C9.58173 1.94396 9.53439 1.98961 9.53706 1.59871C9.54173 0.851887 10.0131 0.377668 10.7561 0.377334C12.289 0.377001 13.8224 0.377001 15.3554 0.377334C16.134 0.377334 16.5983 0.841889 16.5987 1.62137C16.599 2.96538 16.5987 4.30939 16.599 5.6534C16.599 5.87568 16.6 5.87634 16.818 5.87634C22.273 5.87668 27.7276 5.87668 33.1826 5.87634C33.4006 5.87634 33.4006 5.87534 33.4016 5.65306C33.4019 5.60308 33.4016 5.55309 33.4016 5.5031C33.4016 4.18142 33.3992 2.85974 33.4029 1.53772C33.4049 0.881879 33.8896 0.380333 34.5286 0.378667C36.1339 0.374334 37.7392 0.376001 39.3445 0.378334C39.6405 0.378667 39.8942 0.491973 40.1105 0.695257C40.4072 0.974523 40.4745 1.3291 40.4645 1.71468C40.4585 1.94362 40.4642 1.94429 40.6938 1.94462C41.8048 1.94496 42.9158 1.94329 44.0268 1.94529C44.7505 1.94662 45.2305 2.42584 45.2325 3.146C45.2342 3.70687 45.2328 4.26773 45.2328 4.8286C45.2328 5.0822 45.2332 5.08253 45.4905 5.08253C46.5738 5.08253 47.6568 5.08287 48.7401 5.08253C49.1695 5.0822 49.5438 5.2085 49.7951 5.57608C49.8845 5.70638 49.9328 5.86468 50.0001 6.00998C49.9988 9.28885 49.9988 12.5661 49.9988 15.8429ZM24.9966 31.0136C22.2806 31.0136 19.565 31.0136 16.849 31.0136C16.598 31.0136 16.5977 31.014 16.5977 31.2562C16.5977 34.4991 16.5977 37.7417 16.5977 40.9846C16.5977 41.2378 16.598 41.2382 16.8537 41.2385C22.2853 41.2385 27.7173 41.2385 33.1489 41.2385C33.3999 41.2385 33.4002 41.2382 33.4002 40.9799C33.4002 37.7427 33.4002 34.5054 33.4002 31.2682C33.4002 31.0143 33.3999 31.0136 33.1442 31.0136C30.4283 31.0136 27.7126 31.0136 24.9966 31.0136ZM24.9963 8.1168C22.274 8.1168 19.552 8.1168 16.8297 8.1168C16.5983 8.1168 16.5977 8.11747 16.5977 8.34475C16.5973 10.061 16.5973 11.7773 16.5977 13.4935C16.5977 13.7401 16.598 13.7404 16.8433 13.7404C22.282 13.7404 27.7209 13.7404 33.1596 13.7404C33.3992 13.7404 33.3999 13.7398 33.3999 13.5048C33.4002 11.7943 33.3999 10.0833 33.3999 8.37274C33.3999 8.11714 33.3996 8.1168 33.1456 8.1168C30.4296 8.11647 27.7129 8.11647 24.9963 8.1168ZM24.992 47.5313C28.7463 47.5313 32.5006 47.5313 36.2552 47.5313C36.3109 47.5313 36.3665 47.5276 36.4219 47.5316C36.5409 47.541 36.5925 47.4937 36.5925 47.3697C36.5902 46.126 36.5905 44.8823 36.5922 43.6382C36.5922 43.5279 36.5549 43.4756 36.4379 43.4763C35.9935 43.4796 35.5492 43.4766 35.1049 43.4796C35.0509 43.48 34.9972 43.5029 34.9429 43.5123C34.7689 43.5419 34.5946 43.5956 34.4206 43.5956C28.1393 43.5999 21.8576 43.5996 15.5764 43.5976C15.455 43.5976 15.3337 43.5759 15.2127 43.5629C14.95 43.5346 14.688 43.4946 14.4244 43.4803C14.164 43.466 13.9024 43.4766 13.6414 43.4773C13.4084 43.478 13.407 43.4786 13.407 43.7076C13.4067 44.8903 13.4067 46.073 13.407 47.2557C13.407 47.531 13.4074 47.5313 13.679 47.5313C17.4497 47.5313 21.221 47.5313 24.992 47.5313ZM14.3064 10.9445C14.3064 8.25077 14.3064 5.55709 14.3064 2.8634C14.3064 2.61713 14.3057 2.61679 14.057 2.61679C13.3847 2.61646 12.7127 2.62179 12.0404 2.61313C11.8697 2.6108 11.8234 2.66578 11.8244 2.83208C11.8307 3.97047 11.8277 5.10919 11.8277 6.24759C11.8277 10.4962 11.8277 14.7452 11.8277 18.9938C11.8277 19.2391 11.8284 19.2395 12.0757 19.2398C12.7314 19.2401 13.3867 19.2398 14.0424 19.2398C14.306 19.2398 14.3064 19.2395 14.3064 18.9752C14.3064 16.2985 14.3064 13.6215 14.3064 10.9445ZM35.6916 10.9278C35.6916 12.9493 35.6916 14.9712 35.6916 16.9927C35.6916 17.6815 35.6942 18.37 35.6895 19.0588C35.6885 19.1948 35.7339 19.2435 35.8722 19.2425C36.5832 19.2375 37.2942 19.2381 38.0055 19.2418C38.1272 19.2425 38.1752 19.2005 38.1719 19.0775C38.1659 18.8612 38.1705 18.6443 38.1705 18.4277C38.1705 13.2402 38.1705 8.05282 38.1705 2.86573C38.1705 2.61746 38.1702 2.61713 37.9245 2.61713C37.2689 2.61679 36.6135 2.61679 35.9579 2.61713C35.6922 2.61713 35.6919 2.61746 35.6919 2.8804C35.6916 5.56275 35.6916 8.24544 35.6916 10.9278ZM9.53573 10.9275C9.53573 8.76698 9.53573 6.60683 9.53573 4.44635C9.53573 4.18608 9.53539 4.18575 9.28506 4.18575C8.61306 4.18542 7.94074 4.18542 7.26874 4.18575C7.04574 4.18575 7.04174 4.18908 7.04174 4.40636C7.04141 8.75498 7.04141 13.1033 7.04174 17.4519C7.04174 17.6672 7.04608 17.6705 7.27041 17.6705C7.9424 17.6708 8.61473 17.6708 9.28673 17.6705C9.53506 17.6705 9.53573 17.6702 9.53573 17.4249C9.53606 15.2591 9.53573 13.0933 9.53573 10.9275ZM40.4622 10.9198C40.4622 13.0913 40.4622 15.2627 40.4622 17.4342C40.4622 17.6698 40.4629 17.6705 40.7035 17.6705C41.3812 17.6708 42.0588 17.6662 42.7365 17.6738C42.9002 17.6758 42.9595 17.6315 42.9592 17.4592C42.9552 13.1053 42.9552 8.75132 42.9592 4.39703C42.9592 4.22441 42.8995 4.18075 42.7362 4.18242C42.0585 4.18975 41.3808 4.18542 40.7032 4.18575C40.4625 4.18575 40.4619 4.18642 40.4619 4.42236C40.4619 6.58817 40.4622 8.75398 40.4622 10.9198ZM26.2383 22.38C26.2383 20.3199 26.2383 18.26 26.2379 16.1999C26.2379 15.9792 26.2366 15.9786 26.0153 15.9782C25.3323 15.9779 24.649 15.9822 23.966 15.9749C23.8063 15.9732 23.757 16.0229 23.757 16.1832C23.7606 20.3145 23.7606 24.4455 23.7573 28.5769C23.7573 28.7285 23.8046 28.7788 23.9576 28.7772C24.6353 28.7705 25.3126 28.7745 25.9903 28.7742C26.2373 28.7742 26.2379 28.7735 26.2379 28.5266C26.2383 26.478 26.2383 24.4292 26.2383 22.38ZM2.27244 10.9101C2.27244 12.0429 2.27477 13.1756 2.26944 14.3083C2.26877 14.4663 2.31577 14.5206 2.47744 14.5189C3.17177 14.5116 3.8661 14.5116 4.56009 14.5189C4.71942 14.5206 4.76942 14.4709 4.76909 14.3103C4.76476 12.0559 4.76476 9.8014 4.76909 7.54727C4.76942 7.38865 4.72342 7.33566 4.56209 7.33732C3.87343 7.34466 3.18477 7.34032 2.49611 7.34066C2.27377 7.34066 2.27277 7.34166 2.27244 7.56194C2.27211 8.678 2.27211 9.79407 2.27244 10.9101ZM47.7255 10.9448C47.7255 9.81206 47.7228 8.67933 47.7285 7.54661C47.7291 7.38765 47.6808 7.33532 47.5198 7.33699C46.8255 7.34432 46.1311 7.34432 45.4372 7.33699C45.2775 7.33532 45.2282 7.38531 45.2285 7.54561C45.2328 9.80007 45.2328 12.0545 45.2285 14.3086C45.2282 14.4676 45.2752 14.5203 45.4362 14.5186C46.1248 14.5113 46.8135 14.5159 47.5021 14.5153C47.7238 14.5153 47.7251 14.5143 47.7251 14.2926C47.7258 13.1769 47.7258 12.0609 47.7255 10.9448Z" fill="white"/>
</svg>
