<svg width="40" height="59" viewBox="0 0 40 59" fill="none" xmlns="http://www.w3.org/2000/svg">
<path d="M23.3884 0.090784C23.6692 0.139598 23.9515 0.179821 24.23 0.238789C26.9741 0.822216 29.0873 3.13601 29.45 5.99027C29.735 8.2326 29.0857 10.1746 27.535 11.7785C26.9436 12.39 26.6411 13.0804 26.6613 13.9411C26.6811 14.7803 26.6701 15.6203 26.6621 16.4599C26.6602 16.6404 26.7166 16.6919 26.8899 16.6915C28.6742 16.686 30.4589 16.688 32.2432 16.6884C33.0114 16.6884 33.3985 17.1551 33.3234 17.9423C33.2247 18.978 33.1508 20.016 33.0655 21.0528C32.9816 22.0701 32.8963 23.0873 32.8128 24.105C32.7443 24.9411 32.6772 25.7772 32.6098 26.6133C32.5675 27.1381 32.5358 27.6646 32.4795 28.1878C32.4593 28.3757 32.5187 28.4077 32.681 28.4065C33.5067 28.4003 34.332 28.403 35.1576 28.4042C35.8141 28.4054 36.2252 28.8291 36.1856 29.5015C36.1323 30.4036 36.0538 31.3045 35.9852 32.2058C35.9147 33.1329 35.8435 34.06 35.773 34.9875C35.6873 36.1157 35.6019 37.2439 35.5169 38.3721C35.4522 39.2281 35.3897 40.0841 35.3219 40.9397C35.31 41.0869 35.3904 41.0959 35.4967 41.0955C36.1189 41.0939 36.7415 41.0947 37.3637 41.0951C37.9036 41.0951 38.4432 41.0935 38.9831 41.0955C39.6159 41.0978 40.0278 41.5192 39.9966 42.1694C39.9512 43.1176 39.8807 44.065 39.8228 45.0123C39.7794 45.72 39.7394 46.4276 39.6959 47.1352C39.6243 48.3036 39.5508 49.472 39.4791 50.6404C39.4235 51.5491 39.3706 52.4583 39.3153 53.367C39.2437 54.542 39.1701 55.7167 39.0977 56.8914C39.084 57.112 39.0566 57.333 39.0589 57.5533C39.0657 58.1219 38.8105 58.4905 38.2862 58.6682C27.3635 58.6682 16.4413 58.6682 5.51862 58.6682C5.14941 58.5374 4.86708 58.3171 4.78173 57.9024C4.76115 57.8017 4.75734 57.6958 4.75734 57.5923C4.75582 56.0826 4.75315 54.5729 4.76001 53.0632C4.76077 52.8703 4.71353 52.8058 4.51654 52.8074C3.36091 52.8164 2.20528 52.8129 1.05004 52.8113C0.189697 52.8101 -0.243902 52.0884 0.14207 51.2965C1.70005 48.1009 3.2607 44.9069 4.81678 41.7109C5.01986 41.2943 5.33382 41.0912 5.78876 41.0931C6.95048 41.0974 8.11259 41.0904 9.27431 41.0986C9.4652 41.1002 9.52769 41.0467 9.52235 40.8471C9.50902 40.3527 9.51207 39.858 9.52121 39.3636C9.52464 39.1925 9.4713 39.139 9.30403 39.1406C8.45322 39.148 7.6024 39.1449 6.75159 39.1437C5.93164 39.1425 5.49385 38.4556 5.82686 37.6859C7.06974 34.8133 8.31681 31.9426 9.55931 29.0696C9.75706 28.6123 10.0885 28.3987 10.5759 28.4015C11.725 28.4081 12.8742 28.4038 14.0233 28.4034C14.2794 28.4034 14.2801 28.4026 14.2805 28.1504C14.2813 27.6689 14.2729 27.187 14.2847 26.7058C14.2893 26.5133 14.2394 26.4438 14.0412 26.4485C13.5017 26.4618 12.9618 26.4559 12.4223 26.452C11.6881 26.4469 11.2415 25.8006 11.4976 25.0977C12.4383 22.5133 13.3844 19.9304 14.3308 17.3484C14.4878 16.92 14.82 16.69 15.2708 16.6888C16.4455 16.6864 17.6201 16.688 18.7944 16.6876C19.0421 16.6876 19.0429 16.6864 19.0429 16.426C19.0432 15.5735 19.0406 14.721 19.0436 13.8685C19.0467 13.0722 18.7796 12.3951 18.2206 11.8382C17.137 10.7588 16.4485 9.45881 16.2542 7.92136C15.9433 5.46425 16.6981 3.3875 18.5079 1.74148C19.5546 0.789803 20.7986 0.265734 22.1931 0.123978C22.2365 0.119682 22.2785 0.102108 22.3211 0.0903931C22.677 0.0907836 23.0329 0.090784 23.3884 0.090784ZM2.50286 50.8572C2.62136 50.8572 2.69641 50.8572 2.77148 50.8572C3.73012 50.8572 4.68914 50.856 5.64778 50.8575C6.26389 50.8587 6.659 51.2637 6.66243 51.8959C6.66472 52.3774 6.66815 52.8593 6.66053 53.3408C6.65748 53.5177 6.70473 53.5665 6.8819 53.5283C7.69575 53.3533 8.51151 53.1901 9.32765 53.0257C9.44501 53.0019 9.5677 52.9753 9.68467 52.9862C10.1781 53.0319 10.4799 53.4146 10.5092 54.0117C10.5317 54.4698 10.2524 54.8259 9.78792 54.9224C8.81137 55.1251 7.83444 55.3274 6.85637 55.5222C6.71044 55.5511 6.65138 55.6105 6.66015 55.7659C6.67158 55.967 6.66205 56.1693 6.66319 56.3708C6.66548 56.7539 6.63005 56.7145 7.00268 56.7145C16.9526 56.7149 26.9029 56.7149 36.8528 56.7149C36.9099 56.7149 36.9675 56.7106 37.0242 56.7153C37.1519 56.7262 37.2079 56.6715 37.2144 56.5383C37.2376 56.0643 37.267 55.5902 37.2951 55.1165C37.3493 54.2011 37.403 53.2858 37.4586 52.3704C37.5306 51.1891 37.6045 50.0078 37.6769 48.8265C37.7196 48.1318 37.7592 47.4374 37.8023 46.7427C37.8732 45.6005 37.9471 44.4582 38.016 43.316C38.032 43.0504 38.0248 43.0488 37.7775 43.0488C27.3574 43.0485 16.9377 43.0488 6.51765 43.0453C6.35419 43.0453 6.27075 43.1016 6.19835 43.2503C5.00462 45.7086 3.8048 48.1642 2.60726 50.6205C2.57678 50.683 2.55087 50.7478 2.50286 50.8572ZM8.13431 37.1892C8.25737 37.1892 8.33205 37.1892 8.40673 37.1892C9.06704 37.1892 9.72734 37.188 10.388 37.1896C11.0312 37.1907 11.424 37.5906 11.4248 38.2447C11.4259 39.0715 11.4236 39.8978 11.4255 40.7245C11.4267 41.1373 11.3794 41.0939 11.7772 41.0939C18.8699 41.0947 25.9625 41.0943 33.0556 41.0943C33.1062 41.0943 33.1577 41.0896 33.208 41.0951C33.3512 41.1103 33.4057 41.0549 33.4156 40.8998C33.4602 40.186 33.517 39.4729 33.5715 38.7598C33.6808 37.327 33.7932 35.8946 33.901 34.4614C33.9963 33.1907 34.0862 31.9192 34.1803 30.6485C34.202 30.3575 34.2051 30.3575 33.9296 30.3575C26.4053 30.3575 18.8805 30.3583 11.3562 30.3532C11.1634 30.3532 11.0655 30.4083 10.9858 30.5946C10.1888 32.453 9.381 34.3064 8.57667 36.1617C8.43493 36.4866 8.29586 36.8131 8.13431 37.1892ZM13.7581 24.4983C14.2557 24.4983 14.7053 24.4971 15.1549 24.4987C15.7951 24.5006 16.1864 24.9025 16.1871 25.5589C16.1883 26.4048 16.1875 27.2506 16.1875 28.0965C16.1875 28.403 16.1879 28.4034 16.487 28.4034C21.0767 28.4034 25.6665 28.4034 30.2562 28.4034C30.3008 28.4034 30.3454 28.4003 30.3896 28.4034C30.4985 28.4116 30.5504 28.3687 30.558 28.2499C30.5736 28.0035 30.6037 27.7583 30.6235 27.5119C30.7298 26.1837 30.8342 24.8552 30.9409 23.5267C31.0655 21.9783 31.1889 20.4295 31.3223 18.8819C31.3387 18.6898 31.2972 18.6386 31.1082 18.639C26.1123 18.6437 21.116 18.6437 16.1201 18.6394C15.9551 18.6394 15.8747 18.6894 15.8156 18.8522C15.2239 20.4869 14.6242 22.1181 14.0267 23.7504C13.941 23.9859 13.8572 24.2226 13.7581 24.4983ZM24.0601 6.23942C24.131 6.30073 24.1717 6.33119 24.2072 6.36712C24.5714 6.73928 24.9311 7.11573 25.3007 7.48242C25.4112 7.59177 25.4013 7.6605 25.2969 7.76516C24.8389 8.22518 24.3859 8.69028 23.9374 9.16007C23.8764 9.22373 23.8147 9.32253 23.8143 9.4057C23.806 10.4792 23.8094 11.5531 23.8082 12.6267C23.8082 12.7298 23.8414 12.7844 23.9504 12.7829C24.2106 12.7797 24.4712 12.7891 24.7311 12.7758C24.7837 12.7731 24.8637 12.6997 24.8774 12.6446C25.1056 11.7421 25.5865 11.0095 26.2273 10.3535C27.3258 9.2288 27.772 7.84716 27.5666 6.27183C27.218 3.60228 24.8484 1.7243 22.2468 2.0992C20.344 2.37334 19.0082 3.47771 18.3715 5.33929C17.7333 7.20633 18.1353 8.90038 19.4635 10.3312C20.0857 11.0013 20.5768 11.73 20.8062 12.6294C20.8355 12.7442 20.8927 12.7876 21.0074 12.784C21.2356 12.7778 21.465 12.7719 21.6928 12.7856C21.8681 12.7961 21.9054 12.7208 21.9043 12.5575C21.8986 11.5293 21.9054 10.5011 21.8955 9.47326C21.8944 9.36509 21.8372 9.23271 21.7633 9.15382C21.3183 8.68091 20.863 8.21776 20.4054 7.75735C20.3063 7.65738 20.2983 7.59177 20.4023 7.48828C20.7712 7.12081 21.1358 6.74904 21.4928 6.36985C21.6025 6.25348 21.6696 6.273 21.7683 6.37766C22.0552 6.68148 22.3493 6.97827 22.6423 7.27623C22.8789 7.51718 22.8321 7.51796 23.0607 7.28209C23.3907 6.94195 23.7176 6.59713 24.0601 6.23942ZM22.8603 16.6876C23.4249 16.6876 23.99 16.6829 24.5547 16.6907C24.7132 16.6927 24.7635 16.6376 24.7612 16.4775C24.7536 15.9636 24.7536 15.4497 24.7612 14.9362C24.7635 14.7803 24.7075 14.735 24.5615 14.7358C23.4253 14.7397 22.2895 14.7405 21.1533 14.735C20.9944 14.7343 20.9453 14.7893 20.9476 14.949C20.9552 15.4563 20.9567 15.964 20.9468 16.4709C20.9434 16.6454 21.0017 16.6939 21.1659 16.6911C21.7306 16.6825 22.2956 16.688 22.8603 16.6876Z" fill="white"/>
<path d="M9.39702 1.56451C9.40007 0.788556 10.1918 0.341809 10.8586 0.746771C11.6881 1.25053 12.5122 1.76328 13.3386 2.27212C13.5452 2.39942 13.7547 2.52205 13.957 2.65599C14.4249 2.96567 14.5613 3.53543 14.2843 3.99858C14.0054 4.46524 13.4465 4.61285 12.9725 4.32505C11.9251 3.68851 10.8815 3.04533 9.84052 2.39708C9.54333 2.21159 9.39397 1.92651 9.39702 1.56451Z" fill="white"/>
<path d="M14.397 12.4223C14.3883 12.6722 14.2496 12.9565 13.9573 13.1385C12.9111 13.7887 11.8625 14.4358 10.809 15.0735C10.348 15.3527 9.77339 15.1981 9.50896 14.7486C9.23349 14.2804 9.36151 13.6969 9.82863 13.4052C10.8734 12.7523 11.92 12.1021 12.9774 11.4706C13.6194 11.0867 14.4009 11.5678 14.397 12.4223Z" fill="white"/>
<path d="M11.8812 8.87967C11.4179 8.87967 10.9549 8.88241 10.4916 8.87889C9.94104 8.8746 9.52611 8.4626 9.51925 7.9194C9.51239 7.36643 9.92618 6.93179 10.4825 6.92749C11.4278 6.92086 12.3735 6.92086 13.3188 6.92749C13.875 6.9314 14.2888 7.36643 14.2816 7.91979C14.2747 8.46182 13.8583 8.87499 13.3085 8.87889C12.833 8.88241 12.3571 8.87967 11.8812 8.87967Z" fill="white"/>
<path d="M6.65987 8.87914C6.12835 8.87836 5.70656 8.44254 5.70961 7.89738C5.71266 7.36433 6.13521 6.93008 6.65492 6.92657C7.18301 6.92305 7.61394 7.36082 7.61432 7.90207C7.61508 8.44879 7.19368 8.87992 6.65987 8.87914Z" fill="white"/>
<path d="M31.3074 12.5111C31.3081 11.566 32.0888 11.1095 32.7495 11.5028C33.5116 11.9569 34.2633 12.4303 35.0193 12.8954C35.2966 13.066 35.5763 13.2331 35.8503 13.4097C36.3319 13.7201 36.4747 14.2864 36.1974 14.7616C35.9234 15.231 35.3507 15.3782 34.8684 15.0846C33.8377 14.457 32.8128 13.8193 31.7856 13.1855C31.4716 12.9922 31.3097 12.7095 31.3074 12.5111Z" fill="white"/>
<path d="M31.2738 3.37288C31.2776 3.16161 31.4205 2.87732 31.712 2.69612C32.7647 2.04045 33.819 1.38751 34.8809 0.748236C35.3358 0.474096 35.8975 0.63733 36.1619 1.0872C36.4332 1.5484 36.309 2.13573 35.8525 2.42159C34.8119 3.07257 33.7683 3.71887 32.7152 4.3476C32.0534 4.74202 31.2704 4.2777 31.2738 3.37288Z" fill="white"/>
<path d="M33.8003 8.87976C33.337 8.87976 32.8741 8.88211 32.4108 8.87898C31.8473 8.87547 31.4281 8.46113 31.4274 7.91207C31.4266 7.35598 31.8377 6.93032 32.3967 6.92681C33.3355 6.92095 34.2747 6.92095 35.2139 6.92642C35.7748 6.92954 36.192 7.35598 36.1901 7.90661C36.1882 8.45723 35.7691 8.87313 35.209 8.87898C35.1964 8.87898 35.1834 8.87898 35.1709 8.87898C34.714 8.88016 34.2572 8.88016 33.8003 8.87976Z" fill="white"/>
<path d="M39.0564 8.87924C38.5207 8.88236 38.0951 8.45358 38.0951 7.91037C38.0951 7.36327 38.5169 6.92745 39.0465 6.92706C39.5651 6.92667 39.9933 7.35897 40.0002 7.89007C40.0074 8.43249 39.5845 8.87611 39.0564 8.87924Z" fill="white"/>
<path d="M13.3249 50.8579C11.7444 50.8571 10.4707 49.5478 10.4714 47.9248C10.4722 46.3065 11.7524 44.9983 13.3336 44.9994C14.9122 45.0006 16.1878 46.3123 16.1875 47.9342C16.1867 49.5528 14.908 50.8591 13.3249 50.8579ZM14.2797 47.9388C14.2843 47.4023 13.8514 46.9547 13.3283 46.9555C12.8128 46.9559 12.383 47.3937 12.3792 47.9217C12.3754 48.4528 12.7949 48.8944 13.3115 48.9038C13.8366 48.9132 14.2751 48.4762 14.2797 47.9388Z" fill="white"/>
<path d="M16.1808 38.1671C14.6007 38.166 13.3285 36.8566 13.3292 35.2324C13.33 33.6157 14.6121 32.3071 16.193 32.3087C17.7696 32.3102 19.0468 33.6251 19.0453 35.2453C19.0437 36.8636 17.7647 38.1683 16.1808 38.1671ZM16.1853 36.2122C16.705 36.213 17.1367 35.7748 17.1371 35.2461C17.1375 34.7134 16.7142 34.2714 16.1975 34.2647C15.674 34.2577 15.2343 34.7052 15.2366 35.243C15.2389 35.7752 15.6656 36.2114 16.1853 36.2122Z" fill="white"/>
<path d="M19.0395 24.4993C17.9864 24.4982 17.1402 23.6316 17.1394 22.553C17.1386 21.467 17.9914 20.5919 19.0491 20.5934C20.0957 20.595 20.9496 21.4705 20.9504 22.5433C20.9511 23.6324 20.103 24.5005 19.0395 24.4993Z" fill="white"/>
</svg>
