<svg width="50" height="50" viewBox="0 0 50 50" fill="none" xmlns="http://www.w3.org/2000/svg">
<path d="M49.9988 18.5964C49.9611 18.8257 49.9281 19.0563 49.8848 19.2847C49.6581 20.476 49.0911 21.4907 48.2768 22.3773C47.2841 23.458 46.0715 24.1406 44.6205 24.376C44.2552 24.4353 43.8805 24.4596 43.5098 24.4603C39.6875 24.4663 35.8656 24.464 32.0432 24.464C31.9666 24.464 31.8899 24.464 31.7849 24.464C31.8136 24.5593 31.8296 24.6323 31.8566 24.701C32.1326 25.4013 32.6142 25.9376 33.2172 26.3686C33.4922 26.5653 33.7786 26.75 34.0749 26.9123C34.6902 27.2493 35.1272 27.7413 35.3949 28.3826C35.4586 28.535 35.5252 28.5506 35.6806 28.5243C36.1802 28.4396 36.5495 28.2003 36.8712 27.7953C37.5099 26.9916 38.2042 26.232 38.8722 25.4513C39.2479 25.0123 39.9312 24.9383 40.3555 25.2973C40.8105 25.6823 40.8679 26.3463 40.4832 26.8033C40.3662 26.9423 40.2422 27.0746 40.1352 27.2396C40.2182 27.22 40.3019 27.203 40.3842 27.1803C43.1045 26.4323 45.8248 25.684 48.5451 24.9346C48.7725 24.872 48.9991 24.8266 49.2338 24.8946C49.4705 24.963 49.6668 25.0963 49.7568 25.3243C49.8865 25.653 49.9495 26 49.8478 26.3503C49.7405 26.721 49.4878 26.9586 49.1191 27.063C48.1998 27.3223 47.2788 27.5756 46.3581 27.8316C45.9422 27.9473 45.5261 28.0626 45.1102 28.1783C45.1092 28.193 45.1082 28.2073 45.1072 28.222C45.2698 28.2583 45.4322 28.2976 45.5955 28.3306C45.8821 28.3883 46.1551 28.4676 46.3601 28.6996C46.6578 29.0373 46.7018 29.5233 46.4631 29.9419C46.2538 30.3096 45.8218 30.5029 45.3948 30.4039C43.9015 30.0579 42.4102 29.7053 40.9165 29.3606C40.8192 29.3383 40.7049 29.3423 40.6082 29.3689C38.9009 29.8426 37.1955 30.3226 35.4886 30.7976C35.3762 30.8289 35.3166 30.8876 35.2652 30.9923C34.7712 31.9979 33.9636 32.5869 32.8599 32.7623C32.1119 32.8809 31.4239 32.6943 30.7966 32.2889C30.6116 32.1693 30.4506 32.1486 30.2399 32.2079C29.2299 32.4933 28.2156 32.7643 27.2013 33.0349C27.0639 33.0716 26.9903 33.1266 26.9553 33.2786C26.6646 34.5379 25.5596 35.5096 24.2766 35.6316C23.0213 35.7509 22.0516 35.2566 21.34 34.2296C21.304 34.1776 21.2696 34.1239 21.215 34.0796C21.2663 35.2216 21.553 36.3016 22.0363 37.3299C22.6286 38.5909 23.4703 39.6572 24.588 40.5242C24.5753 40.4469 24.5613 40.3699 24.5496 40.2925C24.3516 38.9592 24.4913 37.6736 25.143 36.4772C25.7083 35.4396 26.5403 34.6599 27.5796 34.1039C28.7476 33.4786 29.9989 33.1799 31.3219 33.1549C32.5572 33.1316 33.7489 33.3366 34.8719 33.8536C36.8515 34.7646 38.0775 36.3242 38.5889 38.4162C39.1855 40.8579 38.6355 43.0575 37.0235 44.9902C35.6429 46.6452 33.8652 47.6752 31.8286 48.2978C30.5753 48.6808 29.2923 48.9188 27.9856 48.9962C26.9556 49.0571 25.9209 49.1101 24.8906 49.0831C22.9386 49.0318 21.0266 48.6888 19.155 48.1322C18.5957 47.9658 18.2923 47.4112 18.432 46.8455C18.5623 46.3178 19.1093 45.9745 19.6713 46.0972C20.1973 46.2122 20.7127 46.3738 21.2383 46.4908C22.5916 46.7918 23.9613 46.9575 25.3496 46.9722C27.1669 46.9918 28.9676 46.8642 30.7303 46.3928C32.0696 46.0345 33.3212 45.4865 34.3962 44.5925C35.3246 43.8202 36.1012 42.9242 36.4432 41.7369C36.9409 40.0099 36.6919 38.4022 35.5672 36.9716C34.9419 36.1759 34.0999 35.7106 33.1219 35.4879C31.6496 35.1526 30.2083 35.2252 28.8223 35.8639C28.0896 36.2016 27.4896 36.7029 27.0723 37.4032C26.8293 37.8112 26.7096 38.2619 26.6519 38.7282C26.5653 39.4325 26.6009 40.1312 26.8726 40.7929C27.2613 41.7395 27.9559 42.3109 28.9976 42.3949C29.5053 42.4359 30.0166 42.4719 30.5246 42.4575C31.2042 42.4379 31.7966 42.1939 32.2589 41.6635C32.6136 41.2569 33.2442 41.2582 33.7029 41.6392C34.1149 41.9812 34.1839 42.5895 33.8439 43.0342C33.4539 43.5442 32.9409 43.9009 32.3582 44.1595C31.4839 44.5472 30.5613 44.6395 29.6189 44.5922C28.7853 44.5502 27.9603 44.4458 27.1536 44.2212C25.462 43.7502 23.9756 42.9125 22.6953 41.7135C21.054 40.1765 19.9627 38.3126 19.418 36.1312C19.1717 35.1449 19.0523 34.1406 19.1053 33.1259C19.1363 32.5343 19.209 31.9409 19.3183 31.3586C19.4273 30.7776 19.8283 30.4219 20.3893 30.2623C20.921 30.1109 21.3776 30.2639 21.7503 30.6629C22.338 31.2926 22.7606 32.0249 23.082 32.8199C23.2896 33.3339 23.7516 33.5926 24.248 33.4809C24.8253 33.3509 25.152 32.7223 24.926 32.1456C24.5666 31.2296 24.087 30.3803 23.4653 29.6153C22.1363 27.98 20.4207 27.0423 18.3307 26.794C17.9013 26.743 17.4677 26.7283 17.0357 26.704C16.4717 26.6723 16.026 26.2023 16.0333 25.6383C16.0403 25.079 16.503 24.6 17.0627 24.5963C18.822 24.585 20.5093 24.9056 22.083 25.7233C22.2093 25.789 22.283 25.774 22.3823 25.6746C23.2303 24.828 24.1996 24.1456 25.256 23.5857C25.385 23.5173 25.4313 23.4397 25.442 23.2917C25.497 22.5283 25.5526 21.764 25.6406 21.004C25.7056 20.445 26.1463 20.0717 26.6686 20.0743C27.2033 20.077 27.6573 20.438 27.7129 20.9617C27.7416 21.2317 27.6816 21.5127 27.6489 21.7873C27.4389 23.5393 27.5956 25.237 28.4026 26.835C29.0066 28.0313 29.8986 28.9796 30.9789 29.7559C31.3256 30.0049 31.6902 30.2306 32.0569 30.4503C32.4626 30.6933 33.0082 30.5846 33.3269 30.2166C33.6022 29.8986 33.6159 29.3653 33.3329 29.0129C33.2322 28.8876 33.0866 28.7896 32.9446 28.7083C32.1582 28.2576 31.4362 27.7293 30.8456 27.033C30.1033 26.158 29.6873 25.1443 29.5733 24.009C29.4923 23.2007 30.0959 22.4773 30.9229 22.363C31.0599 22.344 31.1996 22.336 31.3379 22.336C35.4156 22.3347 39.4935 22.332 43.5712 22.337C44.5435 22.338 45.4345 22.0853 46.1995 21.4863C47.3611 20.5767 47.9621 19.375 47.9255 17.8884C47.9045 17.0374 47.6035 16.271 47.1095 15.5814C45.1235 12.8084 43.1365 10.0364 41.1495 7.26409C40.7742 6.74043 40.4049 6.2121 40.0199 5.69544C39.6795 5.23844 39.0465 5.16177 38.6169 5.51444C38.5365 5.5801 38.4665 5.66344 38.4079 5.74977C37.1905 7.52843 35.9742 9.30775 34.7616 11.0897C34.4882 11.4914 34.1182 11.6867 33.6386 11.6181C32.8819 11.5097 32.5232 10.6247 32.9779 9.98074C33.3142 9.50441 33.6782 9.04775 34.0296 8.58242C34.1359 8.44142 34.2416 8.29975 34.3609 8.14075C34.2646 8.09576 34.1872 8.05642 34.1072 8.02309C32.9419 7.53476 31.7479 7.13276 30.5129 6.86143C29.5253 6.64443 28.5256 6.51077 27.5173 6.42543C25.7886 6.2791 24.0793 6.4301 22.3766 6.7171C21.892 6.79876 21.465 6.62476 21.2463 6.25943C21.0143 5.8721 21.0266 5.39177 21.3003 5.05578C21.4166 4.91278 21.5723 4.80211 21.718 4.66944C21.689 4.65511 21.6483 4.63178 21.605 4.61411C20.9576 4.34845 20.3103 4.08211 19.662 3.81812C18.9147 3.51412 18.1283 3.78645 17.7247 4.48745C17.6283 4.65444 17.5327 4.82211 17.4243 5.01111C17.5187 5.04044 17.5887 5.06744 17.6613 5.08411C18.181 5.20277 18.705 5.30477 19.2203 5.44044C19.7673 5.58444 20.0807 5.9101 20.0893 6.5081C20.097 7.0341 19.7537 7.42376 19.2487 7.59476C18.6347 7.80276 18.0387 8.06576 17.4387 8.31409C17.1977 8.41375 16.9683 8.54075 16.7307 8.64875C16.0643 8.95142 15.3274 8.61042 15.185 7.92742C15.1077 7.55643 15.1984 7.22243 15.4627 6.94243C15.4964 6.90676 15.5304 6.8711 15.5627 6.8371C15.5537 6.82176 15.55 6.80643 15.5434 6.80476C15.0074 6.68343 14.4767 6.52143 13.934 6.45377C13.245 6.36777 12.6104 6.78376 12.3857 7.39576C12.31 7.60176 12.262 7.81809 12.1947 8.05242C12.289 8.05809 12.3534 8.06676 12.4177 8.06509C12.8674 8.05409 13.317 8.03776 13.7667 8.02942C14.231 8.02076 14.6147 8.27675 14.768 8.68875C14.9244 9.10908 14.7937 9.61074 14.433 9.89241C13.9427 10.2751 13.4314 10.6311 12.948 11.0221C10.9087 12.6717 9.27439 14.6617 8.03707 16.9704C7.62607 17.7374 7.28474 18.5424 6.92774 19.3373C6.72841 19.781 6.41308 20.033 5.92442 20.0657C5.60442 20.087 5.03676 19.7663 4.89976 19.3117C4.88376 19.259 4.86376 19.2077 4.83576 19.1283C4.43543 19.3583 3.99176 19.4937 3.69376 19.862C3.46077 20.1497 3.3501 20.4817 3.36843 20.8523C3.3791 21.07 3.43143 21.2767 3.5471 21.4663C3.80276 21.2197 4.06343 20.995 4.29209 20.7413C4.59309 20.407 5.03942 20.3213 5.43509 20.434C5.99808 20.594 6.19275 21.2387 6.07975 21.6893C5.78742 22.8563 5.61308 24.0403 5.52909 25.2393C5.34042 27.9233 5.69442 30.5369 6.56041 33.0806C7.43041 35.6359 8.75873 37.9292 10.5407 39.9589C12.3647 42.0365 14.524 43.6719 17.0163 44.8675C17.2447 44.9772 17.458 45.1012 17.602 45.3192C17.862 45.7128 17.8587 46.1132 17.6243 46.5132C17.4233 46.8558 17.1133 47.0235 16.7203 46.9932C16.548 46.9798 16.3703 46.9222 16.2127 46.8475C14.2714 45.9298 12.5017 44.7528 10.8997 43.3219C9.39506 41.9775 8.0974 40.4575 7.00041 38.7655C6.92908 38.6556 6.86308 38.6379 6.74241 38.6722C4.97409 39.1742 3.2041 39.6709 1.43478 40.1709C0.719784 40.3729 0.27512 40.1442 0.0254553 39.4405C0.0197887 39.4249 0.00878868 39.4109 0.00012207 39.3962C0.00012207 39.2629 0.00012207 39.1296 0.00012207 38.9962C0.0931214 38.8279 0.168121 38.6455 0.283787 38.4946C0.462786 38.2609 0.74245 38.1976 1.01312 38.1262C2.5921 37.7099 4.17043 37.2919 5.74875 36.8736C5.80575 36.8586 5.86108 36.8366 5.92042 36.8166C5.88875 36.6342 5.77975 36.5332 5.64875 36.4406C4.72376 35.7859 3.80176 35.1272 2.87777 34.4709C1.60844 33.5693 1.02445 31.9566 1.46545 30.4639C1.59311 30.0316 1.81944 29.6276 2.00944 29.2146C2.05611 29.1133 2.05078 29.0443 1.97878 28.961C1.82644 28.7843 1.68178 28.601 1.53578 28.4193C0.74945 27.4416 0.520785 26.3416 0.82945 25.131C1.00545 24.4396 1.37978 23.861 1.88978 23.369C1.98844 23.274 2.01044 23.1897 1.95444 23.062C1.83411 22.7873 1.72711 22.507 1.61811 22.2273C1.00412 20.6497 1.54078 18.8667 2.91644 17.907C3.04177 17.8197 3.22543 17.7467 3.26677 17.627C3.30943 17.5034 3.22043 17.3284 3.17343 17.1807C3.01177 16.676 2.95077 16.159 3.00677 15.634C3.1631 14.173 4.20843 12.9351 5.62075 12.5371C5.77075 12.4947 5.80908 12.4251 5.80775 12.2814C5.80508 11.9764 5.80042 11.6691 5.83142 11.3664C5.97408 9.97608 6.70841 8.99875 7.95407 8.39675C8.49607 8.13476 9.07839 8.05875 9.67506 8.08942C9.80839 8.09642 9.87406 8.05276 9.90706 7.91676C9.98672 7.58776 10.0807 7.26176 10.1734 6.9361C10.6181 5.37444 12.024 4.27678 13.5867 4.25445C14.0494 4.24778 14.4917 4.34011 14.931 4.46245C15.041 4.49311 15.103 4.47211 15.1574 4.36745C15.3217 4.05245 15.4967 3.74278 15.6664 3.43012C16.4363 2.01013 18.06 1.26613 19.6233 1.6628C20.141 1.79413 20.6313 2.03546 21.13 2.23713C21.2496 2.28546 21.317 2.26513 21.4 2.17246C21.626 1.92046 21.8413 1.6528 22.0993 1.43713C23.4673 0.294474 25.3683 0.306474 26.7513 1.46313C28.0336 2.53579 29.3049 3.62145 30.5859 4.69544C30.6822 4.77644 30.8146 4.83078 30.9389 4.85944C32.4106 5.19911 33.8352 5.67644 35.2089 6.30443C35.3406 6.36477 35.4126 6.3531 35.4952 6.22977C35.8882 5.64377 36.2879 5.06244 36.6889 4.48211C37.7645 2.92479 39.8495 2.65012 41.2598 3.91112C41.6095 4.22378 41.8738 4.63911 42.1495 5.02678C44.3138 8.07476 46.4648 11.1327 48.6355 14.1764C49.2648 15.0587 49.7475 15.993 49.9211 17.0714C49.9475 17.235 49.9738 17.399 50.0001 17.5627C49.9988 17.9074 49.9988 18.252 49.9988 18.5964ZM28.5063 30.4786C27.1316 29.1579 26.1929 27.6066 25.7106 25.767C25.0826 26.159 24.5366 26.5963 23.9926 27.0993C24.0506 27.1413 24.0963 27.1653 24.1306 27.2003C24.41 27.4856 24.701 27.7613 24.963 28.0623C25.6753 28.8806 26.2316 29.8016 26.6883 30.7829C26.7546 30.9253 26.8193 30.9703 26.9769 30.9226C27.4233 30.7879 27.8749 30.6703 28.3243 30.5446C28.3753 30.5309 28.4239 30.5089 28.5063 30.4786ZM10.5057 10.1894C10.5204 10.1967 10.5347 10.2037 10.5494 10.2111C10.5177 10.2091 10.4861 10.2037 10.4547 10.2051C10.1171 10.2221 9.77872 10.2641 9.44173 10.2534C8.77806 10.2324 7.98774 10.8027 7.9764 11.7971C7.9754 11.8991 8.0074 11.9444 8.1154 11.9104C8.3004 11.8521 8.48407 11.7854 8.67306 11.7431C9.0584 11.6574 9.39139 11.4991 9.62406 11.1624C9.69239 11.0634 9.79606 10.9897 9.87739 10.8991C10.0887 10.6641 10.2964 10.4261 10.5057 10.1894ZM23.4203 3.13779C23.4533 3.16045 23.4696 3.17646 23.489 3.18445C24.331 3.54379 25.1666 3.91912 26.0196 4.24978C26.2486 4.33878 26.5303 4.29178 26.7879 4.30711C26.7913 4.28845 26.7946 4.26978 26.7979 4.25078C26.7736 4.22878 26.7499 4.20611 26.7249 4.18545C26.2943 3.82712 25.8633 3.46879 25.4323 3.11079C25.06 2.80112 24.6336 2.68712 24.158 2.77079C23.8816 2.81979 23.636 2.93712 23.4203 3.13779ZM5.25875 16.495C5.56709 16.3157 5.85975 16.148 6.14908 15.975C6.18408 15.9544 6.20575 15.9084 6.22841 15.871C6.49308 15.435 6.75741 14.9987 7.02074 14.5617C7.04674 14.5187 7.06574 14.4717 7.08774 14.4264C7.07774 14.4144 7.06774 14.402 7.05808 14.39C6.78141 14.4624 6.50241 14.527 6.22875 14.609C5.67142 14.7764 5.32542 15.155 5.18409 15.7144C5.11975 15.9677 5.09642 16.2274 5.25875 16.495ZM3.7171 30.4536C3.10477 31.3136 3.26477 32.3369 4.28809 32.8886C4.09843 32.0799 3.90676 31.2636 3.7171 30.4536ZM3.1051 26.9703C3.22543 26.7033 3.4261 26.4866 3.41043 26.162C3.39677 25.8763 3.43943 25.588 3.45677 25.301C3.4681 25.1133 3.4791 24.9256 3.49143 24.716C2.7031 25.3156 2.51977 26.4033 3.1051 26.9703Z" fill="white"/>
<path d="M44.1734 15.2239C44.1694 18.1446 42.3398 20.2422 39.8905 20.5299C38.0135 20.7502 36.4818 20.0686 35.3165 18.5823C34.9628 18.1313 35.0178 17.4993 35.4162 17.1259C35.7918 16.7736 36.4292 16.7613 36.8388 17.1026C36.9062 17.1586 36.9605 17.2313 37.0175 17.2989C37.7795 18.2006 38.7475 18.5913 39.8998 18.3233C41.0468 18.0563 41.7581 17.2923 42.0071 16.1376C42.3268 14.6559 41.2111 13.0973 39.7081 12.8956C38.4105 12.7216 37.2945 13.334 36.7295 14.5443C36.5372 14.9559 36.2292 15.1949 35.7812 15.2263C35.0258 15.2789 34.4782 14.5173 34.7505 13.7926C34.9458 13.273 35.2432 12.8086 35.6165 12.3986C37.4602 10.3726 40.5771 10.235 42.5875 12.0953C43.6321 13.0616 44.1588 14.2653 44.1734 15.2239Z" fill="white"/>
<path d="M25.6732 18.8686C25.4859 18.8063 25.2823 18.7726 25.1139 18.6766C24.1383 18.1213 23.5793 17.2703 23.3999 16.169C23.3149 15.647 23.3533 15.129 23.4956 14.6183C23.6883 13.9273 23.4396 13.3086 22.8113 12.9636C21.7376 12.374 21.1359 11.4663 20.9796 10.263C20.9139 9.75767 20.9553 9.25234 21.1193 8.76501C21.2969 8.23668 21.7973 7.96968 22.3373 8.10668C22.9223 8.25501 23.2346 8.71234 23.1393 9.28C23.1119 9.44367 23.0699 9.60733 23.0646 9.77233C23.0463 10.3427 23.2979 10.7703 23.7963 11.0403C24.8253 11.598 25.4199 12.4593 25.6186 13.604C25.7123 14.145 25.6559 14.676 25.5143 15.203C25.3896 15.667 25.4629 16.1023 25.7782 16.47C25.9016 16.6136 26.0662 16.73 26.2302 16.829C26.6602 17.0883 26.8549 17.5389 26.7259 18.0269C26.6022 18.4969 26.1659 18.8349 25.6732 18.8686Z" fill="white"/>
<path d="M44.5636 40.2436C44.5636 40.0269 44.556 39.8099 44.5663 39.5939C44.5733 39.4436 44.5246 39.3882 44.3693 39.3916C43.9473 39.4002 43.525 39.3986 43.103 39.3929C42.5567 39.3859 42.124 39.0332 42.0283 38.5262C41.9043 37.8696 42.3963 37.2799 43.088 37.2659C43.4986 37.2576 43.91 37.2642 44.321 37.2639C44.5633 37.2636 44.5636 37.2632 44.564 37.0136C44.5643 36.5916 44.5583 36.1692 44.5666 35.7472C44.577 35.2452 44.9633 34.8023 45.4383 34.7313C45.9673 34.6523 46.4476 34.9223 46.616 35.4156C46.6703 35.5749 46.6856 35.7526 46.6903 35.9229C46.701 36.3059 46.6983 36.6892 46.6913 37.0726C46.6886 37.2159 46.7346 37.2689 46.8823 37.2666C47.3153 37.2592 47.7489 37.2562 48.1819 37.2672C48.6236 37.2786 48.9666 37.4702 49.1456 37.8876C49.3173 38.2886 49.2663 38.6722 48.9873 39.0126C48.7686 39.2792 48.4709 39.3896 48.1333 39.3936C47.7169 39.3982 47.3003 39.3999 46.8836 39.3926C46.7373 39.3899 46.6913 39.4416 46.6913 39.5859C46.6913 40.0632 46.7023 40.5422 46.666 41.0172C46.623 41.5812 46.144 41.9572 45.555 41.9362C45.0293 41.9172 44.587 41.4695 44.567 40.9275C44.5586 40.7002 44.5656 40.4722 44.5656 40.2446C44.5646 40.2436 44.564 40.2436 44.5636 40.2436Z" fill="white"/>
<path d="M4.21166 42.0263C5.79432 42.0256 7.06531 43.2926 7.06464 44.8706C7.06398 46.4169 5.76399 47.7219 4.21966 47.7263C2.66667 47.7306 1.36268 46.4253 1.36401 44.868C1.36535 43.3146 2.65567 42.027 4.21166 42.0263ZM4.93432 44.867C4.93099 44.4793 4.59733 44.1453 4.20966 44.142C3.835 44.1386 3.49233 44.4893 3.494 44.874C3.49567 45.2766 3.82433 45.5989 4.23066 45.5959C4.63433 45.5929 4.93799 45.2786 4.93432 44.867Z" fill="white"/>
<path d="M30.7776 9.10825C30.7062 9.30325 30.6579 9.51058 30.5599 9.69125C30.2176 10.3226 30.2932 10.9312 30.7986 11.4419C31.9639 12.6206 32.1569 14.4995 31.2496 15.8395C30.9762 16.2432 30.5449 16.4142 30.0749 16.3059C29.6452 16.2065 29.3472 15.8722 29.2786 15.4039C29.2416 15.1519 29.3026 14.9155 29.4329 14.7015C29.7909 14.1139 29.7119 13.4089 29.1942 12.8962C28.0472 11.7606 27.8682 9.92558 28.7326 8.56692C28.9916 8.15959 29.4122 7.96093 29.8522 8.03792C30.2876 8.11392 30.6199 8.43026 30.7132 8.86159C30.7296 8.93692 30.7326 9.01525 30.7416 9.09225C30.7539 9.09758 30.7659 9.10292 30.7776 9.10825Z" fill="white"/>
<path d="M10.8662 16.1591C11.4119 16.1571 11.8339 16.5217 11.9099 17.0621C11.9286 17.1937 11.9256 17.3314 11.9632 17.4571C12.1402 18.0464 12.5592 18.3671 13.1515 18.4597C14.6772 18.6987 15.8552 19.838 16.1182 21.3557C16.1539 21.5607 16.1762 21.7804 16.1422 21.983C16.0565 22.4927 15.6245 22.8317 15.1152 22.8294C14.6122 22.827 14.1722 22.466 14.0679 21.9667C14.0439 21.8527 14.0389 21.7344 14.0089 21.6224C13.8472 21.017 13.4629 20.6344 12.8409 20.532C12.1129 20.4124 11.4682 20.1294 10.9282 19.6254C10.2446 18.987 9.85757 18.1984 9.80223 17.2641C9.76423 16.6231 10.2262 16.1614 10.8662 16.1591Z" fill="white"/>
<path d="M15.208 33.7474C15.2057 34.2724 14.982 34.5964 14.5677 34.7927C14.191 34.9714 13.843 34.9011 13.5254 34.6494C13.4617 34.5987 13.4097 34.5297 13.363 34.4621C12.9574 33.8717 12.2637 33.6617 11.6027 33.9317C10.0837 34.5521 8.3774 34.1004 7.36174 32.8087C6.99474 32.3417 7.05841 31.6341 7.49841 31.2951C7.98774 30.9178 8.65673 31.0041 9.04006 31.4938C9.50306 32.0851 10.1107 32.2387 10.8184 31.9784C12.1864 31.4751 13.4394 31.6808 14.5477 32.6421C14.726 32.7967 14.8734 32.9907 15.0167 33.1807C15.1524 33.3614 15.2204 33.5741 15.208 33.7474Z" fill="white"/>
<path d="M28.6481 39.5769C28.6771 38.0686 29.6994 37.0969 31.0907 36.9026C32.1657 36.7522 33.1304 37.0446 33.9407 37.7746C34.413 38.2006 34.7377 38.7256 34.848 39.3649C34.9374 39.8826 34.591 40.3902 34.0657 40.5145C33.5134 40.6455 32.978 40.3512 32.8254 39.8332C32.604 39.0822 31.7571 38.7286 31.0497 39.0919C30.8574 39.1906 30.7561 39.3859 30.7844 39.6219C30.7981 39.7372 30.8254 39.8512 30.8491 39.9652C30.9641 40.5199 30.6164 41.0532 30.0637 41.1685C29.3471 41.3182 28.8747 41.0075 28.7391 40.2855C28.6954 40.0519 28.6777 39.8132 28.6481 39.5769Z" fill="white"/>
<path d="M21.6121 22.7284C21.1977 22.709 20.8371 22.4974 20.6467 22.046C20.4771 21.6434 20.1984 21.3927 19.7851 21.2284C18.4198 20.686 17.6424 19.6727 17.4988 18.2024C17.4711 17.9197 17.4858 17.6217 17.5438 17.3437C17.6668 16.7551 18.2551 16.4154 18.8794 16.5361C19.4144 16.6394 19.7614 17.1581 19.6854 17.7411C19.6051 18.3577 20.0077 18.967 20.6371 19.2534C20.9777 19.4084 21.3117 19.5964 21.6101 19.8207C22.1294 20.211 22.4687 20.7464 22.6741 21.3607C22.8961 22.023 22.3777 22.7284 21.6121 22.7284Z" fill="white"/>
<path d="M16.995 15.9498C16.8673 15.9165 16.735 15.8948 16.613 15.8475C15.1693 15.2872 14.2656 13.8638 14.367 12.3162C14.41 11.6579 14.7693 11.2355 15.3523 11.1579C16.0336 11.0669 16.6103 11.6029 16.5193 12.2882C16.424 13.0065 16.8776 13.6315 17.421 13.8618C17.8003 14.0225 18.0419 14.3062 18.1029 14.7205C18.1999 15.3765 17.6893 15.9322 16.995 15.9498Z" fill="white"/>
<path d="M15.5209 29.8903C14.1332 29.8656 13.0359 29.2959 12.3296 28.0626C12.1859 27.8119 12.0872 27.5236 12.0266 27.2403C11.9192 26.7389 12.2682 26.2059 12.7479 26.0749C13.2916 25.9266 13.8506 26.1999 14.0432 26.7076C14.3329 27.4713 14.7639 27.7686 15.5882 27.7593C16.0506 27.7539 16.3836 27.9656 16.5742 28.3699C16.7659 28.7769 16.7016 29.1749 16.4112 29.5219C16.1856 29.7919 15.8799 29.8919 15.5209 29.8903Z" fill="white"/>
<path d="M14.0401 40.2645C13.1531 40.2468 12.3891 40.0455 11.7375 39.5071C11.2871 39.1351 11.1651 38.5505 11.4435 38.0911C11.7621 37.5655 12.5138 37.4068 12.9808 37.8088C13.5378 38.2885 14.2955 38.2711 14.8548 37.8718C15.3518 37.5168 15.9954 37.6278 16.3501 38.1041C16.6721 38.5365 16.5644 39.1975 16.1074 39.5655C15.6268 39.9528 15.0701 40.1568 14.4618 40.2288C14.3021 40.2481 14.1415 40.2561 14.0401 40.2645Z" fill="white"/>
<path d="M10.2534 26.4012C8.75438 26.3892 7.46205 25.5002 6.95306 24.1315C6.85439 23.8659 6.80539 23.5982 6.88739 23.3172C7.01739 22.8725 7.39172 22.5719 7.83572 22.5612C8.34438 22.5489 8.74971 22.8215 8.90271 23.2999C9.09204 23.8908 9.50804 24.1972 10.104 24.2812C10.2457 24.3012 10.3924 24.2848 10.5364 24.2918C10.9997 24.3138 11.4197 24.6892 11.495 25.1458C11.6074 25.8272 11.1257 26.3985 10.4364 26.4012C10.3754 26.4015 10.3144 26.4012 10.2534 26.4012Z" fill="white"/>
<path d="M39.2908 14.3238C40.0274 14.3251 40.6007 14.8981 40.6001 15.6328C40.5994 16.3444 39.9914 16.9531 39.2818 16.9528C38.5601 16.9524 37.9651 16.3571 37.9664 15.6368C37.9678 14.8928 38.5428 14.3228 39.2908 14.3238Z" fill="white"/>
<path d="M42.2343 33.7697C42.2353 34.487 41.6397 35.0914 40.9267 35.096C40.1967 35.1007 39.598 34.5044 39.6017 33.775C39.605 33.05 40.1917 32.4654 40.9187 32.4627C41.647 32.4597 42.233 33.0417 42.2343 33.7697Z" fill="white"/>
<path d="M41.8343 47.2025C41.0863 47.2009 40.526 46.6315 40.5293 45.8769C40.5326 45.1546 41.112 44.5799 41.8353 44.5806C42.5493 44.5812 43.1576 45.1826 43.1616 45.8916C43.166 46.6265 42.581 47.2042 41.8343 47.2025Z" fill="white"/>
</svg>
