<svg width="50" height="51" viewBox="0 0 50 51" fill="none" xmlns="http://www.w3.org/2000/svg">
<path d="M0.000788603 33.0395C0.0917856 32.8405 0.156783 32.6232 0.280779 32.4472C0.435774 32.2272 0.687099 32.1372 0.954423 32.1412C2.13172 32.1592 3.17735 32.5412 4.06399 33.3198C4.97296 34.1185 5.51027 35.1234 5.65393 36.3277C5.73326 36.9917 5.67427 37.648 5.45694 38.2827C5.40594 38.4317 5.43994 38.494 5.57494 38.563C6.13158 38.847 6.6089 39.232 6.98256 39.7363C7.05455 39.8333 7.12355 39.862 7.24655 39.843C8.38384 39.6676 9.49414 39.771 10.5684 40.1933C10.6768 40.2359 10.7398 40.2059 10.8158 40.1333C11.6071 39.3773 12.5567 39.0443 13.6423 39.1076C15.2336 39.2003 16.6446 40.4269 16.9646 41.9885C16.9936 42.1295 17.0552 42.2002 17.1885 42.2592C18.6898 42.9228 19.5748 44.0708 19.7565 45.7014C19.9915 47.8107 18.5108 49.7793 16.4296 50.1716C16.0906 50.2356 15.7369 50.2323 15.3896 50.2396C14.657 50.2553 13.924 50.2589 13.191 50.2649C12.5077 50.2706 11.8247 50.2709 11.1414 50.2769C9.83646 50.2879 8.5315 50.3006 7.22655 50.3136C6.24925 50.3233 5.27195 50.3346 4.29465 50.3459C3.47834 50.3556 2.66237 50.3703 1.84606 50.3756C0.94609 50.3813 0.289112 49.882 0.0404539 49.0146C0.0297876 48.9776 0.0137883 48.942 0.00012207 48.906C0.000788715 43.6168 0.000788603 38.3283 0.000788603 33.0395ZM1.90939 34.1291C1.90539 34.2115 1.90006 34.2658 1.90006 34.3201C1.89973 38.9633 1.89973 43.6065 1.90006 48.2497C1.90006 48.468 1.90506 48.474 2.12538 48.4717C2.89703 48.463 3.66867 48.4513 4.44031 48.4427C5.45627 48.431 6.47224 48.4193 7.48821 48.41C8.99282 48.396 10.4978 48.3837 12.0024 48.3703C13.3293 48.3587 14.6566 48.3487 15.9836 48.331C16.1453 48.329 16.3176 48.3107 16.4659 48.252C17.2775 47.93 17.9932 47.018 17.8702 45.8211C17.7729 44.8738 16.9426 43.9568 16.0053 43.8082C15.5009 43.7282 15.0226 43.8162 14.562 44.0258C14.0933 44.2391 13.5673 44.0528 13.345 43.5965C13.1334 43.1618 13.305 42.6219 13.765 42.4129C14.1153 42.2535 14.4943 42.1575 14.861 42.0339C14.911 42.0169 14.9626 42.0045 15.034 41.9842C14.994 41.9065 14.9683 41.8462 14.934 41.7916C14.211 40.6419 12.537 40.6356 11.8024 41.7792C11.4621 42.3089 11.0241 42.4222 10.4598 42.1419C10.2118 42.0189 9.95712 41.9029 9.6948 41.8166C9.14782 41.6366 8.58484 41.5516 8.00585 41.5982C7.88019 41.6082 7.83153 41.6412 7.85753 41.7826C7.89053 41.9615 7.90419 42.1465 7.90286 42.3285C7.89953 42.7925 7.49887 43.1825 7.02055 43.2012C6.57757 43.2185 6.14858 42.8449 6.09992 42.3995C6.08892 42.3002 6.07859 42.2009 6.06192 42.1025C5.86226 40.9316 5.08662 40.1089 3.97132 39.936C3.25335 39.8246 2.95736 39.1013 3.35668 38.491C4.21698 37.177 3.97632 35.5841 2.76203 34.5918C2.51604 34.3908 2.24471 34.2301 1.90939 34.1291Z" fill="white"/>
<path d="M49.9993 49.0054C49.8859 49.2501 49.8056 49.5184 49.6519 49.7347C49.3476 50.1627 48.9066 50.374 48.378 50.3753C47.617 50.3773 46.856 50.374 46.0951 50.3683C45.0178 50.36 43.9405 50.347 42.8635 50.336C41.7642 50.3247 40.6646 50.3137 39.5653 50.3024C38.4826 50.2914 37.3997 50.2814 36.3171 50.2687C35.8007 50.2627 35.2848 50.251 34.7684 50.243C34.7078 50.242 34.6404 50.2337 34.5868 50.255C34.2105 50.4063 33.8328 50.3347 33.4535 50.2767C33.2782 50.25 33.0992 50.2437 32.9262 50.2087C32.7978 50.1827 32.6618 50.1467 32.5539 50.077C32.2145 49.8577 31.8695 49.6417 31.5582 49.3861C30.6906 48.6744 30.1959 47.7511 30.0606 46.6341C29.8456 44.8592 30.8729 43.0226 32.6198 42.2983C32.6915 42.2686 32.7668 42.1756 32.7852 42.099C33.1652 40.4964 34.2788 39.4277 35.9027 39.1957C37.0624 39.0301 38.0897 39.3737 38.95 40.1787C39.04 40.263 39.1106 40.2824 39.2263 40.2367C40.0003 39.93 40.8082 39.7977 41.6379 39.811C41.9252 39.8157 42.2129 39.8564 42.4988 39.893C42.6218 39.9087 42.7045 39.8894 42.7848 39.7844C43.1718 39.2784 43.6491 38.8764 44.2221 38.5951C44.3365 38.5391 44.3538 38.4811 44.3178 38.3624C43.8441 36.8088 44.0591 35.3562 45.0311 34.0516C45.8701 32.9249 47.011 32.2986 48.418 32.1626C48.711 32.1343 48.9876 32.1506 49.2706 32.2406C49.6489 32.3606 49.8849 32.6023 50.0003 32.9739C49.9993 38.3168 49.9993 43.6612 49.9993 49.0054ZM37.4794 41.3153C37.4474 41.2863 37.426 41.2603 37.3994 41.244C36.9674 40.985 36.5044 40.8873 36.0087 40.9973C35.1178 41.1953 34.5431 41.9373 34.5388 42.8879C34.5365 43.4136 34.2681 43.7422 33.7511 43.8456C33.2635 43.9432 32.8315 44.1546 32.4899 44.5142C31.5266 45.5278 31.6022 47.0518 32.6552 47.9691C32.9282 48.2071 33.2262 48.3528 33.6175 48.3431C34.4218 48.3231 35.2274 48.3551 36.0327 48.3638C37.171 48.3761 38.3097 48.3868 39.448 48.3981C40.4862 48.4088 41.5249 48.4214 42.5632 48.4301C44.3348 48.4451 46.1067 48.4577 47.8783 48.4707C48.096 48.4724 48.1007 48.4671 48.1007 48.2454C48.101 43.5959 48.101 38.9461 48.1007 34.2966C48.1007 34.0582 48.084 34.0476 47.8507 34.1292C46.3937 34.6386 45.5827 36.2228 46.0191 37.7071C46.1384 38.1128 46.1384 38.1128 46.5617 38.1374C46.9687 38.1614 47.1694 38.2938 47.2624 38.6934C47.324 38.9577 47.342 39.2451 47.313 39.5151C47.268 39.9334 47.057 40.0407 46.639 39.996C46.3231 39.9624 45.9934 39.9507 45.6817 40.0014C44.8924 40.129 44.3331 40.5903 43.9708 41.297C43.7151 41.7956 43.3165 41.9726 42.7822 41.8143C42.1265 41.62 41.4586 41.581 40.7869 41.6833C40.1673 41.778 39.5733 41.9596 39.062 42.3443C38.674 42.6359 38.3837 43.0123 38.1383 43.4276C37.9403 43.7629 37.5743 43.9449 37.229 43.8876C36.5587 43.7766 36.2287 43.0966 36.5721 42.508C36.7197 42.2546 36.8957 42.0166 37.0724 41.782C37.194 41.62 37.339 41.4747 37.4794 41.3153Z" fill="white"/>
<path d="M29.5453 29.2518C29.5039 29.3105 29.4676 29.3645 29.4286 29.4161C29.1636 29.7655 28.904 30.1188 28.6303 30.4611C28.4493 30.6878 28.1987 30.7794 27.909 30.7778C27.2867 30.7748 26.6647 30.7768 26.0424 30.7771C25.8001 30.7771 25.8024 30.7778 25.7984 31.0134C25.7947 31.2407 25.8067 31.4711 25.7741 31.6947C25.7051 32.1687 25.2954 32.498 24.8404 32.472C24.3655 32.445 23.9911 32.0664 23.9688 31.5821C23.9598 31.3881 23.9595 31.1931 23.9685 30.9991C23.9751 30.8537 23.9225 30.8051 23.7765 30.8064C23.1488 30.8124 22.5212 30.8054 21.8932 30.8104C21.5475 30.8131 21.2636 30.6984 21.0542 30.4178C20.8022 30.0794 20.5506 29.7411 20.2989 29.4025C20.2699 29.3638 20.2419 29.3245 20.1993 29.2655C20.0046 29.4255 19.8203 29.5741 19.6389 29.7265C18.6563 30.5508 17.6757 31.3774 16.692 32.2007C16.1371 32.6654 15.4191 32.4617 15.1838 31.7757C14.8271 30.7358 14.5651 29.6698 14.5368 28.5705C14.5058 27.3675 14.5341 26.1626 14.5634 24.9589C14.5858 24.0356 14.7148 23.123 14.9598 22.2294C15.2598 21.1351 15.8511 20.2278 16.713 19.4951C16.9584 19.2865 17.2187 19.0955 17.4587 18.8812C17.5213 18.8252 17.56 18.7142 17.5647 18.6262C17.605 17.8672 17.589 17.1019 17.6793 16.3492C17.811 15.2539 17.9707 14.1576 18.2003 13.079C18.8363 10.0918 19.8743 7.24254 21.2752 4.52796C21.7315 3.64333 22.2362 2.78702 22.8645 2.01005C23.1838 1.61539 23.5341 1.25307 23.9631 0.974414C24.5984 0.562094 25.1484 0.564428 25.7784 0.99208C26.2621 1.3204 26.6474 1.75039 27.002 2.20871C27.5787 2.95368 28.06 3.75965 28.4916 4.59429C30.0693 7.64486 31.1649 10.8638 31.7805 14.24C31.9572 15.2093 32.0365 16.1976 32.1329 17.1799C32.1789 17.6482 32.1669 18.1225 32.1682 18.5942C32.1685 18.7372 32.2119 18.8282 32.3272 18.9135C32.9172 19.3518 33.4735 19.8275 33.9198 20.4188C34.4924 21.1771 34.8158 22.043 34.9634 22.9693C35.0768 23.6803 35.1561 24.3996 35.1988 25.1183C35.2504 25.9876 35.2664 26.8605 35.2638 27.7315C35.2594 29.1311 35.0151 30.4934 34.5484 31.8137C34.3371 32.4117 33.6285 32.6277 33.1315 32.2274C32.4569 31.6844 31.8005 31.1187 31.1369 30.5621C30.6432 30.1484 30.1506 29.7335 29.6566 29.3201C29.6273 29.2961 29.5916 29.2801 29.5453 29.2518ZM19.3986 18.8052C19.3953 19.4098 19.4763 20.4828 19.6043 21.5531C19.6186 21.6741 19.6549 21.7194 19.7916 21.7131C20.9612 21.6597 22.1315 21.6154 23.3015 21.5707C23.4735 21.5641 23.6458 21.5654 23.8181 21.5691C23.9248 21.5711 23.9685 21.5271 23.9668 21.4207C23.9635 21.2207 23.9625 21.0207 23.9675 20.8208C23.9801 20.3301 24.3258 19.9358 24.7668 19.9035C25.3078 19.8638 25.7037 20.1641 25.7774 20.6958C25.8091 20.9251 25.7991 21.1611 25.7967 21.3937C25.7954 21.5227 25.8427 21.5661 25.9717 21.5701C27.2974 21.6121 28.623 21.6571 29.9486 21.7091C30.0916 21.7147 30.1456 21.6761 30.1609 21.5361C30.3143 20.1498 30.4119 18.7625 30.3376 17.3659C30.2839 16.3606 30.1586 15.3653 29.9739 14.377C29.6673 12.7354 29.226 11.1284 28.6366 9.56746C28.2113 8.44117 27.7183 7.3402 27.2584 6.22691C27.202 6.09058 27.1187 6.01525 26.964 6.00158C26.522 5.96325 26.0824 5.89892 25.6401 5.87025C24.6848 5.80825 23.7321 5.83692 22.7845 5.98958C22.6212 6.01591 22.5352 6.08991 22.4668 6.23457C21.6225 8.02118 20.9259 9.86345 20.3906 11.7654C19.7863 13.912 19.3963 16.0922 19.3986 18.8052ZM26.6554 28.9675C26.8887 28.9675 27.1224 28.9785 27.3544 28.9618C27.441 28.9558 27.5463 28.9058 27.6027 28.8408C27.7323 28.6902 27.844 28.5222 27.9513 28.3542C28.867 26.9222 29.401 25.3399 29.7789 23.6963C29.8099 23.561 29.7636 23.514 29.6323 23.5093C28.4293 23.4667 27.2267 23.42 26.0237 23.378C25.8014 23.3703 25.7991 23.3787 25.7991 23.598C25.7984 24.442 25.7987 25.2856 25.7987 26.1296C25.7987 27.0122 25.8014 27.8952 25.7964 28.7778C25.7957 28.9228 25.8431 28.9758 25.9891 28.9698C26.2111 28.9605 26.4334 28.9675 26.6554 28.9675ZM23.9678 26.1732C23.9678 25.3069 23.9648 24.4406 23.9705 23.5747C23.9715 23.422 23.9218 23.3663 23.7688 23.3757C23.4975 23.392 23.2255 23.3937 22.9538 23.4037C22.0225 23.4387 21.0912 23.4747 20.1599 23.511C19.9743 23.5183 19.9463 23.543 19.9969 23.7207C20.2149 24.4833 20.4136 25.2529 20.6699 26.0029C21.0142 27.0105 21.4952 27.9548 22.1305 28.8162C22.2105 28.9245 22.2965 28.9738 22.4348 28.9711C22.8735 28.9628 23.3122 28.9618 23.7508 28.9715C23.9165 28.9751 23.9731 28.9268 23.9718 28.7558C23.9638 27.8945 23.9678 27.0339 23.9678 26.1732ZM17.7127 21.0521C17.6633 21.0867 17.6257 21.1017 17.6053 21.1294C17.4133 21.3867 17.1984 21.6311 17.0397 21.9077C16.6444 22.5964 16.5 23.366 16.4464 24.143C16.3734 25.1989 16.3201 26.2589 16.3194 27.3169C16.3191 28.0462 16.4197 28.7755 16.4807 29.5045C16.4914 29.6331 16.5287 29.7595 16.558 29.9081C16.6214 29.8678 16.661 29.8488 16.6934 29.8215C17.5143 29.1251 18.335 28.4288 19.1543 27.7305C19.3526 27.5615 19.3496 27.5582 19.2416 27.3002C18.5273 25.5953 18.0813 23.819 17.83 21.991C17.788 21.6857 17.7533 21.3794 17.7127 21.0521ZM32.0589 21.0554C32.0472 21.1104 32.0405 21.1354 32.0369 21.1607C31.9352 21.8521 31.8509 22.5464 31.7289 23.234C31.4742 24.6716 31.0596 26.0642 30.4846 27.4072C30.4243 27.5482 30.4619 27.6275 30.5706 27.7185C31.2816 28.3135 31.9875 28.9141 32.6958 29.5121C32.8545 29.6461 33.0158 29.7775 33.1795 29.9131C33.2002 29.8814 33.2138 29.8688 33.2168 29.8541C33.2332 29.7781 33.2485 29.7021 33.2615 29.6255C33.4015 28.7972 33.4502 27.9635 33.4402 27.1232C33.4268 25.9739 33.4275 24.825 33.2622 23.6843C33.1698 23.049 33.0182 22.4304 32.6952 21.8667C32.5275 21.5731 32.3229 21.3081 32.0589 21.0554ZM23.6641 4.02465C24.4871 4.02465 25.2694 4.02465 26.0787 4.02465C26.0031 3.90298 25.9481 3.79432 25.8751 3.69966C25.5937 3.336 25.3091 2.97501 25.0201 2.61736C24.9608 2.54403 24.8858 2.4827 24.7814 2.57669C24.3315 2.98368 24.0071 3.48566 23.6641 4.02465Z" fill="white"/>
<path d="M23.9659 40.0872C23.9659 38.2326 23.9652 36.378 23.9665 34.5237C23.9669 34.0427 24.2462 33.6704 24.6715 33.5731C25.2412 33.4427 25.7598 33.847 25.7961 34.45C25.7985 34.4887 25.7978 34.5277 25.7978 34.5667C25.7978 38.2592 25.7978 41.9514 25.7981 45.644C25.7981 45.9 25.7548 46.1413 25.5825 46.344C25.3352 46.6346 24.9485 46.751 24.6058 46.6363C24.2362 46.5126 23.9882 46.1823 23.9679 45.784C23.9645 45.7177 23.9662 45.6507 23.9662 45.584C23.9659 43.7517 23.9659 41.9194 23.9659 40.0872Z" fill="white"/>
<path d="M20.9665 35.2217C20.9665 34.4 20.9642 33.5784 20.9672 32.7567C20.9692 32.2554 21.2785 31.8724 21.7271 31.8034C22.3171 31.7128 22.7884 32.1308 22.7971 32.7637C22.8044 33.3021 22.7988 33.8407 22.7988 34.3794C22.7988 35.4787 22.8001 36.5776 22.7981 37.6769C22.7971 38.1276 22.5708 38.4779 22.2035 38.6105C21.5921 38.8319 20.9742 38.4002 20.9685 37.7366C20.9608 36.8983 20.9665 36.06 20.9665 35.2217Z" fill="white"/>
<path d="M26.9663 35.2256C26.9663 34.3983 26.9633 33.5713 26.9673 32.744C26.9697 32.2537 27.281 31.8734 27.7226 31.8037C28.3013 31.7124 28.7706 32.1147 28.7959 32.726C28.8016 32.859 28.7976 32.9924 28.7976 33.1257C28.7976 34.6413 28.7983 36.1569 28.7969 37.6722C28.7966 38.1249 28.5733 38.4742 28.2066 38.6088C27.5903 38.8352 26.9717 38.3979 26.967 37.7235C26.962 36.8912 26.9663 36.0583 26.9663 35.2256Z" fill="white"/>
<path d="M26.5731 16.9784C26.5704 17.976 25.7821 18.748 24.7708 18.744C23.8045 18.74 23.0076 17.9373 23.0022 16.963C22.9969 15.9921 23.8229 15.1708 24.8022 15.1728C25.7871 15.1748 26.5761 15.9791 26.5731 16.9784ZM25.1991 16.9517C25.1961 16.7327 25.0102 16.5481 24.7952 16.5504C24.5718 16.5527 24.3938 16.7424 24.3972 16.9744C24.4005 17.2054 24.5678 17.3704 24.7988 17.37C25.0272 17.3694 25.2021 17.1867 25.1991 16.9517Z" fill="white"/>
<path d="M26.5731 12.7848C26.5727 13.7721 25.7814 14.5724 24.8035 14.5744C23.8218 14.5764 22.9995 13.7601 23.0022 12.7865C23.0049 11.7995 23.8105 11.0012 24.8025 11.0029C25.7921 11.0046 26.5734 11.7909 26.5731 12.7848ZM24.3968 12.7812C24.3965 13.0042 24.5742 13.1955 24.7841 13.1985C25.0088 13.2018 25.1985 13.0148 25.1991 12.7895C25.1998 12.5562 25.0228 12.3779 24.7908 12.3775C24.5641 12.3772 24.3972 12.5485 24.3968 12.7812Z" fill="white"/>
<path d="M24.7949 6.83243C25.7935 6.83209 26.5572 7.6064 26.5775 8.6007C26.5952 9.45567 25.9119 10.392 24.7782 10.3983C23.8106 10.4036 22.9959 9.564 23.0016 8.60037C23.0079 7.62307 23.8096 6.83276 24.7949 6.83243ZM24.7956 9.00836C25.0312 9.00902 25.1945 8.85069 25.1989 8.61737C25.2032 8.37904 25.0362 8.20872 24.7959 8.20638C24.5596 8.20405 24.4002 8.36104 24.3969 8.5987C24.3936 8.84769 24.5499 9.00802 24.7956 9.00836Z" fill="white"/>
</svg>
