<svg width="40" height="59" viewBox="0 0 40 59" fill="none" xmlns="http://www.w3.org/2000/svg">
<path d="M8.36183 58.5878C8.26693 58.5667 8.17126 58.5499 8.07792 58.5234C7.39373 58.3297 7.01103 57.6346 7.22542 56.9394C7.55502 55.8702 7.89946 54.8053 8.23882 53.7392C9.24831 50.5646 10.2578 47.3901 11.2712 44.2171C11.3157 44.0785 11.2981 43.9957 11.1763 43.9055C7.6753 41.3191 4.1782 38.7264 0.675639 36.1424C0.268718 35.8421 -0.0105023 35.4941 0.000432217 34.9634C0.0137099 34.3226 0.529585 33.7848 1.17394 33.7508C1.26493 33.7461 1.35592 33.7485 1.4473 33.7485C5.7227 33.7485 9.99811 33.7469 14.2735 33.7528C14.4828 33.7532 14.5797 33.6946 14.6445 33.4884C15.3759 31.1676 16.1152 28.8494 16.8599 26.5329C16.9169 26.3552 16.874 26.2982 16.7041 26.2517C14.4383 25.6331 12.1745 25.0083 9.90985 24.3858C7.53237 23.7321 5.15489 23.0791 2.77702 22.4262C2.02723 22.2204 1.63944 21.5381 1.86165 20.7911C2.58567 18.3593 3.31437 15.9291 4.04152 13.4981C5.13224 9.85186 6.22257 6.20559 7.31329 2.55932C7.47379 2.02313 7.63859 1.48851 7.79402 0.95116C7.93773 0.455201 8.27748 0.165827 8.75235 0.0100098C16.1984 0.0100098 23.644 0.0100098 31.09 0.0100098C31.6633 0.1834 31.9507 0.58954 32.1198 1.1515C33.8479 6.89642 35.59 12.637 37.3282 18.3788C37.5637 19.1571 37.8003 19.9355 38.0377 20.7134C38.2849 21.5241 37.9222 22.1911 37.1056 22.4156C32.4881 23.6852 27.8702 24.9528 23.2527 26.2236C22.8626 26.331 22.9114 26.2802 23.0266 26.6434C23.744 28.9006 24.4629 31.1574 25.1834 33.4138C25.3068 33.8004 25.2412 33.7469 25.6517 33.7469C29.9993 33.7481 34.347 33.7473 38.6946 33.7481C39.3409 33.7481 39.8486 34.125 39.9693 34.7135C40.0813 35.2606 39.8845 35.6964 39.4393 36.0244C37.4121 37.5189 35.3849 39.0131 33.3582 40.5076C31.834 41.6311 30.3117 42.7578 28.7828 43.875C28.6266 43.9891 28.6087 44.0886 28.6645 44.2636C30.0059 48.4664 31.3435 52.6703 32.6775 56.8758C32.9274 57.6639 32.5955 58.2918 31.8062 58.5613C31.7879 58.5675 31.7715 58.5785 31.7539 58.5874C31.5977 58.5874 31.4415 58.5874 31.2853 58.5874C31.0896 58.4867 30.8768 58.4098 30.7015 58.2813C27.1833 55.6964 23.669 53.1061 20.1575 50.5127C20.013 50.4061 19.9188 50.3967 19.7689 50.5076C16.5041 52.9206 13.2371 55.3313 9.96374 57.7322C9.50332 58.07 9.09444 58.5125 8.47899 58.5874C8.43993 58.5878 8.40088 58.5878 8.36183 58.5878ZM5.06077 36.2541C5.0557 36.272 5.05023 36.29 5.04515 36.3079C5.14357 36.3802 5.24198 36.4532 5.34117 36.5251C8.0912 38.5183 10.842 40.5107 13.5905 42.5059C14.106 42.88 14.2708 43.4013 14.0782 44.0027C13.1266 46.9769 12.1745 49.9515 11.2228 52.9257C11.1087 53.2826 10.9967 53.6403 10.8701 54.0406C10.9506 53.9848 10.9931 53.9567 11.0342 53.9266C11.9925 53.2201 12.9512 52.5137 13.9092 51.8069C15.6735 50.5049 17.4367 49.2013 19.2022 47.9005C19.8044 47.4569 20.3109 47.4631 20.9162 47.9095C23.5917 49.8832 26.2675 51.8572 28.9433 53.8305C29.0187 53.886 29.098 53.9367 29.2148 54.0164C29.1913 53.9157 29.1831 53.8661 29.1679 53.8188C28.9016 52.9819 28.6348 52.1451 28.3669 51.3086C27.5933 48.892 26.8185 46.4759 26.0461 44.059C25.8274 43.374 25.9828 42.9007 26.5612 42.4699C29.2437 40.4728 31.9269 38.4765 34.6098 36.4794C34.6883 36.4208 34.7636 36.3583 34.8406 36.2974C34.8331 36.283 34.8261 36.2689 34.8187 36.2544C34.7355 36.2544 34.6523 36.2544 34.5688 36.2544C31.1654 36.2544 27.762 36.2548 24.3583 36.2541C23.7315 36.2541 23.2816 35.9334 23.093 35.3469C22.0815 32.2005 21.072 29.0533 20.0614 25.9065C20.0411 25.8428 20.0173 25.78 19.9782 25.6687C19.9356 25.7784 19.9103 25.8366 19.8899 25.8963C18.8258 29.0256 17.762 32.1548 16.6982 35.2844C16.4667 35.9655 16.0644 36.2544 15.342 36.2544C11.9972 36.2544 8.65238 36.2544 5.30719 36.2544C5.22557 36.2541 5.14317 36.2541 5.06077 36.2541ZM15.7087 2.52651C15.7317 2.62141 15.743 2.67803 15.7594 2.7331C16.205 4.22254 16.6502 5.71236 17.0966 7.20141C18.7461 12.7038 20.3957 18.2058 22.0452 23.7083C22.1257 23.9769 22.1261 23.9785 22.4018 23.9019C24.2817 23.3783 26.1617 22.8538 28.0412 22.3289C28.3458 22.2438 28.3423 22.243 28.2541 21.9497C27.4035 19.1216 26.5538 16.2931 25.7048 13.4642C24.6332 9.89404 23.562 6.32353 22.4959 2.75184C22.4424 2.5722 22.3619 2.50699 22.1698 2.50738C20.1004 2.51402 18.0315 2.51167 15.9621 2.51206C15.8871 2.51285 15.8114 2.52066 15.7087 2.52651ZM35.2147 20.3857C35.1936 20.2986 35.1827 20.2416 35.1659 20.1866C33.4359 14.3745 31.7043 8.56315 29.9782 2.74989C29.9243 2.56869 29.8431 2.50699 29.6529 2.50816C28.2017 2.51597 26.7502 2.51245 25.299 2.51245C25.2291 2.51245 25.1596 2.51245 25.0596 2.51245C25.0901 2.63508 25.1092 2.72841 25.1362 2.81862C25.909 5.39214 26.683 7.96566 27.4562 10.5392C28.538 14.1409 29.6201 17.7427 30.6968 21.346C30.7487 21.5198 30.819 21.5495 30.9869 21.5038C31.948 21.2437 32.9118 20.9949 33.8744 20.7415C34.3134 20.6259 34.7523 20.5083 35.2147 20.3857ZM4.69915 20.3752C4.79093 20.4033 4.85146 20.424 4.91316 20.4404C6.25889 20.7958 7.60579 21.1476 8.94995 21.5089C9.11944 21.5545 9.17606 21.5057 9.22292 21.3483C9.68374 19.8023 10.152 18.2586 10.6179 16.7145C11.7164 13.0713 12.8161 9.42854 13.908 5.78305C13.9494 5.64441 13.9486 5.47298 13.9088 5.33356C13.6577 4.45841 13.3862 3.58872 13.1312 2.71474C13.0867 2.56244 13.0195 2.50777 12.8602 2.50933C11.9819 2.51597 11.1037 2.51636 10.2254 2.50894C10.0641 2.50777 9.9981 2.56791 9.95437 2.7163C9.39983 4.59392 8.84022 6.47036 8.28138 8.34641C7.2469 11.8185 6.21202 15.291 5.17754 18.7631C5.01977 19.2919 4.86356 19.8214 4.69915 20.3752ZM15.3877 9.97878C15.3517 10.0655 15.3318 10.1034 15.3197 10.1436C14.1407 14.0949 12.9621 18.0461 11.7836 21.9974C11.7105 22.2426 11.7105 22.2454 11.9569 22.3137C14.4692 23.0131 16.9818 23.7118 19.4944 24.41C19.5467 24.4245 19.6021 24.4291 19.7005 24.4459C18.2599 19.6133 16.8306 14.8193 15.3877 9.97878Z" fill="white"/>
</svg>
