<svg width="50" height="51" fill="none" xmlns="http://www.w3.org/2000/svg"><path d="M18.77 6.23c0-.106.012-.2.012-.307 0-.946-.024-1.892 0-2.838.035-1.265.639-2.2 1.775-2.779.402-.2.84-.284 1.302-.296 1.337-.023 2.544.864 2.958 2.105.107.308.154.627.154.958v2.922c.012.248.024.271.284.283h13.48c.308 0 .604.06.888.166.946.378 1.799.91 2.532 1.608 1.042.993 2.071 1.999 3.09 3.016 1.3 1.3 2.58 2.613 3.857 3.926.403.402.675.887.805 1.442.249 1.088 0 2.058-.757 2.874-.51.556-1.054 1.088-1.586 1.62a339.484 339.484 0 01-5.066 5.05 11.2 11.2 0 01-1.136.993c-.544.39-1.124.71-1.74.958-.283.118-.58.166-.899.166H25.196c-.201.012-.225.035-.225.224v15.127c0 .118-.023.236.048.343.094.059.213.035.32.035h2.863c.308 0 .604.047.9.154 1.136.402 1.846 1.182 2.082 2.377.32 1.655-.733 3.193-2.331 3.583a2.94 2.94 0 01-.639.071H15.657a3.06 3.06 0 01-1.337-.284c-.947-.461-1.539-1.206-1.74-2.235-.307-1.644.722-3.205 2.355-3.595a2.94 2.94 0 01.64-.07h2.84c.106 0 .213-.013.331-.013.012-.07.036-.118.036-.165.012-.083 0-.166 0-.249V28.5c0-.118.023-.237-.036-.355-.059-.012-.118-.035-.177-.035-.107-.012-.213 0-.32 0H3.361c-.166 0-.32-.012-.485-.012-1.053-.038-2.284-.77-2.722-2.118a2.497 2.497 0 01-.13-.71c0-.165-.012-.319-.012-.485C0 19.712 0 14.663 0 9.601c0-.307 0-.615.071-.91a3.094 3.094 0 012.355-2.342c.213-.047.426-.059.64-.059h15.49c.07-.012.13-.035.213-.06zm3.29 6.233H7.42c-.497-.012-1.017.379-1.171.875-.048.154-.06.32-.06.485v6.823c-.011.473.344 1.03.924 1.195.165.047.331.047.509.047h28.793c.213 0 .415-.012.616-.059.663-.154 1.254-.426 1.751-.91.912-.9 1.823-1.798 2.722-2.697l.249-.248a1.257 1.257 0 00-.024-1.656 2.241 2.241 0 00-.166-.177c-.934-.91-1.858-1.833-2.793-2.744-.639-.615-1.408-.946-2.307-.958h-.32c-4.698.024-9.385.024-14.083.024z" fill="#F47B20"/></svg>