<svg width="50" height="51" fill="none" xmlns="http://www.w3.org/2000/svg"><g clip-path="url(#clip0)" fill="#F15C2C"><path d="M50 46.866v-20.06c0-1.796-1.348-3.143-3.144-3.143H31.287c-1.796 0-3.144 1.347-3.144 3.143v20.21c0 1.796 1.348 3.144 3.144 3.144h15.569C48.652 50.01 50 48.663 50 46.866zm-14.372-2.994c-.748 0-1.197-.599-1.197-1.197V31.297c0-.748.599-1.197 1.197-1.197h6.887c.748 0 1.197.598 1.197 1.197v11.378c0 .748-.599 1.197-1.197 1.197h-6.887zm-13.772 2.994V3.154c0-1.797-1.347-3.144-3.143-3.144H3.143C1.348.01 0 1.357 0 3.154v43.862c0 1.796 1.347 3.144 3.144 3.144h15.569c1.796-.15 3.143-1.497 3.143-3.294zM7.485 43.872c-.748 0-1.198-.599-1.198-1.197V7.495c0-.748.6-1.198 1.198-1.198h6.886c.749 0 1.198.6 1.198 1.198v35.03c0 .748-.599 1.198-1.198 1.198H7.485v.15zM28.143 3.154v11.078c0 1.796 1.348 3.143 3.144 3.143h15.569c1.796 0 3.144-1.347 3.144-3.143V3.154C50 1.357 48.652.01 46.856.01H31.287c-1.796 0-3.144 1.347-3.144 3.144zm14.372 3.143c.748 0 1.197.6 1.197 1.198V9.89c0 .749-.599 1.198-1.197 1.198h-6.887c-.748 0-1.197-.599-1.197-1.198V7.495c0-.748.599-1.198 1.197-1.198h6.887z"/></g><defs><clipPath id="clip0"><path fill="#fff" transform="translate(0 .01)" d="M0 0h50v50H0z"/></clipPath></defs></svg>