<svg width="49" height="50" fill="none" xmlns="http://www.w3.org/2000/svg"><path d="M48.977 25.475c0 6.585-.04 13.17.023 19.754.021 2.149-1.52 4.254-3.899 4.634a4.34 4.34 0 01-.684.04c-13.232.001-26.465.002-39.697 0a4.572 4.572 0 01-4.48-3.56c-.087-.379-.074-.785-.075-1.18C.161 38.39.163 31.618.163 24.846c0-6.377.061-12.755-.03-19.13C.096 3.227 2.193.98 4.879.985c13.128.024 26.256.018 39.385.004 2.246-.002 4.11 1.485 4.594 3.433.1.398.113.823.114 1.237.008 4.876.005 9.753.005 14.63v5.187zm-17.283 7.347l7.322-7.32 8.318 8.317.112-.067V6.062c0-.166.005-.334-.002-.5-.074-1.55-1.343-2.946-3.042-2.944-13.212.02-26.425.012-39.637.007-.883 0-1.622.28-2.225.941-.611.67-.848 1.455-.847 2.345.004 7.96.003 15.922.004 23.883 0 .198.018.396.033.736a50028.897 50028.897 0 015.56-5.56l2.785-2.785c.915-.915 1.823-1.833 2.743-2.74.912-.899 1.785-1.842 2.775-2.727 5.382 5.384 10.711 10.714 16.101 16.103zm-6.86-4.384c-3.142-3.146-6.23-6.235-9.393-9.403l-8.715 8.622.101.21c.364.19.72.396 1.092.57 1.397.652 2.84.794 4.309.288.509-.175.995-.422 1.477-.669 1.948-1 3.88-.965 5.787.096 1.081.603 2.22.947 3.465.848.678-.053 1.362-.126 1.876-.562zM35.63 31.2c.017.06.014.114.04.134.922.74 1.599.858 2.564.267.794-.488 1.546-.492 2.337.007.272.173.606.279.926.341.448.087.853-.048 1.1-.327l-3.674-3.755-3.059 3.06c-.087.088-.161.188-.234.273z" fill="#fff"/><path d="M8.885 17.902c-2.392.175-4.76-2.067-4.747-4.742.012-2.211 1.778-4.771 4.783-4.75 2.686.019 4.729 2.05 4.753 4.782.022 2.657-2.304 4.882-4.79 4.71zm24.19-2.592c-.635 1.744-.453 3.346.66 4.768 1.097 1.402 2.612 1.92 4.371 1.803-.516 1.802-2.872 3.101-4.825 2.847-2.506-.326-4.548-2.501-4.213-5.465.224-1.981 2.15-3.922 4.007-3.953zm4.905-3.095l-.576-.655 6.836-6.835.62.612c-2.3 2.297-4.56 4.558-6.88 6.878zm6.699-4.506l.743.672c-.178.22-.28.37-.407.497a529.18 529.18 0 01-2.776 2.778c-.453.45-.496.447-.942-.007-.114-.115-.21-.247-.278-.327 1.22-1.202 2.41-2.377 3.66-3.613zm-6.715-.322c.644-.65 1.28-1.288 1.972-1.988l.627.703c-.644.648-1.28 1.287-1.966 1.979l-.633-.694zm-10.123 5.965l.54-.381 1.577 2.243c-.237.13-.39.212-.571.31l-1.546-2.172zM13.454 8.821c.363-.106.712-.224 1.068-.307.403-.097.814-.168 1.221-.24.194-.033.387-.03.432.227.039.221-.048.349-.278.4-.649.143-1.294.303-1.943.45-.38.083-.458-.157-.5-.53zm12.887 2.283c-.116.186-.2.32-.27.435-.083 0-.134.016-.162-.003-.617-.385-1.228-.779-1.848-1.16-.34-.21-.23-.428-.013-.737.797.404 1.553.847 2.294 1.465zm-7.472-2.962l2.66.457-.13.59c-.108.014-.17.037-.227.027-.632-.108-1.263-.233-1.898-.331-.458-.069-.462-.054-.405-.743z" fill="#fff"/></svg>