<svg width="402" height="364" fill="none" xmlns="http://www.w3.org/2000/svg"><g clip-path="url(#clip0)" filter="url(#filter0_d)"><path d="M390.8 275.4L247.3 26.8C237.2 9.4 216 0 201.1 0c-15 0-36.3 9.4-46.4 26.8L11.2 275.4c-9.7 16.7-9.7 36.7 0 53.5 9.7 16.8 27 26.9 46.3 26.9H165v-94.3h-36.1l72.3-123.6 72.3 123.6h-36.2v94.3h107.1c19.3 0 36.6-10 46.3-26.9 9.7-16.8 9.7-36.8.1-53.5zm-109.4-3.2c2.3 0 4.4-1.2 5.5-3.2 1.1-2 1.1-4.4 0-6.4l-80.2-137.1c-1.1-1.9-3.2-3.1-5.5-3.1-2.2 0-4.3 1.2-5.5 3.1l-80.3 137.1c-1.1 2-1.2 4.4 0 6.4 1.1 2 3.2 3.2 5.5 3.2H154v30.7H62.7c-2 0-3-1.4-3.4-2-.3-.6-1-2.1 0-3.9L198.2 56.6c.9-1.5 2.1-1.9 3-1.9 1.2 0 2.2.7 2.9 1.9 27.2 46 112.8 195.7 138.4 240.4 1 1.8.3 3.3 0 3.9-.3.6-1.3 2-3.2 2h-91.1v-30.7h33.2zm100 51.2c-7.7 13.4-21.5 21.4-36.9 21.4h-96.2v-31h91.2c5.3-.1 10-2.9 12.6-7.5 2.6-4.6 2.6-10.1 0-14.7-25.7-44.7-111.2-194.4-138.5-240.5-2.7-4.6-7.3-7.3-12.3-7.3h-.1c-5.1 0-9.7 2.8-12.3 7.3L50.1 291.6c-2.6 4.6-2.7 10.1-.1 14.7s7.3 7.4 12.7 7.5h91.4v31H57.5c-15.3 0-29.1-8-36.9-21.4-7.6-13.4-7.6-29.3.1-42.6L164.2 32.3c7.6-13.2 25.1-21.4 37-21.4 12 0 29 8 36.7 21.4l143.5 248.5c7.7 13.3 7.7 29.2 0 42.6z" fill="url(#paint0_linear)"/></g><defs><linearGradient id="paint0_linear" x1="12.631" y1="110.044" x2="348.546" y2="25.782" gradientUnits="userSpaceOnUse"><stop stop-color="#F47B20"/><stop offset=".998" stop-color="#F15C2C"/></linearGradient><clipPath id="clip0"><path fill="#fff" transform="translate(4)" d="M0 0h394v355.7H0z"/></clipPath><filter id="filter0_d" x="0" y="0" width="402" height="363.7" filterUnits="userSpaceOnUse" color-interpolation-filters="sRGB"><feFlood flood-opacity="0" result="BackgroundImageFix"/><feColorMatrix in="SourceAlpha" values="0 0 0 0 0 0 0 0 0 0 0 0 0 0 0 0 0 0 127 0"/><feOffset dy="4"/><feGaussianBlur stdDeviation="2"/><feColorMatrix values="0 0 0 0 0 0 0 0 0 0 0 0 0 0 0 0 0 0 0.25 0"/><feBlend in2="BackgroundImageFix" result="effect1_dropShadow"/><feBlend in="SourceGraphic" in2="effect1_dropShadow" result="shape"/></filter></defs></svg>