<svg width="394" height="356" fill="none" xmlns="http://www.w3.org/2000/svg"><path d="M386.8 275.542l-143.5-248.6c-10.1-17.4-31.3-26.8-46.2-26.8-15 0-36.3 9.4-46.4 26.8L7.2 275.542c-9.7 16.7-9.7 36.7 0 53.5 9.7 16.8 27 26.9 46.3 26.9H161v-94.3h-36.1l72.3-123.6 72.3 123.6h-36.2v94.3h107.1c19.3 0 36.6-10 46.3-26.9 9.7-16.8 9.7-36.8.1-53.5zm-109.4-3.2c2.3 0 4.4-1.2 5.5-3.2 1.1-2 1.1-4.4 0-6.4l-80.2-137.1c-1.1-1.9-3.2-3.1-5.5-3.1-2.2 0-4.3 1.2-5.5 3.1l-80.3 137.1c-1.1 2-1.2 4.4 0 6.4 1.1 2 3.2 3.2 5.5 3.2H150v30.7H58.7c-2 0-3-1.4-3.4-2-.3-.6-1-2.1 0-3.9l138.9-240.4c.9-1.5 2.1-1.9 3-1.9 1.2 0 2.2.7 2.9 1.9 27.2 46 112.8 195.7 138.4 240.4 1 1.8.3 3.3 0 3.9-.3.6-1.3 2-3.2 2h-91.1v-30.7h33.2zm100 51.2c-7.7 13.4-21.5 21.4-36.9 21.4h-96.2v-31h91.2c5.3-.1 10-2.9 12.6-7.5 2.6-4.6 2.6-10.1 0-14.7-25.7-44.7-111.2-194.4-138.5-240.5-2.7-4.6-7.3-7.3-12.3-7.3h-.1c-5.1 0-9.7 2.8-12.3 7.3l-138.8 240.5c-2.6 4.6-2.7 10.1-.1 14.7s7.3 7.4 12.7 7.5h91.4v31H53.5c-15.3 0-29.1-8-36.9-21.4-7.6-13.4-7.6-29.3.1-42.6l143.5-248.5c7.6-13.2 25.1-21.4 37-21.4 12 0 29 8 36.7 21.4l143.5 248.5c7.7 13.3 7.7 29.2 0 42.6z" fill="#000"/></svg>