<svg width="200" height="42" fill="none" xmlns="http://www.w3.org/2000/svg"><g clip-path="url(#clip0)" fill="#F15C2C"><path d="M42.091 30.375L26.476 3.322C25.376 1.43 23.07.406 21.448.406c-1.632 0-3.95 1.023-5.049 2.916L.783 30.375c-1.055 1.817-1.055 3.993 0 5.822 1.056 1.828 2.938 2.927 5.039 2.927H17.52V28.862h-3.928l7.867-13.45 7.868 13.45h-3.94v10.262h11.655c2.1 0 3.983-1.088 5.038-2.927a5.773 5.773 0 00.011-5.822zm-11.905-.349c.25 0 .48-.13.599-.348a.72.72 0 000-.696l-8.727-14.92a.69.69 0 00-.599-.337c-.24 0-.468.13-.598.338l-8.739 14.919a.693.693 0 000 .696c.12.218.349.348.599.348h3.602v3.341H6.388a.437.437 0 01-.37-.217.431.431 0 010-.425l15.115-26.16c.098-.163.228-.207.326-.207.13 0 .24.076.316.207 2.96 5.006 12.275 21.296 15.06 26.16a.431.431 0 010 .425.395.395 0 01-.348.217h-9.913v-3.34h3.612zm10.883 5.572a4.586 4.586 0 01-4.016 2.329H26.585v-3.374h9.924a1.593 1.593 0 001.371-.816c.283-.5.283-1.099 0-1.6-2.797-4.864-12.1-21.154-15.072-26.17-.293-.501-.794-.795-1.338-.795h-.01a1.55 1.55 0 00-1.34.794L5.017 32.138a1.616 1.616 0 00-.01 1.6c.283.5.794.804 1.382.815h9.946v3.374H5.822c-1.665 0-3.167-.87-4.016-2.329a4.615 4.615 0 01.011-4.636L17.433 3.921c.827-1.437 2.731-2.33 4.026-2.33 1.306 0 3.156.871 3.994 2.33l15.616 27.041a4.589 4.589 0 010 4.636zM89.232 14.39h-6.877v20.207h6.877V14.389zm16.519-.545c-3.319 0-5.038 1.524-6.213 3.515l.076-2.97h-6.877v27.204h6.877v-9.728c1.328 2.154 3.439 3.286 6.605 3.286 5.039 0 8.01-4.026 8.01-10.784 0-6.736-3.211-10.523-8.478-10.523zm-2.307 15.594c-2.339 0-3.95-2.035-3.95-5.006 0-2.97 1.6-5.038 3.95-5.038 2.623 0 3.874 1.6 3.874 5.006-.01 3.395-1.338 5.038-3.874 5.038zm20.284-24.387h-6.877v29.556h6.877V5.052zm13.287 8.793c-6.485 0-10.827 4.103-10.827 10.904 0 6.681 4.614 10.555 10.947 10.555 4.886 0 8.521-1.958 10.392-6.017l-5.822-1.84c-.935 1.992-2.535 2.47-4.646 2.47-2.231 0-3.787-1.294-4.222-3.753h14.734c.772-9.424-5.517-12.319-10.556-12.319zm-4.146 8.368c.512-2.306 1.959-3.014 4.146-3.014 2.427 0 3.678 1.1 3.994 3.014h-8.14zM89.232 5.118h-6.877v6.594h6.877V5.118zM74.063 16.849l.076-2.46h-6.877v20.208h6.877V24.161c0-2.622.86-3.787 2.819-3.787.98 0 1.643.272 2.23.936h.077l.022-.043v-7.204c-.207-.022-.414-.022-.643-.022-1.773 0-3.569 1.012-4.58 2.808zM159.03 5.052h-6.878v29.556h6.878V5.052zm9.881.066h-6.878v6.594h6.878V5.118zm0 9.272h-6.878v20.207h6.878V14.389zM60.036 5.129L53.16 9.1v5.288h-3.287v5.441h3.287v9.576c.01 2.079.446 3.428 1.251 4.342.903 1.056 2.503 1.404 4.647 1.404 2.035 0 3.71-.468 4.494-.783V28.59h-.076c-.392.24-1.056.436-1.915.436-1.198 0-1.513-.62-1.524-1.687V19.84h4.146V14.4h-4.146V5.128zm135.818-.316l-6.878 3.972v5.604h-6.572v-2.883c0-1.132.74-1.644 1.915-1.644s1.915.392 2.459.816h.076l.74-5.31c-1.371-.588-2.818-.98-5.31-.98-4.179 0-6.758 1.84-6.758 6.258V14.4h-4.559v5.441h4.559v14.767h6.878V19.83h6.572v9.576c.011 2.079.447 3.428 1.252 4.342.903 1.056 2.503 1.404 4.646 1.404 2.035 0 3.711-.468 4.495-.784V28.59h-.076c-.392.24-1.056.436-1.916.436-1.197 0-1.512-.62-1.523-1.687V19.84H200V14.4h-4.146V4.812z"/></g><defs><clipPath id="clip0"><path fill="#fff" transform="translate(0 .406)" d="M0 0h200v41.188H0z"/></clipPath></defs></svg>