<svg width="60" height="340" fill="none" xmlns="http://www.w3.org/2000/svg"><path fill-rule="evenodd" clip-rule="evenodd" d="M46 44v-4h-2v4h-4v2h4v4h2v-4h4v-2h-4zm0-30v-4h-2v4h-4v2h4v4h2v-4h4v-2h-4zM16 44v-4h-2v4h-4v2h4v4h2v-4h4v-2h-4zm0-30v-4h-2v4h-4v2h4v4h2v-4h4v-2h-4z" fill="url(#paint0_linear)"/><path fill-rule="evenodd" clip-rule="evenodd" d="M46 184v-4h-2v4h-4v2h4v4h2v-4h4v-2h-4zm0-30v-4h-2v4h-4v2h4v4h2v-4h4v-2h-4zm-30 30v-4h-2v4h-4v2h4v4h2v-4h4v-2h-4zm0-30v-4h-2v4h-4v2h4v4h2v-4h4v-2h-4z" fill="url(#paint1_linear)"/><path fill-rule="evenodd" clip-rule="evenodd" d="M46 324v-4h-2v4h-4v2h4v4h2v-4h4v-2h-4zm0-30v-4h-2v4h-4v2h4v4h2v-4h4v-2h-4zm-30 30v-4h-2v4h-4v2h4v4h2v-4h4v-2h-4zm0-30v-4h-2v4h-4v2h4v4h2v-4h4v-2h-4z" fill="url(#paint2_linear)"/><defs><linearGradient id="paint0_linear" x1="11.814" y1="13.9" x2="40.781" y2="50.554" gradientUnits="userSpaceOnUse"><stop stop-color="#F15C2C"/><stop offset="1" stop-color="#ED79CA"/></linearGradient><linearGradient id="paint1_linear" x1="11.814" y1="153.9" x2="40.781" y2="190.554" gradientUnits="userSpaceOnUse"><stop stop-color="#F15C2C"/><stop offset="1" stop-color="#ED79CA"/></linearGradient><linearGradient id="paint2_linear" x1="11.814" y1="293.9" x2="40.781" y2="330.554" gradientUnits="userSpaceOnUse"><stop stop-color="#F15C2C"/><stop offset="1" stop-color="#ED79CA"/></linearGradient></defs></svg>