<svg width="170" height="36" fill="none" xmlns="http://www.w3.org/2000/svg"><g clip-path="url(#clip0)" fill="#fff"><path d="M35.778 25.474L22.504 2.479C21.57.869 19.61 0 18.231 0c-1.388 0-3.358.87-4.292 2.479L.666 25.474a4.885 4.885 0 000 4.948c.897 1.554 2.497 2.488 4.282 2.488h9.944v-8.722h-3.34l6.688-11.433 6.688 11.433h-3.349v8.722h9.907a4.886 4.886 0 004.282-2.488 4.907 4.907 0 00.01-4.948zm-10.12-.296a.576.576 0 00.51-.296.612.612 0 000-.592l-7.419-12.682a.586.586 0 00-.509-.286.61.61 0 00-.508.286L10.303 24.29a.59.59 0 000 .592.576.576 0 00.509.296h3.061v2.84H5.43a.371.371 0 01-.314-.186.366.366 0 010-.36L17.963 5.235c.083-.138.194-.175.277-.175.111 0 .204.064.269.175C21.024 9.49 28.942 23.337 31.31 27.472a.366.366 0 010 .36.335.335 0 01-.296.185h-8.426v-2.84h3.07zm9.25 4.735a3.898 3.898 0 01-3.413 1.98h-8.898v-2.867h8.436c.49-.01.924-.269 1.165-.694.24-.426.24-.934 0-1.36-2.377-4.135-10.286-17.981-12.81-22.245-.25-.426-.676-.676-1.139-.676h-.009c-.471 0-.897.26-1.137.676L4.263 26.972c-.24.426-.25.934-.01 1.36.241.425.676.684 1.175.694h8.455v2.867H4.948c-1.415 0-2.691-.74-3.413-1.98a3.922 3.922 0 01.01-3.94L14.818 2.988c.703-1.221 2.322-1.98 3.422-1.98 1.11 0 2.683.74 3.395 1.98l13.273 22.985a3.9 3.9 0 010 3.94zm40.94-18.027h-5.846v17.177h5.846V11.886zm14.041-.463c-2.821 0-4.283 1.295-5.282 2.988l.065-2.525h-5.846V35.01h5.846v-8.27c1.129 1.832 2.923 2.794 5.615 2.794 4.282 0 6.807-3.422 6.807-9.166 0-5.726-2.728-8.945-7.205-8.945zm-1.961 13.255c-1.989 0-3.358-1.73-3.358-4.255s1.36-4.282 3.358-4.282c2.23 0 3.293 1.36 3.293 4.255-.01 2.885-1.138 4.282-3.293 4.282zM105.169 3.95h-5.846v25.122h5.846V3.95zm11.294 7.473c-5.513 0-9.203 3.488-9.203 9.269 0 5.679 3.922 8.972 9.305 8.972 4.153 0 7.242-1.665 8.833-5.115l-4.948-1.564c-.796 1.693-2.155 2.1-3.95 2.1-1.896 0-3.219-1.1-3.589-3.191h12.524c.657-8.01-4.689-10.47-8.972-10.47zm-3.524 7.113c.435-1.96 1.665-2.562 3.524-2.562 2.063 0 3.127.934 3.395 2.562h-6.919zM75.848 4.005h-5.846V9.61h5.846V4.005zm-12.894 9.971l.065-2.09h-5.846v17.177h5.846v-8.871c0-2.23.73-3.219 2.395-3.219.833 0 1.397.231 1.897.796h.064l.019-.037v-6.124c-.176-.018-.352-.018-.546-.018-1.508 0-3.034.86-3.894 2.386zM135.175 3.95h-5.845v25.122h5.845V3.95zm8.399.055h-5.845V9.61h5.845V4.005zm0 7.881h-5.845v17.177h5.845V11.886zM51.03 4.014l-5.845 3.377v4.495h-2.793v4.625h2.793v8.14c.01 1.766.38 2.913 1.064 3.69.767.897 2.127 1.193 3.95 1.193 1.729 0 3.154-.397 3.82-.666v-4.911h-.065c-.333.203-.898.37-1.628.37-1.018 0-1.286-.528-1.295-1.434V16.52h3.524v-4.625H51.03v-7.88zm115.446-.268l-5.846 3.376v4.764h-5.587V9.435c0-.962.629-1.397 1.628-1.397.999 0 1.628.333 2.091.694h.064l.629-4.514c-1.165-.5-2.395-.833-4.514-.833-3.551 0-5.744 1.564-5.744 5.32v3.19h-3.875v4.625h3.875v12.552h5.846V16.51h5.587v8.14c.009 1.766.379 2.913 1.064 3.69.767.897 2.127 1.193 3.949 1.193 1.73 0 3.154-.397 3.82-.666v-4.911h-.064c-.333.203-.898.37-1.628.37-1.018 0-1.286-.527-1.295-1.434V16.52H170v-4.625h-3.524V3.746z"/></g><defs><clipPath id="clip0"><path fill="#fff" d="M0 0h170v35.01H0z"/></clipPath></defs></svg>