<svg width="1381" height="343" fill="none" xmlns="http://www.w3.org/2000/svg"><g clip-path="url(#clip0)" fill="#fff"><path d="M362.3 92.6h-63.2v185.7h63.2V92.6zm151.7-5c-30.5 0-46.3 14-57.1 32.3l.7-27.3h-63.2v250h63.2v-89.4c12.2 19.8 31.6 30.2 60.7 30.2 46.3 0 73.6-37 73.6-99.1.1-61.8-29.4-96.7-77.9-96.7zm-21.1 143.3c-21.5 0-36.3-18.7-36.3-46s14.7-46.3 36.3-46.3c24.1 0 35.6 14.7 35.6 46-.1 31.2-12.3 46.3-35.6 46.3zM679.2 6.8H616v271.6h63.2V6.8zm122.2 80.8c-59.6 0-99.5 37.7-99.5 100.2 0 61.4 42.4 97 100.6 97 44.9 0 78.3-18 95.5-55.3l-53.5-16.9c-8.6 18.3-23.3 22.7-42.7 22.7-20.5 0-34.8-11.9-38.8-34.5h135.4c7.1-86.6-50.7-113.2-97-113.2zm-38.1 76.9c4.7-21.2 18-27.7 38.1-27.7 22.3 0 33.8 10.1 36.7 27.7h-74.8zm-401-157h-63.2v60.6h63.2V7.5zM222.9 115.3l.7-22.6h-63.2v185.7h63.2v-95.9c0-24.1 7.9-34.8 25.9-34.8 9 0 15.1 2.5 20.5 8.6h.7l.2-.4V89.7c-1.9-.2-3.8-.2-5.9-.2-16.3-.1-32.8 9.2-42.1 25.8zM1003.7 6.8h-63.2v271.6h63.2V6.8zm90.8.7h-63.2v60.6h63.2V7.5zm0 85.1h-63.2v185.7h63.2V92.6zM94 7.5L30.8 44v48.6H.6v50h30.2v88c.1 19.1 4.1 31.5 11.5 39.9 8.3 9.7 23 12.9 42.7 12.9 18.7 0 34.1-4.3 41.3-7.2V223h-.7c-3.6 2.2-9.7 4-17.6 4-11 0-13.9-5.7-14-15.5v-68.9h38.1v-50H94V7.5zm1248.1-2.8l-63.2 36.5v51.5h-60.4V66.1c0-10.4 6.8-15.1 17.6-15.1s17.6 3.6 22.6 7.5h.7l6.8-48.8c-12.6-5.4-25.9-9-48.8-9-38.4 0-62.1 16.9-62.1 57.5v34.5h-41.9v50h41.9v135.7h63.2V142.6h60.4v88c.1 19.1 4.1 31.5 11.5 39.9 8.3 9.7 23 12.9 42.7 12.9 18.7 0 34.1-4.3 41.3-7.2V223h-.7c-3.6 2.2-9.7 4-17.6 4-11 0-13.9-5.7-14-15.5v-68.9h38.1v-50h-38.1V4.7z"/></g><defs><clipPath id="clip0"><path fill="#fff" transform="translate(.6 .7)" d="M0 0h1379.6v341.9H0z"/></clipPath></defs></svg>