<svg width="20" height="20" fill="none" xmlns="http://www.w3.org/2000/svg"><path fill-rule="evenodd" clip-rule="evenodd" d="M7.282.097l.028.005a4.888 4.888 0 01.334.071 5.753 5.753 0 01.453.125l.154.053c.058.02.115.042.172.063.046.019.093.035.14.055a5.67 5.67 0 01.581.277c.02.011.041.02.062.032h-.001a6.17 6.17 0 012.98 7.024l6.752 6.75a3.1 3.1 0 01-4.384 4.385L7.8 12.185a6.169 6.169 0 01-7.02-2.98l-.002.001-.032-.061-.103-.2L.59 8.84a6.155 6.155 0 01-.24-.589C.333 8.2.314 8.15.298 8.097a5.843 5.843 0 01-.158-.595 4.615 4.615 0 01-.038-.192l-.006-.027v-.001A6.235 6.235 0 010 6.2a7.671 7.671 0 01.29-1.787.27.27 0 01.49-.126l2.458 2.458.551.553a.495.495 0 00.701 0l2.806-2.806a.497.497 0 000-.703L5.443 1.936 4.287.78a.27.27 0 01.125-.49A7.68 7.68 0 016.2 0c.363 0 .725.033 1.082.097zm3.562 10.748a.621.621 0 000 .876l5.462 5.462a.62.62 0 00.877-.877l-5.462-5.461a.62.62 0 00-.877 0zM8.367 5.887L5.883 8.369a.62.62 0 00.877.877l2.484-2.482a.62.62 0 10-.877-.877z" fill="#fff"/></svg>