<?xml version="1.0" encoding="utf-8"?>
<!-- Generator: Adobe Illustrator 25.2.1, SVG Export Plug-In . SVG Version: 6.00 Build 0)  -->
<svg version="1.1" id="Layer_1" xmlns="http://www.w3.org/2000/svg" xmlns:xlink="http://www.w3.org/1999/xlink" x="0px" y="0px"
	 viewBox="0 0 900 420" style="enable-background:new 0 0 900 420;" xml:space="preserve">
<style type="text/css">
	.st0{fill:#FFFFFF;}
</style>
<g>
	<path class="st0" d="M850,0v338.3c0,11.3-6.1,21.8-15.9,27.4c-15.1,8.7-34.6,3.5-43.3-11.6l-159-278.2c-2.1-3.6-5.9-5.8-10.1-5.8
		c0,0,0,0,0,0c-6.4,0-11.7,5.2-11.7,11.7v256.6c0,11.3-6.1,21.8-15.9,27.4c-15.1,8.7-34.6,3.5-43.3-11.6l-159-278.2
		c-2.1-3.6-5.9-5.8-10.1-5.8c0,0,0,0,0,0c-3.1,0-6,1.2-8.3,3.4c-2.2,2.2-3.4,5.1-3.4,8.3v256.6c0,17.5-14.2,31.7-31.7,31.7H210
		c-88.2,0-160-71.8-160-160S121.8,50,210,50h70V0h-70C94,0,0,94,0,210s94,210,210,210h128.3c45.1,0,81.7-36.6,81.7-81.7V225.9
		l87.4,152.9c14.5,25.4,41.5,41.1,70.8,41.1c45.1,0.1,81.7-36.5,81.8-81.6V225.9l87.4,152.9c14.5,25.4,41.5,41.1,70.8,41.1
		c45.1,0.1,81.7-36.5,81.8-81.6V0H850z"/>
	<path class="st0" d="M120,210c0-49.7,40.3-90,90-90h70V70l0,0h-70c-77.2,0-140,62.8-140,140c0,77.2,62.8,140,140,140h128.3
		c6.5,0,11.7-5.2,11.7-11.7V81.7c0-8.5,3.3-16.4,9.3-22.4c6-6,13.9-9.2,22.4-9.2c0,0,0,0,0.1,0c11.3,0,21.8,6.1,27.4,15.9l159,278.2
		c3.2,5.6,10.4,7.5,16,4.3c3.6-2.1,5.8-6,5.9-10.1V81.7c0-8.5,3.3-16.4,9.3-22.4c6-6,13.9-9.2,22.4-9.2c0,0,0,0,0.1,0
		c11.3,0,21.8,6.1,27.4,15.9l159,278.2c1.5,2.7,4.1,4.6,7.1,5.4c3,0.8,6.2,0.4,8.9-1.2c3.6-2.1,5.8-6,5.9-10.1V0h-50v194.1
		L692.6,41.2c-14.5-25.4-41.5-41.1-70.8-41.1C576.7,0,540.1,36.6,540,81.7v112.4L452.6,41.2c-14.5-25.4-41.5-41.1-70.8-41.1
		C336.7,0,300.1,36.6,300,81.7v206.6c0,6.5-5.2,11.7-11.7,11.7H210C160.3,300,120,259.7,120,210z"/>
</g>
</svg>
