<svg xmlns="http://www.w3.org/2000/svg" viewBox="0 0 2673.68 549.46"><g id="Layer_2" data-name="Layer 2"><g id="Layer_1-2" data-name="Layer 1"><path d="M2128.12,549.46c-142.77,0-220.06-89.84-220.06-283.53C1908.06,71.24,2001.61,0,2126.52,0,2274,0,2305.89,100.52,2311.65,169.78h-71.53c-5.76-48.67-30.33-107.11-112-107.11-86.69,0-146.85,53.3-146.85,202.16,0,155.86,58.55,222.5,147.44,222.5,82,0,105.65-52,112-114.26h70.94c-6.41,87.65-48,176.39-183.53,176.39" style="fill:#fff"/><polyline points="1822.32 536.77 1580.38 112.62 1580.38 536.77 1513.3 536.77 1513.3 10.46 1603.35 10.46 1821.3 392.25 1821.3 10.46 1887.36 10.46 1887.36 536.77" style="fill:#fff"/><polyline points="1148.46 536.77 1148.46 10.46 1488.65 10.46 1488.65 72.52 1218.35 72.52 1218.35 228.56 1477.71 228.56 1477.71 292.28 1218.35 292.28 1218.35 474.65 1488.65 474.65 1488.65 536.77" style="fill:#fff"/><path d="M551.57,549.46c-152.21,0-196.62-82-198.8-168.73h72.66c2.18,71.46,36.38,107.7,128.88,107.7,62.48,0,106.49-32.82,106.49-93.41,0-61.9-58.59-77.73-124-92.82-84.33-19.47-182.4-42.18-182.4-160.45C354.44,41.93,442.67,0,531.92,0,683.81,0,708.31,84.65,711.59,135.15H640.06C637.32,108.24,615.3,61,531.37,61c-52.68,0-103.21,25.63-103.21,75.84,0,71.38,68.25,81.77,140.36,99.45C648.88,256,733.46,280.76,733.46,392.84c0,106.45-83.2,156.62-181.85,156.62" style="fill:#fff"/><polyline points="0 536.77 0 10.46 340.23 10.46 340.23 72.52 69.89 72.52 69.89 228.56 329.29 228.56 329.29 292.28 69.93 292.28 69.93 474.65 340.23 474.65 340.23 536.77" style="fill:#fff"/><polyline points="2333.46 536.77 2333.46 10.46 2673.68 10.46 2673.68 72.52 2403.38 72.52 2403.38 228.56 2662.75 228.56 2662.75 292.28 2403.38 292.28 2403.38 474.65 2673.68 474.65 2673.68 536.77" style="fill:#fff"/><path d="M946.38,549.46c-152.22,0-196.58-82-198.77-168.73h72.62c2.19,71.46,36.39,107.7,128.88,107.7,62.53,0,106.49-32.82,106.49-93.41,0-61.9-58.58-77.73-123.95-92.82-84.29-19.47-182.4-42.18-182.4-160.45C749.25,41.93,837.44,0,926.73,0c151.92,0,176.38,84.61,179.66,135.11h-71.53C1032.13,108.24,1010.11,61,926.18,61,873.53,61,823,86.62,823,136.83c0,71.38,68.25,81.77,140.36,99.45,80.32,19.69,164.9,44.48,164.9,156.56,0,106.45-83.13,156.62-181.85,156.62" style="fill:#fff"/></g></g></svg>