<?xml version="1.0" encoding="utf-8"?>
<!-- Generator: Adobe Illustrator 25.2.1, SVG Export Plug-In . SVG Version: 6.00 Build 0)  -->
<svg version="1.1"
	 id="svg2" inkscape:version="0.91 r13725" sodipodi:docname="The Weather Channel.svg" xmlns:cc="http://creativecommons.org/ns#" xmlns:dc="http://purl.org/dc/elements/1.1/" xmlns:inkscape="http://www.inkscape.org/namespaces/inkscape" xmlns:rdf="http://www.w3.org/1999/02/22-rdf-syntax-ns#" xmlns:sodipodi="http://sodipodi.sourceforge.net/DTD/sodipodi-0.dtd" xmlns:svg="http://www.w3.org/2000/svg"
	 xmlns="http://www.w3.org/2000/svg" xmlns:xlink="http://www.w3.org/1999/xlink" x="0px" y="0px" viewBox="0 0 300 300"
	 style="enable-background:new 0 0 300 300;" xml:space="preserve">
<style type="text/css">
	.st0{fill:#FFFFFF;}
</style>
<g>
	<path class="st0" d="M236.8,239.9L236.8,239.9c-3.8,0-6,3-6,8.4v0.1h11.7V248c0-2.9-0.3-4.4-1.2-5.8
		C240.3,240.7,238.9,239.9,236.8,239.9z"/>
	<path class="st0" d="M138.8,184.6c-7,0-9.4,1.3-9.4,5.9c0,3,1.9,5,4.5,5c1.9,0,3.8-1,5.3-2.6l0.2-8.3L138.8,184.6L138.8,184.6z"/>
	<path class="st0" d="M103.6,177.5c0-2.9-0.3-4.4-1.2-5.8c-1-1.5-2.4-2.3-4.5-2.3l0,0c-3.8,0-6,3-6,8.4v0.1h11.7V177.5z"/>
	<path class="st0" d="M237.1,169.4L237.1,169.4c-3.8,0-6,3-6,8.4v0.1h11.7v-0.4c0-2.9-0.3-4.4-1.2-5.8
		C240.5,170.2,239.1,169.4,237.1,169.4z"/>
	<path class="st0" d="M114,260.9c0,3,1.9,5,4.4,5c1.9,0,3.8-1,5.3-2.6l0.2-8.3h-0.5C116.4,255,114,256.3,114,260.9z"/>
	<path class="st0" d="M123.5,108.2c0-2.9-0.3-4.4-1.2-5.8c-1-1.5-2.4-2.3-4.4-2.3h0c-3.8,0-6,3-6,8.4v0.1h11.7V108.2z"/>
	<path class="st0" d="M0,0v300h300V0H0z M105.6,97.9c3.2-3.6,7-5.2,12.1-5.2h0c4.4,0,8.7,1.5,11.2,4.1c3.5,3.6,5.1,8.8,5.1,16.9v2.3
		h-22.3v0.3c0,6,2.9,9.3,8.1,9.3c3.5,0,6.7-1.3,9.8-3.8l3.9,6c-4.5,3.6-9.1,5.3-14.5,5.3c-11.1,0-18.2-7.8-18.2-19.9
		C100.8,106.3,102.2,101.7,105.6,97.9z M71.6,76.3L71.6,76.3c0.4,2.1,0.7,5.7,0.7,9.4v7.7c0,1.2-0.2,2.8-0.2,3.2
		c2.6-2.5,7-4.2,10.9-4.2c4.9,0,8.8,2.1,10,5.5c0.8,2.2,1,3.5,1,7.2v27h-9.9v-25.9c0-3.8-1-5.3-3.9-5.3c-2.5,0-5.7,1.5-8,3.5v27.6
		H62.1V87.5c0-3.6-0.3-7.2-0.8-8.8L71.6,76.3z M19.1,79.8h37.7l-1.7,8.7H42.6v43.6H31.9V88.5H19.1V79.8z M18.7,149.1h11.2l4.5,20.6
		c2.1,9.8,2.8,17.2,2.8,17.2c0.2-2,1.1-9.5,2.7-16.7l4.7-21.2h11.5l4.8,23.4c1,4.9,2.3,13.9,2.3,13.9c0.1-1.7,1.8-12.3,2.8-17.4
		l4.3-19.9h11.1l-12.7,52.8H57.2l-4.7-21.3c-1.6-7-2.3-13.8-2.5-15.2c0,0-0.9,7.4-2.5,15.1l-4.4,21.5h-12L18.7,149.1L18.7,149.1z
		 M44.1,272.8c-7.2,0-12.8-2.3-17.1-7.2c-4.2-4.7-6.3-11.1-6.3-18.8c0-6.6,1.1-11.8,3.5-16.3c4.1-7.6,11.6-12.1,20.1-12.1l0,0
		c5.2,0,10.4,1.7,13.3,4.1l-4.7,7.1c-2.6-2-5.4-2.9-8.4-2.9c-3.6,0-7,1.7-8.9,4.5c-2,3-2.9,7.4-2.9,13.5c0,7.1,0.6,11.1,2.2,14
		c2.1,3.8,5.6,5.9,10.1,5.9c3.1,0,5.9-0.9,9-3.4l4.8,6.6C54.5,271.3,50.1,272.8,44.1,272.8z M96.4,271.9h-9.9V246
		c0-3.8-1-5.3-3.9-5.3c-2.5,0-5.7,1.5-8,3.5v27.6H64.3v-44.6c0-3.6-0.3-7.2-0.8-8.8l10.3-2.4c0,0,0,0,0,0h0l0,0
		c0.4,2.1,0.7,5.7,0.7,9.4v7.7c0,1.2-0.1,2.8-0.1,3.3c2.6-2.5,7-4.2,10.9-4.2c4.9,0,8.8,2.1,10,5.5c0.8,2.2,1,3.5,1,7.2V271.9z
		 M80.8,182.5c0-6.9,1.4-11.5,4.8-15.3c3.2-3.6,7-5.2,12.1-5.2l0,0c4.4,0,8.7,1.5,11.1,4.1c3.6,3.6,5.1,8.8,5.1,16.9v2.3H91.8v0.3
		c0,5.9,2.9,9.3,8.1,9.3c3.5,0,6.7-1.3,9.8-3.8l3.9,6c-4.4,3.6-9.1,5.3-14.5,5.3C88,202.5,80.8,194.7,80.8,182.5z M132,273.9
		c-2.3-1-4.4-2.7-5.4-4.7c-0.8,0.8-1.6,1.5-2.3,2c-1.9,1.4-4.6,2.1-7.8,2.1c-8.6,0-13.3-4.4-13.3-12c0-9,6.3-13.3,18.5-13.3
		c0.7,0,1.4,0,2.3,0.1v-1.6c0-4.3-0.8-5.7-4.5-5.7c-3.2,0-7,1.6-11.1,4.4l-4.3-7.2c2-1.3,3.6-2,6.3-3.2c3.8-1.6,7-2.3,10.5-2.3l0,0
		c6.5,0,10.9,2.4,12.4,6.7c0.5,1.6,0.8,2.8,0.7,6.9l-0.2,13v0.7c0,4.1,0.7,5.7,3.6,7.9L132,273.9z M131.9,202.9
		c-8.6,0-13.3-4.4-13.3-12.1c0-9,6.3-13.2,18.5-13.2c0.8,0,1.4,0,2.3,0.1V176c0-4.3-0.8-5.7-4.5-5.7c-3.2,0-7,1.6-11.1,4.4l-4.3-7.3
		c2-1.3,3.5-2,6.3-3.1c3.8-1.6,7-2.3,10.5-2.3c6.5,0,10.9,2.4,12.4,6.7c0.5,1.6,0.7,2.8,0.7,6.9l-0.2,13v0.7c0,4.1,0.7,5.7,3.6,7.9
		l-5.3,6.2c-2.3-1-4.4-2.7-5.4-4.7c-0.8,0.7-1.6,1.5-2.3,2C137.8,202.1,135.1,202.9,131.9,202.9z M173.4,271.9h-10v-25.1
		c0-4.4-0.8-5.6-3.4-5.6c-2,0-4.7,1.4-7,3.5v27.3H143V244c0-3.3-0.4-6.5-1.3-9l9-2.6l0,0c0.9,1.6,1.4,3.2,1.4,4.8
		c1.5-1,2.8-2,4.4-2.9c2-1,4.7-1.6,6.9-1.6c4.3,0,8.1,2.3,9.3,5.6c0.5,1.4,0.8,3.1,0.8,5.5V271.9z M169.7,202.3
		c-5.1,0-9.2-2.3-10.4-5.7c-0.6-1.7-0.7-2.4-0.7-6v-20.9h-3.8v-6.9h3.8c0-3.8,0-6.3,0.4-9.1l10.2-2.6c0,0,0,0,0,0l0,0l0,0
		c-0.4,3.5-0.6,7.7-0.6,11.7h9l-2.6,6.9h-6.5v19.4c0,4.9,0.9,6.2,4.4,6.2c0.9,0,1.8-0.2,3.6-0.7l1.3,6
		C175,201.8,172.3,202.3,169.7,202.3z M212.7,271.9h-9.9v-25.1c0-4.4-0.8-5.6-3.4-5.6c-2,0-4.7,1.4-7,3.5v27.3h-10.1V244
		c0-3.3-0.4-6.5-1.3-9l9-2.6l0,0c0.9,1.6,1.4,3.2,1.4,4.8c1.5-1,2.8-2,4.4-2.9c2-1,4.7-1.6,6.9-1.6c4.3,0,8.1,2.3,9.3,5.6
		c0.6,1.4,0.8,3.1,0.8,5.5V271.9z M214.8,201.4h-9.9v-25.9c0-3.8-1-5.3-3.9-5.3c-2.5,0-5.7,1.5-8,3.6v27.6h-10.2v-44.6
		c0-3.6-0.3-7.2-0.7-8.8l10.3-2.4c0.4,2.1,0.7,5.7,0.7,9.4v7.7c0,1.2-0.2,2.8-0.2,3.2c2.6-2.5,7-4.1,10.9-4.1c4.9,0,8.8,2.1,10,5.5
		c0.7,2.2,1,3.5,1,7.2V201.4z M253,255.8h-22.3v0.3c0,5.9,2.9,9.3,8.1,9.3c3.5,0,6.7-1.3,9.8-3.8l3.9,6c-4.4,3.6-9.1,5.3-14.5,5.3
		c-11.1,0-18.2-7.8-18.2-19.9c0-6.9,1.4-11.5,4.8-15.3c3.2-3.6,7-5.2,12.1-5.2l0,0c4.4,0,8.7,1.5,11.1,4.1c3.5,3.6,5.1,8.8,5.1,16.9
		V255.8z M253.2,185.3h-22.3v0.3c0,5.9,2.9,9.3,8.1,9.3c3.5,0,6.7-1.3,9.8-3.8l3.9,6c-4.4,3.6-9.1,5.3-14.5,5.3
		c-11.1,0-18.2-7.8-18.2-20c0-6.9,1.4-11.5,4.8-15.3c3.2-3.6,7-5.2,12.1-5.2l0,0c4.4,0,8.7,1.5,11.2,4.1c3.5,3.6,5.1,8.8,5.1,16.9
		V185.3z M270,272.8c-4.3,0-7.8-2-9-5.3c-0.8-1.9-0.9-3.1-0.9-8.6v-28.8c0-5-0.1-8.1-0.5-11.6l10.3-2.3l0,0c0.4,2.1,0.5,4.6,0.5,10
		v30.1c0,6.6,0.1,7.5,0.7,8.6c0.4,0.7,1.2,1,2,1c0.4,0,0.6,0,1.1-0.1l1.7,6C274.3,272.4,272.2,272.8,270,272.8z M279.4,171.7
		c-1-0.5-1.8-0.7-2.9-0.7c-2.3,0-4.3,1-6.2,3.2v27.3h-10.1v-25.8c0-5.2-0.6-9.1-1.4-11.3l9-2.4l0,0c0.9,1.6,1.4,3.3,1.6,5.5
		c1.4-2,3.8-4.1,5.7-4.9c0.8-0.4,2.2-0.6,3.3-0.6c1.5,0,2.2,0.1,3.8,0.8L279.4,171.7z"/>
</g>
</svg>
