<?xml version="1.0" encoding="utf-8"?>
<!-- Generator: Adobe Illustrator 25.2.1, SVG Export Plug-In . SVG Version: 6.00 Build 0)  -->
<svg version="1.1"
	 id="svg3058" inkscape:version="0.48.5 r10040" sodipodi:docname="GrandNationalSweepstake2014.pdf" xmlns:cc="http://creativecommons.org/ns#" xmlns:dc="http://purl.org/dc/elements/1.1/" xmlns:inkscape="http://www.inkscape.org/namespaces/inkscape" xmlns:rdf="http://www.w3.org/1999/02/22-rdf-syntax-ns#" xmlns:sodipodi="http://sodipodi.sourceforge.net/DTD/sodipodi-0.dtd" xmlns:svg="http://www.w3.org/2000/svg"
	 xmlns="http://www.w3.org/2000/svg" xmlns:xlink="http://www.w3.org/1999/xlink" x="0px" y="0px" viewBox="0 0 725.1 51.2"
	 style="enable-background:new 0 0 725.1 51.2;" xml:space="preserve">
<style type="text/css">
	.st0{clip-path:url(#SVGID_2_);}
	.st1{fill:#FFFFFF;}
</style>
<sodipodi:namedview  bordercolor="#666666" borderopacity="1" fit-margin-bottom="0" fit-margin-left="0" fit-margin-right="0" fit-margin-top="0" gridtolerance="10" guidetolerance="10" id="namedview3060" inkscape:current-layer="g3066" inkscape:cx="317.81561" inkscape:cy="157.23149" inkscape:guide-bbox="true" inkscape:pageopacity="0" inkscape:pageshadow="2" inkscape:window-height="1004" inkscape:window-maximized="1" inkscape:window-width="1680" inkscape:window-x="0" inkscape:window-y="22" inkscape:zoom="1" objecttolerance="10" pagecolor="#ffffff" showgrid="false" showguides="true">
	</sodipodi:namedview>
<g id="g16865" transform="translate(-528,-192)">
	<g>
		<defs>
			<path id="SVGID_1_" d="M679.8,242.4c14.2,0,25.8-11.5,25.8-25.8c0-14.2-11.5-25.8-25.8-25.8S654,202.5,654,216.7
				C654,230.9,665.6,242.4,679.8,242.4"/>
		</defs>
		<clipPath id="SVGID_2_">
			<use xlink:href="#SVGID_1_"  style="overflow:visible;"/>
		</clipPath>
		<g id="g16867" class="st0">
			<path id="path16869" inkscape:connector-curvature="0" class="st1" d="M680.5,219.1l0.4,0.1l-0.1,0.4l0,0l0.6-0.7l0,0
				L680.5,219.1L680.5,219.1z M680.6,218.1L680.6,218.1l0.5-0.5l0,0l-0.7,0.1l0,0.1l0.3,0.1L680.6,218.1L680.6,218.1z M679,222.2
				l-0.6,0l0,0.1l0.2,0.1l-0.1,0.2l0,0L679,222.2L679,222.2L679,222.2z M680.2,221.3l-0.7,0l0,0.1l0.3,0.1l-0.1,0.3l0,0L680.2,221.3
				L680.2,221.3L680.2,221.3z M680.8,220.6l0.4,0.1l-0.1,0.4l0.1,0l0.5-0.7l0,0L680.8,220.6L680.8,220.6L680.8,220.6z M678.9,223.5
				L678.9,223.5l0.2,0.2l-0.1,0.2l0,0l0.5-0.4l0-0.1L678.9,223.5L678.9,223.5z M682.5,223.6l0.4-0.4l0,0l-0.6,0.1l0,0.1l0.2,0.1
				L682.5,223.6L682.5,223.6L682.5,223.6z M682.8,219.9l0.7-0.9l0,0l-1.1,0.3l0,0.1l0.5,0.1L682.8,219.9L682.8,219.9L682.8,219.9z
				 M680.7,222.5l-0.7,0l0,0.1l0.3,0.1l-0.2,0.3l0,0L680.7,222.5L680.7,222.5L680.7,222.5z M682,217.5l0.5,0.1l-0.2,0.5l0,0l0.8-0.8
				l0,0L682,217.5L682,217.5z M681.7,222.5l0.6-0.7l0,0l-0.9,0.2v0.1l0.4,0.1L681.7,222.5L681.7,222.5L681.7,222.5z M683.5,215.6
				L683.5,215.6l0.5-0.3l0-0.1h-0.6l0,0.1l0.2,0.1L683.5,215.6L683.5,215.6z M681.9,216.5L681.9,216.5l0.8-0.5l0-0.1l-0.9,0l0,0.1
				l0.4,0.2L681.9,216.5L681.9,216.5z M684.9,221L684.9,221l0.3,0.1l-0.1,0.3l0,0l0.5-0.5l0,0L684.9,221L684.9,221z M687,215.9
				L687,215.9l0.5-0.3l0-0.1h-0.6l0,0.1l0.2,0.1L687,215.9z M681.3,223.6l-0.6,0l0,0.1l0.2,0.1l-0.1,0.2l0,0L681.3,223.6
				L681.3,223.6z M685.4,215.7L685.4,215.7l0.6-0.4l0-0.1h-0.7l0,0.1l0.3,0.1L685.4,215.7L685.4,215.7z M684.3,219.5l0.4,0.1
				l-0.1,0.4l0.1,0l0.6-0.7l0,0L684.3,219.5L684.3,219.5L684.3,219.5z M684.9,214.3l2.9,0c0,0,0.9,0.4,2.2,0.8
				c0.6,0.2,0.9,0.7,0.8,1.3c0,0,0.5,0.5,0.8,0.8c0.3,0.4,0.4,0.9,0.1,1.2c-0.2,0.3-0.6,0.4-0.8,0.4l0-0.1c0.2-0.2,0.1-0.5-0.1-0.8
				c-0.2-0.3-0.3-0.3-0.5-0.2c-0.1,0.1-0.2,0.1-0.2,0.1l0.5,0.7l0,0.1c-0.4,0.1-0.9,0-1.1-0.3c0,0,0,0-2.3,0l0,0.1l1.3,0.2l0,0.1
				l-4.3,5.1l0,0l1.5-1.3l0,1.2l-0.1,0.3l0.1,0.8l0,0.3c0,0,1.3,1.2,1.3,1.2h0c0,0,0,0,0,0c0,0,0,0,0.1,0c0,0,0,0,0.1,0
				c0,0,0,0,0.1,0c0,0,0,0,0.1,0.1c0,0,0,0,0.1,0.1c0,0,0,0,0.1,0.1c0,0,0,0.1,0.1,0.1c0,0,0,0.1,0.1,0.1c0,0,0,0.1,0,0.1
				c0,0,0,0.1,0,0.1c0,0,0,0,0,0.1c0,0,0,0,0,0.1c0,0,0,0.1,0,0.1l0.1,0c0,0,0,0,0-0.1c0,0,0,0,0-0.1c0,0,0-0.1,0-0.1v-0.1
				c0,0,0,0,0-0.1c0,0,0-0.1,0-0.1c0,0,0-0.1-0.1-0.1c0,0,0-0.1-0.1-0.1c0,0-0.1-0.1-0.1-0.1c0,0-0.1-0.1-0.1-0.1c0,0-0.1,0-0.1,0
				c0,0,0,0,0,0c0.2,0,0.3-0.1,0.5-0.1h0c0,0,0,0,0,0c0,0,0,0,0.1,0s0,0,0.1,0c0,0,0,0,0.1,0c0,0,0,0,0.1,0.1c0,0,0,0,0.1,0.1
				c0,0,0,0,0.1,0.1c0,0,0,0.1,0.1,0.1c0,0,0,0.1,0,0.1c0,0,0,0.1,0,0.1c0,0,0,0.1,0,0.1c0,0,0,0,0,0.1c0,0,0,0,0,0.1
				c0,0,0,0.1,0,0.1l0.1,0c0,0,0,0,0-0.1c0,0,0,0,0-0.1c0,0,0-0.1,0-0.1v-0.1c0,0,0,0,0-0.1c0,0,0-0.1,0-0.1c0,0,0-0.1-0.1-0.1
				c0,0,0-0.1-0.1-0.1c0,0-0.1-0.1-0.1-0.1c0,0-0.1-0.1-0.1-0.1c0,0-0.1,0-0.1,0c2.4-0.5,4.2-0.9,4.2-0.9c2.4,1.4,2.2,1.3,2.7,1.6
				c0.9,0.5,0.9,2-0.9,2c-1.3,0-3.7,0.2-5.2,0.5l1.3-1.2l0,0c0,0-1.3,0.9-2.8,1.7v0c-0.8,0.3-2.1,0.9-3.4,1.4l1.9-1.8l0,0
				c0,0-2.4,1.9-4.1,2.9c-1,0.5-1.9,0.9-2.4,1.1c-0.7,0.3-1.2,0.4-2,0.1c-1.2-0.4-1.7-0.6-2.8-1c-0.6-0.2-0.7-1.1,0-1.3
				c0.3-0.1,1-0.3,1.5-0.5c0.2,0.1,0.4,0.2,0.7,0.3c0.3,0.2,0.7,0.3,1,0.4c0.2,0.1,0.3,0.1,0.5,0.2c0,0,0.1,0,0.1,0c0,0,0,0,0.1,0
				l0,0v0l0,0l0,0l0,0c0.1,0,0.1,0.1,0.2,0.1c0.1,0.1,0.2,0.2,0.2,0.3c0,0.1,0,0.2,0,0.3c0,0.1,0,0.1,0,0.2c0,0,0,0.1,0,0.1l0.1,0
				c0,0,0,0,0-0.1c0,0,0-0.1,0-0.2c0-0.1,0-0.2,0-0.3c0-0.1-0.1-0.2-0.2-0.4c-0.1-0.1-0.1-0.1-0.2-0.1l0,0l0,0l0,0l0,0c0,0,0,0,0,0
				c0,0-0.1,0-0.1-0.1c-0.1-0.1-0.3-0.2-0.4-0.3c-0.3-0.2-0.6-0.4-1-0.6c-0.7-0.4-1.5-0.8-2-1.1c0,0,0,0,0,0c0,0,2.6-0.8,5.8-1.7
				l0.5,0.2l0,0l0,0l-0.3-0.2l-0.8-0.7l-0.4-0.1l-0.3-0.7l-0.4-0.2l-0.4-1.6l-0.1,0l0.1,1.8l-1,0.6v-2.4l-0.1,0l-0.3,2.5l-1.4,0.3
				l0.5-2.7l-0.1,0l-0.8,2.8l-1.3,0.1l1-2.9l-0.1,0l-1.4,2.9h0l-1.3,0.1l1.5-3l0,0l-2.1,3.1l-1.4,0.2l2.3-3.4l0,0l-3.8,4.5l-0.2-0.1
				l3.4-5.4l5.3-2c0,0,0.4-0.2,0.6-0.2c0.1,0,0.2-0.1,0.3-0.1c0.1,0,0.1-0.1,0.2-0.1c0.1,0,0.1-0.1,0.2-0.1c0.1-0.1,0.2-0.2,0.3-0.2
				l0.1-0.1c0,0,0,0,0.1-0.1c0,0,0.1-0.1,0.1-0.1c0,0,0.1-0.1,0.1-0.1c0,0,0.1-0.1,0.1-0.1c0,0,0-0.1,0.1-0.1c0,0,0-0.1,0.1-0.1
				c0-0.1,0.1-0.2,0.1-0.2c0-0.1,0-0.1,0-0.2c0-0.1,0-0.1,0-0.1c0,0,0,0,0,0l-0.1,0c0,0,0,0,0,0c0,0,0,0.1,0,0.1c0,0,0,0.1-0.1,0.2
				c0,0.1-0.1,0.1-0.1,0.2c0,0,0,0.1-0.1,0.1c0,0,0,0.1-0.1,0.1c0,0-0.1,0.1-0.1,0.1c0,0-0.1,0.1-0.1,0.1c0,0-0.1,0.1-0.1,0.1
				l-0.1,0.1l-0.1,0.1c-0.1,0.1-0.2,0.1-0.3,0.2c0,0-0.1,0.1-0.1,0.1c-0.1,0-0.1,0.1-0.2,0.1c-0.1,0-0.2,0.1-0.3,0.1
				c-0.2,0.1-0.4,0.1-0.6,0.2c-0.2,0.1-0.3,0.1-0.4,0.1l-0.3-0.7l0.7-0.6l0,0l-1.8,1.1l-0.4-0.9l2.5-1.8l0-0.1l-3.8,2.2l-0.3-0.9
				l3.5-2.4l0,0l-4.6,2.5L672,219l3.9-2.5l0-0.1l-4.7,2.4l-0.1-1v0l3.9-2.1l0-0.1l-4.8,2l0-1l3.9-1.5l0-0.1l-4.8,1.3l0.1-1.1
				l3.6-0.8l0-0.1l-4.7,0.6l0.1-0.9l3.4-0.4v-0.1l-4.8,0.1l0.1-0.8l3.8,0l0-0.1l-6.9-0.5l0-0.1l1.1-0.4l0-0.1l-2.8-1.1l0-0.1
				l1.1-0.1l0-0.1l-2.5-1.5l0-0.1l1.7,0.1l0-0.1l-2-1.9l0-0.1l0.9,0.2l0,0l-0.9-1.2l-0.6-1.7l0.1,0l0.9,1.1l2,1.2l0,0l-1.3-1.9
				l-0.5-2.1l0.1,0l1,1.6l2,1.7l0,0l-1.2-2.3l-0.4-2.8l0.1,0l1.2,2.3l2.5,2.1l0,0l-1.8-2.8l-0.4-3.4l0.1,0l1.1,3l3.6,3.2l4.6,2.3
				l5,6.9l1.9,1.6l0,0l-0.9-1.1h0l0,0l0,0l2-0.5l0-0.1l-1.7-0.1l0-0.1l2.6-0.5l0-0.1l-3.2-0.2l0-0.1l4.1-0.7l1.6,0.4l0-0.1l-1.5-0.7
				l-2.5,0.1l0-0.1l2.7-0.5l1.7,0.6l0-0.1l-1.5-1l-1.8-0.1v-0.1l2-0.3l1.8,0.8l0-0.1l-1.4-1.4l-1.6,0l0-0.1l1.9-0.4l1.7,1.4l0,0
				l-1.3-1.9l-1.4-0.3l0-0.1l1.8-0.1l1.6,2l0,0l-1.2-2.5l-1.6-0.5l0-0.1l2,0.2l1.5,2.6l0.1,0l-1-3l-2-0.7l0-0.1l2.4,0.4l1.3,3.1
				l0.1,0l-0.9-3.5l-2.1-1.2l0-0.1l2.5,0.9l1.2,3.5l0.1,0l-0.7-3.8l-2.3-1.7l0-0.1l2.6,1.5l1,3.7l0.1,0l-0.7-3.9l-2.4-2.1l0,0
				l2.8,1.9l0.8,3.7l0.1,0l-0.4-4l-2.4-2.6l0,0l2.8,2.4l0.6,3.6l0.1,0l-0.3-3.8l-2.2-2.9l0,0l2.6,2.8l0.4,3.1l0.1,0l-0.1-3.3
				l-2.1-3.2l0,0l2.4,3l0.3,2.3l0.1,0l-0.1-2.4l-1.5-3.3l0.1,0l1.8,3.1l0.2,1.3l0.1,0l0.1-1.4l-0.8-3.1l0.1,0l1,2.6h0.1l0.6-2.6
				l0.1,0l-0.2,2.5l0.1,0l1.8-2.5l0,0l-1.1,2.3l0,0l2.7-1.9l0,0l-4.1,5.5c0,0-1.3,3.6-1.8,4.7c-0.1,0.2-0.2,0.4-0.5,0.5
				c-0.1,0.1-3.3,1.3-3.3,1.3l-0.9,0.8L684.9,214.3L684.9,214.3L684.9,214.3z M680.4,192c-13.9,0-25.2,11.3-25.2,25.2
				c0,13.9,11.3,25.2,25.2,25.2c13.9,0,25.2-11.3,25.2-25.2C705.6,203.3,694.3,192,680.4,192 M684.1,217.8l0.5,0.1l-0.2,0.5l0.1,0
				l0.7-0.8l0,0L684.1,217.8L684.1,217.8L684.1,217.8z M686.1,219.9l0.2,0.1l-0.1,0.2l0,0l0.4-0.4l0,0L686.1,219.9L686.1,219.9
				L686.1,219.9z M682.2,227.8C682.2,227.9,682.3,227.9,682.2,227.8c0.1,0.1,0.1,0.1,0.1,0.1c0,0,0,0,0.1,0.1c0,0,0,0,0,0
				c0,0,0,0,0.1,0.1c0,0,0,0.1,0.1,0.1c0,0,0,0.1,0.1,0.1c0,0,0,0.1,0,0.1c0,0,0,0.1,0,0.1c0,0,0,0,0,0.1c0,0,0,0,0,0.1
				c0,0,0,0.1,0,0.1l0.1,0c0,0,0,0,0-0.1c0,0,0,0,0-0.1c0,0,0-0.1,0-0.1c0,0,0,0,0-0.1c0,0,0,0,0-0.1c0,0,0-0.1,0-0.1
				c0,0,0-0.1-0.1-0.1c0,0,0,0,0-0.1l0,0c0,0-0.1-0.1-0.1-0.1c0,0-0.1-0.1-0.1-0.1c0,0-0.1,0-0.1,0c0,0,0,0-0.1,0c0,0,0,0,0,0
				c0,0,0,0,0,0c0,0-0.1,0-0.1,0c0,0,0,0-0.1,0c0,0-0.1,0-0.1,0l0,0.1v0c0,0,0,0,0,0C682.1,227.8,682.1,227.8,682.2,227.8
				C682.2,227.8,682.2,227.8,682.2,227.8 M684.5,228.8c-0.1,0-0.1,0-0.2,0.1c-0.1,0-0.3,0.1-0.5,0.1c-0.1,0-0.3,0.1-0.5,0.1
				c-0.1,0-0.2,0-0.2,0.1l-0.3,0.1c-0.3,0.1-0.7,0.2-1.1,0.4c-0.2,0.1-0.5,0.2-0.7,0.3c-0.1,0-0.3,0.1-0.4,0.1
				c-0.1,0-0.2,0.1-0.3,0.1c-0.1,0-0.1,0-0.2,0.1c-0.1,0-0.2,0.1-0.3,0.1l-0.1,0c-0.2,0.1-0.3,0.1-0.5,0.2c-0.1,0-0.1,0.1-0.2,0.1
				c-0.2,0.1-0.3,0.1-0.3,0.1l0,0l0,0.1l0,0c0,0,0.1,0,0.3-0.1c0.1,0,0.1,0,0.2-0.1c0.1,0,0.3-0.1,0.5-0.2l0.1-0.1
				c0.1,0,0.2-0.1,0.3-0.1l0.2-0.1c0.1,0,0.2-0.1,0.3-0.1c0.1,0,0.2-0.1,0.4-0.1c0.2-0.1,0.5-0.2,0.7-0.3c0.4-0.1,0.7-0.3,1.1-0.4
				c0.2-0.1,0.3-0.1,0.5-0.2c0.1,0,0.2-0.1,0.3-0.1l0.1,0c0.2-0.1,0.3-0.1,0.5-0.2c0.1,0,0.1,0,0.2-0.1l0.3-0.1l0-0.1L684.5,228.8
				L684.5,228.8z M679.6,229.6l0.2-0.1c0.3-0.1,0.5-0.2,0.8-0.3c0.1,0,0.2-0.1,0.3-0.1l0.1,0l0.3-0.1c0.1,0,0.3-0.1,0.4-0.1
				c0,0,0.1,0,0.1,0c0.1,0,0.2-0.1,0.2-0.1l0,0l0-0.1l0,0c0,0-0.1,0-0.2,0l-0.1,0c-0.1,0-0.2,0.1-0.4,0.1l-0.3,0.1
				c-0.1,0-0.2,0-0.3,0.1l-0.1,0c-0.2,0.1-0.5,0.2-0.8,0.3c-0.2,0.1-0.4,0.1-0.6,0.2l-0.2,0.1l-0.1,0c-0.2,0.1-0.4,0.2-0.6,0.2
				c-0.1,0-0.2,0.1-0.2,0.1l-0.1,0l-0.2,0.1c-0.1,0-0.2,0.1-0.2,0.1l0,0l0,0.1c0,0,0.1,0,0.2-0.1c0,0,0.1,0,0.1,0l0.2,0
				c0.1,0,0.1,0,0.2-0.1c0.1,0,0.3-0.1,0.4-0.1c0.1,0,0.2-0.1,0.3-0.1C679.2,229.7,679.4,229.7,679.6,229.6 M683.7,222.4
				L683.7,222.4l0.3,0.1l-0.1,0.3l0,0l0.5-0.5l0,0L683.7,222.4L683.7,222.4z M683.2,221.6l0.6-0.9l0,0l-1.1,0.4l0,0.1l0.5,0
				L683.2,221.6L683.2,221.6L683.2,221.6z M686.6,218.2l-0.7,0.1l0,0.1l0.3,0.1l-0.1,0.3l0,0L686.6,218.2L686.6,218.2L686.6,218.2z
				 M683.2,226.3l-1.5-1.8l-0.1,0l0.4,2.2l0.8,0.9c0,0,0,0,0,0c0,0,0,0,0.1,0c0,0,0,0,0.1,0c0,0,0,0,0.1,0c0,0,0,0,0.1,0.1
				c0,0,0,0,0.1,0.1c0,0,0,0,0.1,0.1c0,0,0,0,0.1,0.1c0,0,0,0.1,0.1,0.1c0,0,0,0.1,0,0.1c0,0,0,0.1,0,0.1c0,0,0,0,0,0.1
				c0,0,0,0,0,0.1c0,0,0,0.1,0,0.1l0.1,0c0,0,0,0,0-0.1c0,0,0,0,0-0.1c0,0,0-0.1,0-0.1v-0.1c0,0,0,0,0-0.1c0,0,0-0.1,0-0.1
				c0,0,0-0.1-0.1-0.1c0,0,0-0.1-0.1-0.1c0,0-0.1-0.1-0.1-0.1c0,0-0.1,0-0.1-0.1c0,0-0.1,0-0.1,0c0,0,0,0-0.1,0c0,0,0,0,0,0
				c0,0,0,0,0.1,0c0.1,0,0.3-0.1,0.4-0.1c0,0,0,0,0,0c0,0,0,0,0.1,0c0,0,0,0,0.1,0c0,0,0,0,0.1,0c0,0,0,0,0.1,0.1c0,0,0.1,0,0.1,0.1
				c0,0,0,0,0.1,0.1c0,0,0,0.1,0.1,0.1c0,0,0,0.1,0.1,0.1c0,0,0,0.1,0,0.1c0,0,0,0,0,0.1c0,0,0,0,0,0.1c0,0,0,0,0,0.1
				c0,0,0,0.1,0,0.1h0.1c0,0,0,0,0-0.1c0,0,0,0,0-0.1c0,0,0-0.1,0-0.1v-0.1c0,0,0,0,0-0.1c0,0,0-0.1,0-0.1c0,0,0-0.1-0.1-0.1
				c0,0,0-0.1-0.1-0.1c0,0-0.1-0.1-0.1-0.1c0,0-0.1-0.1-0.1-0.1c0,0-0.1,0-0.1,0c0,0,0,0,0,0c0.4-0.1,0.8-0.2,1.2-0.3l-1.3-0.7
				L683.2,226.3L683.2,226.3z M685.7,216.6l0.4,0.2l-0.2,0.4l0,0l0.7-0.6l0-0.1L685.7,216.6L685.7,216.6L685.7,216.6z M672.6,208.4
				l-1.7,0.9l-0.1-0.5l-0.1,0l0,0.8l0.1,0L672.6,208.4L672.6,208.4L672.6,208.4z M674.2,210.4l-2.4,1.3l-0.1-0.5l-0.1,0l0,0.8l0.1,0
				L674.2,210.4L674.2,210.4L674.2,210.4z M673.4,209.4l-2.2,1.2l-0.1-0.5l-0.1,0l0,0.8l0.1,0L673.4,209.4L673.4,209.4z
				 M676.9,213.4l-1.7,0.9l-0.1-0.5l-0.1,0l0,0.8l0.1,0L676.9,213.4L676.9,213.4L676.9,213.4z M676,212.4l-2,1.1l-0.1-0.5l-0.1,0
				l0,0.8l0.1,0L676,212.4L676,212.4z M675.1,211.4l-2.3,1.2l-0.1-0.5l-0.1,0l0,0.8l0.1,0L675.1,211.4L675.1,211.4L675.1,211.4z
				 M669.6,210.2L669.6,210.2l-5.2-1.5l-2.3-1.9l-0.1,0.1l2.2,2.2L669.6,210.2z M669.7,209.1L669.7,209.1l-4.4-1.5l-2.2-2l-0.1,0.1
				l2,2.3L669.7,209.1L669.7,209.1z M683.8,216.2l0.4,0.2l-0.2,0.4l0,0l0.7-0.6l0-0.1L683.8,216.2L683.8,216.2L683.8,216.2z
				 M664.4,211.2l1.9,0.6l3.8,0.3l0-0.1L664.4,211.2L664.4,211.2L664.4,211.2z M664.9,204.7L664.9,204.7l1.5,2.2l3.9,1.3l0-0.1
				l-3.6-1.5L664.9,204.7L664.9,204.7z M677.7,214.5l-1.2,0.6l-0.1-0.5l-0.1,0l0,0.8l0.1,0L677.7,214.5L677.7,214.5L677.7,214.5z
				 M669.6,211l-7.2-1.5l0,0.1l1.9,0.7l5.3,0.8L669.6,211L669.6,211z M671.8,207.7L671.8,207.7l-3.3-1.7l-2-2.7l-0.1,0.1l1.8,3
				L671.8,207.7L671.8,207.7z M685.9,228.4C685.9,228.4,685.9,228.4,685.9,228.4c0.1,0,0.1,0,0.2,0c0.1,0,0.1,0,0.2,0
				c0.1,0,0.2,0,0.4-0.1c0.1,0,0.2,0,0.3-0.1l0.1,0c0.1,0,0.3-0.1,0.4-0.1c0.1,0,0.3-0.1,0.3-0.1c0.1,0,0.1,0,0.2,0c0,0,0,0,0.1,0
				c0.1,0,0.1,0,0.1,0l0,0l0-0.1l0,0c0,0,0,0-0.1,0c0,0,0,0-0.1,0c-0.1,0-0.1,0-0.2,0c-0.1,0-0.2,0-0.4,0.1c-0.1,0-0.3,0.1-0.4,0.1
				c-0.2,0.1-0.5,0.1-0.7,0.2c-0.1,0-0.1,0-0.2,0.1l-0.1,0C685.9,228.3,685.8,228.3,685.9,228.4L685.9,228.4L685.9,228.4
				L685.9,228.4L685.9,228.4z M688.9,227.1c0,0,0,0,0.1,0c0,0,0.1,0,0.1,0c0.1,0,0.1,0,0.2,0c0.3,0,0.6-0.1,1-0.2l0.1,0
				c0.1,0,0.3-0.1,0.4-0.1c0.1,0,0.1,0,0.2,0c0.1,0,0.2,0,0.2-0.1c0.1,0,0.2,0,0.2-0.1l0.1,0c0.1,0,0.1,0,0.1,0l0,0l0-0.1h0
				c0,0,0,0-0.1,0l-0.1,0c-0.1,0-0.2,0-0.2,0l0,0c-0.1,0-0.3,0-0.4,0.1c-0.2,0-0.3,0.1-0.5,0.1l0,0c-0.3,0.1-0.7,0.1-1,0.2
				c-0.1,0-0.2,0-0.2,0.1c0,0-0.1,0-0.1,0C688.9,227,688.9,227,688.9,227.1L688.9,227.1L688.9,227.1L688.9,227.1L688.9,227.1z
				 M686.3,226.8C686.3,226.8,686.3,226.8,686.3,226.8c0.1,0,0.1,0.1,0.1,0.1c0,0,0,0,0.1,0.1c0,0,0,0,0,0c0,0,0,0,0,0
				c0,0,0,0,0.1,0.1c0,0,0,0.1,0.1,0.1c0,0,0,0.1,0,0.1c0,0,0,0.1,0,0.1c0,0,0,0.1,0,0.1c0,0,0,0,0,0.1c0,0,0,0,0,0.1
				c0,0,0,0.1,0,0.1l0.1,0c0,0,0,0,0-0.1c0,0,0,0,0-0.1c0,0,0-0.1,0-0.1v-0.1c0,0,0,0,0-0.1c0,0,0-0.1,0-0.1c0,0,0-0.1-0.1-0.1
				c0,0,0-0.1-0.1-0.1c0,0,0,0,0,0c0,0,0-0.1-0.1-0.1c0,0-0.1-0.1-0.1-0.1c0,0-0.1,0-0.1,0c0,0,0,0,0,0c0,0,0,0,0,0c0,0,0,0,0,0
				c0,0-0.1,0-0.1,0c0,0,0,0-0.1,0c0,0-0.1,0-0.1,0l0,0v0C686.2,226.8,686.2,226.8,686.3,226.8C686.2,226.8,686.3,226.8,686.3,226.8
				 M689.1,218C689.1,218.1,689.1,218.1,689.1,218C689.1,218.1,689.1,218.1,689.1,218c0,0.1,0,0.1,0,0.1c0,0,0,0,0,0c0,0,0,0,0,0
				c0,0,0,0,0,0l0,0c0,0,0,0,0,0c0,0,0,0,0,0v0c0,0,0,0,0-0.1c0,0,0,0,0-0.1c0,0,0,0,0,0c0,0,0,0,0,0c0,0,0,0,0-0.1c0,0,0,0,0,0l0,0
				l0,0h0c0,0,0,0,0.1,0c0,0,0.1,0,0.1,0c0,0,0,0,0,0c0,0,0,0,0,0c0,0,0,0,0,0c0,0,0,0,0,0c0,0,0,0,0.1,0c0,0,0,0,0,0c0,0,0,0,0,0
				c0,0,0,0,0,0l0,0c0,0,0,0,0-0.1c0,0,0,0,0,0c0,0,0,0,0,0c0,0,0,0,0,0c0,0,0,0,0,0c0,0,0,0,0,0c0,0,0,0-0.1,0c0,0,0,0-0.1,0
				c0,0,0,0-0.1,0c0,0-0.1,0-0.1,0c0,0-0.1,0-0.1,0.1l0,0l0,0l0,0l0,0l0,0c0,0,0,0,0,0.1c0,0,0,0.1-0.1,0.1
				C689.1,217.9,689.1,217.9,689.1,218C689.1,218,689.1,218,689.1,218 M689.2,216.4L689.2,216.4L689.2,216.4L689.2,216.4
				c0,0.1,0.1,0.1,0.1,0.2c0,0,0,0,0,0c0,0,0,0,0,0c0,0,0,0,0.1,0l0,0c0.1,0,0.1,0,0.2,0c0,0,0,0,0,0c0,0,0.1,0,0.1,0l0,0l0,0l0,0
				l0,0c0,0,0.1-0.1,0.1-0.1c0,0,0-0.1,0.1-0.1l0,0c0,0,0,0,0,0c0,0,0,0,0-0.1c0,0,0,0,0-0.1l0,0c0,0,0-0.1,0-0.1l0,0l-0.1,0v0
				c0,0,0,0,0,0.1c0,0,0,0,0,0c0,0,0,0,0,0c0,0,0,0,0,0c0,0,0,0,0,0l0,0c0,0,0,0,0,0c0,0,0,0,0,0c0,0,0,0,0,0c0,0,0,0,0,0l0,0l0,0
				l0,0c0,0,0,0-0.1,0c0,0,0,0-0.1,0c0,0,0,0,0,0c0,0,0,0,0,0c0,0,0,0,0,0c0,0,0,0,0,0c0,0,0,0,0,0c0,0,0,0,0,0l0,0v0v0c0,0,0,0,0,0
				c0,0,0,0,0,0v0v0c0,0,0,0,0,0c0,0,0,0,0,0c0,0,0,0,0,0c0,0,0,0,0,0l0,0c0,0,0,0,0,0c0,0,0,0,0,0c0,0,0,0,0,0l0,0l0-0.1l0,0
				c0,0,0,0-0.1,0l0,0c0,0,0,0-0.1,0c0,0,0,0,0,0c0,0,0,0,0,0c0,0,0,0,0,0c0,0,0,0.1-0.1,0.1C689.2,216.2,689.2,216.2,689.2,216.4
				C689.2,216.3,689.2,216.3,689.2,216.4L689.2,216.4L689.2,216.4z M691.2,217.6C691.2,217.7,691.3,217.7,691.2,217.6
				C691.3,217.7,691.3,217.7,691.2,217.6c0.1,0.1,0.1,0.1,0.1,0.2c0,0,0,0.1,0,0.1c0,0,0,0.1,0,0.1c0,0,0,0,0,0c0,0,0,0,0,0
				c0,0,0,0.1,0,0.1c0,0,0,0,0,0l0,0l0,0l0,0c0,0,0,0,0-0.1c0,0,0-0.1,0-0.1c0,0,0,0,0-0.1c0,0,0,0,0-0.1c0,0,0-0.1,0-0.1
				c0,0,0-0.1,0-0.1c0,0,0-0.1,0-0.1c0,0,0,0,0-0.1c0,0,0,0,0,0c0,0,0-0.1-0.1-0.1l0,0c-0.2-0.2-0.5-0.4-0.7-0.7l-0.2,0.2
				C690.7,217.2,690.9,217.4,691.2,217.6C691.2,217.6,691.2,217.6,691.2,217.6 M678.7,217.6l0-0.2l-0.1,0l-0.1,0.5l0.1,0l0.9-0.6
				l0-0.1L678.7,217.6L678.7,217.6z M678.4,215.5l-0.9,0.4l-0.1-0.3h-0.1l0,0.7l0.1,0L678.4,215.5L678.4,215.5L678.4,215.5z
				 M678.9,218.6l0-0.2l-0.1,0l-0.1,0.5l0.1,0l0.7-0.5l0-0.1L678.9,218.6L678.9,218.6z M679.3,216.2l-1,0.5l0-0.3l-0.1,0l-0.1,0.6
				l0.1,0L679.3,216.2L679.3,216.2L679.3,216.2z M691.1,227.3c-0.1,0-0.2,0-0.4,0.1c-0.1,0-0.2,0-0.4,0.1c-0.1,0-0.1,0-0.2,0
				c0,0-0.1,0-0.1,0l-0.1,0c-0.1,0-0.1,0-0.2,0c-0.1,0-0.2,0-0.3,0.1c0,0-0.1,0-0.1,0l-0.2,0l0,0.1l0.2,0c0,0,0.1,0,0.1,0
				c0.1,0,0.2,0,0.3,0c0.1,0,0.2,0,0.3,0l0.1,0c0.1,0,0.2,0,0.3,0c0.1,0,0.3,0,0.4-0.1c0.1,0,0.2,0,0.3,0c0.1,0,0.2,0,0.3,0l0.1,0
				l0.3-0.1c0.2,0,0.3,0,0.4-0.1c0.1,0,0.1,0,0.2,0c0.1,0,0.2,0,0.3,0c0.1,0,0.1,0,0.2,0l0.2,0l0-0.1l0,0c0,0-0.1,0-0.2,0l-0.1,0
				c-0.1,0-0.2,0-0.4,0c-0.1,0-0.1,0-0.2,0c-0.1,0-0.3,0-0.4,0l-0.4,0C691.4,227.2,691.1,227.3,691.1,227.3 M675.6,223.2
				L675.6,223.2l0.2,0.2l-0.1,0.2l0,0l0.5-0.4l0-0.1H675.6L675.6,223.2z M676.7,232.5l-0.8-0.4l0.8-0.4l0-0.1l-1.2,0.3
				c0,0-0.1,0-0.1,0.1c0,0.1,0,0.2,0.1,0.2l0,0l1.2,0.4c0.2,0.1,0.4,0.1,0.6,0.2l0.6,0.2l0-0.1l-0.6-0.3
				C677.1,232.7,676.9,232.6,676.7,232.5 M677.2,223.2L677.2,223.2l0.2,0.2l-0.1,0.2l0,0l0.5-0.4l0-0.1H677.2L677.2,223.2z"/>
		</g>
	</g>
</g>
<path id="path16871" inkscape:connector-curvature="0" class="st1" d="M17.3,0.8h-3c-6.5,0-8.8,3-11.3,9.1l-2.3,5.8H0V0.1h42.7v15.7
	H42l-2.3-5.8c-2.5-6.2-4.8-9.1-11.3-9.1h-3v39.7c0,3.1,1,6.1,5.7,6.8l1.7,0.3v0.7H9.9v-0.7l1.7-0.3c4.7-0.8,5.7-3.7,5.7-6.8
	C17.3,40.5,17.3,0.8,17.3,0.8z M57.3,0.1v20.7c1.3-2.2,5.2-6.5,10.7-6.5c5.4,0,11,3,11,12.3v16.7c0,1.8,0.7,3.2,3,3.8l1.3,0.3v0.7
	H67.1v-0.7l1.3-0.3c2.3-0.6,3-2.1,3-3.8v-16c0-6.3-3.7-8.6-7.2-8.6c-2.5,0-5,1.3-6.9,2.8v21.8c0,1.8,0.7,3.2,3,3.8l1.3,0.3v0.7H45.5
	v-0.7l1.3-0.3c2.3-0.6,3-2.1,3-3.8V5c0-1.8-0.7-3.2-3-3.8l-1.3-0.3V0.1L57.3,0.1L57.3,0.1z M101.3,14.3c8.7,0,13.6,5.8,13.6,12.6
	v0.3H93.2c-0.1,0.8-0.1,1.6-0.1,1.9c0,8.9,4.7,15.3,12.2,15.3c4.8,0,8.2-3.2,9.4-5.9l0.6,0.3c-0.5,3-5,10.5-14.1,10.5
	c-9.8,0-15.7-7.4-15.7-17.6C85.6,22.6,91.5,14.3,101.3,14.3 M93.2,26.5h14v-2.2c0-4.6-1.3-9.2-5.9-9.2C96.2,15.1,94,19.6,93.2,26.5"
	/>
<path id="path16873" inkscape:connector-curvature="0" class="st1" d="M196.6,42.4c0,3.2,1,6,5.9,7l1.8,0.4v0.4h-23.7v-0.4l1.8-0.4
	c4.9-1,5.9-3.8,5.9-7V7.9c0-3.2-1-6.1-5.9-7.1l-1.8-0.4V0.1h23.7v0.4l-1.8,0.4c-4.9,1-5.9,3.9-5.9,7.1V42.4z M254.1,10.5v40.7h-0.5
	L217.2,8.3l0.2,26.4c0.1,12,3.9,13.6,8.2,14.7l1.1,0.3v0.4h-19.4v-0.4l1.1-0.3c4.3-1.1,8.2-2.8,8.2-14.7V7.9L215.9,7
	c-3.8-4.2-6.2-5.9-10.2-6.6V0.1h17.4c1.8,3.2,4.4,6.4,10.1,13.1l20.4,24.2l-0.2-25.7c-0.1-8.6-3.2-10.4-7.6-11l-1.6-0.2V0.1h45
	c18.6,0,28.1,11.7,28.1,24.8c0,13.1-9.5,25.2-28.1,25.2h-25v-0.4l1.7-0.3c5.1-0.9,6-3.8,6-7.1V10.5c0-7.6-3.9-10.1-8.9-10.1
	C258,0.4,254.1,2.9,254.1,10.5 M287.6,49.8c13.3,0,20.3-9.4,20.3-24.7c0-15.2-7.6-24.7-20.9-24.7h-6.9v41.9c0,4.1,0.9,7.4,5.9,7.4
	H287.6z M343.7,49.8c8,0,12.2-2.3,15.7-8.1l3.4-5.6h0.4v14.2h-44.2v-0.4l1.8-0.3c4.9-0.8,5.9-3.9,5.9-7.1V7.7c0-3.4-1-5.9-5.9-6.9
	l-1.8-0.4V0.1h42.2v14.2h-0.4l-3.4-6.1c-3.4-6.1-8-7.7-16.7-7.7h-5.9v23.7l3.6-0.1c7.7-0.1,10.2-0.5,12.7-8.2l0.8-2.5h0.4v21.9h-0.4
	l-0.8-2.4c-2.5-7.8-4.9-8.1-12.7-8.2l-3.6-0.1v18c0,4.3,1.6,7.2,6.6,7.2L343.7,49.8L343.7,49.8z M390.5,0.1
	c11.2,0,19.1,6.1,19.1,14.9c0,8.9-7.9,15-19.1,15h-3.1v-0.4h0.1c8.1,0,12.9-5.6,12.9-14.6c0-8.9-4.8-14.6-12.9-14.6H385v41.2
	c0,5.4,1.4,6.6,7.2,7.8l1.4,0.3v0.4h-24.7v-0.4l1.8-0.4c4.9-1,5.9-3.8,5.9-7V7.8c0-3.2-1-6-5.9-7l-1.8-0.4V0.1L390.5,0.1L390.5,0.1z
	 M436.4,49.8c8,0,12.2-2.3,15.7-8.1l3.4-5.6h0.4v14.2h-44.2v-0.4l1.8-0.3c4.9-0.8,5.9-3.9,5.9-7.1V7.7c0-3.4-1-5.9-5.9-6.9l-1.8-0.4
	V0.1h42.2v14.2h-0.4l-3.4-6.1c-3.4-6.1-8-7.7-16.7-7.7h-5.9v23.7l3.6-0.1c7.6-0.1,10.2-0.5,12.7-8.2l0.8-2.5h0.4v21.9h-0.4l-0.8-2.4
	c-2.5-7.8-4.9-8.1-12.7-8.2l-3.6-0.1v18c0,4.3,1.6,7.2,6.6,7.2L436.4,49.8L436.4,49.8z M507.7,10.5v40.7h-0.5L470.9,8.3l0.2,26.4
	c0.1,12,3.9,13.6,8.2,14.7l1.1,0.3v0.4h-19.4v-0.4l1.1-0.3c4.3-1.1,8.2-2.8,8.2-14.7V7.9L469.6,7c-3.8-4.2-6.2-5.9-10.2-6.6V0.1
	h17.4c1.8,3.2,4.4,6.4,10.1,13.1l20.4,24.2l-0.2-25.7c-0.1-8.6-3.2-10.4-7.6-11l-1.6-0.2V0.1h45c18.6,0,28.1,11.7,28.1,24.8
	c0,13.1-9.5,25.2-28.1,25.2h-25v-0.4l1.7-0.3c5.1-0.9,6-3.8,6-7.1V10.5c0-7.6-3.9-10.1-8.9-10.1C511.7,0.4,507.7,2.9,507.7,10.5
	 M541.3,49.8c13.3,0,20.3-9.4,20.3-24.7c0-15.2-7.6-24.7-20.9-24.7h-6.9v41.9c0,4.1,0.9,7.4,5.9,7.4H541.3L541.3,49.8z M597.4,49.8
	c8,0,12.2-2.3,15.6-8.1l3.4-5.6h0.4v14.2h-44.2v-0.4l1.8-0.3c4.9-0.8,5.9-3.9,5.9-7.1V7.7c0-3.4-1-5.9-5.9-6.9l-1.8-0.4V0.1h42.2
	v14.2h-0.4l-3.4-6.1c-3.4-6.1-8-7.7-16.6-7.7h-5.9v23.7l3.6-0.1c7.6-0.1,10.2-0.5,12.6-8.2l0.8-2.5h0.4v21.9h-0.4l-0.8-2.4
	c-2.5-7.8-4.9-8.1-12.6-8.2l-3.6-0.1v18c0,4.3,1.6,7.2,6.6,7.2L597.4,49.8L597.4,49.8z M668.1,13.1c-0.1-9.2-3.2-11.8-7.6-12.4
	l-1.6-0.2V0.1h19.2v0.4l-1.6,0.2c-4.4,0.6-7.6,3.2-7.6,12.4v38.1h-0.5L631.9,8.3l0.2,26.4c0.1,12,3.9,13.6,8.2,14.7l1.1,0.3v0.4
	h-19.4v-0.4l1.1-0.3c4.3-1.1,8.2-2.8,8.2-14.7V7.9L630.6,7c-3.8-4.2-6.2-5.9-10.1-6.6V0.1h17.4c1.8,3.2,4.4,6.4,10.1,13.1l20.4,24.2
	L668.1,13.1L668.1,13.1z M698.8,0.4h-3.1c-6.7,0-9.5,3.4-12.1,9.9l-2.4,6.1h-0.4V0.1h44.3v16.3h-0.4l-2.4-6.1
	c-2.6-6.4-5.3-9.9-12.1-9.9h-3.1v42c0,3.2,1,6.3,5.9,7.1l1.8,0.3v0.4h-23.7v-0.4l1.8-0.3c4.9-0.8,5.9-3.9,5.9-7.1V0.4z"/>
</svg>
