<?xml version="1.0" encoding="utf-8"?>
<!-- Generator: Adobe Illustrator 25.2.1, SVG Export Plug-In . SVG Version: 6.00 Build 0)  -->
<svg version="1.1" id="Layer_1" xmlns="http://www.w3.org/2000/svg" xmlns:xlink="http://www.w3.org/1999/xlink" x="0px" y="0px"
	 viewBox="0 0 370 86" enable-background="new 0 0 370 86" xml:space="preserve">
<g>
	<g>
		<g>
			<g>
				<g>
					<circle fill="#FFFFFF" cx="46.4" cy="42.2" r="28.7"/>
				</g>
			</g>
		</g>
	</g>
	<g>
		<path fill="#FFFFFF" d="M87.8,46.6V26.2h9.1v17.7c0,3.5,0.4,6.9,5,6.9s5-3.4,5-6.9V26.2h9.1v20.3c0,7.9-5,12.2-14.1,12.2
			C92.6,58.8,87.8,54.4,87.8,46.6z"/>
		<path fill="#FFFFFF" d="M118.4,54.1l4.4-6.1c1.6,2,4.4,3.7,7.5,3.7c2.4,0,3.8-1,3.8-2.9c0-2.2-2-2.9-5.5-3.9
			c-4.6-1.4-8.7-3.8-8.7-9.3c0-6,5-10.1,12-10.1c4.9,0,8.5,1.5,10.9,3.7l-4.1,6.1c-1.3-1.5-3.5-2.8-6.3-2.8c-2.4,0-3.4,1-3.4,2.2
			c0,2,2.4,2.5,5,3.4c5.2,1.6,9.2,4,9.2,9.9c0,6.1-4.4,10.7-12.4,10.7C124.9,58.8,120.4,56.3,118.4,54.1z"/>
		<path fill="#FFFFFF" d="M155.4,26.2h10l11.9,31.9h-9.5l-1.5-4.6h-12l-1.5,4.6h-9.3C143.6,58.1,155.4,26.2,155.4,26.2z M164,46.3
			l-2.5-7.7c-0.5-1.5-0.9-3.4-1.1-4.8h-0.3c-0.2,1.4-0.6,3.3-1.1,4.8l-2.5,7.7H164z"/>
		<path fill="#FFFFFF" d="M190.5,33.6h-7.9v-7.4h24.9v7.4h-7.9v24.5h-9.1V33.6z"/>
		<path fill="#FFFFFF" d="M208.1,42.2c0-7.9,5.6-16.6,17.5-16.6s17.5,8.8,17.5,16.6s-5.6,16.5-17.5,16.5
			C213.7,58.8,208.1,50.1,208.1,42.2z M233.8,42.2c0-5.7-3.7-8.7-8.2-8.7c-4.4,0-8.1,3-8.1,8.7s3.7,8.6,8.1,8.6
			C230,50.8,233.8,47.9,233.8,42.2z"/>
		<path fill="#FFFFFF" d="M246.4,26.2h11.8c11.3,0,17.7,6,17.7,16c0,9.8-6.6,16-17.7,16h-11.8L246.4,26.2L246.4,26.2z M255.6,50.8h2
			c5.9,0,9-2.8,9-8.6s-3.1-8.6-9-8.6h-2V50.8z"/>
		<path fill="#FFFFFF" d="M286.5,26.2h10l11.9,31.9h-9.5l-1.5-4.6h-12l-1.5,4.6h-9.3C274.7,58.1,286.5,26.2,286.5,26.2z M295.1,46.3
			l-2.5-7.7c-0.5-1.5-0.9-3.4-1.1-4.8h-0.3c-0.2,1.4-0.6,3.3-1.1,4.8l-2.5,7.7H295.1z"/>
		<path fill="#FFFFFF" d="M312.8,46.8l-11.9-20.5h10l4.3,7.9c0.9,1.7,2.2,4.2,2.5,5.9h0.2c0.3-1.7,1.5-4.2,2.5-5.9l4.3-7.9h9.7
			l-11.9,20.5v11.4h-9.6V46.8H312.8z"/>
	</g>
</g>
</svg>
