<?xml version="1.0" encoding="utf-8"?>
<!-- Generator: Adobe Illustrator 25.1.0, SVG Export Plug-In . SVG Version: 6.00 Build 0)  -->
<svg version="1.1" id="Layer_1" xmlns="http://www.w3.org/2000/svg" xmlns:xlink="http://www.w3.org/1999/xlink" x="0px" y="0px"
	 viewBox="0 0 512 209.7" style="enable-background:new 0 0 512 209.7;" xml:space="preserve">
<style type="text/css">
	.st0{fill:#FFFFFF;}
</style>
<g>
	<polygon class="st0" points="436.3,80.7 512,33.5 512,46.3 436.3,93.7 360.5,46.3 360.5,33.5 	"/>
	<path class="st0" d="M436.3,21.5c-17.1,0-32.1,8.6-40.7,21.9l0,0c0.7-0.7,1.1-1.1,1.8-1.6c21.3-17.7,52-13.7,68.7,8.6l11.1-7.1l0,0
		C468.4,30.4,453.3,21.5,436.3,21.5"/>
	<path class="st0" d="M436.3,43.4c-9.3,0-17.5,4.7-22.4,11.5c4-2.9,8.6-4.4,13.5-4.4c8.2,0,15.5,4.2,20.4,11.3l10.6-6.6l0,0
		C453.8,47.9,445.6,43.4,436.3,43.4"/>
	<path class="st0" d="M385.1,24.2C416.3-0.4,460.4,6.3,483.9,39l0.2,0.2l11.5-7.1l0,0C483,12.8,461.1,0,436.3,0
		c-24.6,0-46.5,12.6-59.3,32.1C379.3,29.5,382.2,26.4,385.1,24.2"/>
</g>
<path class="st0" d="M68.9,119.8V74.6h14.8v44.7c0,10.9,9.1,13.5,14.2,13.5c11.1,0,14.8-6.6,14.8-10.4V74.6h14.8v70.2h-8.6l-5.8-8
	c-4,4.9-10.6,9.3-20.4,9.3C78.6,146.2,68.9,136.9,68.9,119.8z"/>
<path class="st0" d="M237.2,49.9v95h8.4l5.5-8c4,4.9,10.6,9.5,20.4,9.5c13.1,0,24.1-8,24.1-25.7V99c0-17.7-11.1-25.7-24.8-25.7
	c-9.5,0-15.9,4.2-19.3,8.4V49.8L237.2,49.9L237.2,49.9z M267.3,132.9c-9.1,0-15.7-4.4-15.5-14l0,0V99.6c0-7.5,6-13.3,15.7-13.3
	c6.9,0,13.7,5.1,13.7,13.3v19.7C281.2,128,274.2,132.9,267.3,132.9z"/>
<path class="st0" d="M181.8,49.9v31.9c-3.3-4.2-9.7-8.4-19.3-8.4c-13.7,0-24.8,8-24.8,25.7v21.7c0,17.7,11.1,25.7,24.1,25.7
	c9.7,0,16.4-4.7,20.4-9.5l5.5,8h8.4V50h-14.3V49.9z M152.1,119.6V99.9c0-8.2,6.9-13.3,13.7-13.3c9.7,0,15.7,5.5,15.7,13.3v19.3l0,0
	c0.2,9.5-6.4,14-15.5,14C159.2,132.9,152.1,128,152.1,119.6z"/>
<path class="st0" d="M305.6,49.9h14.8v95h-14.8V49.9z"/>
<g>
	<rect x="209.5" y="74.7" class="st0" width="14.8" height="70.2"/>
	<circle class="st0" cx="217" cy="57.8" r="8.4"/>
</g>
<g>
	<path class="st0" d="M361.2,132.9c-10.2,0-15.1-5.3-15.1-12.6v-5.8h43.8V98.8c0-16.2-11.3-25.7-28.8-25.7
		c-18.2,0-29.9,10.2-29.9,26.1v21.7c0,16.2,11.7,25.7,29.9,25.7c13.5,0,23.5-5.5,27.5-14.8l-10.6-6.6
		C374.3,130.3,368.9,132.9,361.2,132.9z M346.1,99c0-7.3,5.1-12.4,14.6-12.4c9.5,0,14.6,5.1,14.6,12.4v4.4h-29L346.1,99L346.1,99z"
		/>
</g>
<path class="st0" d="M30.8,73.1c-14.4,0-23.7,5.8-27.2,14.4l11.5,7.1c4.9-7.8,9.5-8.2,15.7-8.2c9.1,0,13.1,4.2,13.1,11.1v5.5H31.4
	C22.3,103,0,106.1,0,125.4C0,139.1,10.4,146,23,146c10,0,17.3-4.7,21.5-9.5l5.8,8h8.6V96.4C58.7,83.1,49.4,73.1,30.8,73.1z
	 M43.8,122.5c-0.2,1.1-0.2,2.4-1.6,4.2c-2.2,3.1-8,6.2-14.6,6.2c-7.1,0-12.2-2.9-12.2-8.6c0-8.4,13.5-10.2,22.1-10.6h6.4L43.8,122.5
	L43.8,122.5z"/>
<path class="st0" d="M298.3,98.1"/>
</svg>
