<?xml version="1.0" encoding="utf-8"?>
<!-- Generator: Adobe Illustrator 25.1.0, SVG Export Plug-In . SVG Version: 6.00 Build 0)  -->
<svg version="1.1" id="Layer_1" xmlns="http://www.w3.org/2000/svg" xmlns:xlink="http://www.w3.org/1999/xlink" x="0px" y="0px"
	 viewBox="0 0 1000 584.5" style="enable-background:new 0 0 1000 584.5;" xml:space="preserve">
<style type="text/css">
	.st0{fill:#FFFFFF;}
</style>
<g transform="translate(-137.5,-22.390163)">
	<path id="path2998" class="st0" d="M137.5,29.6V282h132.1c52,0,100.1-18.3,100.1-71.9c0-36.2-26.1-52.8-54.8-61.4
		c17.5-7,37.3-21.8,37.3-52.7c0-39.6-39.2-66.4-92.1-66.4L137.5,29.6L137.5,29.6z M218.4,88.4h29.8c12.1,0,21.3,9.5,21.3,19.1
		c0,8.9-9.6,18.5-21.3,18.5h-29.8L218.4,88.4L218.4,88.4z M218.4,178.4h39.3c13.7,0,25.2,10.4,25.2,22.3c0,12.6-10.8,23.1-27.6,23.1
		h-36.9L218.4,178.4L218.4,178.4z"/>
	<path id="path3005" class="st0" d="M203,309.5v252.3h132.1c52,0,100.1-18.3,100.1-71.9c0-36.2-26.1-52.8-54.8-61.4
		c17.5-7,37.3-21.8,37.3-52.7c0-39.6-39.2-66.4-92.1-66.4H203L203,309.5z M283.9,368.2h29.8c12.1,0,21.3,9.5,21.3,19.1
		c0,8.9-9.6,18.5-21.3,18.5h-29.8V368.2L283.9,368.2z M283.9,458.2h39.3c13.7,0,25.2,10.4,25.2,22.3c0,12.6-10.8,23.1-27.6,23.1
		h-36.9L283.9,458.2L283.9,458.2z"/>
	<path id="path3007" class="st0" d="M376,281.9V29.6h203.5v60.9H456.7v33.1h99.7v57.1h-99.7v40.5h122.8v60.7H376z"/>
	<path id="path3009" class="st0" d="M689.8,289.1c57.3,0,103.1-32.7,103.1-85.6c0-85.5-111.2-72.3-111.2-98.9
		c0-10.3,10.8-15.7,21.9-15.7c19.1,0,32.9,12.6,32.9,12.6l47.8-45.5c-19.1-18.2-49.3-33.5-90-33.5c-61.1,0-101.1,36.3-101.1,80
		c0,86.5,109.6,74,109.6,101.1c0,9.5-9.2,19.1-25.8,19.1c-18.9,0-33.8-11.4-45.4-21l-48.1,45.9C602.8,266.4,633.9,289.1,689.8,289.1
		z"/>
	<path id="path3011" class="st0" d="M855.2,281.9V90.3h-66.7V29.6h214.2v60.7h-66.7v191.6H855.2z"/>
	<path id="path3013" class="st0" d="M437.9,309.3h80.7v151.2c0,15.3,15.3,29.5,31.2,29.5c15,0,30.2-12.8,30.2-30.3V309.3h80.5v149.3
		c0,59.3-49.2,106.5-112.8,106.5c-64,0-109.8-51.4-109.8-109.7L437.9,309.3z"/>
	<path id="path3015" class="st0" d="M760,561.6v-90.2l-94.8-162.2h81.6l53.7,86.9l53.9-86.9h81.8l-95.2,163.1v89.2H760z"/>
	<path class="st0" d="M936.1,447.4L888.5,495v64.3l47.6,47.6h201.4V447.4H936.1z M917.6,537.8c-5.9,0-10.7-4.8-10.7-10.7
		c0-5.9,4.8-10.7,10.7-10.7c5.9,0,10.7,4.8,10.7,10.7C928.3,533,923.5,537.8,917.6,537.8z"/>
</g>
</svg>
