<?xml version="1.0" encoding="utf-8"?>
<!-- Generator: Adobe Illustrator 25.1.0, SVG Export Plug-In . SVG Version: 6.00 Build 0)  -->
<svg version="1.1"
	 id="Layer_1" xmlns:cc="http://creativecommons.org/ns#" xmlns:dc="http://purl.org/dc/elements/1.1/" xmlns:rdf="http://www.w3.org/1999/02/22-rdf-syntax-ns#"
	 xmlns="http://www.w3.org/2000/svg" xmlns:xlink="http://www.w3.org/1999/xlink" x="0px" y="0px" viewBox="0 0 200 71.8"
	 style="enable-background:new 0 0 200 71.8;" xml:space="preserve">
<style type="text/css">
	.st0{fill:#FFFFFF;}
</style>
<g transform="scale(1.127)">
	<path class="st0" d="M120.4,46.1C120.4,46.1,120.4,46.1,120.4,46.1c-7.6,5.4-16.5,11-26.2,16.9l-0.4,0.2c-0.1,0.1-0.2,0.3-0.1,0.4
		s0.3,0.2,0.4,0.1l0.3-0.2c8.2-4.3,17.5-9.3,27-14.5c0.1,0,0.1-0.1,0.2-0.1C121.2,48,120.7,47.1,120.4,46.1z M170,5.9
		C158.1-7.2,81.5,4.6,48.9,11.7l-0.8,0.2c-0.2,0-0.3,0.2-0.2,0.3c0,0.2,0.2,0.3,0.3,0.2l0.8-0.1c27-4.8,83.2-11.5,95.2,0.5
		c3.7,3.7,2.8,8.4-1.5,13.9c2.3,1.5,3.9,3.8,4.7,6.7C164.1,22.4,175.3,11.8,170,5.9L170,5.9z"/>
	<g>
		<path class="st0" d="M125.3,42.6c0.2,4.6,3.1,8.4,6.9,8.4c7.4,0,10.5-9.1,10.3-15.1c-0.2-4.6-3.2-8.4-7-8.4
			C129.1,27.5,125,36.5,125.3,42.6z M121.4,42.4c-0.3-7.9,5.9-16,14.9-16c6,0,9.9,4,10.1,10.1c0.3,8.3-5.5,16-14.9,16
			C125.5,52.5,121.6,48.5,121.4,42.4L121.4,42.4z"/>
		<path class="st0" d="M36.3,40.3c-0.3,0.1-0.7,0.2-1.2,0.3c-0.5,0.1-1.5,0.3-2.8,0.5c-0.9,0.2-1.6,0.3-2,0.6
			c-0.4,0.3-0.6,0.6-0.6,1c-0.1,0.4,0.1,0.7,0.4,1c0.4,0.2,1,0.4,1.8,0.4c0.6,0,1.3-0.1,1.9-0.3c0.6-0.2,1.1-0.5,1.5-0.8
			c0.3-0.2,0.5-0.6,0.7-1C36,41.8,36.2,41.2,36.3,40.3z M44.1,35.4c0,0.7-0.2,1.4-0.3,2.5l-1.3,7.4c-0.1,0.7,0.1,1.2,0.7,1.5l0,0.3
			l-7.6,0l-0.1-1.9c-1.1,0.7-2.4,1.2-3.6,1.5c-1.2,0.3-2.2,0.4-3.6,0.4c-2.4,0-3.8-0.2-4.8-1.1c-1-0.9-1.5-1.5-1.4-2.7
			c0-0.7,0.4-1.6,0.9-2.2c0.5-0.6,1.2-1,2-1.4c0.8-0.4,1.7-0.6,3-0.8c1.3-0.2,3.2-0.4,5.7-0.6c1.3-0.1,2.1-0.4,2.5-0.6
			c0.5-0.2,0.7-0.4,0.8-0.8c0.1-0.8-0.1-1.2-1.1-1.4c-2.7-0.5-7.8,0.3-10.5,1l1.4-3.9c3.5-0.5,6.7-0.8,10.2-0.8
			C42.4,31.9,44.2,33.4,44.1,35.4z"/>
		<path class="st0" d="M66,47.1l2.6-14.8h7.2l-2.6,14.8H66z M69.1,28.9c0.2-1.2,2.1-2.2,4.3-2.2c2.2,0,3.7,1,3.5,2.2
			c-0.2,1.2-2.1,2.2-4.3,2.2C70.4,31.1,68.8,30.1,69.1,28.9z"/>
		<path class="st0" d="M101.6,40.3c-0.3,0.1-0.8,0.2-1.3,0.3s-1.4,0.3-2.8,0.5c-0.9,0.2-1.6,0.3-1.9,0.6c-0.3,0.2-0.6,0.6-0.6,1
			c-0.1,0.4,0.1,0.7,0.4,1c0.4,0.2,1,0.4,1.8,0.4c0.6,0,1.2-0.1,1.9-0.3c0.6-0.2,1.1-0.5,1.5-0.8c0.3-0.2,0.5-0.6,0.6-1
			C101.3,41.8,101.4,41.2,101.6,40.3z M109.4,35.5c0,0.7-0.2,1.4-0.4,2.5l-1.3,7.4c-0.1,0.7,0.1,1.2,0.7,1.5l0,0.3l-7.6,0l-0.1-1.9
			c-1.1,0.7-2.4,1.2-3.6,1.5c-1.2,0.3-2.2,0.5-3.6,0.5c-2.4,0-3.8-0.2-4.8-1.1c-1-0.9-1.5-1.5-1.4-2.7c0-0.7,0.4-1.6,0.9-2.2
			c0.5-0.6,1.2-1,2-1.4s1.7-0.6,3-0.9c1.3-0.2,3.2-0.4,5.7-0.6c1.3-0.1,2.1-0.4,2.5-0.5c0.5-0.2,0.7-0.4,0.8-0.9
			c0.1-0.8-0.1-1.2-1.1-1.4c-2.7-0.5-7.8,0.3-10.5,1l1.4-3.9c3.5-0.5,6.7-0.8,10.2-0.8C107.7,31.9,109.4,33.5,109.4,35.5z"/>
		<path class="st0" d="M21.1,41.8c-2.4,0.5-3.7,0.7-6,0.7c-3.5,0-6.2-1.7-6.1-4.9c0.1-2.1,2.6-6.5,8.9-6.5c2,0,3.5,0.4,5.6,1.5
			l0.9-5.1c-2.8-1.1-4.7-1.2-7.2-1.2C9,26.4,1.1,30.1,0.1,37.8c-1,7.8,8.5,9.7,12.7,9.7c2.4,0,5-0.1,7.3-0.3L21.1,41.8z"/>
		<path class="st0" d="M79.9,32.2l0.5-3l7.6-1.6l-0.8,4.7h3.7l-0.7,3l-3.6,0l-2.2,11.9c0,0-7.3,0-7.3,0l2.2-11.9h-2.7l0.6-3
			L79.9,32.2L79.9,32.2z"/>
		<polygon class="st0" points="120.3,26.7 116.8,47.1 109.4,47.1 113.1,26.5 		"/>
		<path class="st0" d="M56.5,35.8c-1,0-1.8,0.3-2.6,0.9c-0.8,0.6-1.2,1.4-1.4,2.5c-0.2,1.3-0.1,2.2,0.4,2.8c0.5,0.6,1.3,0.9,2.2,0.9
			c0.7,0,1.3-0.1,1.8-0.4c0.6-0.3,1-0.7,1.4-1.2c0.4-0.6,0.7-1.2,0.8-2c0.2-1.2,0-2-0.5-2.6C58.1,36.1,57.4,35.8,56.5,35.8z
			 M43.3,52.2l3.5-19.8h6.4l-0.5,2.5c0.5-0.8,1.4-1.4,2.7-1.9c1.2-0.5,2.6-0.9,4.1-0.9c1.7,0,2.7,0.1,3.9,0.7
			c1.2,0.7,2.1,1.6,2.6,2.8c0.5,1.2,0.6,2.6,0.3,4c-0.4,2.5-1.6,4.4-3.6,5.8c-1.9,1.4-3.7,1.8-6.2,1.8c-0.9,0-1.6-0.1-2.2-0.2
			c-0.6-0.2-1.1-0.3-1.4-0.6c-0.3-0.2-0.7-0.6-1.2-1.1l-1.2,6.8L43.3,52.2z"/>
		<path class="st0" d="M174.7,37.6c0-1.2-0.6-2-1.9-2c-3,0-6.1,5.8-6.7,8.2C171,43.8,174.8,40.9,174.7,37.6z M175.3,46.7l0.6,0.4
			c-1.4,3-4.4,5.3-7.9,5.3c-2.8,0-5.2-1.9-5.3-5.4c-0.2-6.3,5.7-12.2,10.6-12.2c2.1,0,4,0.9,4.1,3.2c0.2,5-6.9,6.6-11.6,6.7
			c-0.1,0.5-0.2,1.1-0.2,1.9c0.1,2.1,1.3,3.8,4,3.8C171.9,50.3,174.2,48.5,175.3,46.7L175.3,46.7z"/>
		<path class="st0" d="M146.3,37.5c0.5-0.1,1.3-0.2,1.7-0.2c0.5,0,1,0.1,1.1,0.6c0,0.3-0.6,2.6-0.7,3.1l-1.1,5
			c-0.5,2-0.9,4.2-1.4,5.9h2.9l1.6-7.9c5-5.2,6.9-6.9,8.1-6.9c0.5,0,0.9,0.3,0.9,0.9c0,0.9-0.5,3-0.7,3.6l-1.7,5.8
			c-0.4,1.3-0.7,2.5-0.6,3.3c0.1,1.3,0.8,1.8,1.9,1.8c2.1,0,3.7-2.2,5-4.4l-0.4-0.7c-0.5,0.9-1.8,2.8-2.8,2.8
			c-0.3,0-0.6-0.2-0.6-0.7c0-0.7,0.2-1.7,0.4-2.3l1.9-6.7c0.5-1.9,0.7-3,0.7-3.7c-0.1-1.3-0.8-1.8-1.9-1.8c-1.9,0-4.4,1.4-9.8,7.6
			h-0.1l0.7-3c0.4-1.7,0.7-3.4,1.1-4.6c-1.9,0.7-4.5,1.4-6.2,1.7L146.3,37.5z"/>
	</g>
</g>
</svg>
