<?xml version="1.0" encoding="utf-8"?>
<!-- Generator: Adobe Illustrator 25.1.0, SVG Export Plug-In . SVG Version: 6.00 Build 0)  -->
<svg version="1.1" id="Layer_1" xmlns="http://www.w3.org/2000/svg" xmlns:xlink="http://www.w3.org/1999/xlink" x="0px" y="0px"
	 viewBox="0 0 157 34" style="enable-background:new 0 0 157 34;" xml:space="preserve">
<style type="text/css">
	.st0{fill:#FFFFFF;}
</style>
<path class="st0" d="M48.6,21c0.1-0.2,0.3-0.5,0.3-0.7l4.1-9.9l4,10c0.1,0.2,0.2,0.4,0.3,0.7l-0.5,0.1c-1.1,0.3-2.4,0.5-3.7,0.5
	c-1.3,0-2.5-0.2-3.8-0.5C49.1,21.1,48.7,21,48.6,21 M7.1,6c4.5,0,7.7,0.9,9.7,2.7c2.4,2.1,3.6,4.9,3.6,8.3c0,3.3-1.2,6-3.5,8.2
	c-2,1.9-5.3,2.9-9.9,2.9H5.7V6H7.1z M147.3,8.8c2.3,2.2,3.4,5,3.4,8.2c0,3.2-1.1,5.9-3.4,8.2c-2.2,2.2-4.9,3.4-8.1,3.4
	c-6.4,0-11.5-5.2-11.5-11.6c0-3.2,1.1-6,3.4-8.2c2.2-2.2,4.9-3.3,8.1-3.3S145.1,6.6,147.3,8.8z M93.6,10.7l4-3.5
	C94.1,2.6,89.5,0.3,84,0.3c-9.3,0-16.8,7.4-16.8,16.8c0,9.1,7.5,16.6,16.6,16.6c2.3,0,4.5-0.5,6.6-1.5c2.1-0.9,3.9-2.2,5.3-3.9
	c1.4-1.6,2.3-3.4,2.8-5.3c0.4-1.6,0.7-3.6,0.6-6l-0.1-1H84.5V21h8.9c-0.2,2-1.3,3.7-3.1,5.2c-2,1.6-4.2,2.4-6.7,2.4
	c-2.9,0-5.5-1.2-7.9-3.6c-2.2-2.2-3.3-4.8-3.3-7.9c0-3.2,1.1-6,3.5-8.4c2.2-2.2,4.9-3.3,7.9-3.3C87.9,5.4,91,7.2,93.6,10.7z
	 M59.3,26.1l3,7.1h5.9L54.4,0.7h-2.7L37.6,33.2h5.8l3.1-7.2c0.1-0.2,0.1-0.3,0.1-0.5c0.1,0.1,0.3,0.1,0.6,0.2c1.7,0.7,3.8,1,5.8,1
	c2,0,4-0.4,5.1-0.8c0.6-0.2,0.8-0.3,1-0.4C59.2,25.7,59.3,26,59.3,26.1z M7,33.2c5.9,0,10.5-1.3,13.6-4.1c3.5-3.1,5.3-7.1,5.3-12.1
	c0-5.1-1.8-9.2-5.4-12.3c-3-2.6-7.5-3.9-13.4-3.9H0.1v32.4C0.1,33.2,7,33.2,7,33.2z M35.5,0.8h-5.3v32.4h5.3V0.8z M108,18.1h11.3V13
	H108V6h12.3V0.8h-17.6v32.4h17.7v-5.1H108L108,18.1L108,18.1z M127.4,5.2c-3.3,3.2-4.9,7.2-4.9,11.8c0,9.3,7.5,16.7,16.8,16.7
	c9.3,0,16.8-7.3,16.8-16.7c0-4.6-1.7-8.5-4.9-11.8c-3.3-3.3-7.2-4.9-11.9-4.9C134.6,0.3,130.7,1.9,127.4,5.2z"/>
</svg>
