<?xml version="1.0" encoding="utf-8"?>
<!-- Generator: Adobe Illustrator 25.1.0, SVG Export Plug-In . SVG Version: 6.00 Build 0)  -->
<svg version="1.1" id="Layer_1" xmlns="http://www.w3.org/2000/svg" xmlns:xlink="http://www.w3.org/1999/xlink" x="0px" y="0px"
	 viewBox="0 0 353.9 270" style="enable-background:new 0 0 353.9 270;" xml:space="preserve">
<style type="text/css">
	.st0{fill:#FFFFFF;}
</style>
<g>
	<path class="st0" d="M172.7,0C133.2,0,104,25.2,104,52.2c0,13.9,7.9,25.7,17.7,33.8l0.8-0.5c-7.8-6.5-14.9-16.6-14.9-30.5
		c2.1-29.5,38.5-46.1,70.6-46.1c22.9,0,64,5.3,64,43.5c0,20-21.3,45.9-66.1,45.9c-22.8,0-40.6-12.3-40.6-29.9
		c0-15.2,11.9-26.1,29.6-26.1c4.9,0,9.5,1.2,13,2.1c-7.4-1.4-18.8,0.6-24.8,5.3v25.8h21.8V46.1c4.1,0.7,7.4,2.3,9.6,3.7v25.7h5.7
		c-4.5,5.1-12.8,8.1-20.1,7v1.1c20.8,1.6,29.7-8.2,29.7-19.4c0-13.1-12.3-20.7-24.8-22.3V22.4h-21.8V42
		c-14.2,2.9-28.1,11.3-28.1,25.2c0,21.5,30,34.8,56,34.8c39.7,0,70.3-19.2,70.3-46.1C251.6,23.3,207.4,0,172.7,0 M203,64.9
		c0-9.5-6.5-17.1-18.3-20.8V22.4h21.9v53h-6.9C202.1,72,203,68.2,203,64.9"/>
	<polyline class="st0" points="77.4,133.8 77.4,209.9 83.3,210.7 83.3,215.2 54,215.2 54,210.7 60.3,209.9 60.3,175.3 22.9,175.3 
		22.9,209.9 28.7,210.7 28.7,215.2 0,215.2 0,210.7 5.7,209.9 5.7,133.8 0,133 0,128.6 28.7,128.6 28.7,133 22.9,133.8 22.9,166.3 
		60.3,166.3 60.3,133.8 54,133 54,128.6 83.3,128.6 83.3,133 	"/>
	<path class="st0" d="M118.2,134.2c0,5.8-3.9,10.1-9.3,10.1c-5.5,0-9.3-3.9-9.3-9.7c0-5.5,3.8-9.8,9.3-9.8
		C114.3,124.7,118.2,129,118.2,134.2 M116.2,210.4l5.5,0.8v3.9H94.8v-3.9l5.5-0.8v-52.1l-5.5-0.8v-3.9h21.4V210.4z"/>
	<polyline class="st0" points="133.4,211.2 138.8,210.4 138.8,130.8 133.4,130 133.4,126 154.8,126 154.8,210.4 160.3,211.2 
		160.3,215.2 133.4,215.2 	"/>
	<path class="st0" d="M192.8,153.6h14.5v5.8h-14.5V196c0,9.5,2,12.5,10.5,12.5c3.2,0,5.9,0,8.5-0.6v4.2c-7.8,2.8-14.3,3.9-19.8,3.9
		c-12.3,0-15.2-5.6-15.2-16.4v-40.2h-11.2v-5.8h11.7v-12.9l15.6-4.7"/>
	<path class="st0" d="M261.7,184.6c0-19.5-5.8-28-15.1-28c-9.1,0-14.8,8.1-14.8,28c0,19.5,5.8,27.6,14.8,27.6
		C256.3,212.3,261.7,204.5,261.7,184.6 M279.3,185c0,19.2-12.9,32-33.1,32c-19.6,0-32-8.4-32-32c0-19.8,12.9-33.1,33.1-33.1
		C267.2,151.9,279.3,163.8,279.3,185"/>
	<path class="st0" d="M353.9,211.2v3.9H327v-3.9l5.4-0.8v-35c0-9.7-3.5-14.1-10.9-14.1c-3.4,0-8.8,2.4-12.7,5.1v43.9l5.5,0.8v3.9
		h-27v-3.9l5.5-0.8v-51.7l-5.5-0.8v-4.2h21.5v8.5c6.7-5.4,13.1-9.7,22.2-9.7c12.1,0,17.5,7.1,17.5,21.1v37"/>
	<path class="st0" d="M246.7,93.5h-2v-0.7h4.8v0.7h-1.8v7.1h-1 M255.1,99.2L255.1,99.2l2.5-6.4h1.2v7.8h-0.9v-5.9l0,0l-2.3,5.9h-0.9
		l-2.4-5.9l0,0v5.9h-0.9v-7.8h1.3L255.1,99.2z"/>
</g>
</svg>
