<?xml version="1.0" encoding="utf-8"?>
<!-- Generator: Adobe Illustrator 25.1.0, SVG Export Plug-In . SVG Version: 6.00 Build 0)  -->
<svg version="1.1" id="Layer_1" xmlns:svg="http://www.w3.org/2000/svg"
	 xmlns="http://www.w3.org/2000/svg" xmlns:xlink="http://www.w3.org/1999/xlink" x="0px" y="0px" viewBox="0 0 800 144.7"
	 style="enable-background:new 0 0 800 144.7;" xml:space="preserve">
<style type="text/css">
	.st0{fill:#FFFFFF;}
</style>
<polyline id="polyline3" class="st0" points="435.2,135 538.5,135 538.5,122.4 452.9,122.4 452.9,82 517.2,82 517.2,69.3 
	452.9,69.3 452.9,32.1 538.5,32.1 538.5,19.6 435.2,19.6 435.2,135 "/>
<polyline id="polyline5" class="st0" points="488.9,0.9 474.9,16.6 518.8,0.9 488.9,0.9 "/>
<polyline id="polyline7" class="st0" points="711.8,122.4 711.8,19.6 695.6,19.6 695.6,135 800,135 800,122.4 711.8,122.4 "/>
<path id="path9" class="st0" d="M605.4,19.6L546.7,135h19.8l15-29.9h70.4l15.1,29.9h19.6L628,19.6H605.4 M588.9,90.7l27.7-55.1
	l28,55.1H588.9z"/>
<path id="path11" class="st0" d="M379.2,86.7c26.5-7.1,29-26.7,28.9-33.8c-1.6-20.6-15.5-33.4-40.4-33.4h-72.8V135h16.6V86.6h47.4
	l34.9,48.4h20.9C414.6,135,389.5,102.4,379.2,86.7 M365.4,72.9h-53.9V33.2h55.8c12.8,0,20.1,6,22.7,13.6c1.7,5.2,0.6,12.1-2.2,16.7
	C383,71.3,374.2,72.9,365.4,72.9z"/>
<path id="path13" class="st0" d="M195.2,0c-46.8,0-78.7,33-78.7,73c0,42.1,35.3,71.8,78.7,71.8c43.5,0,78.7-29.3,78.7-71.8
	C273.9,33,241.6,0,195.2,0 M194.6,130.4c-32.4,0-59.1-26-59.1-57.4c0-31.3,25.4-58.6,60.3-58.6c34,0,59.1,27.3,59.1,58.6
	C255,104.4,227,130.4,194.6,130.4z"/>
<polyline id="polyline15" class="st0" points="74.7,60.4 86.6,60.4 108.4,19.6 90.9,19.6 74.7,60.4 "/>
<polyline id="polyline17" class="st0" points="16.1,122.4 16.1,19.6 0,19.6 0,135 104.4,135 104.4,122.4 16.1,122.4 "/>
</svg>
