<svg xmlns="http://www.w3.org/2000/svg" viewBox="0 0 365.1 102.8"><g id="Layer_2" data-name="Layer 2"><g id="Layer_1-2" data-name="Layer 1"><path d="M194.6,27a3.56,3.56,0,0,0-.8,2.5v33h-.2s-18.1-32.2-19-33.7a5.45,5.45,0,0,0-2.2-2.3,7,7,0,0,0-3.7-.8h-6a3.74,3.74,0,0,0-2.9,1.2,3.56,3.56,0,0,0-.8,2.5V76.2a3.43,3.43,0,0,0,3.7,3.7h3.4a3.74,3.74,0,0,0,2.9-1.2,3.56,3.56,0,0,0,.8-2.5V42.4h.2s18.7,33.2,19.5,34.5a5.94,5.94,0,0,0,5.4,3h5.8a3.74,3.74,0,0,0,2.9-1.2,3.56,3.56,0,0,0,.8-2.5V34h75.9a2.61,2.61,0,0,0,1.8-.6,2.23,2.23,0,0,0,.7-1.9V28.3a2.23,2.23,0,0,0-.7-1.9,2.44,2.44,0,0,0-1.8-.6H197.5a3.45,3.45,0,0,0-2.9,1.2m33.1,12.5c-12.6,0-19.7,9.8-19.7,20.2,0,11.1,7.6,20.8,19.8,20.8,6.1,0,12.1-2.3,15.4-6.3,1.5-1.8,2.7-4.2,2.7-5.7a2,2,0,0,0-.4-1.3,1.64,1.64,0,0,0-1.5-.6h-5.9a2.56,2.56,0,0,0-2.5,1.3c-1.7,2.5-4.2,3.8-7.8,3.8a9.08,9.08,0,0,1-9.2-8.7h25.3a3.29,3.29,0,0,0,2.5-.8,3.83,3.83,0,0,0,.9-3,21.63,21.63,0,0,0-4.6-13.5c-3.3-3.6-8.2-6.2-15-6.2m39,0c-9.9,0-16.5,4.7-16.5,12.3a9.38,9.38,0,0,0,2.6,6.6c1.9,2,4.5,3.4,8.4,4.4l8.3,2.1c2.3.6,4.3,1.3,4.3,3.3,0,3.1-3.3,4.2-6.8,4.2a11.36,11.36,0,0,1-4.9-1.1,5.9,5.9,0,0,1-2.5-2.2c-.5-.8-.7-1.5-1.6-1.9a3.74,3.74,0,0,0-2-.4h-4.4a2,2,0,0,0-1.8.7,2.15,2.15,0,0,0-.4,1.6,8.31,8.31,0,0,0,1.7,4.9c2.8,3.7,8.5,6.7,15.9,6.7s17.3-3,17.3-12.8a10.6,10.6,0,0,0-2-6.4c-1.7-2.2-4.2-3.7-8.3-4.8l-8.3-2.1c-3.4-.9-5-1.5-5-3.6s1.8-3.7,6-3.7c2.5,0,4.7.5,6.2,2,1.2,1.3,1,1.9,1.9,2.5a4.68,4.68,0,0,0,2.2.3h4.1a2,2,0,0,0,1.5-.5,2.46,2.46,0,0,0,.5-1.7,8.9,8.9,0,0,0-3.4-6.2c-2.9-2.5-7.5-4.2-13-4.2m22.6,1.4h-2a2.61,2.61,0,0,0-1.8.6,2.23,2.23,0,0,0-.7,1.9v2.5a2.23,2.23,0,0,0,.7,1.9,2.44,2.44,0,0,0,1.8.6h2V66.5c0,4.6,1.3,7.5,3.6,9.9,2.2,2.2,5,3.5,9.9,3.5h3.1a2.61,2.61,0,0,0,1.8-.6,2.27,2.27,0,0,0,.8-1.9V74.2a2.27,2.27,0,0,0-.8-1.9,2.44,2.44,0,0,0-1.8-.6h-.3a5.58,5.58,0,0,1-4.2-1.4,6,6,0,0,1-1.6-4.6V48.3h6.6a2.61,2.61,0,0,0,1.8-.6,2.23,2.23,0,0,0,.7-1.9V43.3a2.23,2.23,0,0,0-.7-1.9,2.44,2.44,0,0,0-1.8-.6h-6.6V29a3.84,3.84,0,0,0-.7-2.2,3.12,3.12,0,0,0-2.5-1.1h-4.1a3.1,3.1,0,0,0-2.5,1.1,3.39,3.39,0,0,0-.7,2.2V40.9Zm22.3,35.7a3.84,3.84,0,0,0,.7,2.2,3.12,3.12,0,0,0,2.5,1.1h4.3a3.1,3.1,0,0,0,2.5-1.1,3.39,3.39,0,0,0,.7-2.2V29a3.84,3.84,0,0,0-.7-2.2,3.12,3.12,0,0,0-2.5-1.1h-4.3a3.1,3.1,0,0,0-2.5,1.1,3.39,3.39,0,0,0-.7,2.2Zm-93-21.2c.5-4.4,3.9-7.8,9.1-7.8s8.6,3.3,9.1,7.8ZM361.5,33.9a2.61,2.61,0,0,0,1.8-.6,2.23,2.23,0,0,0,.7-1.9V28a3.25,3.25,0,0,0-.7-2.5,2.67,2.67,0,0,0-1.8-.7c-.6,0-1.2.1-2.2.2l-29,2.9a3.06,3.06,0,0,0-1.5.6,1.84,1.84,0,0,0-.5,1.5v1.9c0,.7.1,1.1.4,1.3a1.84,1.84,0,0,0,1.5.5h31.3v.2Zm-16,5.6c-12.6,0-19.7,9.8-19.7,20.2,0,11.1,7.6,20.8,19.8,20.8,6.1,0,12.1-2.3,15.4-6.3,1.5-1.8,2.7-4.2,2.7-5.7a2,2,0,0,0-.4-1.3,1.64,1.64,0,0,0-1.5-.6h-5.9a2.56,2.56,0,0,0-2.5,1.3c-1.7,2.5-4.2,3.8-7.8,3.8a9.08,9.08,0,0,1-9.2-8.7h25.3a3.29,3.29,0,0,0,2.5-.8,3.83,3.83,0,0,0,.9-3,21.63,21.63,0,0,0-4.6-13.5c-3.2-3.6-8.1-6.2-15-6.2m-9,15.9c.5-4.4,3.9-7.8,9.1-7.8s8.6,3.3,9.1,7.8Z" style="fill:#fff"/><path d="M118.1,34.4c-9.4-14-17.7-18.8-20-21a72.82,72.82,0,0,1-5.7-6.6C89.6,3.8,86.1.1,80.2.1A11.3,11.3,0,0,0,69.6,6.9c-.4.9-.6,2-.9,2.4-.6.9-3,5.2-4.1,6.9h4.7L67,20.5a29.63,29.63,0,0,1,7.1-1c2.2,0,3.9.5,4.6,1.9C80,24,80,32,82.3,38c2,5.6,7.1,11.1,12.8,15.4a.31.31,0,0,0,.2.1.46.46,0,0,0,.5-.4c0-.2-.1-.2-.2-.4C90.9,48,87,42.7,84.9,36.9c-2-5.6-1.7-13.5-3.5-17-1.2-2.3-3.7-2.9-6-2.9a18.41,18.41,0,0,0-4.4.6l2-3.5H69.5c.8-1.3,1.5-2.5,1.9-3.2a12.27,12.27,0,0,0,.9-2.4,8.29,8.29,0,0,1,8-5.4c4.7,0,7.5,3,10.3,6.1,1.3,1.4,3.3,4.4,5.7,6.6,1.6,1.5,4.8,3.2,9.6,8.2a86.09,86.09,0,0,1,9.4,11.6c12.2,17.8,20.2,33.6,24.7,45.9l-.1.1c-12.8-8.7-23.9-16.9-32.9-27A104.38,104.38,0,0,1,90.3,28.4a17.6,17.6,0,0,1-.9-2c-.1-.3-.2-.4-.5-.4a.37.37,0,0,0-.4.4,10.78,10.78,0,0,0,.4,2.1c2.6,11,9.7,20.9,17.2,29.1a152.58,152.58,0,0,0,23.1,20.3l5.4,15.6a5.27,5.27,0,0,1,.3,1.2.85.85,0,0,1-.2.6c-.2.2-.4.2-.8.2h-1.6c-.7,0-1-.1-1.2-.3a3.49,3.49,0,0,1-.6-.9c-.5-1.5-3.3-9.7-3.9-11.4a.51.51,0,0,0-.5-.4.43.43,0,0,0-.4.4c0,.2.1.4.2,1.1.8,3.7,1.6,8,1.9,9.5a8.09,8.09,0,0,1,.4,1.9,1.27,1.27,0,0,1-.5,1.1L126,98.2c-.4.4-.6.5-.9.5s-.8-.3-.9-1c-1.9-9-4.9-20.1-5.6-23.2-.2-.7-.3-1.1-.7-1.1s-.5.2-.5.5.1.5.1.7c.5,3.2,2.3,14.8,4.3,25.4.4,1.8,1.1,2.8,2.6,2.8a2.83,2.83,0,0,0,2-.9c1.1-1.1,1.3-1.3,2.6-2.5a3.48,3.48,0,0,1,3-1.2h3.7a2.44,2.44,0,0,0,1.8-.6,2.2,2.2,0,0,0,.6-1.7,5.85,5.85,0,0,0-.5-2.2c-.9-2.6-4-11.3-5-13.8l.1-.1c3.2,2.4,7.8,5.4,9.8,5.4.6,0,1-.3,1-1.3,0-4-7.7-23.2-25.4-49.5" style="fill:#fff"/><path d="M31.4,5a3.31,3.31,0,0,1,3.1-2,3.37,3.37,0,0,1,3.4,3.4,3.72,3.72,0,0,1-1.3,2.8,5.66,5.66,0,0,1,.3,1.8c0,2.1-1.3,3.6-3.6,4.4a6.29,6.29,0,0,1-1.8,3.3c-1.5,1.5-3,1.5-3,2s.2.5.9.5c2.8,0,5.6-1.6,5.9-4.2a6.44,6.44,0,0,0,4.3-5.8,3.34,3.34,0,0,0-.3-1.5A4.78,4.78,0,0,0,40.9,6,5.91,5.91,0,0,0,39,1.7a6.22,6.22,0,0,0-9.4,1c-2.8,0-6.3,3-6.3,7.4h-.5a3.42,3.42,0,0,0-3.2-2.6c-1.1-3.2-3.5-5.9-7.4-5.9a7.57,7.57,0,0,0-1.5.1A6,6,0,0,0,6.4,0,6.27,6.27,0,0,0,.1,6.3a5.71,5.71,0,0,0,2.9,5v.4a7.85,7.85,0,0,0,7.5,7.1,2.45,2.45,0,0,0,1.9,1.9v.4H12c-6.2,0-8.8,3-8.8,5a5.14,5.14,0,0,0-3,4.7,6.26,6.26,0,0,0,6.4,6.4,5.92,5.92,0,0,0,3.3-1.1,7.88,7.88,0,0,0,2.3.4,5.64,5.64,0,0,0,5-2.6h.6a5.87,5.87,0,0,0,5.1-3.4,5.09,5.09,0,0,0,.4-1.1c0-.3-.1-.5-.4-.5s-.4.4-1.1.9A8.57,8.57,0,0,1,16,31.6,4.74,4.74,0,0,1,12,34a5,5,0,0,1-2.9-.9,3.35,3.35,0,0,1-2.5,1.1,3.26,3.26,0,0,1-3.4-3.4,3.48,3.48,0,0,1,2.2-3.2c.2-2.5,2.9-4.2,6.3-4.2a5.7,5.7,0,0,1,1.3.1,4.71,4.71,0,0,1,3.5-1.9,4.54,4.54,0,0,0,.8-.2.57.57,0,0,0,0-1,1.88,1.88,0,0,0-.8-.2,5.69,5.69,0,0,1-4.4-3.7A6.51,6.51,0,0,1,5.5,10V9.8A3.29,3.29,0,0,1,3.4,6.6,3.37,3.37,0,0,1,6.8,3.2,3.82,3.82,0,0,1,9.6,4.6a4.68,4.68,0,0,1,1.7-.2,6.3,6.3,0,0,1,6.4,5.3,5.26,5.26,0,0,1,4.7,4.7c.1.6.2,1.2.6,1.2s.5-.5.7-1.2a6.23,6.23,0,0,1,1.7-3.2,5.94,5.94,0,0,1,6-6.2" style="fill:#fff"/><path d="M38.7,24.9c-1.2,1.7-2,2.5-4.7,5.7-3.6,4.2-5.4,7.6-8.5,15.2a11.52,11.52,0,0,1,2-.1h1.3l.4-.8c1.8-3.7,4.1-8.8,7.4-12.7l1.1-1.3c3.4-4,5.5-6.3,6.8-11.7.5-1.9.8-3.6,2.1-4.9a5.91,5.91,0,0,1,4.1-1.6,8.31,8.31,0,0,1,3.6.9,6.21,6.21,0,0,0,3,.6,3.42,3.42,0,0,0,1.1-.1l-1.8,2.4L59,18.2c-3,.9-4.6,3.8-5.1,5.1a3.93,3.93,0,0,0-.2.6.37.37,0,0,0,.4.4c.4,0,.6-.2,1-.8,1.5-1.8,2.6-3,8-4.7l-3.8-2.9,2.9-4.2H59.5a8.69,8.69,0,0,1-4.3-.7,10.28,10.28,0,0,0-4.9-1.3A8.76,8.76,0,0,0,44.4,12c-1.9,1.8-2.5,4.1-3.2,6.6a16.62,16.62,0,0,1-2.5,6.3" style="fill:#fff"/><path d="M44.5,42.1a56.08,56.08,0,0,0-4.9,7.2c.5.2,2,1.1,2.6,1.4,1.8-2.6,4.2-5.9,5.7-8.3A9.23,9.23,0,0,0,50,36.3a7.57,7.57,0,0,1,.1-1.5,6.73,6.73,0,0,1,2-4.6,5.81,5.81,0,0,1,4.2-1.6c1.5,0,2.4.4,3.7.4a4.77,4.77,0,0,0,2.2-.5l.5-.2-1.2,2.8,2.8,1.1c-1.8,1.1-5.6,5.7-5.6,11.3a18.71,18.71,0,0,0,.8,5.5c.1.2.2.4.4.4a.66.66,0,0,0,.5-.4v-.6a31.05,31.05,0,0,1,.9-6.8,17.69,17.69,0,0,1,7.3-9.7L64.3,30l1.9-4.6-2,.4a21,21,0,0,1-3.2.5,8.55,8.55,0,0,1-2.5-.4,8.88,8.88,0,0,0-2.6-.4,8.21,8.21,0,0,0-5.6,2.2c-2.7,2.6-2.8,5.3-3,7.8-.4,3.4-1,4.2-2.8,6.6" style="fill:#fff"/><path d="M109.4,43.6c-.2-.2-.4-.4-.5-.4a.46.46,0,0,0-.5.4c0,.4.2.8.9,1.9a49.31,49.31,0,0,0,7.3,9.7,81.17,81.17,0,0,0,10.8,9.3l1.2.9c.2.1.3.2.5.2a.46.46,0,0,0,.4-.5c0-.1-.1-.2-.2-.4-3.7-3.3-7.7-7.4-11.4-11.4-2.9-3.1-5.9-6.4-8.5-9.7" style="fill:#fff"/><path d="M28,32.1a17.85,17.85,0,0,1,2-2.6,42.53,42.53,0,0,0-6.5-9.2l-1.2,1.1A67.26,67.26,0,0,1,28,32.1" style="fill:#fff"/><path d="M9.5,9.3a.91.91,0,0,1-.3-.5.37.37,0,0,1,.4-.4.76.76,0,0,1,.4.1,17.93,17.93,0,0,1,4.9,2.8,26.51,26.51,0,0,1,3.5,3.3l-1.1,1.2c-1.3-1.1-5.6-4.6-7.8-6.5" style="fill:#fff"/><path d="M27.4,17.8,26.1,17a19,19,0,0,1,3.3-5.4,17.71,17.71,0,0,1,2.8-2.7c.2-.2.4-.4.6-.4a.43.43,0,0,1,.4.4c0,.1-.1.2-.2.4-1.6,2.3-4.6,7.1-5.6,8.5" style="fill:#fff"/><path d="M10.3,29.5c-.4.1-.5.2-.6.2a.37.37,0,0,1-.4-.4.52.52,0,0,1,.2-.4,19.41,19.41,0,0,1,9.6-4l.5,1.5Z" style="fill:#fff"/><path d="M75.1,9.9c0-.9.5-2.5,2.1-2.5a2.41,2.41,0,0,1,1.5.4c.6.3,1,.7,1,1.1s-.5.9-1.1,1.5a4.08,4.08,0,0,1-2.3,1.1c-.9,0-1.2-.9-1.2-1.6" style="fill:#fff"/><path d="M49.5,17.3A2.06,2.06,0,0,1,51.4,15a2.34,2.34,0,0,1,1.7.7.91.91,0,0,1,.4.8c0,.6-.6,1.2-1.3,1.6a3.32,3.32,0,0,1-1.6.5c-.8,0-1.1-.5-1.1-1.3" style="fill:#fff"/><path d="M55.4,32.9a3.08,3.08,0,0,1,.1-.9,1.67,1.67,0,0,1,1.7-1.3,2.82,2.82,0,0,1,1.5.4,1,1,0,0,1,.5.9c0,1.1-1.8,2.3-2.8,2.3-.6.1-1-.5-1-1.4" style="fill:#fff"/><path d="M45.5,64.8c-3.4,0-4.9-1.6-4.9-3.7,0-3.6,6.3-7.1,11.9-9.3L54,53.7c-3.5,1.4-10.5,4.4-10.5,7,0,.9.5,1.6,2.6,1.6,3.7,0,7.7-1.8,11.4-3.6a2.92,2.92,0,0,1,.9-.2,1.25,1.25,0,0,1,1.1.6l.6.8c-4.3,2.4-9.7,4.9-14.6,4.9" style="fill:#fff"/><path d="M54.9,65.8a20.71,20.71,0,0,1-9.8,3.1c-3.4,0-6.4-1.5-9-5.3C35,62,34.2,60,33.2,58.2c-1.2-2.1-2.5-3.3-4.9-3.3A16.69,16.69,0,0,0,22,56.7l.1.5c.2.8.5,1.3,1.2,1.3.4,0,.6-.2.8-.2a9.76,9.76,0,0,1,3.3-.7c1.9,0,2.8,1.1,4.1,3.9l.5,1a25,25,0,0,1-6.7.7H24.2l.2,1.1c.1.5.2.8.6,1a6.22,6.22,0,0,0,2.2.2,34.27,34.27,0,0,0,6.2-.6,13.59,13.59,0,0,0,11.5,6.4,22.08,22.08,0,0,0,10.5-3.2Z" style="fill:#fff"/><path d="M58.3,66.9l-.6-2.3c5.2-2.8,9.9-5,17.6-5.8.2,2.9-.1,6.6,2.1,6.6,2,0,6.3-5.1,11.2-11.5.5.4,1.2.9,1.9,1.4l-1.3,1.6c-4.9,6.2-9,11.5-12.3,11.5s-4.3-3.7-4.4-6.5a34.18,34.18,0,0,0-14.2,5" style="fill:#fff"/><path d="M125.2,16.1c-2,0-2.5-1.1-2.5-2.6,0-3.2,2-7.8,3.3-10.4h-3a144.94,144.94,0,0,1-11.2,17.1l1.9,2.1c1.8-2,3.8-5.4,6-8.8h.4v.6c0,2.9,1.5,5,5.1,5,2.2,0,5.7-1.1,9-2.2,2.8-.9,5.2-1.9,6.5-2.2v-3c-1.4.4-4.3,1.5-7.3,2.6-3.3.9-6.4,1.8-8.2,1.8" style="fill:#fff"/><path d="M131.9,25.3c3-1.3,8.5-3.5,11.6-4.6V17.6a219.91,219.91,0,0,0-24.9,11c.2.2,1.5,2.1,1.7,2.3,3.2-1.3,6-2.2,8.6-2.2a41.94,41.94,0,0,0,11.5-1.2V25.2a52.52,52.52,0,0,1-7.7,1.1c-1.1,0-1.5-.2-1.5-.5a2.1,2.1,0,0,1,.7-.5" style="fill:#fff"/><polygon points="65.9 41.8 78.9 41.8 77.9 39.6 67.2 39.6 65.9 41.8" style="fill:#fff"/><path d="M20.6,53.4a9.49,9.49,0,0,0,3.5-.9,8.51,8.51,0,0,1,3.4-.8c3.2,0,7.3,1.6,10.8,3a1.27,1.27,0,0,0,.6.1,1.29,1.29,0,0,0,1.3-.8l.5-.8c-3.9-2.2-10.1-4.6-13.2-4.6a9.55,9.55,0,0,0-3.6.8,7.74,7.74,0,0,1-3.2.9c-2.6,0-9.1-2.5-9.1-5,0-2.9,10.4-4,11.5-4L24.2,39c-7.5,0-16.6,2.6-16.6,6.1,0,1,.6,1.5.6,2.5,0,1.3-.6,2.1-.6,3.6a8,8,0,0,0,1.2,3.2c.7,1.1,1.5,1.8,1.5,2.7a21.93,21.93,0,0,0-.5,3.1c0,3.4,1.9,5.5,5.7,9.5l.8.8c-3.2,1.2-9,3.7-10.4,4.3C1.2,76.8,0,79.2,0,83c0,1.5,0,3.2.1,4.6H1c1.9,0,2.1-1.1,2.1-2.2V82.9c0-2.1.1-4,3.5-5.5,1.3-.6,8.1-3.3,13.1-5.4A11.6,11.6,0,0,1,24,70.8c1.7,0,3.6.7,6.1,2.2A29,29,0,0,1,36,77.7l2.2-1.6a27.41,27.41,0,0,0-7-5.6c-2.6-1.5-4.9-2.4-6.7-2.4a11.76,11.76,0,0,0-2.1.3,7.12,7.12,0,0,1-2.1.4,3.56,3.56,0,0,1-2.9-1.5c-.4-.5-3.2-3.6-3.7-4.5a4.12,4.12,0,0,1-.8-2.3,2.73,2.73,0,0,1,.4-1.4,17.28,17.28,0,0,0,8.8,3.3L21.6,60c-5.1-1.3-10.5-5.8-10.5-8.7a4.19,4.19,0,0,1,.4-1.6c2,1.8,6.6,3.7,9.1,3.7" style="fill:#fff"/><path d="M57,53.8a15.37,15.37,0,0,1,9.1-2.5,36.14,36.14,0,0,1,5.4.5,35.73,35.73,0,0,0,4.7.4,24.34,24.34,0,0,0,8.5-1.9c.4.5,1.2,1.2,1.8,1.8a22.09,22.09,0,0,1-10.1,3,33.88,33.88,0,0,1-5.8-.5,37.25,37.25,0,0,0-4.7-.4,20.77,20.77,0,0,0-7.4,1.5Z" style="fill:#fff"/><path d="M104,62.9A38.23,38.23,0,0,1,88.6,80c-2.8,1.6-5.3,2.6-10.8,2.6H66a32,32,0,0,0-9,1.1c-2.2.6-3.6,1.2-5.9,1.2a11.53,11.53,0,0,1-7.9-3.2L46,79.5l-1.4-1.8c-.8.6-10.7,7.9-12.8,9.5l-.1-.1a6.6,6.6,0,0,0,.1-1.4c0-5.6-2.6-6.9-6.5-8.5l-2.6,1.6c5.4,1.8,6.7,3.2,6.7,7.3,0,3.2-1.1,4.4-2.8,5.4A11.48,11.48,0,0,1,21,93a2.11,2.11,0,0,0-1.4.4,2,2,0,0,0-.5,1.4v.9h.6a14.48,14.48,0,0,0,9.9-3.2l11.2-8.7a14.86,14.86,0,0,0,10.4,4.3,22.8,22.8,0,0,0,6.9-1.3,27.27,27.27,0,0,1,7.9-.9H77.9c6.1,0,9-1.3,12.2-3.1a39.55,39.55,0,0,0,16.4-18.3c-1-.6-1.8-1.1-2.5-1.6" style="fill:#fff"/><path d="M84.9,72.4c3-4.9,5.8-9.2,12.5-12.8a21,21,0,0,1-2.2-1.5,24.54,24.54,0,0,0-7.4,5.7c-5,5.3-4.6,8.3-9.9,10.4a29,29,0,0,1-5.1,1.5c-1.2-3.8-4.3-7.6-7.6-7.6-2.3,0-4.9,1.2-8,2.5a62.9,62.9,0,0,0-7.8,4l1.4,1.9c1.1-.6,4.1-2.1,7.2-3.4,2.6-1.1,5-2,6.7-2,2.6,0,4.3,3,5.2,5.3a59.51,59.51,0,0,1-10.7,1c-.8,0-1.1.1-1.3.4a2.22,2.22,0,0,0-.6,1.2l-.2.9h1.8c9.5,0,18.4-1.5,24.1-5a9.27,9.27,0,0,0,2.4.4,15.14,15.14,0,0,0,8.8-3.5,1.85,1.85,0,0,0,.9-1.7,2.2,2.2,0,0,0-.1-.8l-.1-1c-3,2.4-5.6,4.2-8.7,4.2a2.65,2.65,0,0,1-1.3-.1" style="fill:#fff"/></g></g></svg>