<?xml version="1.0" encoding="utf-8"?>
<!-- Generator: Adobe Illustrator 19.0.0, SVG Export Plug-In . SVG Version: 6.00 Build 0)  -->
<svg version="1.1" id="Layer_1" xmlns="http://www.w3.org/2000/svg" xmlns:xlink="http://www.w3.org/1999/xlink" x="0px"
	y="0px" viewBox="0 0 500 500" style="enable-background:new 0 0 500 500;" xml:space="preserve">
	<style type="text/css">
		.st0 {
			fill: #fff;
		}
	</style>
	<g id="XMLID_17_">
		<g id="XMLID_55_">
			<path id="XMLID_56_" class="st0" d="M262,225.3c-0.5,0.6-0.8,1.3-0.8,2.5v33H261c0,0-18.1-32.2-19-33.7c-0.6-1.1-1.3-1.8-2.2-2.3
			c-0.9-0.5-1.9-0.8-3.7-0.8h-6c-1.4,0-2.2,0.5-2.9,1.2c-0.5,0.6-0.8,1.3-0.8,2.5v46.8c0,1.2,0.3,1.9,0.8,2.5
			c0.6,0.7,1.5,1.2,2.9,1.2h3.4c1.4,0,2.2-0.5,2.9-1.2c0.5-0.6,0.8-1.3,0.8-2.5v-33.8h0.2c0,0,18.7,33.2,19.5,34.5
			c1.1,1.8,2.8,3,5.4,3h5.8c1.4,0,2.2-0.5,2.9-1.2c0.5-0.6,0.8-1.3,0.8-2.5v-42.2h75.9c0.8,0,1.3-0.2,1.8-0.6c0.5-0.4,0.7-1,0.7-1.9
			v-3.2c0-0.9-0.2-1.5-0.7-1.9c-0.4-0.4-1-0.6-1.8-0.6h-82.8C263.4,224.1,262.6,224.6,262,225.3 M295.1,237.8
			c-12.6,0-19.7,9.8-19.7,20.2c0,11.1,7.6,20.8,19.8,20.8c6.1,0,12.1-2.3,15.4-6.3c1.5-1.8,2.7-4.2,2.7-5.7c0-0.5-0.1-0.9-0.4-1.3
			c-0.3-0.4-0.7-0.6-1.5-0.6h-5.9c-1.2,0-2,0.4-2.5,1.3c-1.7,2.5-4.2,3.8-7.8,3.8c-5.4,0-9-4.2-9.2-8.7h25.3c1.1,0,1.9-0.2,2.5-0.8
			c0.6-0.6,0.9-1.4,0.9-3c0-4.7-1.5-9.7-4.6-13.5C306.8,240.4,301.9,237.8,295.1,237.8 M334.1,237.8c-9.9,0-16.5,4.7-16.5,12.3
			c0,2.7,1,4.9,2.6,6.6c1.9,2,4.5,3.4,8.4,4.4l8.3,2.1c2.3,0.6,4.3,1.3,4.3,3.3c0,3.1-3.3,4.2-6.8,4.2c-1.7,0-3.5-0.4-4.9-1.1
			c-1-0.5-1.9-1.2-2.5-2.2c-0.5-0.8-0.7-1.5-1.6-1.9c-0.5-0.3-1.1-0.4-2-0.4h-4.4c-1,0-1.5,0.3-1.8,0.7c-0.4,0.4-0.4,1-0.4,1.6
			c0,1.5,0.5,3.3,1.7,4.9c2.8,3.7,8.5,6.7,15.9,6.7c7.3,0,17.3-3,17.3-12.8c0-2.5-0.7-4.6-2-6.4c-1.7-2.2-4.2-3.7-8.3-4.8l-8.3-2.1
			c-3.4-0.9-5-1.5-5-3.6c0-2,1.8-3.7,6-3.7c2.5,0,4.7,0.5,6.2,2c1.2,1.3,1,1.9,1.9,2.5c0.6,0.3,1.2,0.3,2.2,0.3h4.1
			c0.6,0,1.1-0.1,1.5-0.5c0.3-0.4,0.5-0.8,0.5-1.7c0-1.9-1.2-4.3-3.4-6.2C344.2,239.5,339.6,237.8,334.1,237.8 M356.7,239.2h-2
			c-0.8,0-1.3,0.2-1.8,0.6c-0.5,0.4-0.7,1-0.7,1.9v2.5c0,0.9,0.2,1.5,0.7,1.9c0.4,0.4,1,0.6,1.8,0.6h2v18.1c0,4.6,1.3,7.5,3.6,9.9
			c2.2,2.2,5,3.5,9.9,3.5h3.1c0.8,0,1.3-0.2,1.8-0.6c0.5-0.4,0.8-1,0.8-1.9v-3.2c0-0.9-0.3-1.5-0.8-1.9c-0.4-0.4-1-0.6-1.8-0.6H373
			c-2,0-3.3-0.5-4.2-1.4c-1.1-1-1.6-2.6-1.6-4.6v-17.4h6.6c0.8,0,1.3-0.2,1.8-0.6c0.5-0.4,0.7-1,0.7-1.9v-2.5c0-0.9-0.2-1.5-0.7-1.9
			c-0.4-0.4-1-0.6-1.8-0.6h-6.6v-11.8c0-0.9-0.3-1.6-0.7-2.2c-0.5-0.6-1.3-1.1-2.5-1.1h-4.1c-1.1,0-1.9,0.4-2.5,1.1
			c-0.4,0.5-0.7,1.2-0.7,2.2L356.7,239.2L356.7,239.2z M379,274.9c0,0.9,0.3,1.6,0.7,2.2c0.5,0.6,1.3,1.1,2.5,1.1h4.3
			c1.1,0,1.9-0.4,2.5-1.1c0.4-0.5,0.7-1.2,0.7-2.2v-47.6c0-0.9-0.3-1.6-0.7-2.2c-0.5-0.6-1.3-1.1-2.5-1.1h-4.3
			c-1.1,0-1.9,0.4-2.5,1.1c-0.4,0.5-0.7,1.2-0.7,2.2V274.9z M286,253.7c0.5-4.4,3.9-7.8,9.1-7.8c5.1,0,8.6,3.3,9.1,7.8H286z
			 M428.9,232.2c0.8,0,1.3-0.2,1.8-0.6c0.5-0.4,0.7-1,0.7-1.9v-3.4c0-1.3-0.2-2-0.7-2.5c-0.4-0.4-1.1-0.7-1.8-0.7
			c-0.6,0-1.2,0.1-2.2,0.2l-29,2.9c-0.8,0.1-1.2,0.4-1.5,0.6c-0.4,0.4-0.5,0.8-0.5,1.5v1.9c0,0.7,0.1,1.1,0.4,1.3
			c0.4,0.4,0.8,0.5,1.5,0.5h31.3V232.2z M412.9,237.8c-12.6,0-19.7,9.8-19.7,20.2c0,11.1,7.6,20.8,19.8,20.8
			c6.1,0,12.1-2.3,15.4-6.3c1.5-1.8,2.7-4.2,2.7-5.7c0-0.5-0.1-0.9-0.4-1.3c-0.3-0.4-0.7-0.6-1.5-0.6h-5.9c-1.2,0-2,0.4-2.5,1.3
			c-1.7,2.5-4.2,3.8-7.8,3.8c-5.4,0-9-4.2-9.2-8.7h25.3c1.1,0,1.9-0.2,2.5-0.8c0.6-0.6,0.9-1.4,0.9-3c0-4.7-1.5-9.7-4.6-13.5
			C424.7,240.4,419.8,237.8,412.9,237.8 M403.9,253.7c0.5-4.4,3.9-7.8,9.1-7.8c5.1,0,8.6,3.3,9.1,7.8H403.9z" />
		</g>
		<g id="XMLID_52_">
			<path id="XMLID_54_" class="st0"
				d="M185.5,232.7c-9.4-14-17.7-18.8-20-21c-2.6-2.5-4.5-5.2-5.7-6.6c-2.8-3-6.3-6.7-12.2-6.7
			c-5.7,0-9.4,3.7-10.6,6.8c-0.4,0.9-0.6,2-0.9,2.4c-0.6,0.9-3,5.2-4.1,6.9h4.7l-2.3,4.3c2.6-0.6,4.6-1,7.1-1c2.2,0,3.9,0.5,4.6,1.9
			c1.3,2.6,1.3,10.6,3.6,16.6c2,5.6,7.1,11.1,12.8,15.4c0.1,0.1,0.2,0.1,0.2,0.1c0.3,0,0.5-0.2,0.5-0.4c0-0.2-0.1-0.2-0.2-0.4
			c-4.7-4.7-8.6-10-10.7-15.8c-2-5.6-1.7-13.5-3.5-17c-1.2-2.3-3.7-2.9-6-2.9c-1.9,0-3.6,0.4-4.4,0.6l2-3.5h-3.5
			c0.8-1.3,1.5-2.5,1.9-3.2c0.4-0.6,0.5-1.3,0.9-2.4c1.3-3.3,4.2-5.4,8-5.4c4.7,0,7.5,3,10.3,6.1c1.3,1.4,3.3,4.4,5.7,6.6
			c1.6,1.5,4.8,3.2,9.6,8.2c2.8,2.9,6,6.6,9.4,11.6c12.2,17.8,20.2,33.6,24.7,45.9l-0.1,0.1c-12.8-8.7-23.9-16.9-32.9-27
			c-6.3-7.2-11.9-15.6-16.7-26.2c-0.4-0.7-0.6-1.3-0.9-2c-0.1-0.3-0.2-0.4-0.5-0.4s-0.4,0.2-0.4,0.4c0,0.3,0.1,0.9,0.4,2.1
			c2.6,11,9.7,20.9,17.2,29.1c7.5,8.2,16,15.2,23.1,20.3l5.4,15.6c0.1,0.4,0.3,0.8,0.3,1.2c0,0.3-0.1,0.5-0.2,0.6
			c-0.2,0.2-0.4,0.2-0.8,0.2h-1.6c-0.7,0-1-0.1-1.2-0.3c-0.2-0.2-0.4-0.5-0.6-0.9c-0.5-1.5-3.3-9.7-3.9-11.4
			c-0.1-0.3-0.3-0.4-0.5-0.4c-0.2,0-0.4,0.2-0.4,0.4c0,0.2,0.1,0.4,0.2,1.1c0.8,3.7,1.6,8,1.9,9.5c0.2,0.7,0.4,1.4,0.4,1.9
			c0,0.5-0.1,0.7-0.5,1.1l-1.7,1.7c-0.4,0.4-0.6,0.5-0.9,0.5c-0.4,0-0.8-0.3-0.9-1c-1.9-9-4.9-20.1-5.6-23.2
			c-0.2-0.7-0.3-1.1-0.7-1.1c-0.4,0-0.5,0.2-0.5,0.5c0,0.2,0.1,0.5,0.1,0.7c0.5,3.2,2.3,14.8,4.3,25.4c0.4,1.8,1.1,2.8,2.6,2.8
			c0.7,0,1.4-0.3,2-0.9c1.1-1.1,1.3-1.3,2.6-2.5c0.9-0.9,1.5-1.2,3-1.2h3.7c0.9,0,1.3-0.2,1.8-0.6c0.4-0.4,0.6-0.9,0.6-1.7
			s-0.2-1.4-0.5-2.2c-0.9-2.6-4-11.3-5-13.8l0.1-0.1c3.2,2.4,7.8,5.4,9.8,5.4c0.6,0,1-0.3,1-1.3C210.9,278.2,203.2,259,185.5,232.7" />
			<path id="XMLID_53_" class="st0" d="M98.8,203.3c0.5-1.2,1.7-2,3.1-2c1.9,0,3.4,1.5,3.4,3.4c0,1.1-0.5,2.1-1.3,2.8
			c0.2,0.6,0.3,1.2,0.3,1.8c0,2.1-1.3,3.6-3.6,4.4c-0.3,1.3-0.9,2.5-1.8,3.3c-1.5,1.5-3,1.5-3,2c0,0.4,0.2,0.5,0.9,0.5
			c2.8,0,5.6-1.6,5.9-4.2c2.7-0.9,4.3-3.6,4.3-5.8c0-0.6-0.1-1.1-0.3-1.5c0.8-0.7,1.6-1.9,1.6-3.7c0-1.6-0.7-3.2-1.9-4.3
			c-1.1-1.1-2.6-1.7-4.3-1.7c-2.5,0-4.2,1.3-5.1,2.7c-2.8,0-6.3,3-6.3,7.4h-0.5c-0.2-1.5-1.8-2.5-3.2-2.6c-1.1-3.2-3.5-5.9-7.4-5.9
			c-0.5,0-1,0-1.5,0.1c-1.2-1.1-2.5-1.7-4.3-1.7c-3.5,0-6.3,2.8-6.3,6.3c0,2.2,1,3.7,2.9,5c0,0,0,0.3,0,0.4c0,2.8,3,7.1,7.5,7.1
			c0,0.7,0.9,1.7,1.9,1.9v0.4h-0.4c-6.2,0-8.8,3-8.8,5c-1.9,0.8-3,2.8-3,4.7c0,3.7,2.8,6.4,6.4,6.4c1.2,0,2.5-0.5,3.3-1.1
			c0.6,0.2,1.5,0.4,2.3,0.4c1.8,0,3.7-0.6,5-2.6c0.2,0,0.4,0,0.6,0c2.2,0,4.2-1.5,5.1-3.4c0.2-0.5,0.4-0.9,0.4-1.1
			c0-0.3-0.1-0.5-0.4-0.5c-0.4,0-0.4,0.4-1.1,0.9c-1.4,1.3-3.6,1.8-5.8,1.8c-1.1,1.6-2.4,2.4-4,2.4c-1.1,0-2-0.3-2.9-0.9
			c-0.8,0.8-1.6,1.1-2.5,1.1c-2,0-3.4-1.4-3.4-3.4c0-1.4,0.9-2.7,2.2-3.2c0.2-2.5,2.9-4.2,6.3-4.2c0.4,0,0.9,0,1.3,0.1
			c0.5-0.8,1.7-1.7,3.5-1.9c0.4-0.1,0.6-0.1,0.8-0.2c0.2-0.1,0.3-0.3,0.3-0.5c0-0.2-0.1-0.4-0.3-0.5c-0.2-0.1-0.5-0.2-0.8-0.2
			c-1.6-0.3-3.5-1.3-4.4-3.7c-3.8,0-6.6-3-6.6-6.5v-0.2c-1.3-0.5-2.1-1.7-2.1-3.2c0-1.9,1.5-3.4,3.4-3.4c1.1,0,2.1,0.6,2.8,1.4
			c0.5-0.2,1.1-0.2,1.7-0.2c2.8,0,5.9,1.8,6.4,5.3c3.6,0.4,4.5,3.4,4.7,4.7c0.1,0.6,0.2,1.2,0.6,1.2c0.5,0,0.5-0.5,0.7-1.2
			c0.3-1.3,0.8-2.3,1.7-3.2C92.7,206.2,95.2,203.3,98.8,203.3" />
		</g>
		<g id="XMLID_28_">
			<path id="XMLID_51_" class="st0" d="M106.1,223.2c-1.2,1.7-2,2.5-4.7,5.7c-3.6,4.2-5.4,7.6-8.5,15.2c0.5-0.1,1.2-0.1,2-0.1
			c0.4,0,0.8,0,1.3,0l0.4-0.8c1.8-3.7,4.1-8.8,7.4-12.7l1.1-1.3c3.4-4,5.5-6.3,6.8-11.7c0.5-1.9,0.8-3.6,2.1-4.9
			c1.2-1.1,2.6-1.6,4.1-1.6c1.3,0,2.2,0.3,3.6,0.9c1.2,0.5,1.7,0.6,3,0.6c0.5,0,0.8,0,1.1-0.1l-1.8,2.4l2.4,1.7
			c-3,0.9-4.6,3.8-5.1,5.1c-0.1,0.3-0.2,0.5-0.2,0.6c0,0.2,0.1,0.4,0.4,0.4c0.4,0,0.6-0.2,1-0.8c1.5-1.8,2.6-3,8-4.7l-3.8-2.9
			l2.9-4.2h-2.7c-1.7,0-2.9,0-4.3-0.7c-2-0.9-3-1.3-4.9-1.3c-2.2,0-4.2,0.8-5.9,2.3c-1.9,1.8-2.5,4.1-3.2,6.6
			C108.2,219,107.5,221.1,106.1,223.2" />
			<path id="XMLID_50_" class="st0" d="M111.9,240.4c-1.5,1.9-3.4,4.5-4.9,7.2c0.5,0.2,2,1.1,2.6,1.4c1.8-2.6,4.2-5.9,5.7-8.3
			c1.5-2.2,2-3.2,2.1-6.1c0-0.5,0-1,0.1-1.5c0.1-1.5,0.5-3.1,2-4.6c1.1-1.1,2.6-1.6,4.2-1.6c1.5,0,2.4,0.4,3.7,0.4
			c0.9,0,1.6-0.2,2.2-0.5l0.5-0.2l-1.2,2.8l2.8,1.1c-1.8,1.1-5.6,5.7-5.6,11.3c0,2,0.3,3.9,0.8,5.5c0.1,0.2,0.2,0.4,0.4,0.4
			s0.4-0.2,0.5-0.4v-0.6c0.1-1.7,0.2-4.4,0.9-6.8c1.1-4,4.2-7.8,7.3-9.7l-4.3-1.9l1.9-4.6l-2,0.4c-1.2,0.2-2.2,0.5-3.2,0.5
			c-0.7,0-1.5-0.1-2.5-0.4c-0.7-0.2-1.5-0.4-2.6-0.4c-2,0-4.2,0.8-5.6,2.2c-2.7,2.6-2.8,5.3-3,7.8
			C114.3,237.2,113.7,238,111.9,240.4" />
			<path id="XMLID_49_" class="st0" d="M176.8,241.9c-0.2-0.2-0.4-0.4-0.5-0.4c-0.3,0-0.5,0.2-0.5,0.4c0,0.4,0.2,0.8,0.9,1.9
			c1.9,3.3,4.3,6.6,7.3,9.7c3.2,3.3,6.9,6.5,10.8,9.3l1.2,0.9c0.2,0.1,0.3,0.2,0.5,0.2c0.2,0,0.4-0.2,0.4-0.5c0-0.1-0.1-0.2-0.2-0.4
			c-3.7-3.3-7.7-7.4-11.4-11.4C182.4,248.5,179.4,245.2,176.8,241.9" />
			<path id="XMLID_48_" class="st0" d="M95.4,230.4c0.4-0.6,1.5-2.2,2-2.6c-1.9-3.9-5.1-7.7-6.5-9.2l-1.2,1.1
			C91,221.6,93.3,225.5,95.4,230.4" />
			<path id="XMLID_47_" class="st0" d="M76.9,207.6c-0.2-0.2-0.3-0.4-0.3-0.5c0-0.2,0.1-0.4,0.4-0.4c0.1,0,0.2,0,0.4,0.1
			c1.9,0.8,3.5,1.6,4.9,2.8c1.2,0.9,2.3,2,3.5,3.3l-1.1,1.2C83.4,213,79.1,209.5,76.9,207.6" />
			<path id="XMLID_42_" class="st0" d="M94.8,216.1l-1.3-0.8c0.9-2.1,2-4,3.3-5.4c0.9-1.1,1.8-1.9,2.8-2.7c0.2-0.2,0.4-0.4,0.6-0.4
			c0.2,0,0.4,0.2,0.4,0.4c0,0.1-0.1,0.2-0.2,0.4C98.8,209.9,95.8,214.7,94.8,216.1" />
			<path id="XMLID_41_" class="st0" d="M77.7,227.8c-0.4,0.1-0.5,0.2-0.6,0.2c-0.3,0-0.4-0.2-0.4-0.4c0-0.2,0.1-0.3,0.2-0.4
			c3.1-2.4,5.9-3.4,9.6-4l0.5,1.5L77.7,227.8z" />
			<path id="XMLID_40_" class="st0" d="M142.5,208.2c0-0.9,0.5-2.5,2.1-2.5c0.6,0,1.1,0.1,1.5,0.4c0.6,0.3,1,0.7,1,1.1
			c0,0.5-0.5,0.9-1.1,1.5c-0.7,0.6-1.6,1.1-2.3,1.1C142.8,209.8,142.5,208.9,142.5,208.2" />
			<path id="XMLID_39_" class="st0" d="M116.9,215.6c0-1.1,0.6-2.3,1.9-2.3c0.6,0,1.2,0.2,1.7,0.7c0.3,0.2,0.4,0.5,0.4,0.8
			c0,0.6-0.6,1.2-1.3,1.6c-0.5,0.3-1.1,0.5-1.6,0.5C117.2,216.9,116.9,216.4,116.9,215.6" />
			<path id="XMLID_35_" class="st0" d="M122.8,231.2c0-0.2,0-0.6,0.1-0.9c0.2-0.6,0.6-1.3,1.7-1.3c0.5,0,1,0.1,1.5,0.4
			c0.4,0.2,0.5,0.6,0.5,0.9c0,1.1-1.8,2.3-2.8,2.3C123.2,232.7,122.8,232.1,122.8,231.2" />
			<path id="XMLID_34_" class="st0" d="M112.9,263.1c-3.4,0-4.9-1.6-4.9-3.7c0-3.6,6.3-7.1,11.9-9.3l1.5,1.9
			c-3.5,1.4-10.5,4.4-10.5,7c0,0.9,0.5,1.6,2.6,1.6c3.7,0,7.7-1.8,11.4-3.6c0.3-0.1,0.6-0.2,0.9-0.2c0.5,0,0.8,0.2,1.1,0.6l0.6,0.8
			C123.2,260.6,117.8,263.1,112.9,263.1" />
			<path id="XMLID_33_" class="st0" d="M122.3,264.1c-3.3,1.9-6.8,3.1-9.8,3.1c-3.4,0-6.4-1.5-9-5.3c-1.1-1.6-1.9-3.6-2.9-5.4
			c-1.2-2.1-2.5-3.3-4.9-3.3c-2.1,0-4.2,0.9-6.3,1.8l0.1,0.5c0.2,0.8,0.5,1.3,1.2,1.3c0.4,0,0.6-0.2,0.8-0.2
			c1.2-0.4,2.1-0.7,3.3-0.7c1.9,0,2.8,1.1,4.1,3.9l0.5,1c-1.3,0.5-4.4,0.7-6.7,0.7h-1.1l0.2,1.1c0.1,0.5,0.2,0.8,0.6,1
			c0.5,0.2,1.1,0.2,2.2,0.2c2.9,0,5-0.4,6.2-0.6c3.1,4.6,7.4,6.4,11.5,6.4c3.5,0,7.1-1.3,10.5-3.2L122.3,264.1z" />
			<path id="XMLID_31_" class="st0"
				d="M125.7,265.2l-0.6-2.3c5.2-2.8,9.9-5,17.6-5.8c0.2,2.9-0.1,6.6,2.1,6.6c2,0,6.3-5.1,11.2-11.5
			c0.5,0.4,1.2,0.9,1.9,1.4l-1.3,1.6c-4.9,6.2-9,11.5-12.3,11.5c-3.2,0-4.3-3.7-4.4-6.5C135,260.7,130.4,262.4,125.7,265.2" />
			<path id="XMLID_30_" class="st0" d="M192.6,214.4c-2,0-2.5-1.1-2.5-2.6c0-3.2,2-7.8,3.3-10.4h-3c-1.6,3.1-7.8,13-11.2,17.1
			l1.9,2.1c1.8-2,3.8-5.4,6-8.8h0.4c0,0.2,0,0.4,0,0.6c0,2.9,1.5,5,5.1,5c2.2,0,5.7-1.1,9-2.2c2.8-0.9,5.2-1.9,6.5-2.2v-3
			c-1.4,0.4-4.3,1.5-7.3,2.6C197.5,213.5,194.4,214.4,192.6,214.4" />
			<path id="XMLID_29_" class="st0" d="M199.3,223.6c3-1.3,8.5-3.5,11.6-4.6v-3.1c-6.3,2.3-17.3,6.9-24.9,11c0.2,0.2,1.5,2.1,1.7,2.3
			c3.2-1.3,6-2.2,8.6-2.2c3.6,0,6.6,0,11.5-1.2v-2.3c-2.8,0.5-5.7,1.1-7.7,1.1c-1.1,0-1.5-0.2-1.5-0.5
			C198.8,223.9,198.9,223.8,199.3,223.6" />
		</g>
		<g id="XMLID_25_">
			<polygon id="XMLID_27_" class="st0" points="133.3,240.1 146.3,240.1 145.3,237.9 134.6,237.9 		" />
			<path id="XMLID_26_" class="st0" d="M88,251.7c1.3,0,2.5-0.5,3.5-0.9c1-0.4,2-0.8,3.4-0.8c3.2,0,7.3,1.6,10.8,3
			c0.2,0.1,0.4,0.1,0.6,0.1c0.6,0,1-0.2,1.3-0.8l0.5-0.8c-3.9-2.2-10.1-4.6-13.2-4.6c-1.5,0-2.5,0.4-3.6,0.8
			c-1.1,0.5-2.1,0.9-3.2,0.9c-2.6,0-9.1-2.5-9.1-5c0-2.9,10.4-4,11.5-4l1.1-2.3c-7.5,0-16.6,2.6-16.6,6.1c0,1,0.6,1.5,0.6,2.5
			c0,1.3-0.6,2.1-0.6,3.6c0,0.9,0.6,2.1,1.2,3.2c0.7,1.1,1.5,1.8,1.5,2.7c0,0.7-0.5,1.5-0.5,3.1c0,3.4,1.9,5.5,5.7,9.5l0.8,0.8
			c-3.2,1.2-9,3.7-10.4,4.3c-4.7,2-5.9,4.4-5.9,8.2c0,1.5,0,3.2,0.1,4.6h0.9c1.9,0,2.1-1.1,2.1-2.2c0-0.8,0-1.6,0-2.5
			c0-2.1,0.1-4,3.5-5.5c1.3-0.6,8.1-3.3,13.1-5.4c1.5-0.6,2.8-1.2,4.3-1.2c1.7,0,3.6,0.7,6.1,2.2c2,1.2,4.2,2.9,5.9,4.7l2.2-1.6
			c-1.9-2.2-4.4-4.1-7-5.6c-2.6-1.5-4.9-2.4-6.7-2.4c-0.8,0-1.5,0.2-2.1,0.3c-0.7,0.2-1.3,0.4-2.1,0.4c-0.9,0-1.7-0.2-2.9-1.5
			c-0.4-0.5-3.2-3.6-3.7-4.5c-0.3-0.4-0.8-1.3-0.8-2.3c0-0.4,0.1-0.9,0.4-1.4c2.3,1.8,5.3,2.9,8.8,3.3l-0.5-2.4
			c-5.1-1.3-10.5-5.8-10.5-8.7c0-0.6,0.2-1.1,0.4-1.6C80.9,249.8,85.5,251.7,88,251.7" />
		</g>
		<g id="XMLID_18_">
			<path id="XMLID_24_" class="st0" d="M124.4,252.1c3.2-2.2,6.5-2.5,9.1-2.5c1.6,0,3.5,0.2,5.4,0.5c1.6,0.2,3,0.4,4.7,0.4
			c3.5,0,7-1.3,8.5-1.9c0.4,0.5,1.2,1.2,1.8,1.8c-0.8,0.5-5.4,3-10.1,3c-2.1,0-4.1-0.2-5.8-0.5c-1.5-0.2-3.2-0.4-4.7-0.4
			c-1.8,0-5.3,0.5-7.4,1.5L124.4,252.1z" />
			<path id="XMLID_23_" class="st0" d="M171.4,261.2c-3.8,8-9.5,13.8-15.4,17.1c-2.8,1.6-5.3,2.6-10.8,2.6h-11.8
			c-4.2,0-6.8,0.5-9,1.1c-2.2,0.6-3.6,1.2-5.9,1.2c-3.3,0-6.4-1.6-7.9-3.2l2.8-2.2L112,276c-0.8,0.6-10.7,7.9-12.8,9.5l-0.1-0.1
			c0.1-0.5,0.1-0.9,0.1-1.4c0-5.6-2.6-6.9-6.5-8.5l-2.6,1.6c5.4,1.8,6.7,3.2,6.7,7.3c0,3.2-1.1,4.4-2.8,5.4c-1.7,1-3.8,1.5-5.6,1.5
			c-0.8,0-1.1,0.2-1.4,0.4c-0.3,0.3-0.5,0.8-0.5,1.4v0.9h0.6c3.4,0,6.5-0.5,9.9-3.2l11.2-8.7c1.6,1.8,5.6,4.3,10.4,4.3
			c2.7,0,4.4-0.6,6.9-1.3c1.9-0.5,3.8-0.9,7.9-0.9h11.9c6.1,0,9-1.3,12.2-3.1c7-3.9,13-10.6,16.4-18.3
			C172.9,262.2,172.1,261.7,171.4,261.2" />
			<path id="XMLID_22_" class="st0" d="M152.3,270.7c3-4.9,5.8-9.2,12.5-12.8c-0.7-0.4-1.7-1.1-2.2-1.5c-2.6,1.1-5.2,3.4-7.4,5.7
			c-5,5.3-4.6,8.3-9.9,10.4c-1.3,0.5-3,1.1-5.1,1.5c-1.2-3.8-4.3-7.6-7.6-7.6c-2.3,0-4.9,1.2-8,2.5c-3.6,1.6-6.8,3.3-7.8,4l1.4,1.9
			c1.1-0.6,4.1-2.1,7.2-3.4c2.6-1.1,5-2,6.7-2c2.6,0,4.3,3,5.2,5.3c-3.4,0.8-9,1-10.7,1c-0.8,0-1.1,0.1-1.3,0.4
			c-0.2,0.2-0.5,0.6-0.6,1.2l-0.2,0.9h1.8c9.5,0,18.4-1.5,24.1-5c0.8,0.2,1.5,0.4,2.4,0.4c3.3,0,6.7-1.8,8.8-3.5
			c0.8-0.6,0.9-1.1,0.9-1.7c0-0.3,0-0.5-0.1-0.8l-0.1-1c-3,2.4-5.6,4.2-8.7,4.2C153.1,270.9,152.6,270.8,152.3,270.7" />
		</g>
	</g>
</svg>