<?xml version="1.0" encoding="utf-8"?>
<!-- Generator: Adobe Illustrator 25.1.0, SVG Export Plug-In . SVG Version: 6.00 Build 0)  -->
<svg version="1.1" id="Layer_1" xmlns="http://www.w3.org/2000/svg" xmlns:xlink="http://www.w3.org/1999/xlink" x="0px" y="0px"
	 viewBox="0 0 200 87" style="enable-background:new 0 0 200 87;" xml:space="preserve">
<style type="text/css">
	.st0{fill:#FFFFFF;}
</style>
<path class="st0" d="M79.2,87c-6.8-0.4-11.9-3.2-14.9-8.2c-2-3.4-2.6-7.8-1.7-12.4c1-5,4.5-9.6,9.7-12.8c3-1.9,5.6-3,10.9-4.9
	c1.3-0.5,2.5-0.9,2.6-1c0.1-0.1,0.1-0.4,0.1-1.3c-0.2-2.8,0.3-7,1.1-10.1c1.3-5.2,3.8-9.4,7.2-12c2.4-1.8,5.5-3.2,8.7-3.8
	c1.7-0.3,4.6-0.3,6.2,0c7,1.4,10.9,6.8,9.3,12.8c-0.3,1.3-1.3,3.4-2.2,4.5c-2.2,3-5.6,5.6-10.3,8.1c-0.6,0.3-2.5,1.3-4.3,2.1
	c-1.8,0.9-3.3,1.6-3.4,1.7c-0.1,0.1-0.1,0.4,0.1,1.4c0.9,4.5,2.4,8.3,4.9,12.5c1,1.7,2.4,3.8,2.6,3.9c0.2,0.1,1.2-1.4,1.8-2.9
	c0.8-1.9,1.2-4.3,1-5.5c-0.2-0.9-0.6-1.8-1.2-2.4c-0.3-0.3-0.5-0.5-0.5-0.6c0,0,2.4-0.1,5.3-0.1l5.3,0l0,0.7c0,0.9-0.4,2.9-0.7,4.2
	c-1,3.9-2.9,7.2-6.2,10.9c-0.4,0.4-0.7,0.8-0.7,0.9s0.5,0.7,1.2,1.3c4.1,4,11.5,8.7,17.5,11c0.6,0.2,1.1,0.5,1.1,0.5
	c0,0.1-3.5,0.1-10.1,0.1l-10.1,0l-0.6-0.3c-1.2-0.7-3.8-2.8-6.3-5.1c-0.5-0.5-1-0.9-1.1-0.9s-0.7,0.3-1.3,0.8
	c-3.2,2.1-7.1,4.1-10.4,5.1C85.9,86.7,82.8,87.2,79.2,87L79.2,87z M87.7,78.2c1.5-0.3,3.4-0.8,5.1-1.5c1.7-0.7,3.8-1.7,3.9-1.9
	c0-0.1-0.4-0.7-0.9-1.5c-2.3-3.3-4.9-8-6.5-12.3c-0.6-1.6-1.8-5-2-5.9c-0.1-0.3-0.2-0.6-0.3-0.6c-0.2-0.1-2.2,0.9-3.8,2
	c-5.9,3.9-8.8,8.7-8.1,13.7c0.3,2.2,1,3.8,2.3,5.2C79.7,78,83.4,79,87.7,78.2z M97.8,43.4c2.2-1.3,5.7-4.4,7.6-6.8
	c2.5-3.1,3.8-6,3.8-8.3c0-1.3-0.2-1.9-0.8-2.6c-0.6-0.6-1.3-0.9-2.4-0.9c-3.2,0-6.6,3.7-8.1,8.8c-0.8,2.6-0.9,4-0.9,7.1
	c0,2.4,0,2.9,0.2,2.9C97.3,43.7,97.5,43.6,97.8,43.4z M149.9,86.9c-5.2-0.5-8.6-1.3-12.5-2.8c-5.3-2.1-8.5-4.7-11.3-8.9
	c-0.8-1.3-2.2-3.9-2.7-5.4c-2.4-6.5-2.9-14.8-1.5-23.4c1.5-8.7,4.8-17.1,9.3-23.6c3-4.2,7.4-8.7,11.9-12.1c7.5-5.6,16.1-9,25.7-10.2
	c2.9-0.4,4.5-0.5,8-0.5c5.2,0,9.2,0.4,14.4,1.4c3.3,0.7,8.6,2.1,8.8,2.4c0.1,0.1-3.3,10.9-3.5,11.1c0,0-0.6-0.3-1.1-0.8
	c-4.7-3.8-9.6-6.1-14.6-6.8c-1.6-0.2-4.6-0.2-6.1,0c-6.9,1.1-13.4,5.5-19.1,13.2c-1.9,2.5-3.9,5.8-5.5,8.9c-2.2,4.2-3.6,8-5.1,13
	c-4.8,15.9-5,27.1-0.7,33.1c1.8,2.5,4.4,4.1,7.6,4.7c1.9,0.3,6.5,0.1,6.9-0.3c0.1-0.1,2.3-7.1,5-15.5c4.4-13.9,4.8-15.5,4.9-16.3
	c0.1-1.1-0.1-2-0.6-2.9c-0.4-0.8-1.6-2-2.5-2.5c-0.4-0.2-0.7-0.4-0.7-0.5s7.3-0.1,16.3-0.1c9,0,16.3,0,16.3,0.1c0,0-0.4,0.3-0.9,0.5
	c-2.5,1.2-4.4,2.9-5.5,5.2c-0.2,0.5-2.3,6.9-5.4,16.7l-5,15.9l-1.4,0.7c-5.9,2.8-13,4.8-20.2,5.7C157.7,86.9,151,87,149.9,86.9
	L149.9,86.9z M0,85.8c0-0.1,0.2-0.2,0.5-0.4c1.8-1,3.8-3.1,4.6-4.9C5.3,79.9,27.7,8.8,28.2,6.9c0.1-0.3,0.2-1,0.2-1.5
	c0-1.6-0.5-2.7-1.6-3.7c-0.3-0.3-0.6-0.6-0.6-0.6c0-0.1,39-0.1,40.8,0c3.9,0.3,7.8,1.3,10.7,2.8c5.1,2.6,8.1,6.5,9,11.6
	c0.3,1.4,0.3,4.6,0.1,6.2c-0.9,6.3-3.7,13-7.6,17.8C72.9,47.3,62.6,52.4,50,53.7c-4,0.4-9,0.5-12.6,0.3c-1-0.1-1.9-0.1-1.9-0.1
	c-0.1,0.1-8.2,26-8.3,26.5c-0.3,1.8,0.6,3.8,2.2,4.8c0.3,0.2,0.5,0.4,0.5,0.5C29.8,85.9,0.1,85.9,0,85.8L0,85.8z M44.3,47.4
	c2.9-0.5,5.5-1.6,8-3.4c1.2-0.9,3.7-3.3,4.7-4.7c2.6-3.5,4.5-7.5,6-12.9c1-3.4,1.4-6,1.4-8.7c0-2.1-0.2-3.3-0.7-4.7
	c-0.8-2.1-2.4-3.7-4.4-4.5c-1.7-0.7-3.2-0.9-6.7-0.8l-2.7,0l-6.2,19.7c-3.4,10.9-6.2,19.8-6.2,19.8c0,0.1,0.5,0.2,1,0.2
	c0.5,0.1,1,0.1,1.1,0.2C40,47.7,43.5,47.5,44.3,47.4L44.3,47.4z"/>
</svg>
