<?xml version="1.0" encoding="utf-8"?>
<!-- Generator: Adobe Illustrator 25.1.0, SVG Export Plug-In . SVG Version: 6.00 Build 0)  -->
<svg version="1.1"
	 id="svg3016" inkscape:version="0.48.5 r10040" sodipodi:docname="ToyotaLogoRedVer.png" xmlns:cc="http://creativecommons.org/ns#" xmlns:dc="http://purl.org/dc/elements/1.1/" xmlns:inkscape="http://www.inkscape.org/namespaces/inkscape" xmlns:rdf="http://www.w3.org/1999/02/22-rdf-syntax-ns#" xmlns:sodipodi="http://sodipodi.sourceforge.net/DTD/sodipodi-0.dtd" xmlns:svg="http://www.w3.org/2000/svg"
	 xmlns="http://www.w3.org/2000/svg" xmlns:xlink="http://www.w3.org/1999/xlink" x="0px" y="0px" viewBox="0 0 935.4 672.3"
	 style="enable-background:new 0 0 935.4 672.3;" xml:space="preserve">
<style type="text/css">
	.st0{fill-rule:evenodd;clip-rule:evenodd;fill:#FFFFFF;}
</style>
<sodipodi:namedview  bordercolor="#666666" borderopacity="1" fit-margin-bottom="0" fit-margin-left="0" fit-margin-right="0" fit-margin-top="0" gridtolerance="10" guidetolerance="10" id="namedview3018" inkscape:current-layer="svg3016" inkscape:cx="1000.0833" inkscape:cy="363.3613" inkscape:pageopacity="0" inkscape:pageshadow="2" inkscape:window-height="706" inkscape:window-maximized="1" inkscape:window-width="1366" inkscape:window-x="-8" inkscape:window-y="-8" inkscape:zoom="0.48177201" objecttolerance="10" pagecolor="#ffffff" showgrid="false">
	</sodipodi:namedview>
<path id="path3032" inkscape:connector-curvature="0" class="st0" d="M444.3,423.6c-36.2-22.5-62.9-100.1-62.9-192.4
	c0-3.4,0-6.7,0.1-10.1l0,0l0,0l0,0C281,205.5,208.2,162.5,206.3,111.6l0,0l-0.3,0.6l0,0c-24.6,30.4-38.7,65.5-38.7,102.9
	c0,110.1,121.8,200.4,276.3,208.3l0,0L444.3,423.6L444.3,423.6L444.3,423.6L444.3,423.6z M120.8,223.1C120.8,99.9,275.3,0,466,0
	c190.6,0,345.2,99.9,345.2,223.1S656.6,446.3,466,446.3C275.3,446.3,120.8,346.4,120.8,223.1L120.8,223.1L120.8,223.1L120.8,223.1
	L120.8,223.1z M466,32.2c36.8,0,68.1,55.4,79.7,132.7l0,0l0-0.1l0,0c71.6-11.1,121.7-36.6,121.7-66.3c0-39.8-90.2-72.1-201.5-72.1
	c-111.3,0-201.5,32.3-201.5,72.1c0,29.7,50.1,55.2,121.7,66.3l0,0l0,0.1l0,0C397.9,87.6,429.2,32.2,466,32.2L466,32.2L466,32.2
	L466,32.2L466,32.2z M488.3,423.5c154.5-8,276.4-98.2,276.4-208.3c0-37.4-14.1-72.5-38.7-102.9l0,0l-0.3-0.6l0,0
	c-1.9,50.9-74.6,93.9-175.3,109.6l0,0l0,0l0,0c0.1,3.3,0.1,6.7,0.1,10.1c0,92.3-26.7,169.9-62.9,192.4l0,0L488.3,423.5L488.3,423.5
	L488.3,423.5L488.3,423.5z M466,170.6c16.5,0,32.5-0.7,47.8-2l0,0l0,0l0,0c-7.6-49.6-26.2-84.5-47.8-84.5c-21.7,0-40.2,35-47.8,84.5
	l0,0l0,0l0,0C433.4,169.9,449.5,170.6,466,170.6L466,170.6L466,170.6L466,170.6L466,170.6z M466,354.1c27.7,0,50.3-57.2,51.5-129
	l0,0l0.1,0.1l0,0c-16.7,1.5-34,2.3-51.7,2.3c-17.7,0-35-0.8-51.7-2.3l0,0l0.2-0.1l0,0C415.7,296.9,438.3,354.1,466,354.1L466,354.1
	L466,354.1L466,354.1L466,354.1z"/>
<g id="g3065" transform="matrix(1.3176826,0,0,1.3176826,-1860.9052,14.947236)">
	<path id="path3034" inkscape:connector-curvature="0" class="st0" d="M1766.7,436.1c0-34.7,28.1-62.8,62.8-62.8
		c34.7,0,62.8,28.1,62.8,62.8c0,34.7-28.1,62.8-62.8,62.8C1794.8,498.9,1766.7,470.8,1766.7,436.1L1766.7,436.1L1766.7,436.1
		L1766.7,436.1z M1829.5,475.8c19.4,0,35.1-17.8,35.1-39.8c0-22-15.7-39.8-35.1-39.8c-19.4,0-35.1,17.8-35.1,39.8
		S1810.1,475.8,1829.5,475.8L1829.5,475.8L1829.5,475.8L1829.5,475.8z"/>
	<polygon id="polygon3036" class="st0" points="1963.6,496 1937.1,496 1937.1,399.4 1937.2,399.4 1900.2,399.4 1900.2,377.6 
		2000.5,377.6 2000.5,399.4 1963.7,399.4 1963.6,399.4 1963.6,399.4 1963.6,399.4 	"/>
	<path id="path3038" inkscape:connector-curvature="0" class="st0" d="M2032.5,469.4L2032.5,469.4l-10.2,26.7h-30.9l48.9-118.5h16.5
		h16.5l48.9,118.5h-30.9l-10.2-26.6l0,0h-24.2H2032.5L2032.5,469.4L2032.5,469.4z M2056.8,449.4h16.7l0,0l-16.5-43.4h-0.2
		l-16.5,43.4l0,0H2056.8L2056.8,449.4L2056.8,449.4L2056.8,449.4z"/>
	<polygon id="polygon3040" class="st0" points="1475.7,496 1449.2,496 1449.2,399.4 1449.3,399.4 1412.3,399.4 1412.3,377.6 
		1512.6,377.6 1512.6,399.4 1475.7,399.4 1475.7,399.4 1475.7,399.4 1475.7,399.4 	"/>
	<path id="path3042" inkscape:connector-curvature="0" class="st0" d="M1519.4,436.1c0-34.7,28.1-62.8,62.8-62.8
		c34.7,0,62.8,28.1,62.8,62.8c0,34.7-28.1,62.8-62.8,62.8C1547.5,498.9,1519.4,470.8,1519.4,436.1L1519.4,436.1L1519.4,436.1
		L1519.4,436.1z M1582.2,475.8c19.4,0,35.1-17.8,35.1-39.8c0-22-15.7-39.8-35.1-39.8c-19.4,0-35.1,17.8-35.1,39.8
		S1562.8,475.8,1582.2,475.8L1582.2,475.8L1582.2,475.8L1582.2,475.8z"/>
	<polygon id="polygon3044" class="st0" points="1705.8,496 1705.8,496 1719.3,496 1719.3,451.6 1719.3,451 1765.4,377.6 
		1734.5,377.6 1705.8,427.4 1677.1,377.6 1646.2,377.6 1692.4,451 1692.4,451.6 1692.4,496 	"/>
</g>
</svg>
